<?xml version="1.0" encoding="UTF-8"?>
<svg id="Calque_2" data-name="Calque 2" xmlns="http://www.w3.org/2000/svg" viewBox="0 0 193 165.04">
  <defs>
    <style>
      .cls-1 {
        fill: #fff;
      }
    </style>
  </defs>
  <g id="Calque_2-2" data-name="Calque 2">
    <g id="Calque_1-2" data-name="Calque 1-2">
      <path class="cls-1" d="m116.72,105.19c1.53-.86,3.05-1.73,4.58-2.59l.09.13c-.48.3-.96.61-1.44.91-2.42,1.5-4.85,2.98-7.27,4.49-.61.38-1.17.83-1.76,1.24-.37.06-.78.05-1.11.21-1.43.71-2.84,1.47-4.24,2.22-.29.15-.54.37-.82.57.6.14,1.1.25,1.7.39.83-.67,2.2-.71,3.01-1.77.35-.47.9-.79,1.36-1.17-.16.33-.32.66-.56,1.16.54-.25.91-.42,1.38-.64-.03.21-.05.34-.08.57.32-.15.59-.28.88-.42-.2-.19-.38-.35-.45-.42,3.94-2.33,7.86-4.65,11.8-6.98-.02.15-.03.27-.04.39.07,0,.13,0,.18-.03,2.16-1.3,3.7-3.19,5.14-5.2.38-.53.96-.91,1.53-1.27-.79,2.07-2.17,3.65-3.73,5.16.25-.14.5-.29.74-.44.23-.14.46-.3.72-.39-1.55,1.39-3.1,2.78-4.66,4.16.08.11.16.21.24.32,2.09-1.03,4.27-1.91,6.23-3.14,1.92-1.21,3.57-2.85,5.84-3.46-.03.1-.11.32-.23.71.63-.3,1.16-.51,1.66-.78,2.42-1.32,4.88-2.58,7.22-4.02,2.81-1.73,5.02-3.99,5.56-7.46.11-.69.36-1.35.54-2.04-1.29.97-2.53,1.91-3.76,2.84-.08-.07-.15-.15-.23-.22,1.34-1.51,2.69-3.02,4.03-4.53-.08-.07-.16-.15-.24-.22-1.02.99-2.07,1.95-3.05,2.97-1.51,1.58-2.98,3.2-4.46,4.81-.09.1-.23.16-.48.11l1.39-1.49-.1-.13c-.57.46-1.14.91-1.7,1.37-.04-.05-.08-.09-.13-.14.68-.64,1.36-1.27,2.04-1.91,1.68-1.59,3.39-3.16,5.04-4.78.79-.78,1.49-1.66,2.22-2.5.08-.09.12-.23.12-.35,0-.48-.05-.96-.09-1.51-.08.02-.29.07-.5.12,1.34-.67.91-2.08,1.37-3.16.08.33.17.65.27,1.05,1.19-1.12,2.21-2.25,2.24-3.93.03-1.62-.02-3.24-.04-4.86,0-1,0-2,.2-3,.68,2.54.36,5.12.62,7.74,2.54-3.46,5.02-6.95,6.3-11.11l-.21-.12c-.94,1.74-1.89,3.48-2.83,5.21l-.28-.15c1.11-2.12,2.23-4.24,3.34-6.36-.08-.04-.16-.09-.24-.13-.32.49-.64.98-.96,1.47l-.13-.07c.81-1.89,1.61-3.78,2.42-5.68.06,0,.12-.02.18-.04-.06.73,0,1.5-.2,2.18-.27.88-.54,1.7-.21,2.62,1.53-1.55,1.32-3.32.83-5.17-.13-.5-.02-1.06.19-1.63.23,1.05.47,2.1.7,3.14.07.02.14.03.21.05.41-1.61.82-3.22,1.3-5.08.15.52.24.8.34,1.15.06-.31.11-.55.16-.79.1,0,.19.02.29.04-.28,2.05-.55,4.11-.83,6.16.05.02.1.03.16.05.36-.95.71-1.9,1.07-2.86-.24,1.7-.39,3.41-1.46,4.87-.27.37-.07,1.09-.34,1.44-.72.93-.39,2-.56,2.99-.16.89-.05,1.83-.09,2.75-.02.43-.13.85-.2,1.28.08.04.17.08.25.12.48-1.15.96-2.31,1.44-3.46h-.02c.72-1.49,1.44-2.99,2.16-4.5-.12-.06-.25-.11-.37-.17-.35.82-.69,1.63-1.04,2.45-.05-.02-.09-.04-.14-.06.93-2.63,1.87-5.26,2.8-7.89.12.04.23.08.35.12-.45,1.24-.9,2.48-1.35,3.71.15.05.3.11.46.16.86-2.4,1.72-4.8,2.58-7.2.12.04.24.09.36.13-.17.6-.3,1.21-.51,1.8-1.59,4.4-3.24,8.78-4.77,13.2-.35,1.02-.28,2.18-.41,3.34.2-.09.32-.14.5-.21-.07.36-.14.65-.2.95,1.38-2.37,2.41-4.85,2.66-7.88.36.47.52.67.69.88.03-.02.09-.04.12-.09.84-1.38,1.36-2.85,1.78-4.42.41-1.55,1.21-3,2.01-4.43-1.39,4.13-2.78,8.26-4.17,12.39.14.05.27.09.41.14.97-3.92,3.19-7.39,4.01-11.41.07.65.11,1.34.24,2.01.14.69.37,1.37.56,2.06.08-.03.16-.05.24-.08.17-.5.34-.99.5-1.49.05,0,.11.02.16.04v.99c.25-.32.42-.53.59-.74.05.02.1.04.15.05-.12.52-.25,1.04-.41,1.72,1.34-.86,1.53-2.03,1.62-3.25.13-1.97-.16-3.84-1.06-5.62-.28-.55-.36-1.2-.42-1.87.16.17.38.32.48.52.96,1.92,1.61,3.91,1.52,6.09-.04.9-.13,1.8-.11,2.7.02.97-.03,1.92.62,2.82.39.53.32,1.4.51,2.42.37-.41.69-.64.86-.96.77-1.46,1.46-2.97,2.27-4.41.15-.26.68-.32,1.17-.52-.31.72-.55,1.42-.91,2.06-.68,1.23-1.46,2.42-2.12,3.66-.19.35-.13.84-.18,1.26-.07.59-.13,1.17-.2,1.82.28-.34.53-.65.78-.96.1.02.21.05.31.07-.1.7-.21,1.4-.32,2.13.98.27.17,1.01.34,1.71.48-.67.88-1.23,1.28-1.79l.18.09c-.38.85-.77,1.7-1.15,2.56.05.03.09.05.14.08.24-.28.49-.56.73-.83-2.07,5.63-4.06,11.28-7.27,16.42-3.2,5.12-6.89,9.86-10.68,14.54.08.03.15.06.23.09-.08.34-.04.8-.25,1-1.56,1.48-3.2,2.88-4.74,4.38-.65.63-1.12,1.45-1.74,2.26.34-.05.6-.1,1.05-.17-4.14,2.96-7.21,6.8-10.75,10.22.42-.18.85-.35,1.27-.53.02.04.04.08.06.12-.17.13-.31.3-.5.38-2.35,1.01-3.98,2.93-5.83,4.58-2.45,2.2-4.88,4.44-7.46,6.49-1.46,1.16-3.2,1.97-4.77,3-.78.51-1.48,1.13-2.19,1.72-2.77,2.3-5.5,4.64-8.33,6.87-.59.46-1.53.48-2.31.7-.36.1-.78.11-1.06.32-3.65,2.68-7.28,5.39-10.92,8.09-.12.09-.23.2-.29.48.59-.1,1.19-.21,2.1-.37-1.05.89-1.81,1.78-2.77,2.31-3.94,2.21-7.87,4.46-12.35,5.48-5.32,1.21-10.59,2.73-15.96,3.57-4.51.71-9.14.71-13.73.91-2.89.13-5.79.07-8.68.05-.33,0-.66-.33-1-.47-.45-.19-.91-.47-1.37-.48-3.54-.04-7.08-.02-10.61-.03-.5,0-.99-.07-1.54-.22,1.08,0,1.09-.8,1.24-1.57,1.67,0,3.34.03,5.01-.02.55-.02,1.1-.22,1.65-.34,0-.14,0-.27-.02-.41-.41-.11-.81-.28-1.22-.31-4.1-.34-8.21-.56-12.3-1.01-3.96-.43-7.96-.8-11.81-1.74-3.58-.88-6.99-2.48-10.46-3.81-.37-.14-.62-.58-.93-.88.07-.11.14-.22.21-.34.44.12.9.19,1.31.37,4.1,1.79,8.4,2.77,12.85,3.17,1.28.11,2.56.19,3.84.28.01-.09.02-.18.03-.27-.24-.19-.48-.39-.73-.58.03-.06.05-.12.08-.18.86.23,1.72.46,2.57.69.04-.14.08-.28.11-.42-.89-.22-1.79-.41-2.67-.67-.6-.17-1.16-.46-1.74-.66-.51-.18-1.02-.36-1.55-.48-1.35-.3-2.71-.51-4.05-.85-.36-.09-.64-.51-.94-.8-.3-.27-.53-.68-.87-.83-2.69-1.17-4.73-3.27-6.96-5.04-1.48-1.19-2.47-2.99-3.73-4.58-.82.5-1.24-.05-1.49-.84-.31-.98-.68-1.85-1.54-2.58-.58-.5-.87-1.4-1.14-2.17-1.03-2.93-2.18-5.84-2.96-8.84C.57,123.06.22,117.91.01,112.78c-.08-1.97.2-3.96.33-5.94.04-.62.28-1.04.91-1.33.32-.15.62-.71.64-1.1.08-1.41.04-2.83.06-4.24,0-.34.06-.67.24-.99v4.93c.61-4.57.84-9.18,1.69-13.71.11,0,.22.01.33.02v1.45l.35.06c.2-1.06.42-2.12.61-3.18.14-.79.22-1.59.34-2.38.08-.49.05-1.03.77-1.15.17-.03.29-.52.39-.81.93-2.99,1.75-6.01,2.8-8.96.68-1.89,1.71-3.65,2.57-5.48.34-.73.65-1.47.94-2.21.32-.83.57-1.7,1.69-1.78.13-.01.25-.26.36-.41,1.23-1.61,2.52-3.18,3.68-4.85,1.51-2.17,2.92-4.42,4.38-6.63-.11-.09-.22-.17-.33-.26-.86.94-1.72,1.88-2.58,2.81-.09-.09-.19-.18-.28-.27,1.4-1.44,2.8-2.88,4.21-4.32-.06-.07-.13-.13-.19-.2-2.52,2.44-5.04,4.87-7.57,7.31-.11-.08-.23-.16-.34-.25.18-.36.28-.81.56-1.07,1.74-1.6,3.5-3.18,5.29-4.73,3.25-2.83,6.51-5.64,9.77-8.45,1.19-1.03,2.35-2.05,3.89-2.61.87-.32,1.63-1.01,2.38-1.61,1.82-1.46,3.58-3,5.81-3.85.38-.15.69-.48.93-.88-.3.15-.59.3-.89.46-.04-.04-.09-.08-.13-.13.78-.85,1.51-1.75,2.35-2.53,1.17-1.09,2.62-1.93,3.6-3.16,1.41-1.77,3.49-2.36,5.23-3.51,1.61-1.07,3.38-1.89,5.04-2.88.76-.45,1.41-1.08,2.14-1.58.23-.16.58-.14.87-.2.05.08.11.15.16.23.06-.22.13-.44.15-.51.49-.16.9-.25,1.26-.43,5.97-2.99,11.92-6.02,17.9-8.99,1.75-.87,3.58-1.59,5.39-2.32.39-.16.88-.05,1.31-.14.18-.04.32-.26.6-.52.29.11.7.3,1.06-.41.19-.36,1.01-.41,1.55-.56.4-.11.98-.04,1.2-.29.99-1.14,2.53-.95,3.68-1.65.25-.15.55-.23.84-.29.74-.16,1.51-.24,2.24-.43,1-.27,1.99-.59,2.96-.95.8-.3,1.53-.81,2.34-1.03,1.27-.34,2.59-.47,3.87-.77,2.87-.67,5.71-1.52,8.6-2.03,2.68-.47,5.42-.72,8.14-.85,3.88-.18,7.78-.32,11.67-.19,4.07.13,8.14.53,12.2.97,1.09.12,2.13.81,3.18,1.31-1.42-.22-2.83-.46-4.25-.66-7.26-.98-14.55-1.18-21.84-.54-4.6.4-9.22.9-13.76,1.73-5.5,1.01-10.82,2.76-16,4.87-6.18,2.53-12.39,4.98-18.46,7.73-3.81,1.73-7.42,3.91-11.09,5.94-2.38,1.32-4.71,2.73-7.06,4.11-.58.35-1.12.77-1.57,1.35.6-.27,1.19-.57,1.81-.81.41-.16.86-.25,1.29-.34.42-.09,1.15.21.89-.73,0-.01.46-.25.61-.18.89.43,1.73.25,2.56-.14,4.58-2.17,9.16-4.34,13.74-6.54,7.3-3.5,14.9-6.23,22.58-8.76.69-.23,1.31-.27,2.03,0,.61.23,1.36.27,2,.15,1.25-.25,2.47-.67,3.77-.9-.25.18-.5.36-.75.53.02.08.03.15.05.23,1.62-.26,3.24-.51,4.86-.78,3.68-.61,7.35-1.24,11.02-1.85.05,0,.12.04.39.13-.44.16-.7.29-.98.35-2.59.55-5.18,1.12-7.78,1.63-3.75.73-7.52,1.35-11.25,2.15-2.31.5-4.61,1.15-6.84,1.94-2.03.72-3.95,1.72-5.92,2.6-.84.38-1.67.76-2.51,1.14.02.1.03.2.05.3.44-.03.91.03,1.3-.12.85-.34,1.64-.83,2.49-1.19.63-.27,1.31-.44,1.97-.66,4.22-1.41,8.44-2.83,12.66-4.24.29-.1.6-.15.97-.05-.23.12-.47.24-.71.36.1.08.21.18.42.36-2.18.64-4.25,1.25-6.32,1.85.03.1.06.21.09.31,2.8-.68,5.59-1.37,8.48-2.07-.35-.09-.62-.2-.91-.23-.29-.04-.59,0-.91-.1,1.54-.9,3.25-1.14,4.97-1.35.03.1.05.2.08.3-1.24.28-2.49.56-3.73.84,0,.03.01.06.02.08,6.29-.94,12.57-1.88,18.86-2.82v-.03c-3.37.29-6.76.58-10.14.88-.01-.07-.03-.14-.04-.21.29-.07.57-.16.87-.2,9.24-1.25,18.49-1.08,27.75-.18h-3.32v.1c3.12.35,6.26.64,9.37,1.08,3.12.44,6.27.83,9.02,2.57-.02.09-.04.18-.06.26-.62-.14-1.23-.32-1.85-.4-.52-.07-1.05.01-1.58-.02-.54-.03-1.08-.08-1.6-.18-.72-.14-1.44-.33-2.16-.5,0,.53-.43.55-1.9,0,.4-.02.61-.03.83-.05-.69.05-1.55-.86-2.01.15,1.79.71,3.53,1.53,5.35,2.06,1.52.44,3.14.75,4.72.74,2.52,0,4.65,1.03,6.8,2.11-.9-.33-1.79-.73-2.71-.97-1.2-.31-2.43-.52-3.65-.72-.19-.03-.43.18-.65.28.14.22.23.54.44.65.65.34,1.37.56,2.02.89,3.2,1.63,6.4,3.27,9.58,4.94.49.26.9.68,1.26,1.16-.69-.12-1.39-.23-2.08-.35-.04.07-.07.14-.11.21.14.19.25.41.42.56.6.53,1.24,1.02,1.83,1.57,2.01,1.87,4.08,3.62,5.54,6.07,1.7,2.86,3.97,5.37,5.86,8.12,1.69,2.45,3.22,5.01,4.73,7.59-.76-.07-1.23-.37-1.44-1.13-.14-.5-.58-.92-.8-1.41-1.7-3.89-4.24-7.22-7.06-10.32-3.54-3.89-7.44-7.39-12.18-9.82-.8-.41-1.57-.87-2.36-1.28-.11-.06-.29.02-.67.05.36.38.57.68.84.9,1.19.94,2.36,1.91,3.61,2.77.4.28,1,.26,1.49.43.72.25,1.57.24,1.8,1.34.1.47.88.79,1.34,1.19,1.04.91,2.08,1.84,3.11,2.75-.06.06-.11.12-.17.18-1.36-1.16-2.69-2.35-4.09-3.44-.42-.33-.72-1.3-1.61-.62-.07.05-.41-.26-.62-.4-3.05-2.1-6.11-4.18-9.65-5.37-2.11-.71-4.25-1.35-6.38-2.02-.03.09-.06.18-.1.27,1.75,1.49,3.51,2.99,5.21,4.43-1.15-.07-1.09-.18-2.25-.8-.8-.43-1.79-.51-2.69-.75-.04.09-.09.17-.13.26.69.78,1.37,1.56,2.06,2.34l-.09.14c-.63-.52-1.27-1.05-1.9-1.57-.06.07-.13.15-.19.22.25.21.51.42,1.01.83-2.94-.54-5.6-1.02-8.27-1.51-.03.13-.06.25-.1.38,1.65.42,3.3.84,4.95,1.26l-.06.33c-.87-.15-1.73-.29-2.6-.44-.05.09-.1.18-.15.27,1.11.65,2.23,1.29,3.37,1.96-.1.04-.26.11-.65.27.46.3.82.54,1.19.78-.06.08-.13.17-.19.25-.38-.19-.79-.35-1.15-.58-1.04-.68-2.04-1.42-3.1-2.08-.28-.17-.74-.23-1.06-.13-.76.23-.78.26-1.31-.47-.1-.14-.32-.2-.5-.27-1.36-.5-2.69-1.09-4.08-1.45-1.41-.37-2.87-.63-4.33-.71-2.11-.12-4.24-.03-6.35-.18,2.7.2,5.4.4,8.09.6.03.1.07.21.1.31-.13.04-.26.08-.48.14,1.95.57,3.76,1.09,5.55,1.61-.08.04-.18.09-.55.28,1.22.29,2.25.4,3.15.79.92.4,1.72,1.07,2.54,1.67,1.11.81,2.15,1.72,3.3,2.47.83.54,1.78.89,2.67,1.32.2.1.39.2.58.3-.03.08-.07.17-.1.25-.44-.17-.88-.34-1.32-.51-.04.05-.08.09-.12.14.46.48.91.96,1.28,1.34-.47.38-.89.72-1.29,1.04-2.01-1.39-4.14-2.86-6.28-4.33-1.59-1.09-3.35-1.7-5.23-2.08-.47-.1-.83-.68-1.29-.95-.49-.3-1.01-.58-1.56-.73-1.86-.51-3.71-1.15-5.6-1.37-2.5-.29-5.03-.25-7.55-.33-1.26-.04-2.52-.1-3.77,0-1.21.09-2.39.41-3.6.55-2.07.24-4.15.36-6.21.63-1.32.17-2.62.5-3.92.82,1.41.32,1.44.35,1.44,1.56-.12-.19-.23-.38-.38-.62.02,0-.05-.03-.11-.02-2.03.26-4.16-.9-6.13.46.47-.03.93-.06,1.38-.09,0,.05.02.1.03.15-.14.06-.27.18-.41.18-.83.03-1.58.21-1.95,1.05-.3.68-.83.54-1.38.49-.42-.04-.85,0-1.32,0,1.78,1.42,3.43-.2,5.17.09-.76.26-1.52.53-2.28.79,0,.07.01.15.02.22.35,0,.71.05,1.05,0,5.57-1,11.18-1.67,16.84-1.89,3.73-.14,7.45-.06,11.17.71-.31.03-.61.1-.92.09-2.86-.1-5.71-.33-8.57-.31-5.58.04-11.15.36-16.64,1.51-.4.08-.79.19-1.25.52,1.03.48,2.06.97,3.09,1.45l-.11.24c-.38-.13-.75-.28-1.14-.38-1.17-.3-2.32-.7-3.51-.82-.63-.06-1.33.34-1.98.58-1.8.68-3.58,1.39-5.36,2.19.5-.12,1-.28,1.51-.34.32-.04.85-.45.92.33,0,.03.35.06.53.04,5.67-.44,10.72,1.28,15.35,4.45,1.18.81,2.48,1.46,3.66,2.29.99.7,1.96,1.47,2.81,2.33,2.17,2.2,4.28,4.45,6.38,6.71.4.43.67.99.85,1.63-.84-.92-1.68-1.83-2.52-2.75-.1.09-.21.18-.31.27.35.44.7.88,1.08,1.38.08.22.13.57.31.84.99,1.54,2.02,3.05,3.02,4.58.15.23.23.5.34.76-2.09-2.79-4.17-5.56-6.22-8.3.3.19.69.44,1.12.71-.08-1.28-3.14-4.2-5.32-5.15.55,1.29,1.5,2.5,2.83,3.63-.6-.18-1-.29-1.36-.4.06,3.53,2.73,5.45,4.75,7.79.05-.38-.27-1.08-.95-2.1h0c.37.31.83.55,1.08.94.4.6.66,1.29.83,2.01l-.46-.78s-.08.04-.12.06c.93,2.07,1.98,4.09,2.77,6.21.81,2.18,1.36,4.45,2.21,6.66l.26-3.97h.09v3.39h.32v-6.64c.05-.02.11-.04.16-.05.1.33.31.67.3,1-.05,1.92.12,3.9-.32,5.73-.5,2.07-.41,4.04-.17,6.08.31,2.62.6,5.25.79,7.89.07.97-.14,1.97-.35,2.93-.09.41-.53.73-.93,1.05,1.75-2.41.56-4.88.19-7.29-.13-.87-.66-1.67-1.1-2.73-.46,2.76-.9,5.4-1.34,8.04-.07-.01-.15-.02-.22-.04.04-.41.14-.82.11-1.22-.06-1.19.57-2.39-.13-3.61-.23-.39-.06-1.09.09-1.6.62-2.11.36-4.26.28-6.39-.03-.85-.97-1.11-1.8-1.52-.35,2.34-.67,4.53-1,6.74-1.31.39-1.88-.6-2.53-1.82-.3.59-.54.92-.64,1.29-.49,1.83-.87,3.68-1.42,5.49-.7,2.3-1.19,4.75-2.36,6.79-2.11,3.67-4.09,7.47-7.06,10.61-.8.85-1.31,1.98-2.11,2.84-2.39,2.59-4.85,5.12-7.28,7.67-.23.24-.45.49-.61.82,1.7-.69,3.29-1.48,4.38-3.08.66-.97,1.59-1.75,2.34-2.66,1.11-1.35,2.2-2.71,3.26-4.1.89-1.16,1.71-2.37,2.7-3.73.06.4.2.68.11.83-.68,1.16-.64,2.57-1.67,3.66-1.23,1.28-2.14,2.88-3.18,4.34-.14.19-.21.43-.4.83,1.12-.16,1.8-.66,2.39-1.35.23-.08.46-.17.69-.25l-.04.03Zm-15.22,32.56c-.88.4-1.76.8-2.69,1.21.66.87,1.17.14,1.71-.05.23-.07.46-.15.68-.22,5.07-1.92,10.62-5.31,11.35-7.15-.56.27-1.05.48-1.51.75-1.01.59-2.01,1.22-3.02,1.83.46-.43.93-.85,1.39-1.28-.18-.08-.3-.07-.39,0-2.04,1.31-4.07,2.62-6.1,3.94-.49.32-.97.67-1.46,1.01l.04-.03h0Zm1.76-4.35c-.27-.04-.59-.18-.82-.1-1.79.69-3.56,1.43-5.33,2.16-.25.11-.48.28-.72.42.02.03.04.06.07.09,1.24-.34,2.48-.68,3.78-1.03-.11.17-.2.31-.33.54.49-.17.89-.32,1.52-.54-.43-.04-.62-.06-.81-.08.72-.12,1.13-1.2,2.17-.49.52.35.39-.58.48-.97,1.87-.19,3.53-.76,4.59-2.69-.41.24-.7.4-.99.57-1.2.71-2.4,1.41-3.6,2.12h0Zm19.37-15.56c.25-.23.47-.5.74-.69.65-.44,1.32-.85,1.99-1.27-1.18.37-2.37.75-2.93,1.98-.7.47-1.4.94-2.1,1.41.05.08.1.16.15.24,2.68-1.76,5.93-2.51,8.31-4.81-.94.23-1.83.55-2.72.89-.1.04-.25.21-.23.27.23.73-.4.69-.77.87-.81.39-1.63.74-2.45,1.11h.01Zm37.49-38.75c-.26.13-.59.2-.76.41-1.15,1.4-2.32,2.79-3.37,4.28-.84,1.19-1.99,2.28-1.87,3.98,1.54-1.97,3.03-3.98,4.45-6.03.58-.84,1.02-1.77,1.52-2.66.93-.72,1.29-1.78,1.71-2.8-.46,1-1.6,1.61-1.68,2.83h0Zm-81.4,44.39c.36-.12.7-.28,1.07-.35,3.06-.57,5.78-2.03,8.63-3.16.29-.11.55-.28.83-.42-.02-.05-.04-.1-.06-.15-2.49.8-4.97,1.6-7.46,2.4-.03-.09-.06-.19-.09-.28.64-.26,1.28-.51,1.92-.77v.04c-6.64,1.97-13.28,3.94-19.34,5.74,5.51-.23,11.14-2.44,16.79-4.62-.62.42-1.28.7-1.95.96-.31.12-.65.21-.31.64-1.31-.08-2.52.25-3.68.81.03.09.05.18.08.27,1.2-.37,2.39-.73,3.59-1.1h-.02ZM115.95,24.32c.67-.04,1.34-.05,2.01-.13,3.79-.47,7.57-1.03,11.36-1.43,2.38-.25,4.78-.3,7.17-.44-5.92-.64-11.81-.36-17.65.94l-.02-.27c.08-.11.16-.22.3-.41-4.78.11-9.52-.1-13.83,3,1.48-.13,2.75-.17,4-.36,1.27-.19,2.52-.53,3.8-.81-.02.2-.03.33-.03.4.73-.03,1.43-.03,2.12-.11.27-.03.52-.26.78-.39l-.02.02h0Zm17.59,79.83c-.37.08-.77.08-1.09.25-2.17,1.11-4.32,2.26-6.48,3.39.04.09.09.17.13.26.32-.12.64-.24.96-.36-2.17,1.47-4.4,2.81-6.55,4.27-2.07,1.41-4.05,2.94-6.06,4.43,1.66-1.02,3.87-1.07,4.97-3.13.35-.66,1.46-.91,2.22-1.35.05.07.09.14.14.2-.76.52-1.52,1.05-2.28,1.57.07.1.13.2.2.3.76-.37,1.53-.73,2.28-1.12,4.07-2.15,8.5-3.67,12.05-6.73.14-.12.22-.33.45-.69,1.02-.91,2.25-2.01,3.47-3.11-.06-.07-.11-.13-.17-.2-.11.05-.23.09-.34.14-.93.39-1.72,1.08-2.86.97-.38-.04-1.13.17-1.08.95l.03-.03h.01Zm-58.5-35.47c1.16-.56,2.31-1.12,3.47-1.68.04.07.08.13.12.2-.62.49-1.24.97-1.86,1.46.06.07.11.14.17.2,1.1-.84,2.2-1.68,3.46-2.65-.98.14-1.74.25-2.7.39,1.16-.68,2.14-1.26,3.12-1.84.16.41.28.73.39,1.02,1.27-.44,2.53-.87,3.78-1.31-1-.2-1.77.83-3.07.25.79-.31,1.36-.53,2.03-.8-.37-.12-.65-.22-1.01-.33.25-.27.41-.61.67-.7,1.82-.68,3.65-1.32,5.49-1.96.39-.14.79-.23,1.19-.34.03.09.05.18.08.26-.95.36-1.91.72-2.86,1.08.02.07.04.14.07.21,1.41-.12,2.83-.24,4.27-.37-.3.38-.56.7-.86,1.09,1.7.76,3.25,1.45,4.72,2.1-.12.05-.36.16-.61.27.4.28.92.21,1.15.43.87.88,1.82,1.77,2.41,2.83.57,1.05,1.26,1.42,2.36,1.37,2.73-.12,4.86,1.2,6.81,2.92.25.22.43.5.64.75-1.04-.55-1.9-1.32-2.9-1.83-2-1.02-2.39-1.05-3.39-.81.8.3,1.49.57,2.18.83-.02.06-.05.13-.07.19-.39-.04-.78-.08-1.46-.14.35.23.44.3.55.35,1.18.59,2.9.34,3.32,2.12,0,.03.13.02.17.06,1.7,1.4,3.42,2.78,5.08,4.22.48.41.79,1.01,1.1,1.42-1.18-.77-2.42-1.57-3.65-2.37l-.27.27c.16.46.32.93.49,1.4-.4.52-.62.34-1.01-.11-.74-.85-1.59-1.6-2.42-2.37-.1-.1-.31-.08-.59-.14.4.61.72,1.09,1.03,1.57-.05.04-.09.08-.14.12-.41-.2-.83-.4-1.43-.69.41.93.74,1.58.99,2.27.07.19-.04.52-.19.68-.09.1-.45.1-.59,0-.6-.42-.92-.23-1.15.4-.05.14-.24.24-.37.35-.04-.03-.08-.05-.12-.08.16-.32.33-.64.61-1.19-1-.23-1.9-.44-2.81-.65-.03.09-.06.18-.09.27.14.15.28.3.35.37-.53.43-1.03.83-1.67,1.36v-1.73c-.76.06-1.44.11-2.03.16-.08.42-.12.68-.17.95-.4-1.39-1.39-.97-2.1-.69-1.97.75-3.98,1.48-5.82,2.48-2.99,1.63-5.98,3.3-8.73,5.28-1.74,1.25-3.06,3.09-4.55,4.69-.2.22-.27.56-.39.84.07.04.13.07.2.11.86-.71,1.73-1.42,2.59-2.13.09.1.18.19.27.29-.47.3-.95.6-1.5.96,1.12.5,1.63,0,1.97-.65,1.31-2.48,3.46-4.12,5.69-5.64.87-.59,1.92-.9,2.93-1.36-2.09,1.52-4.13,3.01-6.17,4.5.05.07.09.14.14.21,3.65-1.75,7.29-3.51,10.94-5.26.04.06.07.13.11.19-.12.13-.23.26-.37.42.22.05.42.1.63.15-3.9.93-7,3.37-10.34,5.32.85-.39,1.7-.78,2.55-1.17-.34.39-.8.54-1.19.8-1.62,1.1-3.23,2.2-4.8,3.38-.48.36-.66.99-.3,1.78,4.61-3.88,9.7-6.71,15.41-8.37-5.92,2.26-11.49,5.07-15.88,10.2-.12-.86-.21-1.54-.3-2.22-.09-.03-.18-.06-.27-.09-.7,1.35-1.39,2.71-2.13,4.15-.22-1.83,1.19-2.93,1.75-4.38-1.41.01-2.17.62-2.24,2.06-.12-.4-.24-.79-.44-1.45-1.26,1.38-2.4,2.63-3.54,3.87.11-.47.26-1,.58-1.37.57-.65,1.25-1.2,1.87-1.8.74-.72,1.01-1.97.7-2.42.27-.54.48-.98.7-1.43l-.2-.14c-.16.26-.32.53-.48.79-.12-.05-.23-.1-.35-.16.04-.91.08-1.83.12-2.74h.18c.04.64.07,1.29.11,1.93.1.02.2.03.3.05l1.57-4.18c-.07-.05-.13-.1-.2-.15-.61.37-1.21.74-1.99,1.22.43-.74.79-1.36,1.16-1.98-2.44,1.22-3.13,3.3-2.89,5.85-.08-.02-.17-.04-.25-.06.07-1.24.14-2.49.22-3.73-.06-.03-.12-.06-.18-.1-.52.71-1.04,1.43-1.57,2.14-.08-.06-.16-.11-.24-.17.97-1.41,1.93-2.81,2.9-4.22l-.24-.24c-.28.16-.6.28-.84.49-.52.46-.93,1.08-1.51,1.43-1.21.73-2.31,1.46-2.63,2.97-.07.33-.47.59-.72.88-.16-.07-.31-.14-.47-.2.22-1.23.15-2.62.71-3.68,1.65-3.1,3.65-5.97,6.67-7.95.32-.21.62-.46.92-.7.07-.05.12-.12.21-.22-.21.04-.38.06-.55.09,4.6-2.9,9.74-4.67,14.79-7.08-1.5-.55-2.79.1-4.01.21-2.85.26-5.45,1.55-7.95,2.99-2.75,1.59-5.65,2.95-7.82,5.38-.31.35-.76.58-1.14.86-.09-.11-.18-.21-.27-.32,1.24-1.2,2.39-2.52,3.74-3.57,3.81-2.95,8.11-5.05,12.56-6.85.69-.28,1.41-.48,2.11-.72-.22-.11-.4-.1-.58-.07-2.03.4-3.94,1.05-5.77,2.06-2.44,1.34-4.99,2.48-7.46,3.78-1.43.75-2.7,1.71-3.43,3.25-.19.4-.59.69-.9,1.03-.05-.03-.09-.07-.14-.1l1.18-1.71c-.32-.02-.55.05-.67.2-.84,1.01-1.65,2.03-2.37,2.92-.05-.25-.15-.69-.24-1.12-.55,1.27-1.68,2.23-1.92,3.58.11.05.21.11.32.16.28-.4.55-.79.83-1.19l.18.08c-.32.93-.64,1.86-1.03,3.01-.91-1.42-.91-2.66-.9-3.91,0-.36-.09-.75-.23-1.09-.1-.23-.37-.38-.65-.66-.33.87-1.37,1.35-.55,2.31.04.05-.03.18-.04.28-.09,1.06-.26,2.11-.26,3.17,0,1.28.16,2.55.25,3.83.14.02.28.04.42.06.4-.84.8-1.68,1.19-2.52-.15.96-.58,1.81-.81,2.72-.2.8-.22,1.66-.22,2.5,0,.2.41.53.65.54.19,0,.42-.36.57-.61.11-.17.11-.41.16-.62.26.56.29,1.12.46,1.63.35,1.05.53,2.33,1.24,3.06.93.97,1.45,2.07,2.06,3.19.29.52.78,1.1,1.31,1.28,1.06.36,2.2.54,3.33.65.67.06,1.37-.19,2.06-.24,1.92-.13,3.85-.14,5.75-.35,3.86-.44,7.73-.96,11.39-2.32,2.82-1.05,5.56-2.32,8.34-3.5.36-.15.7-.33,1.05-.5.05.11.1.23.15.34-3.38,1.54-6.75,3.07-10.16,4.62.12,0,.22.04.31.02,3.79-1.21,7.62-2.36,10.89-4.75.54-.39,1.03-.88,1.43-1.4,1.15-1.49,2.25-3.02,3.33-4.5.41.66.68,1.36.06,2.13l.27.14,4.92-4.41c.06.06.11.12.17.18-1.69,1.69-3.36,3.39-5.06,5.05-1.4,1.37-2.86,2.69-4.25,4.06-1.23,1.21-2.42,2.45-3.63,3.69-.03.03-.03.09-.1.37,1.09-.73,2.02-1.38,2.99-1.97.16-.1.47.03.71.06l.03.03c-.94.77-1.89,1.54-2.83,2.32-.22.18-.62.38-.61.55.04.89-.67,1.11-1.2,1.46-.88.58-1.79,1.11-2.69,1.66.05.1.1.2.15.3,1.2-.53,2.4-1.06,3.6-1.58-2.55,1.94-5.23,3.66-8.27,4.76.04.12.07.24.11.37l8.37-1.59c-.3.13-.61.32-.94.39-2.7.54-5.41,1.03-8.1,1.59-.59.12-1.14.46-1.7.7l.12.34,3.79-.61c.02.08.04.17.05.25-.2.17-.4.34-.61.53.17.09.3.16.52.27-.67.17-1.27.22-1.77.47-.41.21-1.32-.15-1.2.85.47-.1.9-.28,1.33-.27.72.02,1.44.2,2.17.23.61.03,1.23-.06,1.85-.1-2.94.65-5.81,1.42-8.53,2.77,1.16-.14,2.33-.28,3.49-.42,0,.06.02.11.02.17-.28.11-.56.21-.91.35.24.14.4.22.55.3-1.11.45-2.37-.29-3.38.68.67.28,1.36.51,2.05.55.76.05,1.53-.12,2.3-.12,2.11.02,4.12-.37,6.24-1.52-1.82.09-3.35.17-4.88.24,1.12-.32,2.26-.31,3.37-.52,1.3-.24,2.72.12,3.87-.85,1.55-1.29,3.2-2.48,4.72-3.81,1-.88,1.87-1.91,2.73-2.92,1-1.18,1.92-2.42,3.03-3.83-.36.85-.63,1.49-.98,2.33.28-.24.38-.31.47-.4,3.08-3.09,5.56-6.63,7.99-10.22.57-.85,1.01-1.8,1.6-2.64,2.47-3.55,4.85-9.49,5.58-13.84.35-2.1.87-4.16,1.24-6.26.3-1.72.79-3.52-.89-4.9-.38-.31-.79-.58-1.43-1.04-.3,2.01-.58,3.85-.87,5.81.36-.13.48-.17.71-.25-.94,4.02-.77,8.08-1.59,11.99-.08-.01-.16-.02-.24-.04.41-3.68.81-7.36,1.22-11.04-.57.74-1.06,1.55-1.46,2.4-.5,1.06-.89,2.18-1.43,3.23-.19.36-.77.51-1.01.87-.64.92-1.18,1.91-1.8,2.84-.41.61-.89,1.18-1.34,1.76-.09-.06-.17-.11-.26-.17,1.73-2.77,3.4-5.56,4.67-8.75-.43.08-.58.11-1,.18,1.32-2.5,2.45-4.87,2.03-7.63-.05.21-.09.41-.18.77-.19-1.4-.36-2.65-.53-3.89-.11,0-.23,0-.34.02-.02,2.3-.24,4.56-.97,6.75-.28.84-.43,1.72-.64,2.58-.13-.39-.04-.73-.01-1.07.27-3,.51-6.01.79-9.01.13-1.45-.56-2.5-1.61-3.5-.03.16-.03.26-.07.36-.05.12-.12.23-.18.34-.21-2.18-1.91-3.13-3.35-4.19-1.33-.98-2.83-1.76-4.3-2.55-2.32-1.25-4.74-2.13-7.46-1.48-.53.13-1.06.26-1.6.31-3.57.37-6.96,1.37-10.21,2.86-1.07.5-2.1,1.1-3.11,1.72-1.36.83-2.68,1.74-4.03,2.59-1.14.71-2.32,1.36-3.44,2.1-.86.57-1.93,1.07-2.4,1.89-.59,1.02-1.55.95-2.31,1.42-.29.18-.48.51-.69.79-.12.17-.13.46-.28.56-.49.35-1.04.62-1.54.95-.14.09-.19.3-.37.6.52-.2.84-.32.98-.37.12.35.22.64.31.92-.87.64-1.74,1.29-2.61,1.93.05.08.11.16.16.24.94-.6,1.88-1.21,2.82-1.81v.07Zm-38.44,27.82c-.08.02-.15.05-.23.07-.07,1.02-.26,2.05-.2,3.06.17,2.76.37,5.51.69,8.25.38,3.28,1.83,6.13,3.96,8.62.53.62,1.22,1.15,1.94,1.54,1.9,1.03,3.86,1.96,5.88,2.97-1.11,1.08-2.03-.26-3.16-.14.4.27.7.47,1,.68,1.07.75,2.49.61,3.5,1.75.75.84,2.16,1.11,3.29,1.61.76.34,1.54.63,2.32.95-.14.08-.27.14-.56.29.82.25,1.57.35,2.18.7.65.38.92-.35,1.45-.27.59.09,1.2.02,1.8.02.02-.12.05-.23.07-.35-.68-.44-1.32-.98-2.05-1.31-1.1-.5-2.3-.81-3.41-1.3-1.69-.75-3.68-.72-5.18-1.97-.4-.33-.72-.78-1.15-1.05-.65-.4-1.36-.69-2.05-1.03.21-.27.5-.41.68-.32.46.21.92.47,1.3.81,1.07.95,2.31,1.58,3.67,1.88,4.93,1.08,9.9.79,14.86.19.18-.02.35-.13.53-.2-2.94-.53-5.85-.93-8.57-2.13.81.11,1.58.39,2.37.6.78.2,1.57.33,2.36.46.78.13,1.57.21,2.36.31.02-.08.04-.16.06-.25-8.06-1.31-15.39-4.02-20.83-10.65,1.14-.16,1.16-.19,1.93.57,2.1,2.06,4.2,4.12,7.02,5.22,2.02.79,4.05,1.59,6.09,2.34.3.11.68.02,1.02.02-3.1-1.24-6.15-2.4-8.87-4.29-2.66-1.85-5.74-5.54-6.26-7.5.38.17.7.31,1.03.45.06-.08.12-.16.18-.24-1.33-1.62-2.67-3.24-4.13-5.02.18.89.31,1.6.47,2.4-1.57-3.6-3.1-7.1-4.63-10.6-.1.04-.2.08-.29.11.37,1.15.75,2.31,1.12,3.46-.1.03-.2.07-.31.1-.42-1.23-.85-2.46-1.27-3.69-.26.47-.38.92-.34,1.34.05.47.25.92.39,1.38.11.37.24.74.35,1.11-.07.02-.13.04-.2.06-.24-.54-.48-1.09-.73-1.63-.09.02-.17.05-.26.07,0,.45-.07.91.02,1.33.1.45.37.85.55,1.28.16.39.29.8.43,1.2-.67-.37-1.28-.7-1.58-1.22-.35-.61-.43-1.37-.63-2.07l.02.03Zm-11.39,18.48c-.06.01-.11.03-.17.04.23,1.85.46,3.69.71,5.54.09.68.23,1.35.35,2.03-.09.01-.18.03-.27.04-.56-3.04-1.13-6.08-1.72-9.29-.19.33-.28.48-.4.68-.16-.23-.3-.4-.51-.7-.25,1.89.65,3.32,1.36,4.96-.37-.26-.58-.4-.99-.68.04.69.07,1.17.11,1.88-.82-1.53-.44-3.24-1.66-4.4.33,2.79-.23,5.68,1.22,8.31-.64.25-.81.67-.58,1.33.31.88.6,1.76.81,2.67.48,2.12,1.94,3.44,3.69,4.48,1.32.78,2.7,1.45,4.08,2.12,1.78.88,3.57,1.76,5.39,2.54.62.26,1.37.2,2.05.35.45.1.88.32,1.31.49.08-.05.16-.1.24-.16-.11-.29-.13-.69-.34-.84-1.04-.76-2.19-1.38-3.2-2.19-1.06-.85-2-1.85-2.99-2.78.07-.1.15-.21.22-.31,1.32,1.62,3.16,2.23,5.07,2.74l-3.2-1.89c.05-.09.09-.18.14-.28.59.24,1.18.49,1.93.79-.8-1.44-2.65-1.05-3.26-2.46-.17-.39-.58-.67-.88-1.01.04-.02.08-.04.12-.06.94.52,1.87,1.05,2.81,1.57.04-.07.08-.14.12-.22-.89-.64-1.77-1.29-2.66-1.93.05-.07.1-.15.14-.22.74.44,1.48.87,2.34,1.38-.34-.7-.61-1.25-.88-1.8.07-.05.14-.11.21-.16,1.06,1.12,1.4,3.04,3.21,3.14.8-1.08,0-1.51-.79-2.01-.43-.27-.85-.62-1.14-1.02-.23-.31-.25-.77-.37-1.17.1-.05.19-.1.29-.14-.56-.48-1.14-.94-1.67-1.46-.52-.51-1.05-1.04-1.47-1.63-.9-1.26-1.69-2.61-2.63-3.85-.91-1.21-1.93-2.32-2.91-3.48-.16-.19-.36-.53-.52-.52-.75.05-.77-.48-.95-.98-.36-1.02-.79-2.02-1.21-3.09v5.57c-.24-.8-.41-1.36-.58-1.92h.03Zm25.94-80.38c-10.25,5.39-20.3,11.03-26.93,21.08.62-.47,1.23-.95,1.85-1.42.06.06.11.12.17.19-.4.53-.83,1.05-1.18,1.61-.15.24-.3.69-.18.86.17.23.58.38.89.4.29.02.59-.17.88-.3.37-.16.74-.34,1.17-.53,3.75-5,8.54-9.1,13.49-13.06-.06-.07-.13-.15-.19-.22l-4.9,3.49c-.05-.07-.11-.14-.16-.22,5.06-3.91,9.51-8.61,15.09-11.87h0Zm26.33,16.7c2.88-1.65,5.73-3.19,8.84-4.12,3.15-.94,6.28-1.95,9.46-2.94v.6c2.13-.29,4.02-1.05,5.82-2.07-7.2-.44-14.24-.22-20.29,4.49.59-.2,1.18-.39,1.77-.59.04.07.08.14.11.21-2.06,1.2-4.63,1.73-5.71,4.43h0Zm-52.81,30.76l.41.12c.29-.77.57-1.54.88-2.3,1.5-3.71,3.01-7.41,4.52-11.12.68-1.68,1.35-3.38,2.05-5.05.15-.37.44-.67.67-1.01l.05.05-1.12,2.92c.08.04.15.07.23.11.28-.34.57-.68.83-1.03.91-1.23,1.71-2.56,2.73-3.69,2.32-2.58,4.75-5.06,7.12-7.6.23-.24.31-.62.46-.94-1.63,1.18-3.01,2.46-4.44,3.69-1.2,1.02-2.44,2-3.7,2.94-1.02.76-1.42,1.95-2.15,2.89-1.32,1.67-2.27,3.47-2.94,5.47-.32.94-.79,1.84-1.18,2.75-.64,1.48-1.27,2.96-1.91,4.44-.16.37-.34.74-.51,1.11-.1-.04-.2-.09-.3-.13,1.41-3.37,2.82-6.73,4.23-10.1l-.33-.16c-.64,1.13-1.21,2.29-1.93,3.37-1.14,1.72-1.17,3.87-2.47,5.6-.8,1.06-.65,2.84-.92,4.29.08.02.15.04.23.05.4-.86.81-1.72,1.21-2.59.04.02.09.04.13.06-.61,1.96-1.22,3.91-1.84,5.87h0Zm7.11,61.04c.26.31.35.43.45.54.66.67,1.51.55,2.35.6,1.44.1,2.87.42,4.3.47,4.06.13,8.13.27,12.2.2,4.97-.09,9.94-.39,14.92-.59,2.13-.08,4.21-.4,6.18-1.25.17-.07.32-.2.48-.29-2.39.03-4.73.26-7.07.37-5.13.24-10.27.46-15.4.61-2.27.07-4.51.89-6.83-.11-1.02-.44-2.34-.23-3.53-.28-2.61-.1-5.23-.17-8.04-.26h0Zm129.11-70.78c-.03.15-.03.31-.09.44-1.08,2.21-2.1,4.46-3.3,6.6-.29.52-1.27,1.04-1.83.95-1.13-.18-1.15.57-1.39,1.18-.52,1.35-.96,2.72-1.5,4.06-.3.74-.72,1.44-1.09,2.15.09.05.17.1.26.15.13-.12.26-.24.39-.36,1.32-1.26,1.72-2.96,2.22-4.62.11-.37.31-.72.46-1.09.08.03.16.07.24.1-.14.7-.29,1.4-.43,2.1.13.05.25.1.38.15.97-1.52,1.82-3.12,2.93-4.52,1.02-1.29,1.92-2.63,2.59-4.15.08.05.17.11.25.16-.12.28-.23.56-.35.85l.18.09c.63-1.07,1.26-2.14,1.89-3.21-.06-.04-.13-.08-.19-.11-.41.65-.81,1.31-1.22,1.96,0-.43.11-.79.29-1.12.69-1.26,1.6-2.45,2.04-3.79.56-1.73.99-3.56.44-5.67-.52,1.04-1.01,1.89-1.38,2.79-.55,1.34-1.01,2.72-1.51,4.07-.03.09-.08.17-.13.25l-.14-.08v-.63c-.1.1-.16.13-.19.18-1.49,2.37-3,4.73-4.46,7.12-.29.48-.4,1.07-.59,1.6,2.7-1.95,3.14-5.31,5.23-7.63v.03Zm-132.43,3.68c.08.03.16.06.25.09.5-1.49,1-2.98,1.52-4.53.17.13.32.2.41.32.08.11.09.27.15.48.91-1.27,1.75-2.45,2.59-3.63-.28,1.13-.33,1.86-.16,2.19,1.51-2.9,2.3-6.12,4.2-8.77.09.05.18.09.27.14-.42.8-.85,1.6-1.27,2.4l.22.14c.18-.11.38-.2.53-.34.96-.82,1.94-1.64,2.87-2.5.61-.57,1.61-.93,1.25-2.1-.03-.08.12-.21.17-.32.27-.55.53-1.1.79-1.65-.13-.09-.27-.18-.4-.27-1.06,1.11-2.11,2.23-3.18,3.33-.18.18-.52.44-.67.38-.96-.39-1.26.37-1.71.89-.19.21-.39.66-.51.63-1.31-.25-1.47.9-1.98,1.58-.71.97-1.35,1.99-2.02,2.98.15.08.3.16.46.25-2.04,2.47-3.16,5.28-3.78,8.31Zm37.07,43.68c-.01.12-.02.24-.03.35,3.23.89,6.46-.08,9.82-.18-.24-.22-.38-.35-.57-.53,1.53.11,2.93.2,4.34.3,0,.12.02.23.02.35-2.93.36-5.86.73-8.78,1.09,0,.08.02.16.02.24,3.98-.35,8.04-.33,11.91-1.17,3.89-.84,7.59-2.54,11.37-3.86-.03-.1-.07-.2-.1-.3-.31.06-.62.1-.93.18-2.39.59-4.79,1.17-7.17,1.8-.85.22-1.68.54-2.5.87-.72.3-1.41.68-2.12,1.02-.05-.12-.1-.25-.16-.37,2.11-.8,4.23-1.59,6.34-2.39-1.83-.12-3.64-.31-5.32.54-.18.09-.43.06-.65.06h-1.8v.18c.3.02.6.05.9.07-2.29.58-4.57,1.14-6.88,1.48-1.6.24-3.24.2-4.86.25-.95.03-1.91,0-2.87,0l.02.02Zm-47.33,26.67c-.86-.72-1.65-1.37-2.41-2.05-1.42-1.25-2.86-2.47-3.63-4.3-.21-.51-.83-.85-1.33-1.34-.44,1.71.94,5.03,2.32,6.17-.27-.07-.53-.15-1-.28,4.04,5.73,10.07,6.58,16.25,7.57-2.92-.86-5.67-1.66-8.42-2.46l.06-.3h1.02c-2.68-1.45-5.52-2.18-7.5-4.34.75.35,1.43.8,2.15,1.19.72.4,1.43,1.11,2.49.14Zm149.31-55c-.07-.06-.14-.12-.21-.18.18-.24.36-.48.55-.71.86-1.01,1.82-1.96,2.55-3.05,1.23-1.83,2.85-3.38,3.45-5.69.44-1.72,1.54-3.27,2.32-4.91.43-.9,1.11-1.83-.17-2.64-.11.31-.47.82-.33,1.06.45.81.02,1.72-.34,1.96-1.05.71-1.22,1.81-1.71,2.85.16.06.32.12.38.15-2.77,4.05-5.55,8.12-8.33,12.19.02.05.04.1.06.15l1.26-.87.17.17c-2.16,2.47-4.31,4.94-6.47,7.41.71-.12,1.42-.21,1.82-.61,1.1-1.1,2.12-2.29,3.08-3.52,1.32-1.67,2.58-3.4,3.84-5.11.26-.35.44-.77.65-1.16-.07-.04-.15-.09-.22-.13-.78.88-1.57,1.76-2.35,2.65h0Zm-28.63-71.43c1.03.19,2.03.36,3.03.56.7.14,1.39.32,2.08.48.02-.08.03-.15.05-.23-.48-.09-.96-.18-1.43-.27,0-.09.03-.17.04-.26.91.11,1.82.21,2.74.32v.25c-.19.05-.39.11-.58.16,0,.11.03.22.04.33h3.85c0,.13,0,.26,0,.39h-3.44c2.99,1.84,6.41,1.58,9.72,2.18-.07-.23-.28-.28-.42-.4-2.56-2.15-5.29-3.95-8.75-4.24-.84-.07-1.7-.06-2.55-.03-.47.02-.93.17-1.4.24-.95.13-1.91.24-2.86.36-.04,0-.06.1-.09.16h-.02ZM53.43,90.07c.08-.03.17-.06.25-.1.36.91.71,1.82,1.07,2.72.12-.03.23-.07.35-.1-.51-2.29-1.01-4.58-1.52-6.87,1.11-.16,2.16-4.4,1.6-6.58-.53,1.33-.99,2.5-1.46,3.66-.12-.04-.23-.07-.35-.11.2-.99.41-1.99.63-3.06-1.76,1.96-1.82,4.29-1.94,6.74.31-.19.5-.31.69-.43-.73,1.31-1.44,2.57-.29,4.07h-.58c.04.42.05.81.11,1.19.05.34.12.94.22.95.82.07.37.6.43.96s.07.95.28,1.03c.76.32.86.98,1.07,1.61.09.27.25.51.46.91.37-1.18.09-2.01-.47-2.82-.45-.65-.81-1.37-1.14-2.1-.12-.26-.02-.62-.02-1.2.3.47.44.68.58.9.07-.02.13-.04.2-.06-.05-.45-.1-.89-.16-1.34v.03Zm7.6,2.67c.08-.45.19-.73.17-1-.05-.51-.15-1.02-.29-1.51-.19-.65-.21-1.21.25-1.81.37-.49.72-1.1.81-1.7.41-2.69.73-5.39,1.07-8.09.03-.27,0-.55,0-.99-.3.33-.54.54-.72.79-1.41,1.93-2.33,4.11-3.08,6.37-.24.72-.24,1.59-.65,2.16-1.11,1.54-.69,2.98-.08,4.65.08-.26.15-.35.13-.43-.26-1.37.37-2.55.8-3.77.28-.79.56-1.57.84-2.35.07.02.15.05.22.07-.14.59-.28,1.19-.46,1.91.31-.14.46-.21.77-.35-.99,2.06-1.34,3.98.22,6.03v.02Zm16.68,11.75c5.19,1.94,20.41-2.74,23.44-7.11-4.56,2.42-9.31,4.01-14.19,5.29.85-.11,1.7-.23,2.54-.34.02.11.03.22.05.33-3.86.6-7.73,1.19-11.85,1.83h0Zm-9.26,18.38c0-.09,0-.17.01-.26-4.34.22-8.65,1.17-13.03.58,1.51.73,3.05,1.36,4.58,2.02.27.11.65.25.72.47.24.69.69.63,1.22.51,2-.46,4.01-.88,6-1.36,1.04-.25,2.06-.61,3.09-.92l-.08-.28c-.83.23-1.66.47-2.6.73.14-.29.22-.45.3-.61-1.24-.06-2.41-.12-3.58-.17v-.34c1.12-.12,2.25-.24,3.37-.36h0Zm49.15-82.74c-3.83-3.47-12.94-5.47-16.54-3.72.8.15,1.54.28,2.28.42,0,.07-.01.13-.02.2-.32.12-.65.24-.97.36,0,.09.02.19.03.28.79,0,1.57.04,2.35,0,.4-.03.81-.34,1.19-.29,1.04.13,2.08.35,3.11.6,2.78.68,5.55,1.4,8.58,2.17h-.01Zm29.14,57.38c-.98.92-2.62.52-3.43,1.73-.05.08-.23.06-.35.09-.45.12-1.04.1-1.34.38-2.22,2.05-4.39,4.16-6.57,6.26,4.65-1.83,9.03-3.97,11.69-8.46Zm-27.01-38.71c-.62-2.73-2-4.93-4.56-6.22-.36-.18-.86-.07-1.28-.14-1.58-.27-3.16-.56-4.74-.84l-.07.28c3.96,1.66,7.63,3.76,10.64,6.92h0Zm-24.27,10.06l.15-.29c-.35-.38-.63-.95-1.06-1.12-1.3-.51-2.65-1.16-4-1.19-1.62-.04-3.3.34-4.87.82-1.63.5-3.16,1.31-4.72,2.01-.93.42-1.84.9-2.75,1.38-.11.06-.11.32-.17.52,3.22-1.35,6.36-2.66,9.5-3.97.04.09.08.18.12.26-.13.09-.26.16-.38.27-.12.11-.23.24-.34.36,2.96-.65,5.75,0,8.51.95h0Zm.15-23.44c-2.27-.19-4.12.88-6.09,1.42-1.98.54-3.97,1.08-5.86,1.86-1.91.79-3.98,1.55-5.48,2.9-1.51,1.36-3.56,1.91-4.79,3.57,4.41-2.19,8.31-5.31,12.89-7.16.06.08.12.16.19.24-.2.24-.39.47-.58.69,3.24-1.1,6.65-1.67,9.71-3.53h.01Zm-9.85,11.24c.25.03.32.06.36.03.32-.15.63-.31.95-.46,3.64-1.75,7.27-3.51,11.25-4.41,1.16-.26,2.26-.85,3.59-1.36-2.1-.33-3.21-.09-3.23.71-.4-.26-.74-.49-1.15-.76-.06.21-.13.42-.22.72-1.9.19-3.89.37-5.85,1.61.52.1.76.15.99.19-.3.19-.62.22-.91.31-1.12.35-2.24.7-3.34,1.12-.24.09-.4.43-.58.67-.16.22-.26.51-.46.67-.39.32-.84.57-1.4.94v.02Zm-56.17,78.02s.06-.07.08-.1c-1.63-1.3-3.27-2.61-4.9-3.91-.07.04-.13.07-.2.11.7,1.26,1.4,2.53,2.19,3.97.04-.53.06-.83.08-1.12.24.52.33,1.06.52,1.56.15.4.33.89.66,1.11.86.57,1.75,1.16,2.71,1.47,1.85.59,3.76.98,5.64,1.45.03-.09.06-.17.09-.26-2.91-1.29-5.85-2.52-8.31-4.57.04-.08.08-.16.11-.24.44.18.88.36,1.33.54h0Zm91.32,3.88c-.07-.08-.14-.16-.22-.24-.88.44-1.82.78-2.62,1.33-1.14.77-2.23,1.63-3.25,2.56-3.06,2.79-6.43,5.14-9.92,7.35-.69.44-1.35.93-2.02,1.4.17.09.29.08.4.04,1.01-.38,2.02-.73,3.01-1.15.4-.17.79-.41,1.12-.69.79-.68,1.48-1.46,2.31-2.09,3.1-2.34,6.23-4.62,9.34-6.94.65-.48,1.23-1.05,1.85-1.58h0ZM17.16,73.17c.09.06.18.12.26.17.19-.27.41-.53.57-.81.55-.98,1.02-2,1.62-2.95,2.43-3.81,4.9-7.59,7.33-11.39.13-.2.09-.51.13-.77-.1-.02-.19-.05-.29-.07-3.76,4.94-7.58,9.84-9.62,15.81h0Zm8.94,12.23l.24.03c.16-.51.88-.86.3-1.6-.09-.11.36-.67.59-1,.13-.18.39-.29.48-.48.38-.85.73-1.71,1.06-2.58.99-2.59,1.96-5.19,2.94-7.79-.09-.04-.17-.08-.26-.12-.45.72-.99,1.39-1.33,2.16-.85,1.94-2.64,3.5-2.45,5.88,0,.05-.07.1-.1.16-.39.82-.89,1.6-1.12,2.46-.25.92-.25,1.91-.35,2.88ZM103.94,31.84c0-.11-.02-.22-.03-.34-.7,0-1.4-.05-2.09.02-.46.04-.9.26-1.34.39-.64.19-1.33.3-1.93.57-1.55.72-3.07,1.52-4.61,2.27-.81.39-1.64.72-2.44,1.12-.41.21-.78.52-1.16.78.06.1.11.2.17.31,4.48-1.71,8.96-3.41,13.43-5.12ZM22.63,139.07c.28,2.03,4.84,4.78,8.12,4.93-2.16-2.68-5.41-3.28-8.12-4.93Zm20.13-42.79c.1,1.25-.03,2.52.34,3.63.55,1.67,1.56,3.15,2.95,4.34-.2-1.17-.97-2.3-.1-3.48.03-.04-.1-.22-.17-.32-.95-1.38-1.91-2.75-2.87-4.13-.03-.04-.11-.04-.15-.05h0Zm85.77,35.55c-.1-.1-.21-.19-.31-.29-.53.29-1.13.5-1.59.89-1.33,1.11-2.6,2.31-3.91,3.44-.84.73-1.73,1.4-2.59,2.1,3.16-.93,5.64-2.87,7.92-5.1.26-.25.33-.69.49-1.03h-.01Zm-37.3-67.65c-.68-.16-1.1-.26-1.51-.36l.04-.2c.6.08,1.19.15,1.86.24-1.53-1.69-6.36-1.71-6.95-.15,1.17-.1,2.29-.19,3.4-.28,0,.09.02.18.02.27-.54.17-1.07.38-1.62.5-.59.13-1.21.15-1.2,1.06,1.9-.34,3.8-.69,5.96-1.08Zm-13.45-16.8c-.09-.11-.19-.23-.28-.34-.47.26-.97.48-1.41.78-.19.13-.25.42-.38.64-.61-.59-.86.22-1.24.38-.65.27-1.22.77-1.79,1.22-.41.33-.74.76-1.15,1.09-.97.78-2.02,1.46-2.92,2.3-.57.54-.91,1.31-1.46,2.12,2.46-1.89,4.71-3.62,6.96-5.36,1.22-.94,2.44-1.89,3.65-2.84h.02Zm76.48,41.48c.07.06.14.11.21.17,3.46-2.71,5.43-6.43,7.01-10.58-2.46,3.55-4.84,6.98-7.22,10.42h0Zm-130.06-11.64s-.09-.05-.14-.08c-.13.26-.32.5-.39.77-.46,1.75-.91,3.51-1.34,5.27-.08.34-.09.71-.15,1.26.31-.22.36-.24.4-.29.19-.22.38-.44.57-.66.02.27.01.55.06.81.1.64.22,1.27.33,1.91.11-.02.23-.03.34-.05.11-2.98.22-5.97.33-8.95h-.01Zm136.15,4.85s.07.02.11.03c.85-1.14,1.79-2.21,2.51-3.43.54-.91.76-1.99,1.16-2.99.26-.65.5-1.32.87-1.9.2-.31.34-.35.14-.55.17-.59.33-1.12.48-1.65-.17-.06-.35-.11-.52-.17-.92,2.19-1.84,4.38-2.69,6.41.07.13,0,0-.09-.18-.67,1.51-1.32,2.96-1.96,4.41v.02ZM21.14,144.84c-2.22-2.34-4.54-4.77-6.84-7.19.02,2.55,3.97,6.22,6.84,7.19Zm50.18-79.85c-2.94,2.28-5.75,4.67-7.83,7.94.43-.13.87-.13,1.06-.35,2.28-2.51,4.52-5.06,6.77-7.59Zm-31.75,73.91c-2.9-1.11-5.59-2.14-8.28-3.18,3.61,1.71,6.96,4.2,11.32,3.59-.86-.89-1.95-1.28-3.18-1.6.04.34.07.58.14,1.19Zm-18.68-26.96c-.84-.15-1.07.21-1.02.84.1,1.44.16,2.88.32,4.31.14,1.33.39,2.65.59,3.98.04-.01.08-.02.11-.04,0,0,0-9.09,0-9.09Zm106.23-44.63c.09-.03.18-.05.27-.08-.4-2-.81-4-1.21-6-.09,0-.18,0-.27,0-.05.49-.07.99-.14,1.48-.06.37-.06.84-.28,1.08-.56.6-.69,1.38-.14,1.92.57.56,1.18,1.06,1.77,1.59Zm-86.93,21.12c-.4,1-1.14,1.77-.47,2.84.16.25.12.62.21.93.48,1.69.98,3.37,1.47,5.05.12-.03.25-.07.37-.1-.52-2.85-1.03-5.71-1.58-8.72Zm119.09,2.16c-1.75,1.13-2.9,2.86-4.26,4.48-.07-.18-.13-.33-.22-.54-.89.98-1.75,1.93-2.61,2.88,3.17-1.45,5.25-4.01,7.1-6.82h-.01Zm-85.98-20.03c-.05-.08-.1-.15-.14-.23-1.99,1.22-4.19,2.19-5.9,3.72-1.72,1.53-2.86,3.66-2.91,6.14.27-.43.47-.88.67-1.34.36-.82.6-1.72,1.09-2.46.63-.97,1.07-1.99,2.39-2.56,1.75-.75,3.22-2.15,4.81-3.27h0Zm47.56-22.6c-.09.02-.17.05-.26.07-.36-.48-.68-1-1.1-1.42-.39-.39-.88-.67-1.33-.99-.06.08-.12.17-.19.25,1.01,1.07,1.8,2.36,3,3.25.07-.06.14-.12.21-.19-.09-.17-.18-.34-.23-.43.61.31,1.26.65,2.13,1.09-.66-2.17-1.49-3.16-2.36-3.17.04.51.09,1.02.13,1.53h0Zm-15.72-8.74c2.77.29,5.05,2.14,7.82,2.41-1.75-1.66-5.43-2.83-7.82-2.41Zm-67.44,32.55c-1.26,2.78-2.51,5.56-3.77,8.34,1.94-1.54,4.45-7.33,3.77-8.34Zm89.04,46.57c2.36-.97,4.59-2.19,6.56-3.87-2.39.91-4.89,1.64-6.56,3.87Zm5.67-16.01c.07.12.15.23.22.35,3.48-1.83,6.96-3.64,10.43-5.5.4-.21.7-.61,1.04-.92-.03-.03-.07-.07-.1-.1-3.86,2.06-7.73,4.11-11.59,6.17h0Zm-79.91,37.26c.02-.11.04-.23.06-.34-3.23-1.09-6.47-2.17-9.7-3.26-.03.08-.05.16-.08.24,2.99,1.85,6.38,2.54,9.72,3.35h0Zm39.62-68.19c-1.05-.43-1.88-1.28-3.25-1.04-1.13.2-2.17.32-2.96,1.5,1.28-.18,2.44-.35,3.6-.49.28-.03.73-.08.82.06.61.95,1.18.25,1.79-.04h0Zm61.09,22.9l.47-2.2c-.06-.03-.11-.06-.17-.1-.72,1.15-1.44,2.3-2.18,3.5,2.92-.84,3.89-3.41,5.52-5.33-1.76.9-2.73,2.46-3.64,4.13h0Zm4,11.07c-.05-.09-.1-.17-.15-.26-.76.49-1.59.9-2.27,1.49-.82.7-1.53,1.54-2.26,2.34-.67.73-1.31,1.49-1.97,2.24l.29.28c2.12-2.03,4.24-4.06,6.36-6.09h0Zm-87.31,17.17c2.65-.37,5.16-.72,7.66-1.07-.01-.11-.02-.22-.03-.32-2.96.17-5.93.34-8.89.51v.28h1.6c-.13.24-.2.36-.34.61h0Zm12.6,19.45c.03.07.07.15.1.22,2.37-.79,5.03-.66,7.07-2.46-1.06.21-2.13.8-3.13.71s-1.7.52-2.6.57c-.5.03-.96.63-1.45.97h0Zm-53.06-25.73c.08-.04.15-.08.23-.12-.45-1.48-1.03-2.93-1.33-4.44-.36-1.86-.9-3.62-1.58-4.19-.02,1.46.99,2.7.81,4.25-.08.68.66,1.28.67,2.17.01.78.77,1.55,1.2,2.33Zm42.22,11.52c.02.08.04.16.06.23,3.95-.9,7.66-2.47,11.43-3.86-.04-.11-.08-.23-.12-.34l-11.38,3.96h.01Zm41.11-17.59c.31-.02.42,0,.49-.03,3.23-1.84,6.45-3.68,9.67-5.54.11-.07.12-.31.25-.66-3.55,2.13-6.89,4.12-10.41,6.23Zm-20.38-69.86c2.59-.37,5.3.13,8.04-1.04-2.97-.31-5.56.05-8.04,1.04Zm-45.73,98.95c-2.05-1.01-3.96-1.95-5.86-2.9,1.31,1.79,5.45,3.79,7.85,2.97-.99-.28-1.87-.54-2.74-.79-.02.03-.04.07-.05.1.22.17.45.34.81.61h0Zm-9.59-49.31v-1.86c.24.29.34.41.55.67v-1.7c-.71.09-.42-.46-.39-.71.09-.86.25-1.71.39-2.56-1.39,1.91-1.95,3.9-.55,6.16Zm63.08-49.99c2.5.19,4.94.37,7.37.55-.19-.23-.38-.34-.6-.38-1.54-.29-3.08-.58-4.62-.83-.8-.13-1.56-.05-2.16.65h.01Zm50.26,49.41c1.23-2.01,1.76-4.08,2.33-6.42-1.21,1.01-2.26,4.06-2.33,6.42Zm-96.23,20.69c-.26-1.32-2.43-3.42-4.31-4.09,1.17,1.75,2.47,3.2,4.31,4.09Zm79.17,2.25c2.7-.89,4.44-2.16,4.72-3.47-1.69,1.02-3.62,1.61-4.72,3.47Zm-17.16-71.92c1.83,1.25,3.6,2.46,5.37,3.67-1.28-2.27-2.84-3.28-5.37-3.67Zm39.42-19.48c1.46.82,2.92,1.64,4.38,2.46-1.62-2.13-1.99-2.88-4.38-2.46Zm-34.88,25.13c.05-.08.1-.16.16-.24-2.47-2.61-3.22-3.17-5.05-3.05,1.73,1.16,3.31,2.23,4.89,3.29Zm-18.08-.6c-2.3-.5-4.29-.58-6.15.55.01.11.03.23.04.34,1.95-.28,3.9-.57,6.11-.89Zm-16.18,88.1l-.12-.42c-2.1.75-4.2,1.49-6.31,2.24.06.16.12.31.17.47.5-.19,1.01-.38,1.51-.57,1.58-.58,3.16-1.15,4.74-1.72h.01Zm21.92-83.13h4.38c-1.5-1.19-3.28-.59-4.8-1.37.16.53.26.87.41,1.37h.01Zm-50.63,36.26c.8-1.97,1.6-3.94,2.4-5.92-1.72,1.61-2.33,3.66-2.4,5.92Zm19.89-38.9c.04.08.08.15.12.23,1.66-.94,3.33-1.87,4.99-2.81-.05-.09-.1-.17-.15-.26-1.8.68-3.69,1.18-4.96,2.84Zm38.85,61.4c1.57-.14,5.26-2.28,6.15-3.76-2.09,1.28-4.01,2.45-6.15,3.76Zm-50.42-52.63c-1.3.98-3.34,2.04-4.14,4.29,1.51-1.56,3.03-3.14,4.14-4.29Zm92.46,14.69c.08.04.17.08.25.12,1.53-2.48,3.03-4.98,3.96-7.78-1.4,2.55-2.8,5.1-4.21,7.66Zm-84.97,66.87c1.4-.22,3,.33,4.21-.92-.92-.6-1.87-.4-4.21.92Zm-23.15-12.3c-.06.1-.12.2-.17.29.36.21.69.49,1.08.62.95.33,2.01.45,2.87.93.66.36.95.28,1.35-.21-1.74-.56-3.44-1.1-5.13-1.64h0Zm-4.39-63.38c.05.21.1.42.19.75.26-.4.42-.67.59-.93-.1-.02-.2-.04-.3-.06.12-.45.16-.93.36-1.33.21-.43.56-.79.85-1.18l-.21-.11c-.71.51-1.43,1.02-2.35,1.67h1.08c-.36.52-.65.94-.94,1.36l.15.12c.19-.1.38-.19.58-.29Zm-23.56,23.18v4.49c.97-1.51,1-3.46,0-4.49Zm94.71-40.65c.06-.12.13-.23.19-.35-1.4-.72-2.24-2.4-4.04-2.43-.07.11-.13.22-.2.33,1.35.81,2.7,1.63,4.04,2.44h0Zm5.11,16.52c.08.5.15.87.21,1.25l.21-.03c.06-.99.13-1.98.19-2.9-.17.28-.35.57-.53.86-.21-.15-.41-.29-.61-.45-.03-.02-.01-.09-.02-.16.23.03.45.06.68.1.04-.08.08-.16.12-.24-.34-.25-.68-.49-1.02-.74-.09.07-.18.15-.27.22.17.79.34,1.58.53,2.44.23-.15.34-.23.51-.35h0Zm-69.53,2.96c-.48.18-.76.2-.85.34-.3.45-.51.95-.78,1.42-.28.49-.57.96-.86,1.45.07.05.14.09.21.14.15-.23.31-.46.46-.69.06.05.12.1.18.15-.49.85-.97,1.69-1.46,2.54.11.06.21.11.32.17.88-1.75,1.75-3.5,2.76-5.52h.02Zm106.25,37.7l.2.23c.99-1.01,1.98-2.02,2.98-3.02-.09-.11-.18-.22-.28-.33-1.01.78-2.02,1.56-3.04,2.35.05.07.1.13.15.2.21-.03.41-.05.74-.09-.33.29-.54.48-.75.67h0Zm-84.54-49.87c1.12.4,2.98-1.01,3.23-2.62-1.04.85-2.09,1.69-3.23,2.62Zm-36.37,37.14c-.85,1.34-.95,2.69-.17,4.25.54-1.52.34-2.88.17-4.25Zm93.31,24.7c1.57-.63,3.22-1.1,4.39-2.41-1.56.63-3.2,1.13-4.39,2.41Zm44.89-41.25c.38.28.65.48,1.08.8.29-1.13.55-2.13.8-3.13-.14-.05-.27-.1-.41-.15-.49.82-.97,1.64-1.48,2.48h0Zm-113.7,3.76c-1.57.75-2.01,2.3-2.77,3.62.1.07.2.14.3.2l2.48-3.82h0Zm-43.72,52.11c.14-.04.27-.09.41-.13-.52-1.8-1.04-3.61-1.57-5.41-.12.03-.24.07-.36.1.51,1.81,1.01,3.63,1.52,5.44h0ZM121.54,42.55c-.06.07-.13.14-.19.21.72,1.42,1.98,2.17,3.48,2.65-1.1-.95-2.19-1.91-3.29-2.86Zm-44.21,46.7c.53-.55,1.01-1.15,1.59-1.64.57-.49,1.23-.88,1.86-1.29.6-.4,1.22-.79,1.82-1.18-2.13.89-4.14,1.94-5.27,4.12h0Zm9.91-34.65c-.07-.11-.14-.23-.21-.34-1.74,1.06-3.48,2.11-5.23,3.17.06.09.11.19.17.28l5.26-3.11h.01Zm2.89,85.77c1.86-.6,3.73-1.21,5.59-1.81-.03-.11-.07-.21-.1-.32-1.74.97-3.91.65-5.49,2.13Zm82.28-74.71c-1.2,1.95-1.91,4.35-1.59,5.31.56-1.88,1.08-3.59,1.59-5.31ZM44.24,152.43c1.29.78,2.62.32,3.94.34v-.34h-3.94Zm-7.48-35.93c-.09-1.4-1.34-1.81-2.21-2.54.31,1.22,1.41,1.75,2.21,2.54ZM100.94,44.27c1.41-.19,2.81-.37,4.22-.56-1.49-.51-2.88-.22-4.22.56Zm-64.02,107.89c0-.15,0-.3,0-.44-1.5-.15-2.99-.3-4.49-.45,0,.11-.03.23-.04.34,1.51.18,3.01.37,4.52.55Zm118.74-47.08c.08.12.17.24.25.37l2.93-2.08c-.11-.15-.21-.29-.32-.44-.95.72-1.91,1.43-2.86,2.15h0Zm-10.55-9.25c.07.09.13.18.2.26.88-.79,2.38-.77,2.84-2.12-.07-.1-.14-.19-.22-.29-.94.72-1.88,1.43-2.82,2.15h0Zm16-12.98l-.25-.19c-.95.88-1.81,1.84-2.24,3.12l.25.19c.75-1.04,1.49-2.08,2.24-3.12Zm-122.07-.67c-.59.58-.71,2.02,0,3.11v-3.11Zm.59,3.78c-1.31.99-.36,1.98-.29,3.02.33-.52.43-1.53.29-3.02Zm33.69,57.33c.04.12.09.24.13.36,1.17-.44,2.34-.87,3.51-1.31-.03-.09-.06-.18-.1-.26-1.05.77-2.62.09-3.54,1.2h0Zm4.71-3.2c0-.11-.02-.22-.03-.34-1.68.21-3.35.42-5.03.63.01.08.02.16.03.25,1.67-.18,3.35-.36,5.02-.54h.01Zm26.87-90.43c.4.91,1.12,1.06,2.73.45-.87-.14-1.75-.29-2.73-.45Zm-42.65,80.43c-1.15-1.46-1.65-.39-2.37.57.9-.22,1.61-.39,2.37-.57Zm28.57-11.93c.55.56,1.83.13,3.01-1.1-1,.36-1.99.73-3.01,1.1Zm-47.02,9.85c-.05.09-.11.18-.16.26,1.17.74,2.34,1.48,3.51,2.21.05-.09.11-.17.16-.26-1.17-.74-2.34-1.48-3.51-2.22h0Zm24.06-20.14c.73.31,1.05,1.42,2.08.73-.55-.58-.89-1.57-2.08-.73Zm-12.14,23.06c-.02.12-.04.25-.07.37,1.22.23,2.44.46,3.65.69.02-.12.04-.23.06-.35-1.22-.24-2.43-.47-3.65-.71h0Zm-19.2-65.4c-.09-.04-.19-.08-.28-.12-.36.9-.72,1.8-1.17,2.92.94-.88,1.53-1.68,1.45-2.79h0Zm25.56,54.24c1.07.22,2.14.45,3.21.67-.89-1.24-2.1-.65-3.21-.67Zm59.77,4.72c-.05-.06-.1-.13-.15-.19-.56.25-1.14.46-1.69.75-.54.29-1.05.65-1.58.97.05.09.11.18.16.27,1.08-.6,2.16-1.2,3.25-1.8h.01Zm-51.82,16.35c0-.09.01-.19.02-.28-1.53.17-3.06.35-4.59.52,0,.08.02.17.03.25,1.52-.16,3.03-.33,4.55-.49h-.01Zm2.14,10.69c0,.06.02.13.02.19,1.87-.22,3.73-.44,5.6-.65-1.29-.05-2.56.09-3.83.23-.6.07-1.2.15-1.8.23h.01Zm78.53-60.33l.32.19c.37-.64.74-1.28,1.11-1.92-.1-.06-.19-.12-.29-.17-.89.31-.81,1.23-1.14,1.9h0Zm15.33-34.45c-.09-.03-.18-.05-.27-.08-.34,1.09-.68,2.19-1.02,3.28.12.04.24.07.37.11.31-1.1.61-2.21.92-3.31h0Zm-64.28-8.2c.01.12.02.25.03.37,1.06-.06,2.12-.12,3.19-.18,0-.06-.02-.13-.02-.19h-3.2Zm14.55-6.19c.06-.11.11-.22.17-.33l-2.69-1.41c-.06.11-.11.22-.17.32.9.47,1.79.94,2.69,1.42Zm-52.92,30.94c-1.2.75-1.4,1.21-.93,2.03.35-.76.64-1.4.93-2.03Zm46.88,50c-.05-.12-.1-.24-.15-.35-1.01.49-2.03.98-3.04,1.48.04.09.08.18.12.27,1.02-.46,2.04-.93,3.07-1.39h0ZM41.49,63.09c.14.08.28.15.41.23.39-.72.79-1.45,1.18-2.17l-.33-.18c-.42.71-.85,1.42-1.27,2.12h.01Zm77.26,64.09c-.06-.11-.11-.23-.17-.34-.83.41-1.65.82-2.48,1.23l.18.36c.82-.42,1.65-.83,2.47-1.25Zm-50.93,2.02c-.03-.09-.05-.17-.08-.26-1.2.36-2.4.73-3.6,1.09.03.09.06.18.09.28,0,0,3.59-1.11,3.59-1.11Zm-46.86-24.24c.13-.03.25-.06.38-.09-.27-1.01-.54-2.02-.8-3.03-.07.01-.15.03-.22.04.22,1.03.43,2.05.65,3.08h-.01Zm.62,2.9h-.26c.13,1.08.25,2.17.38,3.25.13-.02.25-.04.38-.05,0,0-.5-3.2-.5-3.2ZM98.39,36.95c.01.1.02.2.03.29.9-.31,1.89.54,2.81-.29h-2.85.01Zm-51.58,65.12c-.05,1.26,1.11,1.52,1.61,2.32.07-.06.14-.12.21-.18-.61-.71-1.22-1.42-1.83-2.14h.01Zm-19.81,48.33c-.05.13-.1.25-.15.38.76.27,1.53.53,2.29.8.04-.12.09-.25.13-.37l-2.27-.8h0Zm2.42-10.94c-.03.1-.07.2-.1.3l3.07.99c.03-.09.06-.17.08-.26-1.02-.34-2.04-.69-3.06-1.03h0Zm24.06-80.11l.17.17c.72-.65,1.44-1.31,2.16-1.96-.11-.11-.22-.21-.32-.32l-2,2.11h0Zm60.65,66.17c-.05-.09-.1-.17-.15-.26-.91.51-1.83,1.03-2.74,1.54l.12.21,2.77-1.49Zm-44.21,12.79c-.01-.1-.02-.19-.03-.29-.87.15-1.75.3-2.62.45.02.12.05.23.07.35.86-.17,1.72-.34,2.58-.52h0Zm42.28-26.98c.03.06.06.12.09.18,1.03-.49,2.06-.98,3.09-1.47-.05-.09-.09-.18-.14-.28-1.01.52-2.03,1.04-3.04,1.56h0Zm-49.26-36.03l.21.21c.6-.72,1.19-1.43,1.79-2.15-.07-.06-.14-.12-.22-.18-.59.71-1.18,1.41-1.78,2.12Zm37.42-4.68c-.07.09-.14.19-.21.28.38.28.76.55,1.3.94.13-1.28-.44-1.3-1.09-1.22Zm23.04,48.47c-.05-.1-.09-.19-.14-.29-.83.4-1.65.8-2.48,1.2.05.1.1.21.15.31.82-.41,1.64-.82,2.46-1.22h.01ZM40.2,45.21c.06.07.12.14.17.21.75-.62,1.51-1.25,2.26-1.87-.07-.09-.15-.18-.22-.27-.74.65-1.48,1.29-2.22,1.94h.01Zm9.05,8.82s-.06-.05-.09-.07c-.47.54-.93,1.07-1.44,1.65.28.19.48.33.55.38.34-.69.66-1.33.98-1.97h0Z"/>
    </g>
  </g>
</svg>