<?xml version="1.0" encoding="UTF-8"?><svg id="Calque_2" xmlns="http://www.w3.org/2000/svg" viewBox="0 0 396.23 328.52"><defs><style>.cls-1{fill:#fff;}</style></defs><g id="Calque_1-2"><path class="cls-1" d="m43.47,102.03c-.09,2.23-1.37,3.77-3.23,4.65-3.47,1.63-6.27,4.05-8.75,6.9-1.16,1.34-2.61,2.33-4.34,1.9-2.01-.5-2.51.33-3.37,1.96-1.04,1.97.28,2.41,1.21,3.38,2.58,2.65,6.72,3.42,8.47,7.06.24.49.77.9.85,1.4,1.12,6.92,4.21,13.26,4.88,20.42.94,9.99.16,19.89.4,29.82.12,5.18-.18,10.33-.59,15.44-.36,4.38.19,8.62.29,12.91.07,2.89-.5,5.93-.67,8.9-.67,12.26-.48,24.53-.52,36.8-.03,7.81-.32,15.62-.37,23.43-.02,3.97.07,7.96.42,11.91.43,4.84.59,9.68.25,14.51-.25,3.46,1.39,4.92,4.41,6.19,4.07,1.71,5.99,5.71,8.12,9.34-1.59-1.84-3.48-3.45-4.92-5.33-1.57-2.04-3.78-2.47-5.77-3.48-1.05-.54-4,2.09-3.79,3.27.33,1.85.75,3.68,1,5.54.4,2.99,3.6,2.59,5.35,4.59-3.36.04-2.76,2.52-2.77,4.98-3.38-1.98-3.91-5.04-4.36-7.78-.6-3.68-.78-7.44-1.91-11.04-.42-1.33.2-3.16-2.43-3.06-1.13.04-.46-1.64-.34-2.52.22-1.61-.36-2.81-1.93-2.91-1.85-.12-2.69,1.82-2.31,2.91,1.44,4.13-1.07,7.96-.52,11.96.01.11-.05.23-.03.33.25,1.34-.26,3.47,1.37,3.65,1.72.19,1.81-1.8,1.99-3.25.15-1.17.45-2.33.73-3.72,1.57,4.05.39,8.01-2.63,9.71-1.9,1.06-2.85.37-2.72-1.59.25-3.71-.57-7.15-1.66-10.67-1.01-3.29.36-6.67.91-9.97.18-1.09.69-2.09.17-3.2-2.59-5.46-4.69-11.16-6.95-16.73-2.87-7.06-6.35-13.93-7.65-21.74-1.22-7.38-3.16-14.71-4.47-22.11-.94-5.28-1.46-10.73-2.55-15.91-1.4-6.67-1.12-13.39-2.1-20.04-1.1-7.45-.49-15.16-.25-22.78.15-4.96.94-9.75,1.89-14.47,1.53-7.61,1.17-15.44,3.75-22.97,1.99-5.8,4.2-11.42,7.03-16.82.31-.58.67-1.31,1.2-1.57,7.55-3.66,8.07-10.83,8.35-17.71.29-6.9,3.11-12.87,5.9-18.8,1.43-3.04,4.18-5.59,7.18-7.5,3.45-2.21,9.6-1.94,12.7.6,1.93,1.58,1.6,4.01,1.7,6.13.3,6.7-.77,12.95-6.74,17.22.09-2.77,4.2-3.74,3.38-7.21-2.92,1.68-3.15,5.17-5.61,6.86,1.15-3.12,2.99-5.79,5.04-8.39,2.79-3.55,3.2-7.69,1.98-11.92-.65-2.25-5.62-3.87-6.48-2.24-2.06,3.93-5.98,6.64-6.97,11.31-.54,2.53-1.46,5.22-3,7.23-2.04,2.68-2.43,6.09-4.68,8.7-.9,1.05-.59,3.47-.76,5.27-.17,1.74,1.97,2.63,3.54,1.58,1.95-1.29,3.3-3.22,4.94-4.84,2.21-2.18,3.48-5.25,6.4-6.74.21,1.68.99.93,1.74.41.16-.11.39-.1.59-.15Zm-28.62,28.42c-.07,2.06-1.26,3.97.66,5.66.25.22.2,1.33-.07,1.52-2.27,1.63-1.17,3.78-.99,5.77.15,1.64-.04,3.1-.52,4.77-.64,2.16-1.67,4.8-1.07,6.77.64,2.12.47,3.95-.03,5.74-.98,3.52-1.87,7.1-1.87,10.68,0,7.64-1.35,15.18-1.03,22.9.2,4.91,1.03,9.71,1.75,14.44,1.14,7.47,2.14,14.91,2.42,22.45.08,2.28-.85,4.84-.11,6.82,1.27,3.39,2.01,6.73,2.51,10.3.35,2.48.05,5.05.86,7.45,1.62,4.85,2,9.99,3.05,14.95,1.25,5.89,2.95,11.55,4.95,17.17.21.59.97,1.15.26,1.74-2.74,2.29-.47,4.15.58,5.99.51.91.78,2.75,2.44,2.1,1.4-.54,1.91-1.81,1.8-3.51-.32-5.02-1.12-9.92-2-14.89-1.59-9.03-3.25-18.12-3.68-27.34-.25-5.39-.48-10.81-1.3-16.13-1.13-7.33-1.94-14.68-2.35-22.06-.29-5.3,1.37-10.52,1.11-15.86-.05-.99.82-1.28,1.58-1.4,1.02-.16.93.69.97,1.32.12,1.66.1,3.33.32,4.97.66,4.84,1.32,9.69,2.18,14.5.33,1.84-.77,3.38-.52,5.18,1.02,7.42.78,14.93,1.54,22.36.47,4.56.58,9.16.73,13.68.21,6.26.92,12.44,1.53,18.64.66,6.77,2.15,13.46,2.82,20.23.28,2.88,1.06,5.45,2.17,8.57.62-2.37,1.04-4.22,1.24-6.18.56-5.38-1.25-10.57-1.18-15.85.09-7.51-.28-15.01-.05-22.54.21-6.69.85-13.41.14-20.18-.97-9.25.85-18.49,1.01-27.75.31-18.18.23-36.38.62-54.56.2-9.05-2.03-17.61-4.01-26.27-.63-2.73-1.8-4.88-3.9-6.62-1.95-1.62-4.13-2.91-5.99-4.69-1.2-1.15-3.1-1.01-4.12.46-1.11,1.6-2.28,3.23-2.82,5.19-.15.56-.47,1.3,0,1.52,2.72,1.33.71,2.67.4,4.06-1.43-.22-.46-1.79-2-2.08Zm1.26,138.79c.66-3.82-.16-7.2-2.15-10.37-.3-.48-.6-.98-1.23-.9-.23.03-.49.37-.6.62-.74,1.69,2.04,9.28,3.99,10.64Zm-4.79-16.95c-.24-4.02-.41-7.34-.65-10.66-.05-.72-.04-1.81-.93-1.87-.99-.06-1.58.92-1.48,1.83.37,3.49.58,7.06,3.06,10.7Zm-4.11-75.81c.42-4.49,2.51-8.64,2.29-13.63-.87.65-1.69,1.06-1.64,1.27.71,3.17-1.36,5.69-1.84,8.54-.2,1.17.76,2.54,1.19,3.82Zm-1.88,50.71q2.06-1.27,2.33-8.37c-5.49,1.69-.98,5.49-2.33,8.37Zm5.19-93.13c.4.38.82.19,1.2.01,1.7-.78,1.94-2.2,1.59-3.82-.11-.5-.34-1.3-.95-1.04-1.24.54-1.27,1.9-1.53,3.03-.14.59-.77,1.12-.31,1.81Z"/><path class="cls-1" d="m218.33,310.44c-4.62-3.51-7.7-3.69-12.13-.87-.95.6-1.76.64-2.35-.08-2.57-3.14-5.49-6.09-6.94-9.99-1.76-4.73-3.42-9.5-4.98-14.3-.98-3.01-1.69-6.16-2.37-9.19-1.33-5.94-4.27-11.38-4.97-17.48-.19-1.67-.76-3.26-.95-5.02-.39-3.63,2.11-6.38,2.21-9.79.06-2.11,1.5-4,.62-6.4-.39-1.06.43-3.62,1.2-3.85,2.79-.83,2.9-3.29,4.09-5.14,1.17-1.8,1.74-3.29-.97-5.37,6.25.39,11.48.71,16.71,1.05.53.03,1.28-.03,1.3.68.01.46-.35,1.05-.72,1.38-.89.8-2.13,1.11-3.06.45-2.3-1.62-5.06-1.01-7.51-1.8-.95-.3-1.88.11-2.29.95-.91,1.87-2.18,3.77-2.35,5.75-.43,4.93-2.65,9.36-3.56,14.06-1.57,8.08-2.94,16.14,1.13,24.35,3.09,6.22,5.33,12.95,6.4,20.08.69,4.6,3.41,8.91,5.36,13.29.6,1.34,2.3.98,2.94.45,3.05-2.56,6.71-1.62,10.06-1.83,5.9-.37,6.95-.97,7.43-6.87.25-3.08.72-6.36-.03-9.26-.77-2.95-3.13-5.45-4.42-8.32-3.81-8.44-5.66-17.1-4.48-26.57,1.01-8.1,3.21-15.84,5.08-23.7.4-1.68,1.68-2.47,2.78-2.14,1.4.42.45,1.86.11,2.82-1.24,3.55-1.94,7.29-2.1,10.93-.23,5.06-1.85,9.6-3.32,14.31-1.71,5.47-.67,11.03,1.04,16.28,1.24,3.82,2.2,8.07,5.02,11.04,2.96,3.12,3.83,7.41,6.72,10.48.32.34.29,1.03.36,1.57.62,4.86,4.52,7.23,8.99,4.96,2.17-1.1,4.33-1.62,6.6-1.93,1.67-.23,2.36-.96,2.27-2.59-.32-5.97-.6-11.95-.93-17.92-.47-8.38-2.59-16.36-5.84-24.08-.4-.95-.65-2.61-.13-3.19,3.88-4.27,2.85-9.85,4.17-14.78,1.4-5.21,2.56-10.48,3.16-15.88.18-1.57.43-3.38-1.1-3.61-1.42-.21-3.29.94-3.73,2.64-.76,2.93-2.91,4.23-5.3,5.47-.99.51-2.03.95-2.61-.09-.67-1.2.61-1.74,1.43-2.18,2.75-1.5,4.61-3.56,5.34-6.73.35-1.54.65-3.35-.7-3.87-1.79-.7-4.08-.04-5.43,1.32-1.76,1.76-3.85,3.36-4.67,6.27-1.73-1.78.46-6.02-3.7-5.28-2.34.42-4.68,1.06-6.69,2.51-.03.73.5.92,1.04,1.04,1.48.34,3.65-.22,4.32.97.92,1.63,1.05,3.81,1.12,5.76.04,1.18-.12,2.13,1.81,2.52-1.43.34-2.35.72-3.27.74-1.22.03-2.16-.3-1.37-1.96.41-.85.58-1.97.43-2.9-.23-1.43.15-3.51-1.78-3.89-1.88-.37-4.09-1.35-5.77.44-.84.9-1.63.53-2.39.34-7.16-1.72-14.2-3.83-21.28-5.85-4.61-1.31-5.9-4.89-7.47-8.41-.72-1.61-1.16-3.25-2.87-4.03,1.45-2.45,4.89-2.02,5.83-4.75.02-.05.88,0,1.16.25.7.61.23,1.46.23,2.21,0,.47.06,1.14-.9.75-2.08-.83-1.91.87-1.81,1.94.54,6.05,4.96,9.32,11.38,7.52,1.65-.46,3.1-1.82,5.58-.98-2.79,2.68-5.91,3.34-9.64,3.29,4.41,3.44,7.77,1.01,10.78-1.34,2.3-1.79,5.33-2.62,7.18-4.61,4.04-4.35,9.92-3.6,14.54-6.13,2.27-1.24,4.63-5.79,3.83-8.2-.46-1.36-.52-2.14.75-3.08,1.46-1.08.53-2.91.86-4.37.14-.63.09-1.42,1.04-1.4.89.02.99.68,1,1.4.03,3.11,1.78,2.99,4.06,2.28,4.33-1.36,4.59-1.93,4.64-6.39.05-3.96-.62-7.69-1.96-11.38-.62-1.72-1.65-2.54-3.42-2.55-.89,0-1.78.03-2.66-.05-1.98-.16-4.21-1.04-5.88-.4-1.97.75-1.11,3.49-1.71,5.29-.2.58-.46,1.29-1.79,1.14,2.78-9.54.09-18.32-4.61-26.51,1.67-.91,2.06.04,2.16.43,1.38,5.01,5.44,9.2,4.39,14.96-.42,2.31-.55,3.77,3,2.35,2.77-1.11,6.23-.24,9.34,1.22,4.42,2.06,5.31,6.11,6.69,10.01.44,1.24.48,2.56,1.13,3.79.91,1.74.93,3.34-.86,4.98-2.42,2.21-2.72,4.78-.81,7.91,2.16,3.52,3.77,7.42,5.29,11.28.83,2.12-.26,4.44-.21,6.72.12,5.46,1.11,10.93.12,16.4-1.22,6.74-2.36,13.48-4.61,19.99-1.1,3.18-2.03,6.34-.67,9.87,1.05,2.73.42,5.83.59,8.73.38,6.75,2.67,13.18,4.65,19.66,1.14,3.73,3.41,7.57.67,11.8-1.14,1.77.24,4.08.34,6.16.17,3.73.32,7.29-3.04,9.93-.64.5-.86,1.53-1.34,2.27-1.1,1.7,0,4.4-2.54,5.43-5.05,2.04-9.79,5.23-15.7,3.81-3.83-.92-5.13-5.43-3.08-9.47,1.25-2.46,2.89-4.7,4.09-7.27,1.42-3.06-1.31-3.63-2.42-5.02-1.23-1.53-2.1.33-2.86,1-1.85,1.62-3.97,2.75-6.17,3.71-3.54,1.54-3.99,2.83-1.75,5.78.23.31.2.81.44,1.88Zm-11.22-99.38c-1.19,1.09-2.42-2.11-3.02.17-.42,1.58,1.53,1.09,2.46,1.41,3.84,1.33,7.23.02,11.03-1,6.01-1.62,12.14-3.25,18.47-3.66,5.12-.33,5.75-.92,5.98-4.92.32-5.49-.1-11.01,1.27-16.44.46-1.82-.72-2.47-2.38-1.83-5.79,2.2-9.6,4.98-7.77,11.9.19.71.46,1.57-.33,1.58-3.14.03-5.23,2.97-8.38,2.85-6.55-.25-11.19,4.02-16.4,6.93-1.37.76-1.91,1.74-.9,3.01Zm30.54,106.34c.59.21,1.34.77,1.84.24,2.53-2.68,8.12-2.24,7.92-7.73-.01-.37.35-.81.64-1.13,3.07-3.37,5.01-7,3.09-11.73-.24-.58-.13-1.38-.82-1.59-1.07-.33-1.21.61-1.51,1.32-.32.75.23,2.13-1.62,1.75-3.06-.63-6.09-.36-9.05.84-.85.34-1.63.94-2.79.79-1.51-.19-2.06.93-1.99,2.39.06,1.35.67,1.94,2.05,2.03,2.06.14,4.2-.02,5.99,1.4.53.42,1.89.13,1.65,1.15-.29,1.25-1.35.62-2.2.4-3.16-.82-6.19-1.76-9.49.13-2.64,1.51-4.28,3.5-3.47,6.25.72,2.48,2.39,4.85,5.85,4.06,1.27-.29,2.58-.38,3.91-.57Zm11.14-31.14c0,1.52-.02,3.05.01,4.57.01.51-.05,1.2.67,1.3.58.08,1-.34,1.29-.83,1.32-2.26-.13-3.71-1.97-5.03Z"/><path class="cls-1" d="m292.49,169.22c-1.53,1.35-.9,3.34-3.02,4.04.7-2.86,2.17-5.34,2.1-8.14-.03-1.08,1.03-2.82-1.72-2.15-.98.24-.68-1.35-.4-2.36.97-3.48,1.84-6.99,2.59-10.52.18-.85.56-2.26-.73-2.58-1.09-.27-1.27,1.08-1.59,1.8-3.89,8.74-5.68,17.76-3.79,27.33.6,3.02.68,6.14,1.05,9.21,1.11,9.28,3.53,18.32,4.71,27.61.72,5.68,3.42,11.09,5.07,16.68,2.31,7.82,4.46,15.69,6.69,23.53,2.89,10.15,5.66,20.34,8.81,30.41.76,2.42,1.92,4.94,3.84,6.87.61.61,1.1,1.67,2.08,1.28,1.02-.4.65-1.58.57-2.38-.69-6.32-1.5-12.63-2.2-18.95-.4-3.6-.39-7.27-1.05-10.82-2.04-10.96-2.58-22.07-3.14-33.13-.44-8.76-.52-17.57-.65-26.36-.01-.84-.05-2.02,1.15-2.08,1.68-.09,1.21-1.57,1.72-2.33.5-.22.79.1.77.39-.25,4.77,2.78,9.03,2.11,13.87-.3,2.15,1.44,3.89,1.33,6.1-.31,6.61,1.41,13.14,2.71,19.41,1.26,6.08,1.75,12.28,2.17,18.23.52,7.37,1.18,14.89.75,22.42-.3,5.26.98,10.62,1.67,15.92.3,2.35-.21,4.86,1.32,7,.36.51-.05,1.03-.34,1.51-1.02,1.69-1.32,3.5-.8,5.43.15.56.77,1.33-.41,1.44-.88.08-1.07-.62-1.08-1.33-.05-3.01.47-6.16-.23-9.01-1.78-7.24-1.55-14.58-2.06-21.9-.5-7.24-2.56-14.41-2.66-21.63-.1-7.15-1.2-14.14-1.69-21.21-.28-4.09-.6-8.2-1.68-12.19-.36-1.32-.43-2.61-.14-3.94.24-1.12-.14-2.26-1.24-2.32-1.29-.08-.82,1.27-.91,2.05-.41,3.53.26,7.05.29,10.58.09,8.74.43,17.54,1.64,26.18,1.54,11.04,2.56,22.1,3.53,33.2.37,4.24,1.69,8.39.81,12.86-1.2-.66-.93-1.81-1.06-2.79-.21-1.61-.21-1.58-1.76-1.61-.25,0-.5-.38-.75-.59-1.02-.83-2.04-1.66-3.08-2.51-2.38,3.41-2.02,7.83-4.38,11.47-.89-.97-.57-1.71-.19-2.47,1.71-3.52,2.24-7.39,3.36-11.09.87-2.87-1.34-5.05-2.13-7.44-2.63-7.95-4.27-16.16-6.76-24.14-4.41-14.08-8.31-28.32-12.75-42.39-1.77-5.59-2.4-11.34-3.64-16.99-1.94-8.82-2.13-17.84-3.81-26.7-1.03-5.4.07-11.17-.28-16.74-.42-6.71,1.42-13.26.83-20-.22-2.45,1.27-5.02,1.79-7.57,1.78-8.79,4.46-17.24,9.3-24.87.35-.56.81-1.08,1.31-1.5,3.79-3.24,6.02-7.62,8.78-11.67,2.85,3.04,3.41,7.74,6.67,10.79-1.55-.34-2.49-1.46-3.31-2.66-.77-1.14-1.7-2.04-3.01-2.5-.51-.17-1.05-.51-1.55-.06-.57.5-.23,1.03.12,1.45.56.68.91,1.45.12,2.04-4.05,3.06-3.29,8.01-4.6,12.07-1.98,6.15-3.5,12.51-4.51,18.9-.75,4.77-.52,9.71-.51,14.57.02,10.24-.44,20.54.48,30.7.68,7.48.05,15,1.36,22.43.4,2.26-.63,4.58.09,6.91.5,1.61-.55,3.96,2.31,4.32.14.02.38.38.34.51-1.69,4.89,4.27,8.88,1.61,14-.56,1.09-.38,3.14.32,4.18,1.63,2.44.75,4.88.96,7.61-1.92-2.14-2.51-4.34-2.57-6.84-.05-2.3-.26-4.67-2.32-6.29-.09-.07-.24-.18-.22-.23,1.31-4.07-1.86-7.22-2.21-10.9-.29-2.98.73-6.17-2.2-8.51-.58-.46-.99-1.73-.35-2.47,1.77-2.06.32-4.5.95-6.69.21-.72-.15-1.85-.91-1.97-3.14-.47-1.96-2.55-1.62-4.18.79-3.78.98-7.68,2.4-11.33.78-2.01-.27-3.85-.56-6.22Zm-1.81-31.68c-3.83,3.35-6.5,13.33-4.14,16.84.95-5.95,4.92-10.69,4.14-16.84Z"/><path class="cls-1" d="m377.56,229.35c-1.11-.97-.37-2.8-2.42-2.52.65,1.96,1.47,4.04-1.03,5.39-.47.25-.5.89-.16,1.48,1.94,3.27,1.49,7.22,2.9,10.6,2.9,6.92,2.43,14.53,4.67,21.59.95,3,.79,6.28,1.64,9.4.53,1.95,2.33,3.3,2.19,5.46-.06,1.03.72,2.47-.86,2.78-1.41.28-1.26-1.29-1.59-2.11-2.54-6.41-2.93-13.26-4.16-19.95-1.31-7.12-2.62-14.26-4.61-21.26-1.02-3.59-1.63-7.3-2.34-10.97-.71-3.64-2.25-7.15-2.77-10.69-.74-5.03-2.24-9.88-2.89-14.89-.87-6.66-1.85-13.29-2.94-19.91-1.26-7.62-1.91-15.32-2.56-23.02-.62-7.34-1.68-14.63-2.08-22.01-.48-8.82-.89-17.66.02-26.41.62-5.93,1.6-11.98,4.21-17.53,2.38-5.07,5.55-6.76,10.94-5.82.47.08.89.46,1.68.9-2.42.7-5.17-.87-6.28,1.03-1.34,2.32-2.41,5.26-2.28,7.87.32,6.41-.35,12.77-.21,19.16.16,7.1,1.3,14.17,1.12,21.21-.27,10.6,1.61,21.01,2.75,31.4.87,7.93,1.3,15.98,2.44,23.94,1.09,7.56,2.52,15.14,2.77,22.84.08,2.46.68,4.99,1.51,7.32.52,1.47.32,2.76.34,4.71Zm-5.63-22.75c.26-.05.51-.1.77-.15-.51-4.96-.98-9.92-1.54-14.88-.45-4.02-.99-8.03-1.51-12.05-.1-.8-.41-1.71-1.24-1.77-.98-.06-1.51.86-1.77,1.72-.18.61-.09,1.3-.14,1.95-.38,4.97,1.98,9.43,2.6,14.24.48,3.71,1.85,7.3,2.82,10.94Z"/><path class="cls-1" d="m328.5,297.63c-2.64-4.14.24-7.99.47-11.89.45-7.92,2.06-15.72,2.6-23.67.45-6.65,1.1-13.35,2.47-19.93,1.43-6.83,1.86-13.76,1.3-20.71-.42-5.17-.63-10.35-.23-15.49.65-8.33,1.65-16.92.6-24.94-1.23-9.41.61-18.73-1.14-28-2.03-10.83-3.38-21.79-5.7-32.55-1.17-5.44-2.9-11.08-6.95-15.27-2.32-2.4-5.27-4.2-7.51-6.74.36-1.08,1.98.68,2.01-.87.05-2.04-2.14-.93-3-2.02,3.2-1.97,6.26-.3,8.47,1.17,6.08,4.07,9.38,10.1,11.61,17.19,2.72,8.69,3.13,17.52,4.12,26.41,1.07,9.53.51,19.1,1.71,28.6.45,3.56,0,7.34-.68,10.9-1.03,5.4,0,10.77-.42,16.16-.72,9.1,1.01,18.22-.2,27.38-.45,3.38,1.12,7.01-1.02,10.29-.11.16-.13.46-.07.65,1.31,3.68.75,6.71-1.01,10.5-2.26,4.84-2.72,10.66-2.77,16.19-.06,6.97-1.36,13.84-2.26,20.66-.69,5.24-.89,10.69-2.38,15.99Zm-1.51-193.77c-.21,2.96-.81,5.61,2.2,7.38.39-2.82.36-5.21-2.2-7.38Z"/><path class="cls-1" d="m143.51,95.96c-3.49-.54-2.97,1.17-2.72,3.43,1.3,11.72.68,23.51.59,35.26-.1,13.86-.2,27.77,1.02,41.51,1.4,15.86.81,31.67.94,47.49.12,13.69.47,27.38.55,41.07.08,14.46-.33,28.93-.38,43.4-.01,2.91-.43,5.96,1.52,8.66.91,1.27-.47,2.15-1.28,3.01-1.69-2.12-1.33-4.5-1.43-6.95-.35-8.98-.41-17.96.01-26.92.47-9.86-.22-19.68-.21-29.52.01-12.61.23-25.23-.17-37.83-.33-10.3.65-20.59,0-30.87-.62-9.78-1.36-19.55-1.9-29.33-.24-4.29.29-8.66-.26-12.89-1.05-8.13.71-16.21-.05-24.33-.35-3.72.37-7.52.33-11.28-.05-4.54-.38-9.07-.64-13.6-.08-1.35-1.06-2.16-2.11-2.8-6.03-3.69-11.45-8.3-17.73-11.63-2.59-1.37-4.07-3.52-4.27-6.91-.74-12.3-1.06-24.63-3.1-36.86-1.07-6.44-.99-13.14.75-19.75,1.02-3.89.6-8.13,2.84-11.79.6-.99.91-2.05,2.94-1.59-4.21,4.95-3.96,11.09-4.86,16.79-1.27,8.1-.61,16.26,1.3,24.33,2.04,8.61,2.28,17.45,2.3,26.26,0,3.71,1.04,6.59,4.93,8.01,4.68,1.71,7.7,5.72,11.46,8.72,2.19,1.75,4.78,3.03,7.25,4.4.89.49,1.77.86,2.36,2.52Z"/><path class="cls-1" d="m390.31,285.93c1.55-9.98.98-20.05,1.91-30.04.68-7.3.85-14.74.1-22.16-.53-5.3-.28-10.77.8-15.98.62-2.98-.51-5.6-.34-8.46.27-4.52.64-9.01,1.26-13.49.09-.65.13-1.34.02-1.98-1.01-5.63-.15-11.35-.61-16.96-.73-8.87-.27-17.75-1.15-26.64-1-10.09-1.88-20.2-3.79-30.15-1.16-6.09-2.17-12.34-5.36-17.91-1.07-1.87-1.18-4.17-2.05-6.23-1.93-4.6-1.7-4.7-4.3-6.7,2.91-.89,4.64-.35,5.67,2.3,1.09,2.83,2.54,5.46,3.25,8.57.63,2.78,2.14,5.55,3.11,8.44,1.99,5.9,2.32,12.03,3.56,18.02,1.22,5.9,2.15,11.84,2.31,17.84.21,7.87,2.15,15.67.9,23.6-.16,1.03.4,2.15.46,3.24.48,8.42-.33,16.86-.18,25.23.1,5.5-1.46,11.03.02,16.52.53,1.98.28,4.03-.33,5.92-1.77,5.45-.7,10.92-.62,16.43.08,5.7-.04,11.47-.45,17.19-.45,6.24-1.76,12.5-1.44,18.68.17,3.36-1.53,6.46-.48,9.85.56,1.8-.73,3.53-2.28,4.88Z"/><path class="cls-1" d="m319.66,58.44c-.91,2.12.26,4.25.09,6.49-.39,5.04-2.63,9.25-5,13.46-1.16,2.07-2.74,3.74-5.32,4.11-.69.1-1.8-.08-1.98.85-.47,2.41-1.47.89-2.11.28-4-3.76-7.83-7.57-8.4-13.54-.62-6.6-1.57-13.16-2.3-19.75-.38-3.43.53-6.64,2.84-9.13,3.62-3.89,6.93-3.91,12.4-1.04,7.44,3.9,9.69,10.43,9.79,18.28Zm-16.36-3.78c-.05,6.64.54,13.23,1.58,19.78.34,2.13,1.42,4.22,3.48,4.78,1.98.54,3.55-1.31,4.52-2.82,4.53-7,6.65-14.6,4.47-22.89-1.4-5.35-3.8-10.11-9.32-12.47-1.75-.75-2.74-.44-3.57,1.48-1.71,3.97-.69,8.1-1.17,12.14Z"/><path class="cls-1" d="m199.78,168.85c1.21-.1,2.42-.18,3.62-.3,1.52-.15,3.01-.16,3.4,1.73.38,1.78.01,3.48-1.92,4.06-1.46.44-2.72,1.5-4.36,1.37-.42-.03-1.1.02-1.25.27-1.91,3.23-3.81.88-5.22-.25-6.55-5.21-10.28-12.19-11.22-20.4-.67-5.91,5.08-13.19,10.83-14.41,2.76-.59,5.2-2.83,8.43-1.41.68.3,1.81.3,2.16.98.9,1.73,1.49,3.7,3.53.93.11-.16.65-.08.96,0,2.07.59,7.01,7.81,7.09,10.64-2.73-1.74-5.62-3.03-7.8-5.09-3.68-3.47-7.45-1.77-10.88-.41-2.33.93-4.65,2.34-6.93,3.61-1.36.75-2.35,1.71-2.69,3.18-.21.92-.62,2,.33,2.79.8.66,1.67.51,2.45-.05.56-.4,1.64-.76,1.45,0-.52,2.02-.24,4.62-1.88,5.9-1.33,1.04-1.69,1.67-1.23,3.17,1.29,4.22,3.94,7.45,7.76,11.17-1.53-4.5,1.14-5.92,3.45-7.56l-.1.07Z"/><path class="cls-1" d="m376.97,65.17c-.35,4.85-.97,9.02-3.86,12.34-3.06,3.53-9.3,3.07-11.5-1-2.41-4.47-4.22-9.08-2.51-14.51.9-2.86.47-6.11,1.68-9.02.47-1.12.65-2.48,2.18-2.56,1.23-.06,1.63-2.19,3.03-1.28,1.99,1.28,4.57,1.01,6.32,3.22,3.18,4.02,3.8,8.71,4.65,12.81Zm-12.63-4.15c-.48,2.35.44,4.61.36,6.95-.08,2.3.3,4.5,1.13,6.75.55,1.5.49,3.03,2.47,3.32,2.09.31,2.99-1.21,3.79-2.65,1.62-2.89,1.29-6.06,1.51-9.24.34-4.88-1.6-8.8-3.75-12.76-.76-1.4-2.2-2.57-3.87-1.69-1.78.94-2.75,2.75-1.97,4.77.6,1.56.52,3.01.33,4.54Z"/><path class="cls-1" d="m152.15,180.28c0,5.84-.23,11.69.05,17.51.54,11.14,1.11,22.31,2.21,33.38.77,7.72.25,15.55,1.8,23.13,1.29,6.32.08,13.26,2.51,18.93,3.18,7.42.67,14.83,2.25,21.94,1.69,7.57-.33,15.19,1.36,22.66.5,2.2-2.15,3.07-2.23,5.12-.01.38-1,.14-1.41-.26-.54-.52-.76-1.32-.09-1.7,2.68-1.55,2.28-4.12,2.18-6.49-.27-6.74.49-13.72-1.46-20.14-1.94-6.36-1.14-12.83-2.25-19.22-1.45-8.32-2.03-16.93-2.72-25.43-1.16-14.26-1.76-28.56-2.56-42.84-.43-7.73-.91-15.47-1.03-23.22-.02-1.12-.4-2.37,1.37-3.36Z"/><path class="cls-1" d="m124.02,28.55c3.05-2.12,5.77-.88,8.19-.84,2.5.04,5.07-.03,7.58.27,2.9.34,4.28,2.09,3.33,4.8-.7,2.01-.51,3.88-.36,5.87.44,5.63-.67,11.21-.7,16.82,0,2.42-.01,4.81-.61,7.24-.69,2.76-2.39,3.61-4.85,3.36-4.72-.49-9.42-1.17-14.15-1.67-1.38-.15-1.38-.9-1.56-2-1.03-6.22.21-12.53-.72-18.7-.68-4.53-.28-8.95.12-13.41.1-1.07-.51-2.98,1.28-2.86,1.4.1.67,1.72.69,2.78.12,6.93.66,13.86.38,20.77-.15,3.51.69,6.82.71,10.23.01,1.8,1.03,2.22,2.54,2.34,3.52.28,7.05.51,10.54.99,2.35.32,3.32-.79,3.61-2.81.22-1.53.47-3.12.3-4.64-.82-7.21,2-14.42.02-21.62-.06-.2.02-.44.01-.66-.07-1.7,1.91-3.33.41-5.03-1.29-1.46-3.15-.27-4.74-.51-3.72-.55-7.53-.5-12.02-.72Z"/><path class="cls-1" d="m144.3,94.74c6.44-3.32,11.06-8.3,16.66-11.97,1.12-.73,2.11-1.44,1.8-3.15-1.4-7.76-.36-15.54.08-23.31.48-8.5.67-16.99.43-25.52-.14-4.96.04-9.94-.16-14.93-.28-7.18-2.42-10.02-9.51-11.14-5.87-.92-11.76-1.72-17.63-2.67-3.75-.6-7.51-.53-11.28-.51-1.32,0-2.82.29-3.85-1.55,3.9,1.19,7.52.45,11.08.59,9.11.35,17.96,2.16,26.76,4.28,2.9.7,6.1,5.22,6.09,8.8-.02,5.35.17,10.71.36,16.03.4,11.04-.67,21.99-1.03,32.97-.19,5.81-1.13,11.58-.58,17.43.14,1.54-.38,2.78-1.9,3.87-4.66,3.32-9.11,6.94-13.64,10.44-.9.69-1.79,1.37-3.67.33Z"/><path class="cls-1" d="m178.3,201.65c-3.29,1.25-2.79,3.16-1.8,5.57.93,2.29,1.48,4.72,1.76,7.29.49,4.46,3.73,7,8.23,8.17-2.06,1.14-6.87-.46-7.82-2.71-2.09-4.96-5.55-9.44-5.58-15.14,0-1.51-.84-1.19-1.73-1.17-5.93.14-5.8.15-5.31-5.95.36-4.49.73-8.96,1.46-13.41.96-5.89,5.8-10.42,11.6-10.79,1.34-.09,1.09.67,1.22,1.38.59,3.26,1.92,6.27,3.09,9.34.93,2.46,2.84,3.54,5.1,4.31.7.24,1.8.26,1.5,1.32-.32,1.1-1.35.84-2.24.63-3.45-.78-5.51-3.29-6.78-6.21-.89-2.05-2.31-3.98-2.2-6.48.07-1.54-.66-2-2.55-1.61-4.87,1.03-6.63,4.55-7.32,8.67-.82,4.89-1.02,9.88-1.52,14.82-.21,2.07.79,2.67,2.58,2.13,2.69-.81,5.36-.28,8.33-.16Z"/><path class="cls-1" d="m74.2,290.13c2.5-1.04,5.08-.2,7.59-.3,11.49-.45,23-.6,34.47-1.54,1.43-.12,2.95.03,4.44-.05.59-.03,1.76-.57,1.75.79,0,.88-.73.79-1.43.89-11.89,1.66-23.83,2.94-35.78,4.09-3.99.38-7.86,1.9-12.18,1.09.84-1.6,2.42-1.66,3.62-1.45,1.76.3,3.2-.85,4.89-.62.69.09,1.24-.51,1.18-1.29-.07-.92-.86-.89-1.51-.87-2.38.08-4.74.02-7.05-.73Z"/><path class="cls-1" d="m142.37,73.62c3.13.28,7.13-.94,11.18.04,1.67.4,2.11,1.18,1.98,2.75-.43,5.39-5.27,8.71-10.57,7.13-.71-.21-1.36-.21-1.89.22-2.72,2.2-5.22.19-7.7-.49-1.28-.35-.62-1.94-.75-2.97q-.81-6.38,5.53-6.68c.44-.02.89,0,2.22,0Zm1.76,8.42c2.08-.71,4.78-.17,7.38-.65,1.29-.24,1.81-1.09,1.91-2.33.05-.68.14-1.61-.73-1.45-2.14.4-3.39-1.38-5.17-1.83-.59-.15-1.4-.95-1.7-.17-.83,2.12-2.02,1.74-3.87,1.45-1.54-.24-3.31.82-4.93,1.42-.69.26-.82.96-.57,1.68.27.78.65,1.36,1.59,1.42,1.86.11,3.73.28,6.08.46Z"/><path class="cls-1" d="m155.29,13.6c.18,6.52-.32,7.75-7.51,5.17-1.46-.52-2.24-1.47-3.34.97-1.2,2.67-4.33,1.01-6.59.92-1.94-.07-2.32-1.88-2.48-3.42-.14-1.3.07-2.64.16-3.96.39-5.52,1.72-6.58,7.02-5.81,1.15.17,1.47.75,1.53,1.74.09,1.52.25,3.03.28,4.55.01.73.05,1.41.86,1.53.76.11,1.18-.48,1.37-1.17.27-.95.73-1.92.72-2.87-.02-1.48.5-2.47,1.96-2.45,2.03.03,4.37-.78,5.97.85,1.04,1.06-.26,2.75.04,3.94Zm-13.02.73s.07,0,.1,0c-.07-.88-.18-1.76-.21-2.64-.06-1.44.21-2.87-2.15-2.77-2.22.1-2.86,1.2-2.9,3.1-.03,1.21-.33,2.5-.01,3.61.51,1.79.71,4.34,3.35,4.15,2.53-.18,2.11-2.34,1.93-4.12-.04-.44-.07-.88-.11-1.32Zm10.58-.68c-.08-1.57,1.06-3.86-2.12-3.48-3.01.36-1.71,3.14-2.4,4.76-.51,1.19-.1,2.66,1.55,3.12,1.56.43,2.9.46,2.86-1.77-.02-.87.07-1.75.12-2.62Z"/><path class="cls-1" d="m149.86,96.18c-.24,24.85-1.39,49.69,1.56,74.51-.57,0-1.14,0-1.7.01-3.27-24.82-1.23-49.68.14-74.52Z"/><path class="cls-1" d="m177.45,154.75c.29-4.47-.38-7.63,1.15-10.54.41-.79.63-1.83,1.8-1.41.82.29.82,1.08.77,1.95-.41,7.44-.78,14.89-1.07,22.34-.04,1.17-.34,2.16-1.45,2.21-1.52.08-1.14-1.46-1.16-2.23-.11-4.58-.05-9.16-.05-12.32Z"/><path class="cls-1" d="m129.27,7.36c2.36-.46,3.68.59,3.73,3.36.02,1.31.12,2.76.67,3.91,1.32,2.76-.16,3.68-2.43,4.04-3.88.6-7.78.35-11.66.03-1.45-.12-2.85-.48-1.49-2.44.18-.27.27-.61.36-.93,2.15-7.59,2.51-7.86,10.82-7.97Zm-3.22,10.49c0,.06,0,.12,0,.19,1.1,0,2.22.08,3.31-.03,1-.1,2.16-.36,2.13-1.65-.05-2.09-.23-4.19-.53-6.26-.14-.96-.62-1.85-1.9-2-4.03-.46-7.59,1.99-8.48,5.91-.61,2.7.64,4.18,3.48,4.09.66-.02,1.32-.17,1.97-.26Z"/><path class="cls-1" d="m219.85,137.76c-7.07-.96-10.25-7.43-16.36-8.28,8.59-.89,8.06-.19,16.36,8.28Z"/><path class="cls-1" d="m199.88,168.79c-4.76-.18-5.78-1.32-5.4-6.33.26-3.4-.36-6.89,1.68-10.2,0,2.71.1,5.43-.03,8.13-.13,2.8-.84,5.57,3.58,5.81,1.75.1,1.18,1.7.08,2.66,0,0,.09-.06.09-.06Z"/><path class="cls-1" d="m217.63,317.15c1.16-5.35,5.18-8.84,4.06-13.87-.15-.67.62-.81,1.17-.81,1.05,0,1.13.72,1.23,1.57.55,4.57-.89,8.28-4.56,11.11-.49.38-.86.9-1.9,2Z"/><path class="cls-1" d="m202.84,191.06c-2.07,2.83-4.2,1.04-5.73.28-3.6-1.77-7.28-3.8-7.27-8.77,3.3,4.26,7.31,7.35,13,8.48Z"/><path class="cls-1" d="m361.81,296.11c-6.54-1.13-13.25-.73-19.71-2.21,6.47,1.74,13.58-2.08,19.71,2.21Z"/><path class="cls-1" d="m213.32,171.47c2.16-4.78,3.31-9.84,4.25-14.95,1.44,5.62.29,9.79-4.25,14.95Z"/><path class="cls-1" d="m201.8,313.47c.44,3.53,2.55,4.4,5.75,4.48,2.7.07,5.45-.86,8.14.31-3.77.47-7.52,1.22-11.34.67-4.51-.65-4.63-.96-2.55-5.46Z"/><path class="cls-1" d="m222.3,174.27c.22,1.29-.18,1.68-.58,2.04-3.63,3.24-6.52,7.13-9.6,10.88,1.76-5.45,5.68-9.13,10.17-12.91Z"/><path class="cls-1" d="m206.9,193.93c3.4-2.84,7.97-3.46,11.57-7.11-1.48,4.11-7.83,7.7-11.57,7.11Z"/><path class="cls-1" d="m186.53,137.91c3.55-3.7,7.5-6.58,12.7-7.04-4.26,2.33-8.36,4.94-12.7,7.04Z"/><path class="cls-1" d="m391.17,298.35c-3.87,1.13-6.36-.44-6.85-3.66-.13-.85.13-1.3.99-1.25,1.02.06,2.19.27,2.41,1.37.6,2.99.52,3.01,3.44,3.54Z"/><path class="cls-1" d="m51.27,303.18c-1.39-.06-3.01.09-3.04-1.49-.04-2.4,2.82-.9,3.89-2.31.24-.32,1.45,1.77,1.51,2.52.11,1.5-1.51,1.13-2.36,1.29Z"/><path class="cls-1" d="m208.93,152.84c-1.07,2.56-2.94,3.89-4.27,5.61-.23.3-.88.43-1.07-.11-.16-.47-.26-1.19-.02-1.55,1.16-1.72,2.41-3.39,5.35-3.95Z"/><path class="cls-1" d="m225.9,175.13c-.78,2.72-1.56,5.44-2.34,8.15-1.37-3.41.56-5.85,1.42-8.61.31.15.62.3.92.45Z"/><path class="cls-1" d="m200.67,152.51c2.18-.81,3.49-1.74,4.63-2.93.37-.39.9-.82,1.36-.18.22.31.34,1.07.17,1.22-1.52,1.27-2.63,3.68-6.15,1.89Z"/><path class="cls-1" d="m136.57,35.95c-2.43-.03-4.86,1.5-7.49-.08,2.84-1.45,5.22-.44,7.49.08Z"/></g></svg>