<svg xmlns="http://www.w3.org/2000/svg" width="164.41" height="82.2" viewBox="0 0 164.41 82.2"><path fill="#FFF" d="M48.526 58.92c-2.02-2.344-3.705-4.98-4.992-7.836l-.12-.267c-1.075-2.438-1.854-5.032-2.302-7.74-.377 2.242-.988 4.413-1.805 6.48-.426 1.082-.904 2.144-1.443 3.166-1.14 2.17-2.52 4.198-4.104 6.05v.003l-.01.013c-5.357 6.245-13.094 10.16-21.324 11.113.775-8.348 4.608-16.057 10.837-21.48h.004c1.89-1.628 3.977-3.038 6.21-4.2 1.738-.905 3.567-1.657 5.47-2.237 1.354-.414 2.74-.755 4.16-.99-5.875-.985-11.232-3.55-15.614-7.267l-.002-.012-.08-.07c-6.245-5.354-10.06-13-11.017-21.23 8.33.772 15.896 4.65 21.316 10.856 2.3 2.678 4.17 5.738 5.51 9.068.658 1.634 1.187 3.33 1.573 5.082.12.557.23 1.026.322 1.593.095-.557.2-1.02.32-1.57.402-1.81.96-3.562 1.65-5.247 1.322-3.215 3.15-6.178 5.38-8.79C49.09 15.135 46.56 6.675 40.89 0c-5.313 6.557-7.708 14.704-7.22 22.685-5.63-6.312-13.218-10.246-21.604-10.926l-.377-.032.038.376c.875 8.354 4.868 15.987 11.25 21.534C14.84 33.136 6.56 35.663 0 41.238c6.56 5.313 14.706 7.708 22.688 7.218-6.36 5.643-10.236 13.352-10.92 21.777l-.032.38.378-.04c8.4-.88 16.07-4.912 21.624-11.352-.5 8.132 2.03 16.41 7.6 22.964 5.442-6.712 7.83-15.098 7.188-23.264z"/><circle fill="#FFF" cx="19.06" cy="18.866" r="1.309"/><path fill="#FFF" d="M43.142 41.54c-.284 1.12-1.42 1.793-2.537 1.51-1.117-.28-1.795-1.415-1.512-2.534.28-1.117 1.418-1.793 2.537-1.512 1.115.283 1.793 1.42 1.512 2.537zM20.362 63.472c-.18.7-.892 1.127-1.592.946-.7-.176-1.124-.89-.947-1.588.18-.703.89-1.125 1.59-.947.7.177 1.125.888.95 1.59zM21.46 21.353c.603 5.793 5.27 10.397 11.046 10.895-.563-5.807-5.234-10.424-11.047-10.895zM21.604 60.657c5.793-.61 10.398-5.273 10.896-11.05-5.808.563-10.423 5.233-10.896 11.05z"/><g fill="#0089B3"><circle cx="41.195" cy="9.743" r="1.309"/><circle cx="41.109" cy="72.362" r="1.309"/><circle cx="9.674" cy="41.048" r="1.309"/><path d="M13.327 41.08c4.517 3.676 11.072 3.65 15.516-.07-4.494-3.72-11.06-3.697-15.516.07zM41.21 28.73c3.736-4.48 3.738-11.048-.012-15.518-3.695 4.502-3.69 11.058.013 15.517zM41.123 68.896c3.735-4.48 3.738-11.047-.013-15.517-3.693 4.5-3.69 11.057.013 15.516z"/></g><g fill="#FFF"><path d="M53.81 35.518h1.46c.36 0 .655-.045.88-.135.226-.09.4-.2.527-.334.124-.133.21-.275.256-.43.044-.15.067-.29.067-.416s-.022-.264-.067-.417c-.047-.152-.132-.294-.256-.427-.126-.132-.3-.244-.528-.333-.226-.09-.52-.136-.88-.136h-1.46v2.628zm-.69-3.252h1.94c.098 0 .23.004.396.01.167.008.348.03.542.064.195.034.392.09.594.167.2.076.382.188.54.334.162.147.293.33.4.553.103.223.154.493.154.813 0 .354-.06.647-.183.876-.12.23-.272.416-.458.558-.183.143-.387.25-.61.317-.222.07-.434.12-.636.146l2.148 3.545h-.783l-2.074-3.503h-1.28v3.503h-.69v-7.382zM61.722 32.266h.834l-1.396 1.5h-.52l1.082-1.5zm1.23 4.566c0-.215-.042-.417-.13-.604s-.206-.353-.356-.496c-.15-.142-.325-.255-.53-.338-.205-.083-.422-.125-.652-.125-.34 0-.623.068-.85.207-.226.14-.406.3-.538.48-.13.18-.225.355-.28.526-.057.17-.085.286-.085.35h3.422zm.48 1.91c-.244.367-.544.63-.9.79-.36.16-.754.24-1.185.24-.368 0-.704-.062-1-.187-.3-.126-.556-.3-.772-.526-.218-.228-.383-.494-.497-.804-.114-.31-.17-.65-.17-1.026 0-.36.058-.695.176-1 .12-.307.285-.572.5-.798.216-.226.47-.403.76-.532.294-.128.617-.193.97-.193.368 0 .694.064.976.193.28.13.517.3.71.512.19.212.335.453.432.725.098.27.146.545.146.823v.438h-4.046c0 .132.028.3.077.506.052.206.15.405.287.6.14.194.327.36.56.5.232.14.533.208.9.208.32 0 .63-.076.928-.23.3-.15.53-.36.688-.624l.46.383zM65.037 38.416c.132.257.328.455.583.59.258.136.53.203.814.203.132 0 .264-.022.396-.064.132-.04.25-.1.354-.176.103-.077.188-.17.254-.277.066-.107.1-.23.1-.37 0-.222-.07-.39-.214-.5-.143-.11-.318-.2-.525-.262-.21-.06-.44-.115-.69-.16-.25-.045-.48-.115-.688-.21-.207-.093-.384-.224-.525-.39-.144-.167-.215-.403-.215-.71 0-.235.048-.44.147-.614.095-.173.22-.317.38-.433.155-.114.33-.2.523-.255.197-.056.395-.083.596-.083.395 0 .738.074 1.025.22.29.146.514.375.673.688l-.563.333c-.12-.222-.266-.39-.444-.506-.175-.114-.407-.17-.69-.17-.113 0-.23.017-.35.05-.124.036-.23.085-.33.147-.097.063-.178.142-.246.24-.065.097-.098.207-.098.333 0 .215.072.375.213.48.142.103.317.186.527.244.208.06.436.11.687.15s.48.11.69.205c.207.093.382.228.526.405.14.178.213.43.213.756 0 .25-.046.467-.142.652-.093.184-.22.34-.384.464-.165.125-.35.22-.558.282-.21.063-.43.094-.657.094-.416 0-.797-.08-1.14-.242-.344-.158-.61-.404-.798-.74l.555-.374zM73.294 36.832c0-.215-.042-.417-.13-.604-.086-.188-.206-.353-.355-.496-.15-.142-.33-.255-.532-.338-.206-.083-.423-.125-.65-.125-.342 0-.626.068-.85.207-.227.14-.406.3-.538.48-.13.18-.227.355-.28.526-.057.17-.085.286-.085.35h3.42zm.48 1.91c-.243.367-.544.63-.903.79-.356.16-.75.24-1.183.24-.368 0-.702-.062-1-.187-.298-.126-.557-.3-.772-.526-.214-.228-.38-.494-.494-.804-.113-.31-.172-.65-.172-1.026 0-.36.06-.695.177-1 .118-.307.285-.572.5-.798.218-.226.47-.403.763-.532.29-.128.614-.193.97-.193.368 0 .69.064.975.193.282.13.517.3.708.512.192.212.335.453.432.725.098.27.148.545.148.823v.438h-4.046c0 .132.025.3.078.506.052.206.147.405.287.6.137.194.324.36.556.5.232.14.533.208.9.208.32 0 .63-.076.93-.23.3-.15.528-.36.69-.624l.457.383zM77.86 37.228c-.266 0-.52.018-.765.053-.248.035-.47.094-.67.177-.197.083-.353.195-.473.334-.118.14-.177.314-.177.522 0 .146.033.276.1.39.066.115.15.21.253.282.105.073.222.13.35.167.13.04.26.06.392.06.333 0 .61-.05.824-.147.216-.097.386-.224.516-.38.127-.157.217-.333.266-.532.05-.197.073-.396.073-.598v-.324h-.69zm1.25.396c0 .236.003.45.007.636 0 .188.008.362.016.52.006.162.016.31.024.45.01.138.026.276.048.416h-.584c-.04-.237-.06-.496-.06-.78h-.023c-.18.312-.405.54-.672.686-.27.148-.605.22-1.016.22-.21 0-.414-.026-.616-.077-.203-.053-.382-.137-.542-.25-.16-.115-.29-.264-.39-.444-.1-.18-.152-.398-.152-.655 0-.37.094-.66.28-.876.19-.216.42-.378.695-.485.274-.108.567-.178.875-.208.31-.032.582-.047.82-.047h.73v-.292c0-.417-.13-.716-.388-.896-.256-.18-.58-.27-.97-.27-.554 0-1.046.18-1.468.54l-.366-.426c.23-.223.516-.39.855-.506.34-.114.667-.172.98-.172.584 0 1.05.137 1.396.412.347.275.52.718.52 1.33v1.174zM84.907 38.292c0 .09.004.2.01.33.008.126.012.258.016.39.004.133.01.256.016.37.007.114.01.202.01.265h-.626c-.006-.18-.012-.354-.016-.52-.004-.17-.012-.276-.025-.324h-.03c-.126.264-.333.49-.626.683-.293.192-.633.287-1.02.287-.376 0-.685-.06-.925-.178-.238-.12-.426-.272-.562-.463-.136-.192-.228-.413-.276-.663-.05-.252-.073-.508-.073-.773V34.83h.627v2.835c0 .195.017.384.052.568.033.185.096.35.18.495.088.146.21.264.367.35.155.086.36.13.61.13.228 0 .446-.04.65-.118.208-.082.384-.203.53-.367s.27-.37.355-.615c.086-.247.13-.537.13-.87v-2.41h.627l-.003 3.464zM89.452 38.416c.133.257.326.455.584.59.256.136.527.203.813.203.132 0 .265-.022.395-.064.133-.04.25-.1.354-.176.104-.077.19-.17.257-.277.064-.107.1-.23.1-.37 0-.222-.07-.39-.212-.5-.146-.11-.32-.2-.53-.262-.206-.06-.437-.115-.687-.16-.25-.045-.48-.115-.687-.21-.208-.093-.382-.224-.525-.39-.142-.167-.213-.403-.213-.71 0-.235.047-.44.145-.614.098-.173.227-.317.38-.433.157-.114.335-.2.528-.255.195-.056.393-.083.594-.083.395 0 .737.074 1.026.22s.512.375.674.688l-.566.333c-.117-.222-.264-.39-.44-.506-.18-.114-.408-.17-.693-.17-.107 0-.227.017-.35.05-.123.036-.23.085-.328.147-.096.063-.178.142-.243.24-.07.097-.102.207-.102.333 0 .215.07.375.215.48.142.103.318.186.525.244.21.06.438.11.688.15s.48.11.69.205c.206.093.382.228.524.405.143.178.215.43.215.756 0 .25-.047.467-.14.652-.095.184-.227.34-.388.464-.164.125-.35.22-.56.282-.207.063-.427.094-.654.094-.418 0-.8-.08-1.144-.242-.345-.158-.61-.404-.8-.74l.552-.374zM98.01 38.292c0 .09.005.2.015.33l.015.39c.004.133.008.256.017.37.006.115.01.203.01.266h-.627c-.006-.18-.015-.354-.017-.52-.002-.17-.012-.276-.024-.324h-.032c-.125.264-.334.49-.627.683-.29.19-.632.287-1.02.287-.377 0-.686-.06-.924-.178-.24-.12-.428-.272-.563-.463-.135-.192-.23-.413-.276-.663-.05-.25-.074-.507-.074-.772V34.83h.627v2.836c0 .195.02.384.054.568.035.185.094.35.182.495.088.145.207.263.365.35s.36.13.612.13c.227 0 .444-.04.65-.12.2-.08.382-.202.53-.366.147-.164.27-.37.354-.615.085-.247.13-.538.13-.87v-2.41h.624v3.462zM99.89 34.83h.625v4.817h-.625V34.83zm-.16-1.907c0-.132.048-.244.138-.333.092-.09.2-.136.334-.136.13 0 .244.045.334.136.09.09.133.202.133.333 0 .132-.044.243-.134.334-.09.09-.203.135-.334.135-.133 0-.242-.044-.334-.135-.09-.09-.137-.202-.137-.334zM102.35 38.416c.134.257.33.455.585.59.256.136.53.203.814.203.13 0 .263-.022.394-.064.133-.04.25-.1.355-.176.103-.077.187-.17.253-.277.066-.107.098-.23.098-.37 0-.222-.066-.39-.212-.5-.14-.11-.318-.2-.525-.262-.21-.06-.438-.115-.688-.16-.25-.045-.48-.115-.69-.21-.206-.093-.382-.224-.523-.39-.144-.167-.215-.403-.215-.71 0-.235.05-.44.146-.614.098-.173.223-.317.38-.433.157-.114.333-.2.526-.255.194-.056.394-.083.595-.083.396 0 .74.074 1.025.22.29.146.514.375.672.688l-.56.333c-.118-.222-.27-.39-.444-.506-.178-.114-.408-.17-.693-.17-.11 0-.23.017-.35.05-.12.036-.23.085-.328.147-.098.063-.18.142-.246.24-.065.097-.1.207-.1.333 0 .215.073.375.216.48.145.103.316.186.527.244.207.06.438.11.688.15.253.043.48.11.69.205.208.093.385.228.526.405.144.178.213.43.213.756 0 .25-.048.467-.142.652-.094.184-.22.34-.385.464-.164.125-.35.22-.56.282s-.428.094-.657.094c-.416 0-.795-.08-1.14-.242-.346-.158-.61-.404-.8-.74l.555-.374zM106.843 38.416c.133.257.328.455.584.59.258.136.53.203.814.203.134 0 .265-.022.397-.064.133-.04.25-.1.354-.176.105-.077.19-.17.257-.277.066-.107.1-.23.1-.37 0-.222-.072-.39-.215-.5-.143-.11-.318-.2-.525-.262-.21-.06-.438-.115-.688-.16-.25-.045-.48-.115-.69-.21-.206-.093-.384-.224-.523-.39-.144-.167-.216-.403-.216-.71 0-.235.05-.44.147-.614.098-.173.223-.317.38-.433.157-.114.333-.2.526-.255.195-.056.393-.083.594-.083.396 0 .74.074 1.027.22.29.146.514.375.672.688l-.563.333c-.117-.222-.267-.39-.443-.506-.178-.114-.406-.17-.693-.17-.11 0-.23.017-.348.05-.124.036-.23.085-.33.147-.097.063-.18.142-.245.24-.066.097-.1.207-.1.333 0 .215.072.375.213.48.145.103.32.186.53.244.206.06.435.11.685.15.252.043.482.11.69.205.208.093.382.228.525.405.142.178.213.43.213.756 0 .25-.046.467-.142.652-.095.184-.222.34-.384.464-.166.125-.352.22-.56.282-.208.063-.43.094-.657.094-.416 0-.797-.08-1.14-.242-.345-.158-.612-.404-.798-.74l.553-.374zM115.1 36.832c0-.215-.04-.417-.128-.604s-.205-.353-.354-.496c-.148-.142-.328-.255-.53-.338-.206-.083-.425-.125-.652-.125-.343 0-.623.068-.85.207s-.404.3-.538.48c-.13.18-.228.355-.28.526-.056.17-.082.286-.082.35h3.415zm.48 1.91c-.243.367-.544.63-.9.79-.358.16-.755.24-1.187.24-.367 0-.7-.062-.998-.187-.3-.126-.557-.3-.77-.526-.218-.228-.382-.494-.497-.804-.113-.31-.172-.65-.172-1.026 0-.36.06-.695.176-1 .12-.307.285-.572.5-.798.22-.226.472-.403.765-.532.29-.128.614-.193.97-.193.368 0 .692.064.977.193.28.13.518.3.707.512.19.212.337.453.433.725.098.27.146.545.146.823v.438h-4.044c0 .132.024.3.075.506.055.206.15.405.288.6.14.194.326.36.558.5.23.14.532.208.9.208.32 0 .632-.076.932-.23.3-.15.526-.36.688-.624l.453.383zM56.978 48.87c-.236.284-.503.495-.802.628-.298.137-.623.205-.97.205-.368 0-.71-.063-1.02-.19-.314-.122-.58-.3-.804-.52-.223-.23-.395-.497-.52-.807-.125-.31-.187-.647-.187-1.016 0-.367.062-.707.186-1.018.127-.31.3-.576.522-.803.223-.23.49-.403.803-.526.312-.127.654-.19 1.022-.19.354 0 .68.075.984.22.305.146.574.353.81.615l-.5.375c-.183-.2-.38-.36-.596-.477-.215-.113-.448-.17-.697-.17-.293 0-.558.05-.794.156-.236.104-.437.244-.603.422-.167.176-.295.387-.382.625-.087.24-.13.497-.13.77 0 .27.042.524.13.763.087.242.215.45.382.627.166.18.366.318.603.424.236.105.5.154.794.154.262 0 .506-.06.724-.18.218-.123.408-.285.57-.486l.478.397zM58.365 47.17c0 .27.042.524.13.763.088.242.214.45.38.627.167.18.368.318.606.424.237.105.5.154.79.154.294 0 .558-.05.794-.154.238-.104.44-.243.606-.424.167-.178.292-.385.38-.627.086-.237.13-.494.13-.764 0-.272-.044-.528-.13-.77-.087-.237-.213-.448-.38-.624-.167-.178-.368-.316-.606-.422-.237-.105-.5-.156-.793-.156-.29 0-.553.05-.79.156-.237.104-.438.244-.605.422-.167.176-.292.387-.38.625-.088.242-.13.498-.13.77zm-.626 0c0-.368.06-.708.187-1.02.124-.308.298-.575.52-.802.223-.228.49-.402.804-.525.314-.127.652-.19 1.02-.19.37 0 .71.064 1.02.19.31.123.577.3.803.525.225.227.4.494.525.803.127.312.188.65.188 1.02 0 .367-.06.706-.188 1.015-.124.31-.3.576-.525.806-.227.225-.495.4-.802.523-.31.127-.65.19-1.02.19-.367 0-.706-.064-1.02-.19-.313-.123-.58-.3-.802-.522-.223-.228-.397-.495-.52-.805-.127-.31-.19-.648-.19-1.016zM64.254 46.117c0-.092-.003-.2-.01-.33-.006-.13-.01-.258-.014-.39-.005-.132-.01-.257-.016-.372-.008-.115-.012-.2-.012-.266h.626c.01.18.012.353.016.52.003.17.012.276.027.325h.032c.124-.264.334-.492.625-.685.292-.19.632-.286 1.022-.286.376 0 .68.06.917.18.236.117.422.27.56.463.135.19.228.412.28.662.053.25.077.505.077.77v2.865h-.625V46.74c0-.194-.018-.383-.052-.566-.035-.185-.098-.35-.183-.494-.087-.148-.21-.265-.364-.353-.156-.088-.36-.13-.61-.13-.23 0-.446.04-.65.12-.207.08-.383.202-.533.362-.15.163-.267.368-.354.616-.087.246-.13.535-.13.87v2.407h-.627v-3.457h-.002zM72.46 45.324h-1.375v3.14c0 .212.06.38.177.5.118.116.28.175.49.175.12 0 .237-.015.36-.048.12-.03.237-.07.348-.12l.053.565c-.12.04-.255.078-.407.113s-.29.053-.407.053c-.223 0-.414-.033-.574-.1-.16-.066-.29-.154-.387-.267-.097-.112-.17-.24-.213-.39-.044-.148-.068-.313-.068-.485v-3.138h-1.043v-.563h1.042v-1.387h.625v1.386h1.375v.564zM73.628 46.117c0-.092-.004-.2-.01-.33-.007-.13-.013-.258-.016-.39-.004-.132-.01-.257-.015-.372-.007-.115-.012-.2-.012-.266h.627c.008.18.01.353.014.52.004.17.012.276.028.325.16-.285.365-.52.614-.7.25-.18.555-.27.918-.27.06 0 .123.006.182.016.058.014.12.024.183.038l-.073.615c-.083-.027-.163-.04-.24-.04-.27 0-.504.042-.703.13-.198.086-.362.207-.49.357-.128.154-.223.334-.287.537-.062.205-.094.428-.094.664v2.626h-.625v-3.46zM80.737 46.763c0-.217-.043-.418-.13-.604-.088-.19-.207-.355-.355-.497-.15-.142-.326-.256-.53-.338-.205-.084-.422-.125-.652-.125-.34 0-.623.067-.85.207-.226.142-.406.3-.538.48s-.224.356-.28.526c-.057.17-.084.285-.084.35h3.42zm.48 1.908c-.243.368-.544.632-.9.79-.36.162-.752.242-1.183.242-.368 0-.705-.063-1.004-.19-.298-.122-.554-.3-.77-.52-.215-.23-.38-.497-.496-.807-.114-.31-.17-.65-.17-1.026 0-.36.058-.693.176-1 .118-.31.285-.573.5-.8.214-.228.47-.402.76-.53.292-.13.617-.193.97-.193.368 0 .694.063.975.194.28.128.518.3.71.512.19.21.335.454.433.727.097.267.146.542.146.82v.437h-4.046c0 .133.027.303.08.506.05.207.146.406.284.6.14.195.326.36.56.502.23.14.532.207.9.207.32 0 .63-.076.927-.23.298-.148.53-.357.688-.622l.46.38zM85.68 41.694h.624v7.882h-.625zM88.35 42.195h.624v2.377h-.625zM94.675 46.763c0-.217-.04-.418-.13-.604-.087-.19-.204-.355-.354-.497-.146-.142-.327-.256-.53-.338-.204-.084-.422-.125-.65-.125-.343 0-.624.067-.85.207-.228.142-.405.3-.536.48-.134.18-.23.356-.283.526s-.08.285-.08.35h3.415zm.478 1.908c-.242.368-.54.632-.9.79-.355.162-.752.242-1.182.242-.368 0-.702-.063-1-.19-.3-.122-.56-.3-.774-.52-.213-.23-.38-.497-.494-.807-.113-.31-.172-.65-.172-1.026 0-.36.06-.693.178-1 .117-.31.283-.573.5-.8.217-.228.47-.402.762-.53.29-.13.615-.193.97-.193.37 0 .692.063.978.194.28.128.516.3.707.512.192.21.338.454.432.727.1.267.147.542.147.82v.437H91.26c0 .133.024.303.077.506.052.207.146.406.287.6.137.195.32.36.558.502.23.14.532.207.9.207.32 0 .63-.076.93-.23.3-.148.526-.357.687-.622l.453.38zM97.98 46.97l-1.72-2.21h.803l1.334 1.823 1.324-1.824h.782l-1.697 2.21 2.063 2.605h-.813l-1.68-2.178-1.646 2.178h-.75l2-2.605zM105.853 48.87c-.235.284-.506.495-.803.628-.3.137-.62.205-.97.205-.368 0-.708-.063-1.02-.19-.315-.122-.583-.3-.805-.52-.223-.23-.396-.497-.52-.807-.128-.31-.19-.647-.19-1.016 0-.367.063-.707.19-1.018.124-.31.298-.576.52-.803.222-.23.488-.403.804-.526.312-.127.65-.19 1.02-.19.354 0 .685.075.985.22.303.146.57.353.81.615l-.5.376c-.18-.2-.38-.36-.595-.477-.22-.114-.45-.17-.7-.17-.292 0-.556.05-.792.155-.236.104-.438.244-.604.422-.168.176-.293.387-.382.625-.088.24-.13.496-.13.768 0 .27.042.525.13.764.09.242.214.45.382.627.166.182.366.32.604.425.236.105.5.154.79.154.267 0 .507-.062.726-.18.22-.124.41-.286.57-.487l.48.396zM106.99 44.76h.626v4.815h-.627V44.76zm-.16-1.907c0-.133.048-.244.138-.334.09-.093.2-.138.334-.138.13 0 .242.045.332.137.092.09.137.2.137.333 0 .13-.044.24-.136.332-.09.092-.2.137-.332.137-.133 0-.244-.045-.334-.137s-.137-.2-.137-.332zM109.45 48.347c.13.256.326.453.584.59.256.136.527.2.813.2.13 0 .264-.02.396-.062.133-.04.252-.102.354-.176.105-.077.19-.17.256-.278.067-.107.1-.232.1-.37 0-.222-.07-.388-.213-.5-.145-.112-.317-.2-.526-.26-.21-.064-.438-.118-.688-.16-.25-.048-.48-.116-.688-.212-.21-.094-.383-.223-.524-.39-.144-.167-.215-.403-.215-.708 0-.238.05-.44.144-.615.098-.176.227-.318.38-.434.157-.115.335-.2.528-.256.194-.058.393-.084.594-.084.396 0 .738.073 1.027.22s.514.376.674.687l-.564.332c-.12-.222-.266-.392-.443-.506-.176-.112-.408-.17-.692-.17-.11 0-.228.017-.35.05-.124.036-.23.085-.33.147-.095.064-.177.144-.243.238-.065.1-.1.212-.1.335 0 .22.07.377.215.482.144.102.318.186.525.242.21.06.438.108.69.15.25.042.478.107.687.206.207.094.385.23.527.403.142.18.212.432.212.755 0 .252-.047.468-.14.65-.096.186-.225.342-.39.465-.16.127-.347.22-.556.284-.21.06-.43.093-.656.093-.418 0-.8-.08-1.144-.242-.344-.157-.608-.403-.797-.735l.55-.373zM114.036 44.76h.627v4.815h-.627V44.76zm-.156-1.907c0-.133.045-.244.135-.334.092-.093.203-.138.334-.138.132 0 .243.045.333.137.092.09.135.2.135.333 0 .13-.043.24-.135.332-.09.092-.2.137-.334.137s-.243-.045-.335-.137c-.09-.092-.135-.2-.135-.332zM116.84 47.17c0 .27.044.524.13.763.088.242.215.45.383.627.168.18.367.318.604.424.235.105.5.154.793.154.29 0 .558-.05.79-.154.238-.104.44-.243.605-.424.166-.178.295-.385.38-.627.087-.237.133-.494.133-.764 0-.272-.046-.528-.132-.77-.086-.237-.215-.448-.38-.624-.167-.178-.368-.316-.605-.422-.232-.105-.5-.156-.79-.156-.293 0-.558.05-.793.156-.235.104-.437.244-.604.422-.168.176-.295.387-.383.625-.086.242-.13.498-.13.77zm-.624 0c0-.368.063-.708.186-1.02.127-.308.3-.575.523-.802.223-.228.49-.402.803-.525.313-.127.652-.19 1.02-.19s.708.064 1.017.19c.312.123.578.3.803.525.226.226.402.494.53.803.122.312.183.65.183 1.02 0 .367-.06.706-.183 1.015-.127.31-.305.576-.53.806-.224.225-.49.4-.802.523-.31.127-.646.19-1.016.19s-.71-.064-1.022-.19c-.313-.123-.58-.3-.803-.522-.225-.228-.396-.495-.523-.805-.124-.31-.186-.648-.186-1.016zM122.73 46.117c0-.092-.003-.2-.012-.33-.006-.13-.01-.258-.014-.39-.002-.132-.01-.257-.02-.372-.003-.115-.01-.2-.01-.266h.628c.006.18.012.353.016.52.002.17.015.276.025.325h.03c.126-.264.335-.492.626-.685s.632-.286 1.022-.286c.375 0 .682.06.918.18.233.117.42.27.557.463.135.19.23.412.28.662.054.25.08.505.08.77v2.865h-.626V46.74c0-.194-.018-.383-.052-.566-.035-.185-.097-.35-.185-.494-.086-.148-.207-.265-.363-.353-.155-.088-.358-.13-.608-.13-.23 0-.447.04-.65.12-.207.08-.385.202-.535.362-.148.163-.268.368-.354.616-.086.246-.13.535-.13.87v2.407h-.626v-3.457h.004z"/></g></svg>