<?xml version="1.0" encoding="UTF-8"?><svg id="Calque_2" xmlns="http://www.w3.org/2000/svg" viewBox="0 0 414.23 310.67"><defs><style>.cls-1{fill:#fff;}</style></defs><g id="Calque_1-2"><path class="cls-1" d="m414.18,39.35c-5.28.76-10.62.52-15.92.93-2.26.17-4.73-.76-7.16-.17-.37.09-.72-.22-.7-.57.02-.27.29-.66.54-.75,1.21-.44,2.43-.81,3.67-1.16.77-.22,1.74.02,2.39-1.52-7.18.88-14.09,1.21-20.9,3.23q.92-1.54,3.43-2.11c.76-.17,1.75-.23,1.47-1.32-.27-1.03-1.05-.37-1.69-.26-1.18.2-2.4.46-3.57.34-3.06-.32-5.33,2.73-8.49,1.86-.43-.12-.87.19-1,.64-.19.63.3.9.75,1.18.71.43,1.51.23,2.25.37,4.86.96,9.8,1.12,14.71,1.62,3.74.39,7.29,1.97,11.15,1.64.73-.06,1.49.71,1.25,1.63-.28,1.05-.93.19-1.43.11-6.19-.93-12.62-.26-18.62-2.1-3.9-1.2-7.89-.98-11.79-1.71-2.82-.53-5.9-1.16-9.04-.95-2.52.17-5.26-.8-7.83-1.27-3.66-.67-7.52-1.22-11.34-1.23-1.45,0-2.9-.2-4.34-.12-1.84.11-1.76-.87-.92-1.78,1.08-1.17.36-1.3-.57-1.34-1.54-.06-3.77-1.6-3.84,1.79-.02.85-1.11.51-1.75.44-3.84-.39-7.69-1.24-11.51-1.09-5.96.24-11.62-2.12-17.56-1.55-.25.02-.53.02-.76-.06-2.99-1.04-6.25-.52-9.16-1.25-2.66-.67-5.34-1.08-7.98-1.33-7.09-.67-14.24-.71-21.33-1.38-4.32-.41-8.66-.59-12.96-.57-6.1.03-12.16-.46-18.24-.68-2.37-.09-5.15.41-7.38-1.29-.17-.13-.48-.1-.73-.08-13.27.99-26.44-.93-39.66-1.23-5.28-.12-10.66.59-15.84-.16-6.02-.87-12.01.08-18.03-.69-3.44-.44-7.09-.18-10.76-.29,1.56-1.97,3.61-1.57,5.52-1.64,6.12-.22,12.23-.45,18.35-.63.76-.02,1.8-.06,2.24.39,1.46,1.49,3.64.87,4.5.39,2.13-1.18,4.09-.36,6-.25,2.84.17,5.44-.12,8.1-1.14,5.27-2.02,10.71-3.49,16.3-4.38.85-.14,1.94-.13,2.56-1.29-2.26-1.11-4.56-.84-6.93-.9-3.38-.09-6.71,1.12-10.08.28-5.62,3.27-12.36,1.86-18.19,4.35-1.25.53-2.76-.13-4.17.2,6.89-2.65,14.12-3.75,21.68-5.31-2.09-1.97-4.04-.17-5.8-.59-2.75-.65-4.91,1.39-7.45,1.83-5.73,1.01-11.42,2.24-17.15,3.21-1.45.25-2.78,1.3-4.58.9.7-1.36,1.83-1.52,2.88-1.74,4.95-1.02,9.91-2.02,14.87-3.03.58-.12,1.4-.06,1.33-.86-.06-.65-.74-.73-1.42-.75-2.88-.09-5.66-1.87-8.54-.98-3.48,1.07-7,.07-10.52.63-1.95.31-4.23-.9-6.45-1.02-.94-.05-1.86-.32-2.79.04-.6.23-1.24.93-1.82.12-.54-.75.89-1.01.57-1.81-.71-.25-1.32-.14-1.79.52-.35.49-1.07.71-1.34.33-1.12-1.57-1.29-.48-2.37.23-2.43,1.61-5.18,2.97-8.25,3.23-3.45.29-6.66,1.61-9.98,2.33-3.4.74-6.92,1.16-10.38,1.79-1.88.34-3.76.71-5.72.72,2.33-1.4,4.92-1.84,7.54-2.27,5.68-.93,11.37-1.84,16.95-3.27,3.41-.87,3.4-.9,2.27-4.17-3.72.78-6.71,3.24-10.58,3.95-6.93,1.27-13.81,2.91-20.64,4.73-2.26.61-4.66,1.01-7.02,1.36-.54.08-1.39.29-1.53-.51-.16-.94.7-.97,1.39-1.09,3.64-.64,7.29-1.28,10.93-1.96,3.19-.6,6.04-2.59,9.47-2.28.51.05.62-.49.64-.94.02-.85-.55-1.02-1.2-.94-1.37.16-2.72.42-4.09.58-.61.07-1.56.6-1.71-.4-.12-.77.8-.67,1.38-.72.43-.04.86-.09,1.03-.85-1.25-.71-2.63,0-3.83.05-4.3.21-8.49-.87-12.76-.77-.79.02-1.79.06-2.35-.8-.36-.55-1.12-1.09-.68-1.8.48-.77,1.03.13,1.57.16.94.06,1.9.25,2.82.12,5.34-.76,10.67.37,16.06-.17,4.39-.45,8.99-1.25,13.25-.73,6.01.73,12.24-.96,18.03,1.63.15.07.41.15.47.09,2.96-3.28,6.67-1.03,9.85-.95,6.82.17,13.72.21,20.45,1.06,5.14.65,10.33.74,15.47,1.41,3.97.52,8.16.93,12.29.3,1.45-.22,3.02.43,4.54.48,2.53.09,5.22-.02,7.57.32,4.75.69,9.21-.84,13.86-.63,5.71.26,11.3,1.49,17.01,1.62,4.02.09,8.03.4,12.04.63,5.68.32,11.62-.25,16.98,1.25,5.11,1.44,10.16-.06,15.06,1.32,5.2,1.47,10.65,1.12,15.89,2.22,3.66.77,7.44,1.94,11.01,1.88,4.88-.09,9.52,1.22,14.34,1.4,4.79.18,9.68.97,14.52,1.48,4.82.51,9.76.42,14.45,1.47,5.52,1.23,11.27.75,16.67,3,2.83,1.18,6.22,1.06,9.37,1.4,3.94.42,8.12.81,11.61,2.14,5.2,1.98,10.26,2.6,15.63,2.44.32,0,.74.05.96.25,3.18,2.83,7.13,2.16,10.82,2.17,1.45,0,2.82.93,4.27.26v3.11Zm-192.42-20.19c.02-.36.04-.71.05-1.07-3.2.3-5.95-1.71-8.98-1.54-4.59.24-9.2-.38-13.79,1.42-4,1.57-8.56,1.62-12.71,2.89-1.65.51-4.04.01-5.1,2.31.47.18.86.44,1.26.46,4.06.18,8.13.49,12.19.42,2.92-.05,6.48,3.01,8.65-1.49.04-.08.35,0,.49-.07,3.16-1.52,6.6-1.62,9.98-2.04,2.66-.33,5.3-.84,7.95-1.27Zm11.1,6.68c2.69,1.14,5.26.97,7.78,1.04,5.7.17,11.37,1.73,17.14.12,2.27-.64,4.18-2.45,6.7-2.13,2.2.28,4.27-.2,6.35-.76.78-.21,1.66-.82,2.36.05.21.26.2.88.04,1.21-.42.88-1.31.5-2.04.65-1.63.32-3.49-.05-5,1.33,1.26,1.03,2.55.46,3.65.46,4.01-.02,7.89-1.1,11.81-1.88.55-.11,1.03-.39,1.07-.96.04-.66-.6-.95-1.05-.89-3.94.48-7.47-1.57-11.31-1.83-2.06-.14-4.17.2-6.1-.15-3.79-.68-7.44-1.99-10.7,1.34-.49.5-1.44.85-2.14.78-4.17-.38-8.24.98-12.44.52-1.87-.21-3.97-.15-6.1,1.11Zm100.63,1.96c.58.18,1.29.35,1.46-.46.17-.78-.53-1.01-1.1-1.18-4.2-1.27-8.67-1.73-12.84-1.37-4.17.36-7.91-2.34-11.99-.89-.12.04-.37-.07-.46-.19-1.12-1.59-2.82-1.24-4.26-1-2.49.4-4.63-1.05-7.12-.9-3.2.19-6.3-1.29-9.58-1-1.1.1-2.25,0-3.33-.24-1.17-.25-2.25-.85-3.42-1.12-.75-.17-1.8,0-1.98.79-.24,1.02.82,1.1,1.55,1.23,3.35.57,6.7,1.52,10.06,1.56,3.66.05,7.14,1.05,10.76,1.21,4.86.22,9.55,1.79,14.47,1.86,1.65.02,3.25.4,4.94-.02.86-.22,1.96-.09,2.8.26,3.23,1.37,6.57,1.82,10.05,1.46Zm11.52,3.49c.58-1.22,1.33-1.99,2.45-1.56,2.24.88,4.67.5,6.91,1.21.87.28,1.69.46,2.33-.38.3-.39.77-.89.31-1.36-.58-.58-1.27-.81-2.2-.94-2.74-.41-5.62.23-8.23-1.14-.69-.36-1.51-.5-2.26-.16-1.13.52-2.24.38-3.21-.21-.92-.56-1.84-.22-2.76-.33-.41-.05-.94,0-1.01.55-.07.62.38,1.02.93.94,1.42-.21,2.69.62,4.07.5.86-.08,1.66-.06,1.7.98.04.9-.74,1.37-1.49,1.55-.82.19-1.7.12-2.55.21-.7.08-1.49.29-1.58,1.08-.09.78.78.76,1.3.95,2.27.81,4.59.53,6.88.13.8-.14,2.06-.37,1.88-1.39-.24-1.41-1.46-.65-2.32-.55-.31.03-.63-.04-1.16-.09Zm26.61-.02c-2.14-.41-4.27-.97-6.43-1.18-1.02-.1-2.86-.65-2.42,1.74.18,1-.78.92-1.43,1.01-2.28.31-4.56.58-6.84.91-.5.07-1.06.27-.96.95.08.53.59.55,1,.63,2.27.45,4.54,1.29,6.8,1.23,2.11-.06,4.69-.26,6.08-2.07,1.17-1.53,2.3-2.67,4.21-3.22Zm-136.65-8.69c3.87.93,16.03-.44,18.38-2.13-.48-.85-1.46-.69-2.06-.66-3.28.17-6.48-.02-9.59-1.14-.41-.15-1.04,0-1.12.41-.65,3.3-3.89,2.24-5.61,3.53Zm57.55,4.52c-.6.73-1.27.8-1.97.71-.8-.1-1.48-.9-2.03-2.09-.25-.56-.87-.49-1.37-.44-1.98.19-.98,2.28-1.97,3.2-.44.4.4.86.89.82,2.81-.18,5.91,1.1,8.26-1.58.36-.41.95-.57,1.41-.2.97.76,1.91.38,2.92.13.75-.18,2.05.52,2.05-.75,0-1.42-1.17-1.04-2.12-.77-.21.06-.53-.48-.82-.49-2.61-.12-5.25-.66-8.03.03.75,1.32,2.03.49,2.78,1.43Zm-77.55-4.84c.39.09.79.27,1.18.27,6.41-.11,12.68-1.56,19.05-2.07.17-.01.35-.05.5-.11.37-.16.98-.18.86-.74-.08-.36-.47-.87-.78-.92-1.78-.26-3.91-.83-5.3.05-2.46,1.56-5.02,1.76-7.7,1.96-2.63.19-5.27.37-7.81,1.57Zm2.52,2.13c1.88,1.16,3.42,2.07,5.53,1.16.96-.42,2.23-.27,3.26.25,1.01.51,1.98.34,3,.11.88-.2,1.73-.38,1.72-1.52-.02-1.28-.97-.98-1.8-1.16-3.96-.83-7.59,1.03-11.7,1.15Zm-109.43-12.53c-.69,0-1.12-.01-1.55,0-1.1.04-2.34.39-2.2,1.58.17,1.44,1.44.62,2.28.53.42-.05.87-.04,1.26-.19.79-.29,2.28.16,2.15-1.18-.09-.95-1.38-.71-1.95-.75Z"/><path class="cls-1" d="m414.18,235.57c-10.72.49-21.43,1.13-32.12,2.16-3.29.32-6.71.38-10.08.41-2.53.02-5.14-.5-7.44,1.14-.25.18-.84.33-.93.21-1.32-1.56-2.89-.56-4.16-.2-4.08,1.14-8.34.45-12.31,1.22-4.76.93-9.62,1.64-14.54,2.95.91,1.45,2.44,1.34,3.57,1.82,5.62,2.39,11.33,4.28,17.63,3.95,2.31-.12,4.71.79,7.03,1.38,12.28,3.14,24.72,5.55,37.05,8.46,3.04.72,6.14,1.5,9.05,2.82,1.84.84,3.84,1.06,5.57-.51.46-.42,1.03-.63,1.67-.43v3.11c-3.79-.86-7.69.1-11.49-.75-1.52-.34-2.93-.72-4.06-1.86-.35-.35-.82-.72-1.29-.8-3.99-.66-7.75-2.18-11.77-2.82-5.04-.81-9.99-2.25-14.99-3.31-5.08-1.08-10-2.88-15.29-3.14,3.32,1.12,6.82,1.79,10.13,3.74-2.03.12-3.67-.74-5.39-.83-4.46-.25-8.73-1.22-13.03-2.47-2.5-.73-4.05-2.67-6.48-3.45-4.62-1.49-9.44-1.75-14.05-3.01-3.83-1.05-7.73-.75-11.56-1.3-1.71-.24-2.21.35-2.25,1.85-.13,5.4-.25,10.8-.43,16.2-.03.96.17,2.03-.89,2.83.27-8.33-.71-16.66.27-25.46,2.59,3.33,5.81,3.1,8.85,2.84,7.26-.62,14.51-1.49,21.75-2.27,1.87-.2,3.76-.36,5.61-.7.64-.12,1.77-.13,1.64-1.21-.09-.78-.26-1.7-1.33-2.02-2.92-.88-3.56-3.31-3.89-5.92-.06-.44-.05-.98.39-1.11.6-.19.96.33,1.11.82.22.74.44,1.5.46,2.26.04,1.57,1.35,2.34,2.15,1.64,2.02-1.8,4.35-.67,6.32-.77,2.4-.12,3.4-.62,3.68-3.19,0,2.66,1.61,3.04,3.34,3.27,2.02.27,3.42-.34,4.3-2.37,3.33-7.74,7.24-15.22,12.04-22.12,4.95-7.13,8.74-14.98,14.02-21.88,1.34-1.75,2.72-3.5,4.61-4.73h-.01c1,1.24,0,2.12-.61,2.97-3.37,4.76-5.75,10.13-9.34,14.74-.33.43-.68.94-.2,1.36.71.61,1.16-.15,1.38-.6,1.96-4.02,5.49-6.88,7.83-10.66,1.57-2.52,3.07-5.24,5.28-7.36.48-.47,1.06-.91,1.68-1.15.87-.34,1.76.08,2.39.59.62.51-.17,1.05-.37,1.57-2.38,5.95-5.67,11.42-8.68,17.05-3.16,5.9-5.8,12.08-7.18,18.71-.39,1.85-1.65,3.68.08,5.53.19.2.1.95-.12,1.22-1.72,2.12-1.54,4.83-2.31,7.25-.72,2.27-.09,2.77,2.22,2.52,8.48-.92,16.95-1.96,25.49-2.23v2.07Zm-12.28-50.53c-1.29.09-1.55,1.1-2.16,1.77-2.14,2.34-2.5,5.57-4.35,8.11-2.39,3.29-4.36,6.92-6.26,10.54-1.82,3.45-2.42,7.55-5.68,10.22-.55.45-.59,1.26-.07,1.89.7.86,1.61,1.2,2.75,1.09.93-.09,1.36-.57,1.54-1.44.65-3.3,2.11-6.29,3.42-9.36,2.74-6.42,6.78-12.18,9.43-18.65.53-1.3,1.83-2.31,1.4-4.17Zm-43.07,52.82c1.17-.16,2.36-.28,3.52-.51.49-.1.99-.46.88-1.07-.12-.62-.66-.69-1.21-.63-1.1.12-2.21.19-3.3.38-1.02.18-2.88-.42-2.86.79.03,1.59,1.9.7,2.97,1.04Zm10.37-3.91c-.17-.62.04-1.73-.93-1.51-1.58.36-1.19,2.08-1.69,3.19-.22.48.05,1.16.73,1.02,1.44-.28,1.81-1.42,1.89-2.71Z"/><path class="cls-1" d="m0,165.67c2.75-1.85,3.16-5.12,4.53-7.77.74-1.43,1.56-2.68,2.49-4,2.36-3.35,4.7-6.7,7.2-9.94,2.54-3.28,5.01-6.73,9.57-7.46.41.39.22.86.04,1.2-2.59,4.86-3.99,10.2-6.24,15.19-1.66,3.69-2.63,7.59-4.21,11.28-.53,1.24-.08,2.42.08,3.55.54,3.81-1.03,7.43-.56,11.31.45,3.75,1.59,5.35,5.18,4.13,4.13-1.4,8.39-.85,12.56-1.45,4.64-.66,9.32-.82,14.01-.79.72,0,1.03-.25.8-.86-.91-2.36.42-4.55.44-6.81.02-3.31-.23-6.63-.42-9.94-.14-2.56-.9-4.94-2.36-7.06-.49-.71-.49-1.43-.32-2.2h-.02c3.4,4.31,4.89,9.01,4.53,14.65-.17,2.64-.61,5.5.26,8.31.56,1.79,1.22,2.03,2.69,1.43,1.56-.64,3.19-.26,5.14-.67-.85,1.68-2,1.35-3.03,1.34-.84-.01-1.74.18-1.76,1.12-.02,1.19,1.01.8,1.74.81,5.89.16,11.73-.69,17.59-.87,4.78-.14,9.27-1.63,13.93-2.25,2.18-.29,4.44-.05,6.71.16-2.71.52-5.58.37-8.86,1.92,2.39.58,4.14.95,5.94.12,1.22-.57,6.33.21,7.19,1.19.22.25.63.51.37.81-.25.28-.77.55-1.1.48-4.31-.94-8.72-.46-13.07-.96-2.1-.24-4.17.35-6.31.31-8.63-.16-17.18.46-25.72,2.13-3.35.66-6.82,2.74-10.7,1.14,2.29-1.24,4.75-.61,6.97-1.29.7-.21,1.8.1,1.56-1.01-.18-.83-1.17-.65-1.98-.55-4.03.49-8.07,1.25-12.1,1.24-4.89-.01-9.73.68-14.61.68-.32,0-.63.19-1.09.33.82,1.91,2.66,1.08,3.91,1.92-2.47.13-4.95.39-7.42.32-1.29-.04-2.28-.45-1.64,1.5.26.8.07,1.89-.71,2.33-.83.48-1.3-.54-1.89-.97-1.31-.95-2.7-1.08-3.94-.02-.71.61-1.39.73-1.56-.12-.52-2.62-1.44-1.71-2.6-.48-.25.26-.79.25-1.19.37,0-.86,0-1.73,0-2.59,2.15-.98,4.3-.5,6.48-.08,1.48.28,2.95.17,3.96-1.16.84-1.11-1.41-.85-.86-1.95.89-.33,2.33-.26,1.94-1.97-.22-.98.27-2.49-.77-2.83-1.87-.62-1.17,2.05-2.55,2.51-.21-1.14,1.48-2,.27-3.13-.98.33-1.44,1.11-1.71,2.05-.33,1.16-1.39,1.71-2.1,2.56-.23.27-.58.4-.89.13-.3-.25-.34-.66-.1-.92,2.55-2.78,3.09-7.11,6.88-8.93.42-.2.74-.52.58-1.01-.59-1.81.15-3.54.27-5.31.04-.58.16-1.08-.64-1.44-1.76-.81-.98-2.34-.06-2.8,2.51-1.27,3.27-3.59,4.27-5.84.42-.95,1.01-2.17.25-2.89-.91-.85-1.44.84-2.34.93,1.01-2.31,2.48-4.23,4.5-5.78,1.62-1.24,2.52-4.63,2-6.41-4.26,2.39-5.08,7.14-7.3,10.95-.33.56-1.06,1.97.85,1.18-.29,2.75-2.57,4.36-3.9,6.49-1.84,2.93-2.09,3.44.08,5.36.6.53-.13,1.06-.25,1.6-.33,1.45-2.15,1.22-2.65,2.62-.97,2.73-2.3,5.29-2.75,8.23C3.11,181.46,1.32,183.33,0,185.35v-5.7c1.09-1.71,3.34-2.84,3.01-5.79-1.27.91-2.14,1.54-3.01,2.17,0-3.45,0-6.9,0-10.35Zm4.62-.79c-.04-.7-.32-1.33-.67-1.12-1.36.84-1.5,2.4-1.85,3.79-.11.43.18,1.08.61.83,1.36-.82,1.09-2.57,1.91-3.5Z"/><path class="cls-1" d="m414.18,62.13c-1.67,1.13-3.38.08-5.03-.03-5.91-.37-11.86-.47-17.66-1.75-4.41-.97-8.79-1.36-13.32-1.11-1.93.11-3.93-.8-5.97-.99-6.2-.58-12.44-1.02-18.6-1.79-3.93-.49-8.03-.1-11.83-1.55-1.36-.52-2.55.4-3.94.2-6.95-.99-13.96-1.29-20.96-1.78-2.12-.15-4.2-.81-6.44-.7-4.93.24-9.85-.33-14.77-.66-6.37-.42-12.74-.74-19.1-1.2-3.77-.27-7.72-.11-11.25-1.23-4.87-1.56-9.84-.15-14.57-1.39-2.39-.62-4.68-1.28-7.15-1.01-3.52.39-7-.22-10.49-.4-4.68-.24-9.36-.69-14.01-1.3-2.35-.31-4.74.29-7.05-.48-2.83-.93-5.86-.07-8.62-.55-4.75-.82-9.62.26-14.16-.97-3.97-1.08-8.52.77-11.65-2.44,3.56,0,7.47-.23,11.33.06,3.93.3,7.81,1.48,11.79.51.25-.06.6-.15.76-.03,3.11,2.38,6.51-.19,9.81.59,3.2.75,6.7.22,9.93.9,3.02.63,6.16.25,8.95.86,5.92,1.29,11.8.39,17.66.91.25.02.58-.08.76.04,2.56,1.8,5.27,1.16,8.17,1.06,4.58-.15,9.21.69,13.78,1.33,1.68.24,3.68-.48,4.98.64,2.36,2.03,5.05.33,7.5,1.11,2.61.82,5.41.51,8.07.37,3.77-.2,7.53.08,11.17.61,4.21.61,8.28.09,12.41-.04,1.68-.06,2.85,1.18,4.62,1.15,5.14-.09,10.29.7,15.33,1.42,6.28.9,12.56.23,18.79,1.06.76.1,1.61.12,2.26.47,2.4,1.29,4.87,1.5,7.5.9,3.12-.72,6.22.12,9.18.77,4.23.93,8.54.54,12.76,1.37,3.86.76,7.84.97,11.67,1.86,2.47.57,4.9.19,7.35.48,3.34.4,6.63,1.34,10.04,1.17v1.55Z"/><path class="cls-1" d="m414.18,138.23c-2.48,3.18-2.88,7.04-3.45,10.82-.63,4.18-1.18,8.37-1.61,12.57-.16,1.55-.63,3.26.94,4.55.62.51-.07,1.08-.16,1.63-.52,3.22-1.21,6.52,2.07,8.84,1.42,1,1.4,1.69.07,2.92-2.25,2.08-2.07,2.17-3.32-.53-.45-.97-.89-1.79-2.34-2.29-1.99-.69-2.91-3.01-3.43-5.15-.12-.48.12-1.25-.15-1.47-3.23-2.63-1.62-6.55-2.48-9.78-1.45-5.44-1.26-11.23.02-16.77,1.39-6.01,3.48-11.68,9.18-15.29,1.59-1,3.2-2.21,4.65-3.52v13.46Z"/><path class="cls-1" d="m0,195.18c1.51.29,3.03.56,4.54.87,1.63.33,3.3.62,3.33,2.86,0,.54.36.99.97,1.01.61.02,1.3.03,1.12-.92-.13-.68.23-.76.71-.57,2.21.9,4.63,1.22,6.62,2.77,1.96,1.52,4.14,2.49,6.78,1.42.5-.2,1.79-1.2,1.88-.2.08.9.77,1.9.15,2.91-.47.78-.96,1.49-1.97,1.4-.75-.07-1.49-.3-2.51-.53,1.06,2.12.28,4.61,2.05,6.46.29.3.34,1.03.22,1.48-.97,3.65-.4,7.26-.03,10.92.88,8.72,2.88,17.3,3.35,26.08,0,.14.18.28.28.42,1.46-1,1.46-1.33,1.99-4.74,1.18-7.52,1.11-15.14,1.67-22.69.35-4.68.75-9.4.96-14.1.06-1.43,1.26-1.73,1.66-2.37-.62,8.22-1.27,16.68-1.9,25.14-.05.62-.52,1.58.46,1.72.72.1,1.01-.78,1.2-1.47,1.62-5.81,2.79-11.71,2.73-17.76-.03-3.01.76-5.87,1.23-8.77.17-1.01,1.1-2.52,2.76-1.86,1.54.61,3.54-.22,4.78,1.5-.63.85-1.52.68-2.33.7-1.04.02-2.82-1.25-2.29,1.38.01.07-.06.21-.11.22-5.09.66-2.92,5.2-2.98,7.33-.18,6.87-1.35,13.34-3.65,19.79-2.02,5.66-2.56,11.67-3.37,17.64-.63,4.66-.4,9.36-1.22,13.98-.44,2.5,1.01,5.13-.41,7.44-1.03-2.77-.88-5.79-.27-8.78.45-2.2-.22-4.44.44-6.62.16-.52-.08-1.14-.65-1.23-.63-.1-.77.51-.92,1.01-1.17,4.07-1.54,8.3-2.43,12.41-1.57,7.26-.51,14.89-3.38,22.02-1.11-.46-1.1-1.25-.96-2.29.97-7.03,1.63-14.11,2.88-21.09.72-4.01,1.65-7.99,2.4-12.01.41-2.19-.4-4.24-.14-6.49.67-5.8-1.45-11.38-2.51-17.11-.52,17.42-3,34.65-4.33,51.99-.71-4.78-.23-9.56.28-14.28.61-5.62,1.2-11.25,1.6-16.89.51-7.28.76-14.58.84-21.89.09-8.02.03-16.02-.32-24.03-.1-2.29-1.24-2.6-2.78-2.77-1.12-.13-1.71-.31-2.27-1.52-.62-1.34-2.63-1.89-3.82-1.92-2.23-.05-3.94-1.17-5.71-1.98-2.16-.99-4.34-1.51-6.63-1.86C0,197.95,0,196.57,0,195.18Z"/><path class="cls-1" d="m264.56,0c-.81,1.24-1.9,1.95-3.44,1.8-.41-.04-.98-.22-1.02.38-.05.66.63.97,1.06.75,2.06-1.02,4.09,1.03,6.23-.1.64-.34,2.04.02,2.6,1.32-2.54.94-5.03.3-7.54.29-6.92-.03-13.83-.03-20.75-.33-7.83-.34-15.68.06-23.51-.39-2.46-.14-4.95-.1-7.42-.23-.84-.04-1.78-.2-1.78-1.08,0-.99,1.08-.6,1.66-.63,2.46-.16,4.95-.09,7.4-.34,1.25-.13,2.96.48,3.55-1.43.86,0,1.73,0,2.59,0-.32.48-.64.95-1.2,1.77,5.64-1.44,11.04-.36,16.41-.2,4.86.14,9.9-.86,14.65,1.35.99.46,2.45.05,3.75-.53-.84-1.07-1.9-1.06-2.89-1.27-1.13-.24-2.47.08-3.29-1.11h12.94Z"/><path class="cls-1" d="m386.74,310.64c-.65-.65-1.41-1.35.23-1.67,1.17-.23,2.37-.33,3.54-.59,4.23-.96,8.36-1.95,12.34-4.02,3.39-1.76,7.53-2.08,11.33-3.04,0,2.59-.08,5.18.03,7.76.06,1.3-.29,1.6-1.59,1.59-8.63-.07-17.26-.03-25.89-.03Z"/><path class="cls-1" d="m414.18,73.52c-6.21-.5-12.45-.58-18.61-1.72-3.45-.64-6.99-.71-10.48-1.21-6.21-.89-12.26-2.44-18.33-3.92-4-.98-7.99-2.02-12.14-2.17-.67-.03-1.75-.48-1.03,1.08.42.92-.61.93-1.11.81-3.27-.78-6.67-.18-9.96-.92-.05-1.3,1.22-1.05,1.87-1.78-1.87-1.23-4.04-.72-6.02-1.07,3.06-1.4,6.16-.88,9.27-.55,9.33.99,18.42,3.07,27.55,5.22,8.57,2.02,17.39,3.28,26.25,3.66,4.27.18,8.46,1.15,12.75,1.02v1.55Z"/><path class="cls-1" d="m285.79,0c-2.65,3.33-6.39,4.17-10.32,4.16-1.91,0-4.18.42-5.52-1.83-.45-.76-.97-1.4-.73-2.33h3.11C274.46,2.11,278.28,2.11,281.13,0h4.66Z"/><path class="cls-1" d="m414.18,48.15c-5.09-.69-10.2-1.26-15.24-2.28-.97-.2-1.05-.77-.98-1.47.07-.71.57-.71,1.14-.52,4.16,1.43,8.56,1.08,12.82,1.81.76.13,1.51.26,2.27.39v2.07Z"/><path class="cls-1" d="m390.89,0C389.24,2.64,383.49,2.64,381.05,0h9.84Z"/><path class="cls-1" d="m414.18,120.63c-1.84.74-2.37-.1-2.03-1.78.27-1.35.83-2.58,2.03-3.4v5.18Z"/><path class="cls-1" d="m189.61,187.08c.19,3.16-3.11,3.82-4.29,6.07.15-5.96-1.16-11.73-1.38-17.58-.11-2.96-.76-3.11-3.69-3.64-4.84-.87-9.51-2.52-12.38-6.87-1.24-1.88-1.1-4.28-.31-6.56.53,1.17.65,2.5,1.98,3.1.3.13.41.47.15.85-1.05,1.55-1,1.53.28,2.59,2.67,2.23,5.86,3.49,9,4.76,3.18,1.29,4.42.25,4.36-3.04-.12-6.85.39-13.66,1.25-20.45.34-2.72.64-5.44,1.14-8.15.21-1.16.58-1.63,1.74-1.72,1.3-.1.93.8,1.16,1.49,1.04,3.13-.21,6.11-.49,9.15-.14,1.47-.96,3.03.51,4.37.61.56.25,1.39-.03,1.95-1.87,3.69.4,6.3,2.33,8.95.99,1.36,1.87,1.04,2.22-.55.93-4.28,2.03-8.52,2.37-12.9.43-5.69.88-11.37,1.41-17.05.13-1.43.45-2.91,2.06-3.89.74,1.62.1,3.24.24,4.79.15,1.58.58,2.46,2.41,1.95.73-.2,1.5-.13,2.17-.65,3.56-2.75,7.83-4.03,11.9-5.73,1.2-.5,2.34-1.16,3.05-2.59.68-1.38,1.81-2.01,3.65-.71,4.02,2.87,6.82,6.66,9.27,10.8.29.48.3.92.2,1.47-1.14,6.27-2.26,12.54-3.37,18.81-.09.51-.29,1.07-.15,1.53.4,1.35,1.27,2.58,2.6,2.87,1.08.23,1.29-1.2,1.27-1.89-.11-6.29,2.32-12.29,1.94-18.62-.29-4.79-1.67-9.27-3.89-13.39-1.38-2.56-3.58-4.71-5.6-6.87-.76-.81-1.61-1.51-2.21-2.47-.67-1.07-1.63-1.79-2.86-2.06-4.02-.91-8.05-1.83-12.18-1.88-2.13-.03-4.03-.58-5.98-1.83,1.86,0,3.76-.24,5.58.05,4.06.64,8.06,1.67,12.12,2.28,1.92.29,3.23,2.33,5.42,1.68.14-.04.54.39.65.67,1.5,3.69,4.54,6.38,6.23,10.02,2.09,4.48,5.2,8.56,5.03,13.79-.13,4.16-.02,8.28-1.02,12.47-.77,3.23-.89,6.63-2.03,9.88-.58,1.64.39,3.27,1.9,4.4.96.72,2.37,1.39.98,3-.38.44.29.87.51,1.32,2.12,4.39,3.85,8.95,5.73,13.43,1.1,2.63,2.43,5.24,3.64,7.87,1.01,2.2,1.28,4.69,2.5,6.67,1.12,1.83,1.15,3.92,2.15,5.73.89,1.61,1.54,3.42-.98,4.48-.88.37-.85,1.39-1.1,2.22-.59,1.9-1.3,2.04-2.68.64-.11-.12-.3-.29-.41-.26-3.28.96-6.09-2.95-9.51-.87-.83.51-1.72-.09-2.39-.61-5.59-4.31-11.91-7.42-17.84-11.17-1.95-1.23-3.99-2.35-5.86-3.72-.78-.57-1.4-1.32-.79-2.13.67-.9,1.33.06,1.95.43,4.85,2.92,9.7,5.84,14.56,8.77.37.22.83.36,1.08.68,2.52,3.24,6.43,3.33,9.89,4.39,1.23.38,2.68.29,3.72.93,2.54,1.55,4.42.46,6.18-1.19,1.55-1.45.77-3.19.26-4.82-2.09-6.67-4.2-13.34-6.69-19.88-.12-.31-.28-.88-.41-.88-2.95.01-2.25-2.41-2.86-4.05-.71-1.89-2.18-3.37-3.14-5.21-2.57-4.93-6.09-9.29-11.13-12.08-.63-.35-1.37-.03-1.85.55-.93,1.12-.9,2.79-2.51,3.66-.55.3.7,2.38,1.59,2.31,3.8-.32,5.91,2.28,7.78,4.65,2.01,2.54,3.03,5.79,3.12,9.13.11,4.01,1.22,7.75,2.32,11.57.64,2.22,1.15,4.43,2.2,6.52.51,1.01.16,2.28-.49,2.9-.86.82-1.42-.55-2-.99-3.13-2.36-4.07-5.99-4.37-9.51-.29-3.35-1.29-5.69-4.3-7.27-1.31-.69-2.45-1.72-3.52-2.9-1.6-1.74-3.84-1.88-5.94-.44h0c.03-2.09.13-4.14,2.85-4.59,1.26-.21.74-1.2.34-1.48-1.02-.7-.82-2.49-2.49-2.6-.34-.02-.9-.75-.9-1.16,0-3.41-1.45-1.87-2.92-.97-1.95,1.2-3.99,2.26-6.01,3.34-.75.4-1.44.15-2.18-.25-1.8-.99-3.66-1.87-5.49-2.81-2.41-1.24-3.26-.99-3.92,1.52-1.18,4.45-2.24,8.92-3.29,13.4-.2.86-.29,1.69-1.15,2.16.7-2.51-.86-5.16.57-7.69.52-.92.51-2.15.65-3.26.07-.58.06-1.2-.83-1.3-1.56-.17-3.51,1.55-3.62,3.17-.2,2.86.9,5.52,1.2,8.3.16,1.44,1.17,1.15,2.1.69Zm12.71-21.99c.12-.34.13-.57.23-.64,2.62-1.58,5.79.48,8.41-1.25.03-.02.32.33.47.52,2.17,2.73,2.23,2.78,4.57.26,1.21-1.3,2.47-2.6,2.65-4.6.06-.7.31-1.72,1.29-2.08,4.33-1.58,5.39-5.84,7.47-9.24.35-.57.22-1.24-.49-1.49-.79-.28-1.29.16-1.59.9-.33.79.27,1.71-.44,2.62-1.79-.71-3.28-2.3-3.05-3.83.2-1.32,2.4-1.54,4-1.3.09.01.17.02.26.04,1.5.41,2.09-.52,2.69-1.67.64-1.25.29-2.15-.68-2.94-1.25-1.01-2.52-1.98-4.12-3.24,1.4-.17,2.42-1.59,3.12.53.19.57.89,1.54,1.72,1.3,1.03-.29.86-1.54.77-2.24-.45-3.53-2.75-6.06-5.43-7.99-.85-.62-2.06-3.15-3.92-1.09-1.78,1.97-4.12,3.12-6.42,4.22-3.78,1.82-7.11,4.6-11.6,4.99-2.84.24-3.52,1.95-3.98,4.78-.88,5.41-.76,10.96-2.31,16.28-1.83,6.24-1.21,8.3,3.19,11.22.64.42,1.35.74,2.02,1.13.37.22.68.52,1.15.21,2.04-1.39,4.74-1.41,6.58-3.22.4-.39,1.28-.44,1.06-1.23-.17-.63-.88-.29-1.32-.45-2.02-.75-4.16-.26-6.28-.49Zm23.53,17.64c1.16-4.39-1.37-7.85-1.85-11.67-.08-.67-.74-1.15-1.54-1.16-2.16-.03-4.02-.66-5.36-2.49-.32-.43-.92-.48-1.41-.13-.64.45.05.87.06,1.28.02,1.9,2.13,1.56,2.65,2.49,1.01,1.81,2.04,1.5,3.36.42.17,1.59-1.35,1.9-1.63,2.96,1.57.62,3.7,1.13,3,3.22-.97,2.9.99,3.7,2.72,5.09Zm-39.3-10.11c.18.75-.75,1.88.25,2.29,1.03.42,1.29-.86,1.89-1.39.44-.38.98-.73,1.53-.89.92-.26,1.18-.78,1.19-1.69.03-2.46.58-5.03-2.03-6.72-.51-.33-.45-1.48-1.35-1.3-.87.18-1.09,1.04-1.21,1.82-.38,2.61-1.04,5.21-.28,7.88Zm40.18-18.63c-1.32,1.07-2.15,1.79-1.81,3.06.08.3.82.75.94.66,1.2-.81.81-2.05.86-3.72Z"/><path class="cls-1" d="m191.39,113.6c.49,1.51-.26,2.1-.97,2.51-4.66,2.68-6.94,7.34-9.85,11.52-3.71,5.33-5.31,11.63-8.31,17.27-.97,1.83-1.17,3.94-2.31,5.71-.46.72-.55,1.89.26,2.64.86.79,1.57.04,2.3-.38.36-.21.75-.44,1.15-.52,4.77-.95,5.71-1.34,9.22-3.92-2.43,4.61-4.08,5.42-9.11,5.94-2.82.29-5.92.16-8.29,2.43-.77.74-2.04.49-2.99.14-2.94-1.09-5.26-.21-7.42,1.85-2.42,2.31-4.96,4.5-7.47,6.71-.45.39-1.05.94-1.53.9-4.51-.38-6.52,3.23-9.27,5.67-2.04,1.81-4.1,3.61-6.16,5.4-.44.38-.87.86-1.59.68-.61-.15-1.21-.33-1.3-1.06-.09-.67.51-.69.94-.96,4.53-2.91,8.68-6.31,12.62-9.97.14-.13.08-.48.1-.63-6.88.5-13.75.96-20.61,1.51-4.74.38-5.75,1.91-5.13,6.71.45,3.5-.34,7.02-.13,10.55.11,1.73.21,3.41.64,5.09.21.83.23,1.71.43,2.54.24.94-1.46,2.21,0,2.68,1.6.52,3.61,1.28,5.14-.22,1.12-1.11,2.07-1.16,3.4-.51,1.2.59,2.47.44,3.71-.23,1.74-.93,2-1.95.54-3.37-.61-.59-1.15-1.27-1.62-1.98-.77-1.16-1.42-2.14-3.04-.99-1.12.8-1.6.37-1.47-1.1.12-1.35-.23-2.7.86-3.88.63-.68.44-1.47.04-2.37-.47-1.03,0-2.2,1.17-2.45,1.38-.29.64,1.03.91,1.6.68,1.46,2.17,2.04,3.37,2.86,1.76,1.21,4.72.82,5.04,3.92.01.1.62.26.63.23,1.39-2.89,1.8.24,2.25.54,3.58,2.44,8.49,2.19,11.57-.87.92-.91,2.4-1.25,2.63-2.92.1-.72,1.17-.8,1.76-.4.76.51.14.99-.27,1.43-1.08,1.18-2.25,2.33-1.78,4.17.21.8-.51.73-.88.98-3.24,2.22-6.49,4.39-10.53,4.94-1.05.14-2.13.26-3.02-.25-4.44-2.51-5.7-.67-8.54,2.49-1.78,1.98-3.2,4.26-4.48,6.61-.33.6-.89,1.19-.49,1.89.45.8,1.38.8,2.08.57.77-.25,1.52-.22,2.28-.26.62-.03,1.51-.48,1.47.72-.03.8-.25,1.48-1.31,1.57-2.17.19-4.27.14-6.33-.69-.91-.36-1.13-.47-.64-1.56,1.22-2.75,2.7-5.31,4.46-7.72,1.02-1.39.65-1.8-.96-2.08-1.64-.29-3.04.45-4.56.59-.97.09-1.16,1.01-.97,1.81.71,3.08-1.14,5.87-.93,8.91.07.95-.68,1.94-2.15,1.25-1.55-.73-3.3-.33-4.95-.6-1-.16-1.77.53-1.86,1.41-.24,2.37-1.74,2.52-3.51,2.15-.92-.19-1.86.57-2.85-.17,0-.81,1.99-1.3.52-2.39-.54-.4-.81-.91-.3-1.54.43-.53,1.01-.67,1.63-.52,1.7.42,3.4.35,5.13.26,2.77-.15,4.34-2.57,2.72-4.73-1.62-2.15-1.07-4.45-.93-6.62.19-3.05.2-3.37-2.71-3.98-.75-.16-2.08-.24-1.99-1.19.13-1.29,1.62-1.05,2.33-.8,1.63.58,1.85-.52,2.44-1.46.55-.87.95-1.68.37-2.62-.74-1.2-1.84-.3-2.76-.44-3.2-.48-6.31.43-9.47.33-.62-.02-1.51.22-1.09-1.3.4-1.43-1.73-.41-2.26-1.32.03-1.32,1.66-.27,1.86-1.32-.02-1.14-1.62-.44-1.81-1.73,1.22-.48,2.72-.41,3.5.34,1.36,1.32,2.84.8,4.3,1.03,1.11.17,2.87-1.25,3.24,1.29.06.39,1.9.75,2.87.36,1.03-.41,2.32-1.19,1.95-2.41-.68-2.25,2.13-4.3.18-6.5,2.31-2.01.7-5.92,3.48-7.57,2.38-1.42,5.26-2.15,7.91-1.68,3.38.6,6.59.57,9.96.16,1.46-.18,3.17.18,4.77.33,5.33.5,8.92-2.57,12.21-5.95,3.76-3.86,7.96-5.75,13.34-4.49.88.21,1.29-.03,1.68-1,1.93-4.82,3.87-9.66,7.23-13.74.31-.38.52-.9.65-1.38,2.4-8.69,7.47-15.72,13.65-22.07,1.11-1.14,2.73-1.31,4.01-2.41Zm-75.71,91.34c1.76-2.58,2.26-4.93,1.7-7.51-.16-.74-.47-1.38-1.24-1.43-.78-.05-.93.77-1.01,1.29-.2,1.35.06,2.84-.4,4.07-.55,1.48-.62,2.54.94,3.58Zm13.5-19.89c-.79-.12-.81.42-.82.96-.03,1.32,2.61,3.95,3.95,3.94.45,0,.89-.16,1.04-.61.18-.53-.28-.74-.66-.91-1.14-.51-2.05-1.2-2.33-2.52-.12-.55-.64-.76-1.17-.86Z"/><path class="cls-1" d="m288.4,225.93c2.59-.38,5.05.75,7.73-.02,3.56-1.02,7.33-1.66,11.12-1.2.77.09,1.73,0,2.33,1.15-3.48.44-6.96.33-10.03,1.39-4.77,1.64-9.61.7-14.38,1.21-5.54.59-11.14,1.19-16.75.94-1.18-.05-2.37.31-3.55.44-1.01.11-2.08.72-2.24-1.28-.08-.92-1.82-1.54-2.41.13-.41,1.16-1.22,1.59-1.79.8-1.27-1.74-3.1-1.08-4.63-1.44-5.66-1.32-11.3.23-16.95.39-.95.03-1.83.15-2.75-.22-.73-.3-1.21.22-1.36.82-.27,1.02.63.86,1.14.85,1.53-.05,2.88,1.79,4.55.41.21-.18.7.03.8.42.13.51-.26.77-.63.99-1.1.66-2.19-.18-3.27-.05-1.83.22-3.65.51-5.48.78-.2-1.36,1.24-1.27,1.43-2.12-2.36-1.35-6.65-.65-8.3,1.37-.5.61-1.22,1.03-1.62.26-1.09-2.12-2.53-.91-3.64-.35-1.43.73-2.61,2.16-4.24.39-.14-.16-.66-.1-.93.02-3.49,1.56-7.18,1.59-10.9,1.91-2.12.18-4.61-.91-6.69,1.26-1.19,1.24-3.54.43-5.38.78-3.61.69-7.42.8-11.08.44-1.61-.16-3.12-1.86-4.99-2.25-.32-.07-.53-.5-.34-.84.09-.17.48-.36.65-.3,3.6,1.21,7.35.31,11.02.65,2.24.21,5.02,1.24,7.1-1.01.27-.29.8-.58,1.15-.52,4.68.82,8.97-2.55,13.84-1.15,1.04.3,3.48-.05,4.9-1.34.17-.16.45-.28.68-.28,5.87-.18,11.53-2.13,17.49-1.95,3.38.1,6.79-.92,10.2-1.23,2.99-.27,5.88-1.05,8.92-1.2,1.78-.09,3.72-1.13,5.66-1.13,6.42,0,12.48-2.25,18.79-2.92.75-.08,1.94-.96,2.18.26.21,1.02-1.22.9-1.94,1.26-.45.22-.91.42-1.32.62,0,.72.63.94.84.87,2.1-.77,4.37-.04,6.34-.49,3.15-.73,6.29-.66,9.43-.85,2.26-.14,4.47-.32,6.72-.65,2.52-.36,5.19-.42,7.72-1.02,3.94-.92,7.81-2.17,11.92-2.24.92-.02,1.84-.55,2.71.11.45.34.72.34.97-.19.23-.49.01-1.47.87-1.31.88.17.65,1.11.63,1.75-.12,3.46.46,6.94-1.38,10.27-.8,1.45-.48,3.51-.72,5.28-.24,1.8-1.1,3.03-3.08,3.25-2.68.3-5.26,1.65-8.11.52,2.09-.27,3.76-1.91,6.05-1.58,1.79.26,3.8-1.57,4.04-3.39.41-3.2.48-6.43,1.61-9.54.83-2.29,0-2.88-2.42-2.76-6.98.34-13.7,2.4-20.67,2.88-2.47.17-5.01,1.26-7.56,1.95Z"/><path class="cls-1" d="m121.42,269.59c-.05.95-1.2.25-1.29,1.2,2.44,2.14,5.71,2.4,8.81,3.16,3.15.77,6.43,1.14,9.38,2.62,1.06.53,2.08,1.03,2.95,1.98,1.72,1.87,3.99.31,5.99.55.31.04.69-.31.99-.25,4.13.86,3.49-2.36,3.85-4.58.7-4.34,1.65-8.6,3.73-12.52.38-.71.44-1.92,1.51-1.86.86.05.8,1.17,1.2,1.78.23.34.46.68.82,1.44-3.16-2.61-3.49.05-4.05,1.78-.81,2.53-1.52,5.1-1.99,7.71-.2,1.11-.77,2.61.76,3.5.15.09.29.52.2.64-2.31,3.35-.66,7.32-1.81,10.69-.8-1.12-.91-1.13-.64-5.24.13-1.93-.36-2.55-2.26-2.12-2.34.53-4.7-.16-7.06,0-.73.05-1.65-.13-2.22-.55-4.37-3.21-9.69-3.61-14.66-5-2.22-.62-4.35-1.45-6.48-2.28-.77-.3-1.91-.18-1.06-1.97.56-1.2-1.69-.99-2.69-1.31-1.11-.35-1.82.11-1.73,1.46.08,1.17.45,2.42-.67,3.54-.87-.86-.51-1.88-.5-2.83.07-5.05,1.28-9.98,1.71-15,.24-2.79-1.78-4.35-2.29-6.63-.15-.67-1.21-1.43-.08-1.88,1.06-.42,1.05.84,1.35,1.47.28.58.13,1.37,1.04,1.94,1.13-5.32,2.22-10.48,1.62-15.78-.19-1.68-.6-3.59-3.16-3.54-.96.02-1.97-.46-2.91-.95-2.46-1.28-4.96-2.02-7.1.82-.35-.95,1.04-1.34.33-1.96-.56-.49-1.37-.19-1.94.18-5,3.28-4.43,2.26-4.78,8.85-.44,8.41-1.15,16.81-1.65,25.21-.16,2.77-.03,5.57-.35,8.34-.83-5.96-.72-11.88.05-17.85.53-4.15.33-8.39.62-12.59.21-3.07.23-6.27,1.17-9.13.91-2.78-.79-3.25-2.36-4.11-.49-.27-1.16-.27-1.75-.3-.99-.05-2.18.37-2.48-1.13-.11-.54.19-1.36.62-1.16,1.12.49,2.31-2.54,3.27.12.09.25.51.58.75.56,4.8-.45,9.29,1.55,14.04,1.75,2.85.12,5.72.94,8.43,2.53,2.57,1.5,5.93,1.42,8.66,2.98.58.33,1.18-.07.94-.96-.14-.51.01-.91.61-.77.38.09,1.03.46,1.01.62-.43,3.06,2.34,2.25,3.66,2.8,2.72,1.13,5.76,1.49,8.47,2.66,3.88,1.67,8.05,2.27,11.98,3.67,4.11,1.47,8.45,2.11,12.49,3.8,1.64.68,3.45,1.01,5.21,1.39,2.06.45,3.92,1.36,5.74,2.37-1.75.54-3.22-.25-4.89-.61-5.27-1.16-10.34-2.95-15.53-4.35-7.01-1.9-13.92-4.14-20.87-6.22-3.18-.95-6.55-2.52-10.2-1.69-1.06.24-2.16-.36-3.17-.92-1.79-.99-3.25-.36-3.16,1.61.24,5.23-1.89,10.11-1.95,15.29-.01,1.29.45,1.89,1.33,2.89,1.34,1.53,2.49,3.43,3.67,5.23-1.61-.31-2.38-1.48-3.25-2.59-.84-1.08-1.65-1.11-2.25.34-1.06,2.54-.48,3.65,1.98,4.78,2.68,1.23,5.46,2.15,7.91,4.02,2.18,1.66,5.14,1.89,7.94,1.59,1.37-.15,2.55,1.09,4.13.33-1.12-2.28-3.7-3.09-4.81-5.39,5.01,4.72,11.72,6.78,17.01,10.79-.28.9-.75.94-.98.84-2.59-1.07-5.59-.68-8.03-1.93-3.24-1.67-6.55-2.96-10.16-3.05-3.93-.11-7.11-2.33-10.69-3.38-.77-.23-1.73-.76-2.08-.1-.57,1.08.72,1.04,1.33,1.35.9.46,1.82.87,2.72,1.3Z"/><path class="cls-1" d="m12.53,123.09c1.84-3.19-.31-5.69-1.19-8.46-1.78-5.6-3.03-11.34.23-16.8,1.98-3.32,5.26-5.5,8.29-7.84,2.3-1.77,5.07-2.6,7.53-4.07,3.59-2.14,10.28.06,13.03,3.11,2.56,2.84,5.57,5.09,4.21,9.51,2.4,5.5-.71,9.83-3.37,13.99-4.29,6.7-10.08,12.16-16.02,17.4-1.28,1.13-2.92.85-3.95-.78-.88-1.4-1.83-2.66-3.43-3.34-1.26-.54-.64-2.45-2.03-3.02-.44-.18-.67-.85-1.28-.68-.62.18-.42.9-.71,1.26-.51.62.99,2.07-.61,1.93-.98-.09-.67-1.39-.7-2.2Zm7.22-22.27c2.69-1.04,3.72-4.25,6.55-2.98-3.53.29-4.73,2.91-5.52,5.72-1.31,4.68-2.11,9.29-1.31,14.33.56,3.49,1.6,6.53,3.23,9.51.59,1.08,1.19,1.88,2.58.84,4.07-3.04,7.33-6.93,10.49-10.8,3.72-4.56,5.74-9.98,6.49-15.96.59-4.74-1.06-8.57-3.5-12.29-.43-.66-1.12-.93-1.91-1.18-2.2-.67-4.48-.8-6.64-.41-2.62.47-5.7.64-7.44,2.84-2.23,2.81-1.7,6.6-3.02,10.36Zm-6.05,1.28c.89-.18.65-1.11,1.06-1.59,1.08-1.25.74-3.94,3.62-3.43.53.1,1.27-1.26.68-1.5-.93-.38-.15-2.29-1.73-1.72-2.27.82-4.49,5.88-3.64,8.24Zm3.42,1.76c-.27-.05-.55-.09-.82-.14-.61,2.45-1.24,4.9-1.8,7.36-.13.57-.1,1.3.65,1.47.61.14.81-.44,1.05-.9,1.34-2.52.94-5.17.92-7.79Z"/><path class="cls-1" d="m101.22,191.12c-3.7-1.05-7.54.3-11.42.41-2.19.06-4.26-.03-6.41-.78-1.19-.41-2.84.14-4.3.18-2.19.06-4.39.24-6.57,0-2.22-.23-4.16,1.04-6.47.77-3.15-.37-6.37-.02-9.57-.05-3.32-.03-6.44,1.2-9.78,1.23-5.41.05-10.81.74-16.23.66-.96-.01-1.89,0-2.73.57-1.52,1.04-2.47-1.02-4.18-.64-2.89.65-5.81-.49-8.59-1.51-.53-.19-1.35-.09-1.25-.97.09-.77.85-.68,1.39-.91,1.47-.61,2.87-.08,4.27.18,2.5.46,4.82,1.36,7.07-1.17,1.05-1.18,3.45-.56,5.12-.35,4.3.53,8.56-.1,12.78-.43,5.19-.4,10.46-1.16,15.51-.36,2.96.47,5.61-.91,8.3-.18,3.3.9,5.76-1.39,8.66-1.88,2.85-.49,5.73-.8,8.61-1.15.66-.08,1.19.24,1.39.9.16.52.07,1.09-.35,1.43-.75.62-.99-.13-1.35-.59-.27-.35-.66-.64-1.04-.15-.24.31-.1.63.21.88.88.7.95,2.67,3.05,1.34.93-.59,2.73.52,3.95-.61,1.97,2.15,3.73,1.69,5.56-.27.08-.09,1.52-.21,2.29-.61.09-.05,1.71-.88,1.11.93-.61,1.83,1.04,1.47,2.08,1.57,1.22.11,3.26-1.25,3.38.69.08,1.26-2.26.54-3.48.87-.24.07-.51,0-1,0Z"/><path class="cls-1" d="m389.39,13.78c-4.61-.1-9.18-.8-13.76-1.32-9.32-1.06-18.6-2.38-27.99-2.79-6.93-.3-13.83-1.49-20.76-1.82-4.28-.21-8.54-.99-12.84-.57-3.02.3-5.94-.61-8.92-.71-3.04-.1-6.1-.09-9.12-.38-4.43-.43-8.84-1.09-13.26-1.65.12-.76.78-1.07,1.14-.94,1.9.69,3.55-.49,5.28-.54,1.89-.05,3.54-.15,5.33-1.04,4.09-2.03,8.44-.63,12.64-.18,3.75.4,7.49.39,11.23.59.42.02.98-.11,1.22.11,2.5,2.29,5.72,1.95,8.67,2.27,4.18.44,8.5.77,12.53,1.44,5.45.9,10.93.74,16.34,1.67,5.12.89,10.36,1.09,15.43,2.14,4.85,1.01,9.77,1.39,14.63,2.25.81.14,1.58.53,2.37.8l-.15.66Z"/><path class="cls-1" d="m263.78,239.95c-.05.49-.33.9-.79.87-2.97-.17-3.28,1.84-3.34,4.03-.18,6.8-2.44,13.29-2.9,20.05-.05.79-.16,1.54-1.05,2.48.16-5.19-.4-10.04,1.39-14.78,1.1-2.91.93-6.1,1.3-9.16.15-1.28-.32-1.61-1.94-1.73-3.77-.28-7.41.58-10.96,1.19-5.1.86-10.12-.55-15.12.38-1.69.32-3.24,1.17-5.06,1.04-1.51-.11-2.6.97-2.47,2.38.15,1.7-1.34,3.31.92,5.26,2.98,2.57,4.81,6.43,5.08,10.61.48,7.6-.84,15.14-.96,22.71-.07,4.02-.46,8.03-.33,12.05.04,1.16-.25,2.18-.51,3.28-.96-.13-.66-.86-.72-1.37-.51-4.68-.13-9.29.91-13.88.18-.8-.1-1.7-.19-2.55-.35-3.28-.15-6.53.43-9.76.62-3.4.37-6.85.24-10.25-.1-2.61-1.05-5.14-3.52-6.67-.63-.39-1.23-1.12-2.07-.63-.73.43-.4,1.23-.46,1.9-.04.49-.11.98-.45,1.58,1.35-5-2.52-6.54-5.67-8.96-.66,5.29.61,10.55-1.72,15.67-.77-2.48-.44-4.85.03-7.03.74-3.43-.3-6.82.19-10.2.19-1.35-1.3-1.16-1.82-1.87-.45-.61-1.2-1.2-.33-1.95.66-.57,1.19-.77,1.53.52.25.96.91.42,1.13-.26.4-1.25.72-2.5-.92-3.36,3.51.1,6.96.66,10.29-1.23.39,1.23,1.41,1.33,3.13,1.21,4.48-.3,9,.08,13.49-.05,3.35-.1,6.68-.58,10.03-.88,1.03-.09,2.06-.26,3.08-.19,4.6.28,5.29-.21,6.2-4.75-.84,3.65,1.82,3.76,3.98,4.37l-.04-.05Zm-46.2,4.28c-.52.09-1.97.5-1.9,1.42.18,2.3,2.78,2.36,4.15,3.64.41.38,1.01.79,1.53.06.14-.2.14-.48.22-.72,1.06-3.45.27-4.46-3.99-4.4Z"/><path class="cls-1" d="m285.38,219.36c1.03-.79,1.64-1.96,3.56-1.6,1.87.35,3.45-1.73,5.53-1.45.11.01.43-.55.41-.82-.05-.68-.5-1.08-1.19-1.13-1.29-.09-2.58-.19-3.87-.24-2.26-.08-4.53-.09-5.73-2.57-.13-.28-.51-.58-.8-.62-3.74-.44-6.94-2.48-10.48-3.44-1.35-.37-2.65-.96-3.72-1.57-4.42-2.5-9.57-1.61-14.09-3.44-.63-.26-1.56-.22-1.43-1.09.12-.8.98-.8,1.69-.72,1.98.22,3.82-.22,5.76-.61,1.63-.32,3.62.58,5.31,1.28,2.45,1.02,4.87,2.29,7.34,3.01,2.68.78,5.47,1.41,8.21,2.09,4.8,1.19,9.42,2.91,14,4.71,1.46.57,2.91,1.03,4.46,1.14,1.3.1,2.5.05,3.2,1.59.65,1.42,2.22.33,3.3.77.77.31,2.26-.8,2.31.64.04,1.19-1.85,1.85-2.53,1.7-5.85-1.26-11.27,1.78-17.01,1.54-1.29-.06-2.63.92-3.95,1.42-.1-.2-.19-.39-.29-.59Zm.37-9.16c1.93,1.67,4.48,1.08,5.72,2.93.18.27.71.04.85-.28.26-.57-.14-1.17-.55-1.29-1.79-.51-3.44-1.69-6.02-1.36Z"/><path class="cls-1" d="m330.08,129.88c1.73-4.9.95-10.07,1.28-15.1.42-6.34,1.84-12.48,2.75-18.73.93,4.03-.32,7.87-.79,11.77-.75,6.23-1,12.49-1.34,18.75-.29,5.39-1.35,10.79-1.13,16.15.16,4.01-.08,8.42,2.77,11.92.23.28.51.58.29.87-.28.37-.78.4-1.16.13-.33-.24-.82-.6-.83-.91-.12-4.28-2.28-8.08-2.61-12.42-.28-3.67-1.04-7.4-1.15-11.13-.19-6.91-1.26-13.84.44-20.72.52-2.09.43-4.33.37-6.4-.16-5.26.71-10.36,1.31-15.53.65-5.62,1.06-11.26,1.53-16.9.1-1.19-.03-2.39.02-3.58.09-2.09,1.7-2.6,3.31-3.02.38-.1.87.18.96.68.07.39-.17.68-.57.67-3.55-.15-2.91,3.23-2.84,4.57.29,5.27.03,10.44-.68,15.65-1.05,7.73-1.13,15.54-1.76,23.31-.34,4.24-1.05,8.47-1.14,12.74-.05,2.38.21,4.76.33,7.14.21.03.43.06.64.09Z"/><path class="cls-1" d="m218.79,212.75c-.04-2.29-2.1-2.15-3.26-2.99-2.95-2.13-5.98-4.16-9.94-3.44-.24.04-.63.02-.74-.13-2.44-3.44-6.09-1.72-9.22-2.22-.13-.02-.23-.19-.78-.66,3-1.27,6.02-1.45,8.59-.57,5.19,1.77,10.6,3.16,15.14,6.57,1.91,1.44,2.15,3.32,2.19,5.39.01.68-.42.61-.87.44-.54-.21-1.02.09-.7.52,1.88,2.54-.52,2.07-1.67,2.46-3.24,1.11-6.68,1.31-9.8.28-3.55-1.17-6.99.19-10.47-.4-1.53-.26-2.23-.95-2.3-2.08-.07-1.25.73-2.41,2.22-2.26,2.53.26,5.07.6,7.55,1.14,1.68.36,3.22.19,4.79-.3.38-.12.91-.12.98-.67.07-.56-.43-.67-.79-.87-1.14-.67-3.36-1-2.82-2.44.54-1.47,2.57-.31,3.92-.21,2.75.21,5.02,2.11,7.97,2.45Z"/><path class="cls-1" d="m161.9,230c3.57-.22,6.54,1.24,9.49,2.75.39.2.85.35.62.91-.23.58-.92.85-1.23.45-1.46-1.85-3.54-1.8-5.47-1.72-2.96.12-5.52-1.67-8.59-1.31-2.44.29-4.61-1.54-6.97-2.25-1.7-.51-3.27-1.09-4.23-2.99-.55-1.09-2.41-.41-3.66-.75-7.18-1.94-14.35-3.98-21.55-5.73-3.67-.89-7.4-2.4-11.31-2.32-5,.1-9.32-2.39-14.49-3.17,1.78-1.52,2.92-3.57,4.67-.54.65,1.13,2.23,1.07,3.5,1.3,5.79,1.02,11.67,1.56,17.36,3.14,5.36,1.49,10.62,3.45,16.06,4.5,4.38.85,8.63,2.15,12.96,3.12,2.55.57,5.12.88,7.37,2.66,1.27,1,3.25.4,4.88-.45,2.76-1.44,5.69-1.68,8.87-.87-2.11,3-5.87,1.45-8.3,3.29Z"/><path class="cls-1" d="m346.83,73.58c1.66-1.09,3.47-.63,5.12-.3,1.21.24,2.4.44,3.57.24,2.43-.42,4.74-.37,7.09.56,1.15.45,2.51.28,3.81.28,8.72-.03,17.49-.66,26.03,1.85,1.06.31,2.2.61,3.29.56,4.63-.18,8.98.79,13.28,2.48,3.76,1.48,4.07,1.33,3.68,5.28-.62,6.16-.83,12.32-.44,18.68-1.88-1.14-1.86-1.14-1.44-2.71.87-3.23,1.17-6.41-.92-9.37-1.15-1.63-2.72-1.57-3.65.19-2,3.8-1.57,5.31,2.26,7.55.8.47.93,1.19,1.01,1.96.02.22-.05.56-.2.68-.3.22-.8.14-.88-.18-.34-1.38-1.56-1.34-2.54-1.78-2.09-.92-2.88-2.8-2.18-5.08.45-1.47.95-2.94,1.57-4.35.53-1.21,1.41-2.07,2.8-2.44,2.16-.57,3.87-3.67,3.3-5.74-.22-.79-.84-1.02-1.54-1.19-4.46-1.08-8.7-3.08-13.49-2.75-3.19.23-6.19-1.23-9.36-1.61-3.56-.42-7.1.29-10.62-.36-4.17-.76-8.49.21-12.57-.53-5.03-.92-10.11-.11-15.08-1.09-.64-.13-1.42.1-1.9-.84Z"/><path class="cls-1" d="m103.15,194.79c-1.5,3.83,2.03,1.62,2.78,2.79-.31,1.09-1.22.68-1.9.69-5.79.12-11.66-.35-17.31.58-2.42.39-4.86-.16-7.18.65-.47.16-.94.21-1.42.45-1.98,1.01-4.02,1.76-5.84-.38-.37-.43-.87-.34-1.12-.02-1.69,2.22-4.25,1.54-6.39,1.73-9.98.93-19.99.91-30,.72-2.47-.05-4.86.88-7.74.54,1.98-2.19,1.67-4.78,2.05-7.31,2.02.57,1.26,1.91,1.1,3.1-.12.88-1.42,1.77-.56,2.49.69.57,2.01.71,2.97.55,5.2-.89,10.44-.24,15.65-.48,3.92-.18,7.84-.33,11.76-.51.43-.02,1.15-.12,1.04-.51-.8-3.02,2.02-1.79,2.58-1.74,5.17.47,10.3.01,15.43-.35,5.72-.4,11.45-.64,17.16-.41,2.74.11,4.49-1.56,6.94-2.57Z"/><path class="cls-1" d="m376.32,148.48c-2.12.98-4.4.86-6.43.18-2.41-.81-4.75-.75-7.12-.46-2.84.34-5.61.47-8.47,0-2.19-.36-4.46-.22-6.65.46-.81.25-1.69.44-2.53.41-3.48-.13-4.46-1.18-4.86-5.48-.18-1.96-.24-3.97-.04-5.93.48-4.82-.27-9.73,1.33-14.48.45-1.32.26-2.92.12-4.36-1.03-10.38.08-20.76.15-31.13.03-4.38-.28-8.74-.2-13.12.02-1.06-.17-2.22,1.22-3.47-.19,4.52.24,8.57.16,12.59-.24,12.13-.69,24.25-.24,36.38.17,4.56-1.61,8.93-1.05,13.56.44,3.64-.22,7.34,0,11.03.11,1.9.96,2.58,2.53,2.93.17.04.35.07.51.04,5.92-.99,11.9-.18,17.84-.49,2.14-.11,4.27-.38,6.39.26,2.38.72,4.88.75,7.34,1.08Z"/><path class="cls-1" d="m65.13,281.06c-2.42-26.84,1.81-53.16,4.97-79.56.46.04.91.07,1.37.11-3.41,26.38-6.13,52.82-6.34,79.46Z"/><path class="cls-1" d="m190.76,214.36c-3.16.5-6.13-.3-9.15-.69-3.89-.5-7.77-1.56-11.7-1.2-2.27.21-3.63-1.68-5.78-1.63-5.22.11-10.43-.2-15.63-.72-3.31-.33-6.57-.79-9.79-1.83-1.98-.64-4.23-.44-6.37-.58-.81-.05-1.66.11-2.57-.8,1.67-.69,3.13-.59,4.45-.18,2.5.76,5.03.88,7.59.8,4.55-.13,8.87,1.51,13.41,1.62,6.91.17,13.76,1.26,20.71,1.34,5.08.05,10.14,1.53,14.82,3.88Z"/><path class="cls-1" d="m186.63,204.64c-.33.05-.72.24-.97.13-5.37-2.29-11.29-2.41-16.8-4.31-3.16-1.09-6.6-1.55-9.97.38-.83.47-2.71-.66-3.99-1.29-1.44-.71-2.58-2.26-4.31-.24-.76.89-5.89-.78-6.65-1.89-.49-.71-.19-1.31.26-1.88.51-.65,1.06-.9,2-.67,6.58,1.63,13.12,3.45,19.98,3.55.75.01,1.5.3,2.26.47,1.89.42,3.85.64,5.71.91,4.35.64,8.5,2.6,12.73,4.03-.08.26-.17.53-.25.79Z"/><path class="cls-1" d="m54.89,287.15c-.14-4.34.22-8.68.21-13.02-.01-6.31.51-12.59.41-18.91-.07-4.25.8-8.53.98-12.83.32-7.34,1.16-14.63,3.11-21.72.97-3.54,1.37-7.05.88-10.67-.07-.52-.1-1.14.59-1.2.73-.06.67.67.76,1.12.48,2.4.16,4.86-.4,7.1-1.43,5.75-2.69,11.54-3.07,17.44-.59,9.24-2.09,18.41-1.57,27.74.23,4.08-.71,8.18-.62,12.32.08,3.83-.13,7.67-.25,11.51-.01.4-.23.78-.36,1.18l-.67-.04Z"/><path class="cls-1" d="m201.75,245.32c-2.17-.46-4.14.66-6.31.73-4.64.14-9.47-.56-13.87,1.85-.91.5-2.17.11-3.26.45-1.14.35-1.75-.36-1.92-1.48-.18-1.22.43-1.77,1.56-1.86,4.23-.35,8.5-.46,12.69-1.1,4.91-.75,9.82-.56,14.73-.67.59-.01,1.18-.46,1.46.37.3.9-.5,1.42-1.04,1.49-1.32.16-2.66.57-4.02.23Z"/><path class="cls-1" d="m214.71,180.6c-3.05,1.34-4.02,4.37-5.29,6.99-.68,1.4-1.55,2.76-2.01,4.38-.42,1.48-2.4,1.14-3.82.81-.39-.09-.68-.52-1.06-.7-1.06-.49-2.86-.27-3.13-1.33-.32-1.26,1.88-1.1,2.28-2.02.74-1.69,1.39-2.96,3.56-1.95.49.23.97-.4,1.04-.92.37-2.75,2.99-3.86,4.31-5.94.72-1.14,2-2.45,3.06,0,.14.32.7.46,1.07.69,0,0,0,0,0,0Z"/><path class="cls-1" d="m263.82,240c2.8-.57,4.9-1.79,4.85-5.1,0-.48.29-1.18.92-.93.76.3.39,1.07.18,1.57-.72,1.71-1.37,3.34,2.14,4.13-4.84.9-3.18,4.44-3.79,6.72-1.85,6.94-3.09,14.05-4.59,21.09-.15.7-.03,1.61-1.16,1.83-.74-4.57.84-8.78,2.02-12.98,1.34-4.72,2.34-9.44,2.23-14.36-.04-1.97-2.09-1.05-2.84-2.01,0,0,.04.04.04.04Z"/><path class="cls-1" d="m102.21,280.02c.23-5.88.71-11.77.6-17.65-.09-4.72.35-9.43.67-14.07.37-5.32.92-10.72,1.63-16.05.07-.56.34-.81.82-.62.58.22.58.74.45,1.3-.93,4.19-.82,8.49-1.31,12.72-.94,8.02-1.09,16.11-1.22,24.19-.06,3.42-1.15,6.71-1,10.16-.22,0-.43.02-.65.02Z"/><path class="cls-1" d="m382.85,197.02c-1.48,1.2-3.32.96-4.84.81-6.5-.63-12.72,1.24-18.92,2.36-3.21.58-7.34,1.3-9.66,4.7-.32.47-.89,1.09-1.48.55-.58-.53.04-1.04.41-1.5,1.18-1.52,2.75-2.31,4.51-3.14,4.3-2.02,8.96-2.66,13.45-3.6,5.37-1.13,10.99-.87,16.53-.18Z"/><path class="cls-1" d="m66.62,177.53c-.73-5.01-1.14-10.03.42-14.97.95-3.02.77-3.2-2.3-3.23-4.69-.05-9.38-.16-14.07-.27-1.26-.03-2.44-.34-3.5-1.04.36-.86.99-.71,1.41-.65,6.12.89,12.33.29,18.46,1.04,1.71.21,4.14-.54,1.6,2.7-2.03,2.6-1.4,6.24-1.58,9.48-.13,2.31.53,4.66-.43,6.95Z"/><path class="cls-1" d="m346.41,205.56c.54,6.7.4,13.23-.22,19.74-.06.6.22,1.83-.96,1.67-.88-.11-1.02-1.07-.94-1.88.25-2.37-.1-4.75.41-7.14.67-3.17-.26-6.4.1-9.63.14-1.22.25-2.12,1.61-2.76Z"/><path class="cls-1" d="m169.61,274.76c.33-5.98,1.34-11.7,1.3-17.5,0-1.32.62-2.66,1-3.98.15-.52.04-1.47.84-1.35.92.13.69,1.01.59,1.7-.53,3.56-1.07,7.12-1.57,10.68-.41,2.95-.75,5.92-1.15,8.87-.08.57-.09,1.23-1.01,1.58Z"/><path class="cls-1" d="m186.66,292.9c.3-2.85.6-5.71.91-8.56.32-2.97.47-5.89.06-8.93-.61-4.48.51-9.07-.43-13.58-.04-.2.32-.62.58-.73.58-.23.74.23.77.68.14,1.87.6,3.79.33,5.61-1.07,7.17.1,14.4-.73,21.58-.17,1.46-.52,2.73-1.49,3.93Z"/><path class="cls-1" d="m366.67,83.84c2.96-.23,5.82.48,7.59,3.62.29.52.96.99.45,1.54-.59.64-1.17-.04-1.42-.5-1.95-3.58-5.58-3.12-8.76-3.67-1.07-.18-2.01.28-2.74,1.12-.39.44-.76.96-1.26,1.23-.84.45-2.03.77-2.54-.12-.47-.82.75-1.16,1.32-1.56,2.11-1.47,4.46-2.11,7.36-1.65Z"/><path class="cls-1" d="m42.79,154.04c-.81.23-1.44.08-2.07-.58-4.38-4.65-9.23-8.86-13.06-14.02-.42-.56-.91-1.03-.49-2.58,4.05,7.22,11.14,10.95,15.59,17.2,0,0,.02-.01.02-.01Z"/><path class="cls-1" d="m370.25,103.52c-.57,1.02-1.48.86-2.24.72-4.69-.9-9.23-2.37-13.75-3.9-.56-.19-1.06-.57-1.58-.88-.47-.29-.86-.67-.46-1.24.35-.49.8-.13,1.13.08,5.07,3.2,10.96,3.68,16.89,5.22Z"/><path class="cls-1" d="m181.81,250.36c-.26,6.6-1.8,12.92-3.18,19.28-.63-6.73,2.02-12.9,3.18-19.28Z"/><path class="cls-1" d="m410.75,272.82c-2.77,1.35-5.09,1.8-7.47,2.02-1.91.18-3.74.53-5.19,1.99-.46.46-1.22,1.38-1.86.31-.5-.83.33-1.48,1-1.83,1.06-.55,2.18-1.03,3.32-1.39,3.12-1.01,6.34-1.04,10.2-1.1Z"/><path class="cls-1" d="m326.8,265.57c-4.42-.55-8.96.11-13.19-1.69,4.51-.37,9.05-.98,13.19,1.69Z"/><path class="cls-1" d="m27.58,294.37c.66-5.56.47-11.15.68-17.01,1.61,2.41,1.25,12.73-.68,17.01Z"/><path class="cls-1" d="m197.74,299.63c-2.69-7.06-.16-14.02.27-21.04.66,7.01-2.11,13.98-.27,21.04Z"/><path class="cls-1" d="m103.11,25.94c-2.55.72-4.93.87-7.3,1.15-.62.07-1.29.29-1.42-.55-.11-.68.37-1.2,1.04-1.24,2.5-.12,5.08-1.35,7.68.63Z"/><path class="cls-1" d="m180.06,1.89c-3.3,1.81-6.56,1.92-10.22,0h10.22Z"/><path class="cls-1" d="m384.53,101.15c.42-4.56-1.97-7.68-2.77-11.44,2.69,1.63,4.63,8.58,2.77,11.44Z"/><path class="cls-1" d="m168.02,294.06c-.9-4.41.63-8.66.88-13.02.99,4.41-.65,8.66-.88,13.02Z"/><path class="cls-1" d="m386.77,114.15c.6-.41,1-.27,1.35,0,1.57,1.22,2.88,1.36,3.88-.71.28-.57.89-1.35,1.61-.86.95.65-.15,1.14-.43,1.64-1.78,3.11-2.93,3.11-6.41-.06Z"/><path class="cls-1" d="m402.24,114.36c-1.68,1.32-2.53,3.03-3.31,4.83-.26.58-.78,1.2-1.57,1.11-.26-.03-.62-.37-.71-.65-.29-.81.58-.88.92-1.3.69-.86,1.32-1.77,1.88-2.72.63-1.07,1.59-1.34,2.79-1.27Z"/><path class="cls-1" d="m92.6,223.14c.82-2.66.6-5.25-.15-7.84-.16-.56-.22-1.37.56-1.48.88-.12.78.73.8,1.29.08,2.75,1.01,5.61-1.22,8.03Z"/><path class="cls-1" d="m134.5,15.4c-2.13,1.44-4.57,1.57-6.97,1.9,2.05-1.66,4.56-1.64,6.97-1.9Z"/><path class="cls-1" d="m106.25,176.26c-1.63.34-3.11.28-4.49-.56-.35-.21-.84-.36-.56-.93.19-.4.6-.91.95-.68,1.28.84,3.34.22,4.1,2.17Z"/><path class="cls-1" d="m378.95,102.98c-2,.87-3.89,1.18-6.08,1.16,1.84-1.93,3.64-2.27,6.08-1.16Z"/><path class="cls-1" d="m22.73,186.84c3.07-1.78,6.46-.63,9.7-1.01-3.18.75-6.53-.02-9.7,1.01Z"/><path class="cls-1" d="m244.18,230.05c.69.32,1.69-.68,1.7.57,0,.95-.89.74-1.56.77-1.13.06-2.38-.91-3.4.43-.17.23-.64-.03-.76-.4-.14-.43.2-.69.48-.75,1.23-.26,2.48-.44,3.54-.61Z"/><path class="cls-1" d="m220.81,261.41c.26,2.25.48,4.5-.27,6.68-.62-2.28-.2-4.48.27-6.68Z"/><path class="cls-1" d="m396.67,181.97c1.38-.34.97-1.85,1.72-2.6.63-.64.95-1.64,2.34-1.9-1.03,2.02-1.01,4.57-4.07,4.51,0,0,0,0,0,0Z"/><path class="cls-1" d="m411.83,108.28c.27,2.03.15,3.72-.52,5.52-.78-2-.69-3.04.52-5.52Z"/><path class="cls-1" d="m190.59,276.21c1.44.35,2.71-1.94,4.49-.26-1.5,1.03-2.89,1.33-4.49.26Z"/><path class="cls-1" d="m335.25,62.1c1.12-1.12,1.62-2.89,3.87-3.55-1.08,1.89-1.77,3.45-3.87,3.55Z"/><path class="cls-1" d="m215.27,151.74c-.36-2.43.43-4.55.89-6.71.11-.54.36-1.3,1.14-1.11.7.16.35.79.33,1.28-.14,3.07-.83,6.09-.58,9.2.2,2.53-1.26,4.33-3.07,5.86-.43.37-.91.83-1.58.29-.35-.29-.65-.58-.58-1.06.1-.68.71-.67,1.18-.76,1.46-.25,1.95-1.16,1.98-2.55.04-1.54.19-3.07.28-4.45Z"/><path class="cls-1" d="m208.73,147.78c-1.4.27-1.8-.61-2.33-1.54-.48-.84-.55-2.09-1.85-2.29-.46-.07-1.18.16-1-.7.12-.55.65-.71,1.19-.82,2.36-.48,5.01.89,6.46,3.41-1.21-.22-1.91-2.36-3.18-1.32-1.09.89.72,2.02.71,3.26Z"/><path class="cls-1" d="m213.26,136.08c-1.55,1.07-3.18,1.77-5.12,1.35,1.65-.66,3.14-1.83,5.12-1.35Z"/></g></svg>