<svg width="130" height="33" viewBox="0 0 130 33" fill="none" xmlns="http://www.w3.org/2000/svg">
<path d="M17.4116 3.08804C17.6368 3.42579 17.8455 3.73333 18.0459 4.04361C18.9686 5.46597 19.8967 6.88834 20.811 8.31894C21.5579 9.48594 22.3927 10.6063 22.8622 11.9353C22.8952 12.0314 23.1011 12.1632 23.1698 12.1357C24.0759 11.7897 25.015 11.8117 25.9376 11.9462C27.7938 12.2208 29.6363 12.5805 31.4898 12.8771C32.4783 13.0336 33.475 13.1325 34.469 13.2588C34.5542 13.2698 34.642 13.2753 34.7491 13.2862C34.7326 13.3549 34.7326 13.4043 34.7107 13.4373C33.6892 14.931 32.676 16.433 31.6353 17.9158C31.0751 18.7176 30.4683 19.4892 29.8862 20.2772C28.7933 21.7628 27.4506 22.9243 25.6603 23.4899C24.8722 23.7398 24.0622 23.8524 23.2357 23.6931C23.1725 23.6821 23.1066 23.6849 22.9473 23.6766C23.0737 23.8112 23.1478 23.8853 23.2192 23.965C24.2214 25.0853 24.7761 26.3649 24.3889 27.8751C24.1445 28.8279 23.4993 29.5638 22.6975 30.1322C21.514 30.9697 20.3799 31.8648 19.3502 32.8863C19.32 32.9165 19.2816 32.9357 19.1937 32.9083C19.5315 32.5486 19.8527 32.1724 20.2124 31.8374C20.7369 31.3486 21.308 30.9093 21.827 30.415C22.2883 29.9757 22.7524 29.5281 23.1286 29.0201C23.7711 28.1552 23.8562 27.1502 23.6366 26.1177C23.2878 24.4784 22.3487 23.3581 20.7177 22.8666C20.6243 22.8391 20.5392 22.787 20.4651 22.7019C20.7973 22.8144 21.1323 22.9133 21.4591 23.0368C22.865 23.5696 24.2516 23.4323 25.6273 22.927C27.143 22.3723 28.321 21.3783 29.2629 20.0905C30.7896 18.0037 32.308 15.9113 33.8265 13.8189C33.8759 13.7503 33.9006 13.6597 33.9638 13.5196C33.5959 13.4757 33.2746 13.4455 32.9533 13.3933C30.99 13.0693 29.0295 12.7288 27.0662 12.4103C25.8607 12.2153 24.6498 12.0973 23.4251 12.2208C23.1862 12.2455 22.9583 12.2812 23.0599 12.63C23.6558 14.6674 23.2192 16.5428 22.1648 18.3222C21.3218 19.7445 20.1987 20.8813 18.7599 21.7024C18.543 21.8259 18.3123 21.9275 18.1118 22.073C17.4858 22.5289 16.9119 22.246 16.3655 21.933C15.2314 21.2822 14.2045 20.4942 13.3917 19.4562C12.1148 17.8279 11.3295 16.0294 11.4998 13.9068C11.6069 12.5668 12.0654 11.3339 12.7711 10.2081C13.831 8.51939 14.9376 6.86363 16.0222 5.18864C16.4121 4.58729 16.7856 3.97496 17.1728 3.36812C17.2249 3.28575 17.2991 3.21435 17.3979 3.09354L17.4116 3.08804ZM17.3979 5.0184C17.2853 5.16118 17.1947 5.25729 17.1233 5.36987C16.8707 5.76253 16.6263 6.16068 16.3792 6.55609C15.2177 8.40681 13.9958 10.2218 12.9084 12.1137C11.9309 13.8107 11.8897 15.6697 12.6283 17.4545C13.4082 19.3354 14.7509 20.777 16.5824 21.7271C17.0849 21.9879 17.5105 22.0483 18.0816 21.7765C19.7511 20.9829 20.9703 19.7308 21.8325 18.1602C23.1533 15.7575 22.7606 13.3631 21.4124 11.117C20.2426 9.16467 18.9438 7.29198 17.6972 5.38634C17.6203 5.26827 17.516 5.16667 17.3979 5.0184Z" fill="#FF0000"/>
<path d="M-3.05176e-05 13.278C2.43831 13.0995 4.75858 12.5778 7.09532 12.144C8.34195 11.9133 9.59956 11.7788 10.8682 11.96C11.1153 11.9957 11.3542 12.0726 11.5986 12.1302C11.5903 12.1659 11.5848 12.2044 11.5766 12.2401C11.4613 12.2291 11.3459 12.2209 11.2279 12.2099C10.0252 12.0946 8.83895 12.2264 7.65822 12.4323C5.47251 12.814 3.31425 13.3494 1.08734 13.4647C0.977504 13.4702 0.867668 13.5032 0.708407 13.5306C0.76607 13.646 0.79902 13.7366 0.853938 13.8135C1.79303 15.1315 2.7129 16.4632 3.67945 17.7593C4.51694 18.8824 5.34894 20.0164 6.28803 21.0489C7.86691 22.787 9.85218 23.619 12.2301 23.3142C12.631 23.262 13.0182 23.1 13.4081 22.982C13.5454 22.9408 13.6799 22.8859 13.831 22.8776C13.5674 23.0177 13.2983 23.1522 13.0374 23.2977C11.8484 23.9513 11.3267 25.0414 11.0768 26.31C10.7501 27.9602 11.486 29.1684 12.6557 30.2173C13.5948 31.0603 14.5119 31.9308 15.44 32.7875C15.4812 32.8259 15.5142 32.8699 15.5114 32.955C15.3247 32.7875 15.1435 32.6118 14.9513 32.4525C13.8694 31.5628 12.7793 30.6814 11.7057 29.7835C10.9396 29.1465 10.3794 28.3694 10.2531 27.3506C10.1652 26.6395 10.3602 25.9722 10.6238 25.3242C10.8544 24.7613 11.1263 24.2231 11.6617 23.8744C11.6837 23.8606 11.6864 23.8167 11.7139 23.7371C11.5986 23.7371 11.5079 23.7288 11.4173 23.7371C10.4865 23.8442 9.58309 23.7645 8.70715 23.3938C7.10905 22.7156 5.84869 21.6337 4.82997 20.2416C3.96776 19.0636 3.07535 17.9103 2.23511 16.7186C1.50746 15.6862 0.837464 14.6125 0.142756 13.5554C0.0960764 13.484 0.0631247 13.3988 -3.05176e-05 13.2725V13.278Z" fill="#FF0000"/>
<path d="M17.6723 2.66786C17.5597 2.03082 17.4554 1.38554 17.3263 0.745746C17.2549 0.39702 17.4087 0.0784976 17.7245 0.0098506C18.0155 -0.0533046 18.3121 0.193824 18.3203 0.561772C18.3423 1.35533 18.0924 2.06926 17.6723 2.66786Z" fill="#FF0000"/>
<path d="M13.6361 13.5328C13.6004 14.0737 13.551 14.6174 13.5291 15.1584C13.4934 16.0096 13.6993 16.8224 14.1194 17.55C14.8196 18.7692 15.7175 19.8209 16.9998 20.4826C17.2662 20.6199 17.5051 20.6474 17.7742 20.5018C19.581 19.5133 20.8029 18.0525 21.1763 16.0096C21.3191 15.2215 21.201 14.3868 21.201 13.5246C21.2587 13.9529 21.3081 14.3456 21.3603 14.7382C21.6459 16.9047 20.8962 18.728 19.4574 20.2904C19.0318 20.7517 18.4854 21.1059 17.9746 21.4876C17.6341 21.743 17.2744 21.7567 16.8982 21.5096C14.556 19.9829 13.2874 17.8685 13.3863 15.0293C13.4027 14.5241 13.529 14.0243 13.6059 13.5218L13.6416 13.5301L13.6361 13.5328Z" fill="#FF0000"/>
<path d="M17.4036 6.20978C18.5871 8.36255 19.7129 10.4137 20.836 12.4621C20.8195 12.4704 20.8003 12.4814 20.7838 12.4896C19.6745 10.6636 18.5624 8.83484 17.3899 6.90723C16.2586 8.77168 15.174 10.562 14.0893 12.3523C14.0729 12.3441 14.0536 12.3331 14.0372 12.3248C15.141 10.3176 16.2449 8.31037 17.4009 6.20978H17.4036Z" fill="#FF0000"/>
<path d="M46.3045 18.7088V6.75699L47.0831 7.34616L44.1793 8.88222L43.5691 6.90428L47.5039 4.80009H48.5981V18.7088H46.3045ZM43.9689 19.7398V17.5515H50.9969V19.7398H43.9689Z" fill="#FF2222"/>
<path d="M59.6298 19.7398V8.69284H61.8181V11.0495L61.4183 11.302C61.5306 10.9373 61.7059 10.5866 61.9444 10.2499C62.1969 9.91327 62.4985 9.61868 62.8492 9.36618C63.2139 9.09965 63.5997 8.88923 64.0065 8.73492C64.4273 8.58062 64.8552 8.50346 65.29 8.50346C65.9213 8.50346 66.4754 8.60867 66.9524 8.81909C67.4293 9.02951 67.8221 9.34514 68.1307 9.76597C68.4393 10.1868 68.6638 10.7129 68.804 11.3441L68.4674 11.2599L68.6147 10.9022C68.769 10.5796 68.9794 10.278 69.2459 9.99743C69.5265 9.70285 69.8421 9.44333 70.1928 9.21889C70.5435 8.99444 70.9152 8.81909 71.308 8.69284C71.7008 8.56659 72.0866 8.50346 72.4653 8.50346C73.293 8.50346 73.9733 8.6718 74.5064 9.00847C75.0535 9.34514 75.4603 9.85715 75.7268 10.5445C76.0074 11.2319 76.1476 12.0876 76.1476 13.1116V19.7398H73.9593V13.2379C73.9593 12.6066 73.8751 12.0946 73.7068 11.7018C73.5525 11.295 73.314 10.9934 72.9914 10.797C72.6687 10.6006 72.2549 10.5024 71.7499 10.5024C71.3571 10.5024 70.9854 10.5726 70.6347 10.7129C70.298 10.8391 70.0034 11.0215 69.7509 11.2599C69.4984 11.4984 69.302 11.779 69.1617 12.1016C69.0215 12.4102 68.9513 12.7539 68.9513 13.1327V19.7398H66.763V13.1958C66.763 12.6207 66.6788 12.1367 66.5105 11.7439C66.3421 11.3371 66.0967 11.0285 65.774 10.8181C65.4514 10.6076 65.0586 10.5024 64.5957 10.5024C64.2029 10.5024 63.8382 10.5726 63.5015 10.7129C63.1648 10.8391 62.8702 11.0215 62.6177 11.2599C62.3652 11.4844 62.1688 11.7579 62.0286 12.0806C61.8883 12.3892 61.8181 12.7259 61.8181 13.0906V19.7398H59.6298Z" fill="#FF2222"/>
<path d="M79.407 19.7398V8.69284H81.5743V19.7398H79.407ZM80.4591 6.25198C79.9962 6.25198 79.6385 6.13275 79.386 5.89427C79.1335 5.6558 79.0072 5.31913 79.0072 4.88426C79.0072 4.47745 79.1335 4.1478 79.386 3.89529C79.6525 3.64279 80.0102 3.51654 80.4591 3.51654C80.922 3.51654 81.2797 3.63578 81.5322 3.87425C81.7847 4.11273 81.911 4.4494 81.911 4.88426C81.911 5.29107 81.7777 5.62073 81.5112 5.87323C81.2587 6.12573 80.908 6.25198 80.4591 6.25198Z" fill="#FF2222"/>
<path d="M84.9057 19.7398V8.69284H87.073V10.9654L86.6942 11.2179C86.8345 10.7269 87.108 10.278 87.5149 9.87118C87.9217 9.45035 88.4056 9.11368 88.9667 8.86117C89.5279 8.59464 90.103 8.46138 90.6922 8.46138C91.5339 8.46138 92.2352 8.62971 92.7964 8.96638C93.3575 9.28902 93.7783 9.78702 94.0589 10.4604C94.3394 11.1337 94.4797 11.9824 94.4797 13.0064V19.7398H92.3124V13.1537C92.3124 12.5225 92.2282 12.0034 92.0599 11.5966C91.8916 11.1758 91.632 10.8742 91.2813 10.6918C90.9307 10.4954 90.4958 10.4113 89.9768 10.4393C89.5559 10.4393 89.1702 10.5095 88.8195 10.6497C88.4688 10.776 88.1601 10.9583 87.8936 11.1968C87.6411 11.4353 87.4377 11.7159 87.2834 12.0385C87.1431 12.3471 87.073 12.6838 87.073 13.0485V19.7398H85.9998C85.8175 19.7398 85.6351 19.7398 85.4528 19.7398C85.2704 19.7398 85.088 19.7398 84.9057 19.7398Z" fill="#FF2222"/>
<path d="M101.292 19.9502C100.506 19.9502 99.8186 19.7679 99.2294 19.4031C98.6543 19.0384 98.2054 18.5264 97.8827 17.8671C97.5741 17.2078 97.4198 16.4222 97.4198 15.5104V8.69284H99.5871V14.9212C99.5871 15.5665 99.6853 16.1276 99.8817 16.6046C100.092 17.0675 100.387 17.4252 100.765 17.6777C101.158 17.9302 101.628 18.0565 102.175 18.0565C102.582 18.0565 102.954 17.9933 103.29 17.8671C103.627 17.7268 103.915 17.5374 104.153 17.299C104.406 17.0605 104.602 16.7729 104.742 16.4362C104.883 16.0996 104.953 15.7348 104.953 15.3421V8.69284H107.12V19.7398H104.953V17.4252L105.332 17.1727C105.163 17.6917 104.876 18.1617 104.469 18.5825C104.076 19.0034 103.606 19.34 103.059 19.5925C102.512 19.831 101.923 19.9502 101.292 19.9502Z" fill="#FF2222"/>
<path d="M111.528 19.7398V5.87323H113.695V19.7398H111.528ZM109.234 10.797V8.69284H116.262V10.797H109.234Z" fill="#FF2222"/>
<path d="M123.288 19.9502C122.152 19.9502 121.142 19.7118 120.258 19.2348C119.388 18.7438 118.701 18.0775 118.196 17.2358C117.705 16.3942 117.46 15.4262 117.46 14.3321C117.46 13.4623 117.6 12.6698 117.88 11.9543C118.161 11.2389 118.547 10.6217 119.038 10.1026C119.543 9.56958 120.139 9.16277 120.826 8.88222C121.528 8.58763 122.285 8.44034 123.099 8.44034C123.814 8.44034 124.481 8.58062 125.098 8.86117C125.715 9.1277 126.248 9.49944 126.697 9.97639C127.16 10.4533 127.511 11.0215 127.749 11.6808C128.002 12.3261 128.121 13.0345 128.107 13.806L128.086 14.7319H119.059L118.575 13.0064H126.213L125.897 13.3641V12.8591C125.855 12.3962 125.701 11.9824 125.434 11.6177C125.168 11.2529 124.831 10.9654 124.424 10.7549C124.018 10.5445 123.576 10.4393 123.099 10.4393C122.341 10.4393 121.703 10.5866 121.184 10.8812C120.665 11.1618 120.272 11.5826 120.006 12.1437C119.739 12.6908 119.606 13.3711 119.606 14.1848C119.606 14.9563 119.767 15.6296 120.09 16.2048C120.412 16.7659 120.868 17.2008 121.458 17.5094C122.047 17.818 122.727 17.9723 123.499 17.9723C124.046 17.9723 124.551 17.8811 125.014 17.6988C125.491 17.5164 126.003 17.1867 126.55 16.7098L127.644 18.2458C127.307 18.5825 126.893 18.8771 126.402 19.1296C125.925 19.3821 125.413 19.5855 124.866 19.7398C124.333 19.8801 123.807 19.9502 123.288 19.9502Z" fill="#FF2222"/>
<path d="M42.6156 31.3291C42.6156 30.8524 42.7348 30.4291 42.9732 30.0592C43.2115 29.6893 43.5074 29.3688 43.8609 29.0975C44.2143 28.8181 44.5965 28.5838 45.0075 28.3948C45.4185 28.1975 45.8007 28.0372 46.1541 27.9139C46.5076 27.7824 46.8035 27.6797 47.0418 27.6057C47.2802 27.5235 47.3994 27.4578 47.3994 27.4084C47.3994 27.1208 47.3829 26.8413 47.35 26.5701C47.3254 26.2906 47.2966 26.0111 47.2637 25.7317C47.2309 25.4522 47.198 25.1769 47.1651 24.9056C47.1405 24.6261 47.1281 24.3508 47.1281 24.0796V23.2782C47.4651 23.1549 47.7035 23.1672 47.8432 23.3151C47.9912 23.4631 48.0158 23.7179 47.9172 24.0796C47.9501 24.2604 47.9953 24.544 48.0528 24.9303C48.1104 25.3166 48.172 25.7522 48.2378 26.2372C48.3117 26.7221 48.3857 27.2317 48.4597 27.766C48.5419 28.3003 48.6158 28.814 48.6816 29.3071C48.7556 29.7921 48.8172 30.2277 48.8665 30.614C48.9159 30.9921 48.9528 31.2757 48.9775 31.4648C48.9857 31.5059 48.9939 31.588 49.0022 31.7113C49.0104 31.8264 49.0145 31.9538 49.0145 32.0935C49.0227 32.2251 49.0268 32.3483 49.0268 32.4634C49.035 32.5785 49.0392 32.6607 49.0392 32.71C48.7268 32.71 48.5131 32.6977 48.398 32.673C48.2912 32.6484 48.2213 32.599 48.1884 32.5251C48.1638 32.4511 48.1514 32.3442 48.1514 32.2045C48.1514 32.0648 48.1104 31.8716 48.0282 31.625C47.724 31.8634 47.4364 32.0607 47.1651 32.2168C46.8939 32.373 46.6226 32.5004 46.3514 32.599C46.0801 32.6895 45.8048 32.7511 45.5253 32.784C45.2541 32.8251 44.9623 32.8456 44.65 32.8456C44.3869 32.8456 44.1321 32.8251 43.8855 32.784C43.6472 32.7347 43.4335 32.6525 43.2444 32.5374C43.0554 32.4223 42.9033 32.2662 42.7882 32.0689C42.6732 31.8716 42.6156 31.625 42.6156 31.3291ZM43.6883 31.0702C43.6883 31.2017 43.717 31.3086 43.7746 31.3908C43.8321 31.473 43.9061 31.5428 43.9965 31.6004C44.0869 31.6579 44.1814 31.699 44.2801 31.7237C44.3869 31.7401 44.4897 31.7483 44.5883 31.7483C44.876 31.7483 45.1842 31.6949 45.513 31.588C45.85 31.473 46.1582 31.3168 46.4377 31.1195C46.7254 30.914 46.9596 30.6716 47.1405 30.3921C47.3295 30.1126 47.424 29.8085 47.424 29.4798C47.424 29.2249 47.3788 29.0482 47.2884 28.9496C47.198 28.851 47.0254 28.8016 46.7706 28.8016C46.5076 28.8016 46.1993 28.8633 45.8459 28.9866C45.5007 29.1099 45.1637 29.2743 44.8349 29.4798C44.5143 29.6852 44.2431 29.9277 44.0212 30.2072C43.7992 30.4784 43.6883 30.7661 43.6883 31.0702Z" fill="#FDFDFD"/>
<path d="M55.0681 31.1935C54.7558 31.4072 54.4846 31.6004 54.2544 31.773C54.0325 31.9374 53.8147 32.0771 53.601 32.1922C53.3873 32.3073 53.1571 32.3936 52.9105 32.4511C52.6722 32.5086 52.3763 32.5374 52.0228 32.5374C51.2584 32.5374 50.6913 32.336 50.3214 31.9333C49.9515 31.5223 49.7666 30.914 49.7666 30.1085C49.7666 29.7962 49.8077 29.4715 49.8899 29.1345C49.9721 28.7975 50.0912 28.4646 50.2474 28.1359C50.4118 27.7989 50.605 27.4824 50.8269 27.1865C51.0488 26.8824 51.2995 26.6153 51.579 26.3851C51.8584 26.155 52.1543 25.9741 52.4667 25.8426C52.7872 25.7029 53.1242 25.633 53.4777 25.633C54.0695 25.6906 54.5339 25.8385 54.8709 26.0769C55.2079 26.307 55.4627 26.607 55.6353 26.9769C55.8079 27.3386 55.9271 27.7454 55.9928 28.1975C56.0586 28.6414 56.1079 29.1017 56.1408 29.5784C56.1819 30.0551 56.2312 30.5318 56.2887 31.0086C56.3463 31.4853 56.4654 31.925 56.6463 32.3278C56.5394 32.599 56.4367 32.7881 56.338 32.8949C56.2476 33.01 56.1449 33.0306 56.0298 32.9566C55.9147 32.8826 55.7791 32.7018 55.623 32.4141C55.475 32.1264 55.2901 31.7196 55.0681 31.1935ZM50.8146 30.1332C50.8146 30.6017 50.9009 30.9469 51.0735 31.1689C51.2543 31.3826 51.5708 31.4894 52.0228 31.4894C52.3598 31.4894 52.6804 31.4319 52.9845 31.3168C53.2968 31.1935 53.5681 31.0291 53.7982 30.8236C54.0284 30.6099 54.2133 30.3551 54.353 30.0592C54.4928 29.7633 54.5626 29.4345 54.5626 29.0729C54.5626 28.9249 54.5667 28.7194 54.575 28.4564C54.5832 28.1852 54.5667 27.918 54.5257 27.655C54.4846 27.392 54.4065 27.166 54.2914 26.9769C54.1763 26.7797 54.0037 26.681 53.7736 26.681C53.3462 26.681 52.9516 26.792 52.59 27.0139C52.2283 27.2276 51.916 27.503 51.6529 27.84C51.3899 28.177 51.1844 28.5509 51.0365 28.9619C50.8885 29.3647 50.8146 29.7551 50.8146 30.1332Z" fill="#FDFDFD"/>
<path d="M57.423 28.629C57.423 28.4153 57.4764 28.2633 57.5833 28.1729C57.6902 28.0742 57.8628 28.0249 58.1011 28.0249H58.2244C58.2491 28.1564 58.2778 28.3085 58.3107 28.4811C58.3436 28.6537 58.3929 28.8304 58.4587 29.0112C58.5244 29.1921 58.6025 29.3606 58.6929 29.5167C58.7833 29.6647 58.8943 29.7839 59.0258 29.8743C59.034 29.5866 59.1039 29.3113 59.2354 29.0482C59.3751 28.777 59.5436 28.5386 59.7409 28.3331C59.9464 28.1194 60.1683 27.9427 60.4067 27.803C60.6533 27.655 60.8957 27.5564 61.1341 27.5071H61.4054C61.7999 27.5071 62.1369 27.5975 62.4163 27.7783C62.6958 27.9509 62.926 28.1811 63.1068 28.4688C63.2958 28.7482 63.4397 29.0688 63.5383 29.4304C63.6369 29.7921 63.7109 30.162 63.7602 30.5401C63.8178 30.9099 63.8506 31.2716 63.8589 31.625C63.8753 31.9703 63.8835 32.2662 63.8835 32.5127H62.9835C62.9342 32.0196 62.8725 31.5469 62.7986 31.0949C62.7739 30.914 62.741 30.725 62.6999 30.5277C62.6588 30.3222 62.6136 30.1332 62.5643 29.9606C62.515 29.7798 62.4616 29.6154 62.404 29.4674C62.3465 29.3113 62.2807 29.1797 62.2068 29.0729C62.1739 29.04 62.1287 28.9948 62.0711 28.9373C62.0218 28.8797 61.9684 28.8222 61.9109 28.7647C61.8533 28.7071 61.7999 28.6578 61.7506 28.6167C61.7013 28.5756 61.6725 28.5551 61.6643 28.5551C61.4177 28.4893 61.204 28.5386 61.0231 28.703C60.8423 28.8592 60.682 29.0729 60.5423 29.3441C60.4026 29.6154 60.2875 29.9236 60.1971 30.2688C60.1149 30.614 60.045 30.9469 59.9875 31.2675C59.93 31.5798 59.8889 31.8552 59.8642 32.0935C59.8395 32.3237 59.8231 32.4634 59.8149 32.5127C59.6094 32.6607 59.4162 32.7059 59.2354 32.6484C59.0546 32.5826 58.882 32.4511 58.7176 32.2538C58.5614 32.0566 58.4176 31.81 58.2861 31.5141C58.1628 31.2182 58.0477 30.9058 57.9408 30.5771C57.834 30.2401 57.7354 29.9031 57.6449 29.5661C57.5627 29.2291 57.4888 28.9167 57.423 28.629Z" fill="#FDFDFD"/>
<path d="M66.9288 32.2292C67.0604 32.1388 67.2165 32.0237 67.3974 31.8839C67.5864 31.736 67.7754 31.5798 67.9645 31.4154C68.1535 31.251 68.3303 31.0784 68.4947 30.8976C68.659 30.7168 68.7864 30.5442 68.8769 30.3798C68.9755 30.2072 69.0248 30.0469 69.0248 29.8989C69.0248 29.751 68.9508 29.6277 68.8029 29.5291C68.5399 29.5291 68.2522 29.5414 67.9398 29.5661C67.6275 29.5825 67.3152 29.5907 67.0028 29.5907C66.6905 29.5825 66.3864 29.5537 66.0905 29.5044C65.8028 29.4551 65.5439 29.3647 65.3137 29.2332C65.0836 29.1017 64.8986 28.9167 64.7589 28.6784C64.6274 28.4318 64.5616 28.1194 64.5616 27.7413C64.5616 27.2975 64.6438 26.8988 64.8082 26.5454C64.9808 26.1837 65.2069 25.8673 65.4863 25.596C65.7658 25.3166 66.0781 25.0741 66.4233 24.8686C66.7768 24.6549 67.1302 24.4741 67.4837 24.3261C67.6974 24.3837 67.8946 24.4864 68.0755 24.6344C68.2563 24.7823 68.4125 24.9467 68.544 25.1275C68.4864 25.3084 68.3714 25.4481 68.1988 25.5467C68.0344 25.6454 67.8412 25.7317 67.6193 25.8056C67.4056 25.8796 67.1795 25.9577 66.9412 26.0399C66.7028 26.1221 66.485 26.2331 66.2877 26.3728C66.0987 26.5043 65.9384 26.681 65.8069 26.9029C65.6754 27.1167 65.6096 27.4002 65.6096 27.7537C65.6096 28.0167 65.6754 28.2098 65.8069 28.3331C65.9384 28.4564 66.111 28.5427 66.3247 28.592C66.5384 28.6331 66.7809 28.6496 67.0521 28.6414C67.3234 28.6249 67.5987 28.6044 67.8782 28.5797C68.1659 28.5551 68.4453 28.5427 68.7166 28.5427C68.9878 28.5345 69.2303 28.5674 69.444 28.6414C69.6577 28.7071 69.8262 28.8181 69.9495 28.9743C70.081 29.1304 70.1468 29.3606 70.1468 29.6647C70.1468 29.7962 70.1016 29.9647 70.0111 30.1702C69.929 30.3757 69.8139 30.5976 69.6659 30.836C69.5262 31.0661 69.3577 31.2963 69.1604 31.5264C68.9714 31.7565 68.77 31.9661 68.5563 32.1552C68.3508 32.336 68.1412 32.4881 67.9275 32.6114C67.722 32.7264 67.5289 32.784 67.348 32.784C67.1754 32.784 67.0604 32.7223 67.0028 32.599C66.9535 32.4757 66.9288 32.3525 66.9288 32.2292Z" fill="#FDFDFD"/>
<path d="M76.6196 25.8056C76.6196 25.5673 76.6032 25.3371 76.5703 25.1152C76.5374 24.8851 76.5292 24.6837 76.5456 24.5111C76.5621 24.3302 76.6237 24.1864 76.7306 24.0796C76.8456 23.9727 77.0511 23.9193 77.347 23.9193C77.4374 24.1083 77.5237 24.396 77.6059 24.7823C77.6964 25.1686 77.7827 25.6125 77.8649 26.1139C77.9471 26.6153 78.0251 27.1619 78.0991 27.7537C78.1731 28.3372 78.2388 28.9249 78.2964 29.5167C78.3621 30.1085 78.4156 30.6921 78.4567 31.2675C78.506 31.8346 78.543 32.3525 78.5676 32.821C78.2964 33.0018 78.0786 33.0141 77.9142 32.858C77.7498 32.7018 77.6142 32.4388 77.5073 32.0689C77.4005 31.6908 77.3183 31.2346 77.2607 30.7003C77.2032 30.1579 77.1457 29.5989 77.0881 29.0236C77.0388 28.44 76.9772 27.8687 76.9032 27.3098C76.8292 26.7427 76.7347 26.2413 76.6196 25.8056Z" fill="#FDFDFD"/>
<path d="M79.2087 29.3565C79.2087 28.9126 79.2622 28.4688 79.369 28.0249C79.4759 27.5811 79.6444 27.1824 79.8745 26.829C80.1129 26.4755 80.417 26.1878 80.7869 25.9659C81.165 25.744 81.6212 25.633 82.1554 25.633C82.4595 25.633 82.7267 25.6906 82.9568 25.8056C83.187 25.9125 83.3801 26.0563 83.5363 26.2372C83.6925 26.418 83.8075 26.6317 83.8815 26.8783C83.9637 27.1167 84.0048 27.3673 84.0048 27.6304C84.0048 28.0496 83.9062 28.4564 83.7089 28.851C83.5199 29.2455 83.2609 29.5948 82.9322 29.8989C82.6116 30.1948 82.2417 30.4209 81.8225 30.5771C81.4033 30.725 80.9759 30.7579 80.5403 30.6757C80.5485 30.914 80.6266 31.1072 80.7746 31.2552C80.9307 31.3949 81.1157 31.5017 81.3294 31.5757C81.5431 31.6497 81.765 31.699 81.9951 31.7237C82.2253 31.7401 82.4308 31.7483 82.6116 31.7483C82.8007 31.7483 82.9774 31.7319 83.1418 31.699C83.3061 31.6661 83.4705 31.6291 83.6349 31.588C83.7993 31.5469 83.9637 31.51 84.1281 31.4771C84.3007 31.4442 84.4815 31.4278 84.6706 31.4278C84.7446 31.4278 84.8185 31.4319 84.8925 31.4401C84.9665 31.4483 85.0364 31.4689 85.1021 31.5017C85.1679 31.5264 85.2213 31.5716 85.2624 31.6374C85.3035 31.6949 85.324 31.7689 85.324 31.8593C85.324 32.0155 85.2665 32.147 85.1514 32.2538C85.0364 32.3525 84.8884 32.4388 84.7076 32.5127C84.535 32.5867 84.3418 32.6442 84.1281 32.6853C83.9144 32.7182 83.7048 32.747 83.4993 32.7717C83.302 32.7881 83.1171 32.7963 82.9445 32.7963C82.7801 32.8045 82.6568 32.8086 82.5746 32.8086C82.0486 32.8086 81.576 32.7264 81.1568 32.5621C80.7376 32.3894 80.3841 32.1552 80.0964 31.8593C79.8088 31.5552 79.5868 31.1935 79.4307 30.7743C79.2827 30.3469 79.2087 29.8743 79.2087 29.3565ZM80.5156 28.5551C80.5156 28.8427 80.5526 29.0523 80.6266 29.1838C80.7088 29.3154 80.902 29.3811 81.2061 29.3811C81.4198 29.3811 81.6294 29.3441 81.8349 29.2702C82.0403 29.188 82.2253 29.077 82.3897 28.9373C82.5623 28.7975 82.6979 28.6331 82.7965 28.4441C82.8952 28.255 82.9445 28.0496 82.9445 27.8276C82.9445 27.7043 82.9322 27.5769 82.9075 27.4454C82.8911 27.3139 82.85 27.1947 82.7842 27.0879C82.7185 26.9728 82.6322 26.8824 82.5253 26.8166C82.4267 26.7427 82.2952 26.7057 82.1308 26.7057C81.8842 26.7057 81.6581 26.7632 81.4527 26.8783C81.2554 26.9851 81.0869 27.129 80.9472 27.3098C80.8074 27.4824 80.7006 27.6797 80.6266 27.9016C80.5526 28.1153 80.5156 28.3331 80.5156 28.5551Z" fill="#FDFDFD"/>
<path d="M91.501 27.6057C91.501 27.4002 91.5338 27.2399 91.5996 27.1249C91.6736 27.0098 91.8256 26.9523 92.0558 26.9523C92.0804 26.9523 92.1256 26.9564 92.1914 26.9646C92.2654 26.9646 92.3106 26.9646 92.327 26.9646C92.3846 27.2194 92.4421 27.4989 92.4996 27.803C92.5654 28.0989 92.6394 28.3989 92.7216 28.703C92.8038 29.0071 92.8942 29.3071 92.9928 29.603C93.0997 29.8989 93.2271 30.1661 93.375 30.4044C93.523 30.2483 93.6298 30.0633 93.6956 29.8496C93.7613 29.6359 93.8106 29.4222 93.8435 29.2085C93.8764 28.9866 93.9052 28.777 93.9298 28.5797C93.9627 28.3742 94.0243 28.2016 94.1148 28.0619C94.2052 27.9139 94.3367 27.8071 94.5093 27.7413C94.6901 27.6756 94.9367 27.6756 95.2491 27.7413C95.5943 27.7413 95.8696 27.8071 96.0751 27.9386C96.2806 28.0619 96.4573 28.2222 96.6053 28.4194C96.7614 28.6085 96.9094 28.814 97.0491 29.0359C97.1971 29.2496 97.382 29.4428 97.6039 29.6154C97.6532 29.5085 97.7149 29.377 97.7889 29.2208C97.8628 29.0564 97.9533 28.8879 98.0601 28.7153C98.1752 28.5345 98.2944 28.3578 98.4177 28.1852C98.5492 28.0044 98.6848 27.8441 98.8245 27.7043C98.9643 27.5564 99.1081 27.4372 99.256 27.3468C99.404 27.2482 99.5478 27.1988 99.6876 27.1988C100.025 27.1988 100.316 27.3057 100.563 27.5194C100.81 27.7249 101.019 27.9879 101.192 28.3085C101.373 28.6208 101.521 28.9743 101.636 29.3688C101.751 29.7551 101.841 30.1291 101.907 30.4907C101.973 30.8524 102.018 31.1853 102.042 31.4894C102.075 31.7853 102.092 31.999 102.092 32.1305C102.092 32.2374 102.067 32.3196 102.018 32.3771C101.968 32.4347 101.907 32.4799 101.833 32.5127C101.759 32.5374 101.677 32.5538 101.586 32.5621C101.504 32.5703 101.426 32.5744 101.352 32.5744C101.336 32.5744 101.311 32.5744 101.278 32.5744C101.245 32.5662 101.208 32.5579 101.167 32.5497C101.134 32.5415 101.089 32.5292 101.031 32.5127L100.23 28.8263C100.23 28.8016 100.197 28.7564 100.131 28.6907C100.066 28.6167 100.016 28.5715 99.9835 28.5551C99.9588 28.5551 99.9383 28.5509 99.9218 28.5427C99.9054 28.5427 99.8931 28.5427 99.8848 28.5427C99.8766 28.5345 99.8684 28.5304 99.8602 28.5304C99.6876 28.5304 99.5232 28.6003 99.367 28.74C99.2191 28.8797 99.0793 29.0564 98.9478 29.2702C98.8163 29.4839 98.693 29.7222 98.5779 29.9852C98.4629 30.2483 98.3601 30.5113 98.2697 30.7743C98.1793 31.0291 98.0971 31.2675 98.0231 31.4894C97.9574 31.7031 97.9039 31.8675 97.8628 31.9826C97.83 31.999 97.7642 32.0155 97.6656 32.0319C97.5669 32.0401 97.5012 32.0442 97.4683 32.0442C97.2382 32.0442 97.0614 31.9661 96.9382 31.81C96.8149 31.6456 96.7121 31.4442 96.6299 31.2058C96.5559 30.9675 96.4902 30.7086 96.4327 30.4291C96.3833 30.1414 96.3176 29.8784 96.2354 29.64C96.1614 29.4017 96.0546 29.2044 95.9148 29.0482C95.7833 28.8838 95.5943 28.8016 95.3477 28.8016C95.2573 28.8016 95.171 28.8921 95.0888 29.0729C95.0066 29.2537 94.9326 29.4839 94.8668 29.7633C94.8011 30.0346 94.7394 30.3305 94.6819 30.651C94.6244 30.9634 94.5751 31.2593 94.534 31.5387C94.5011 31.81 94.4764 32.0401 94.46 32.2292C94.4435 32.4182 94.4353 32.5127 94.4353 32.5127C94.4189 32.5374 94.386 32.5662 94.3367 32.599C94.2874 32.6237 94.2339 32.6525 94.1764 32.6853C94.1271 32.7182 94.0737 32.7429 94.0161 32.7593C93.9668 32.7758 93.9298 32.784 93.9052 32.784C93.675 32.784 93.4531 32.6812 93.2394 32.4757C93.0257 32.262 92.8284 31.9908 92.6476 31.662C92.475 31.325 92.3147 30.9551 92.1667 30.5524C92.027 30.1496 91.9078 29.7551 91.8092 29.3688C91.7106 28.9825 91.6325 28.6331 91.5749 28.3208C91.5256 28.0085 91.501 27.7701 91.501 27.6057Z" fill="#FDFDFD"/>
<path d="M102.597 30.2811C102.597 29.7715 102.716 29.2989 102.955 28.8633C103.193 28.4194 103.506 28.0413 103.892 27.729C104.286 27.4084 104.726 27.1577 105.211 26.9769C105.704 26.7961 106.201 26.7057 106.703 26.7057C106.982 26.7057 107.229 26.7961 107.443 26.9769C107.665 27.1577 107.85 27.3797 107.997 27.6427C108.145 27.8975 108.256 28.1687 108.33 28.4564C108.413 28.7441 108.454 28.9948 108.454 29.2085C108.454 29.6688 108.343 30.1168 108.121 30.5524C107.899 30.9798 107.611 31.362 107.258 31.699C106.904 32.0278 106.506 32.2949 106.062 32.5004C105.618 32.7059 105.174 32.8086 104.73 32.8086C104.336 32.8086 104.003 32.7429 103.732 32.6114C103.46 32.4716 103.242 32.2908 103.078 32.0689C102.914 31.8387 102.79 31.5716 102.708 31.2675C102.634 30.9551 102.597 30.6264 102.597 30.2811ZM103.645 30.4044C103.645 30.6181 103.662 30.8072 103.695 30.9716C103.736 31.1278 103.801 31.2634 103.892 31.3784C103.99 31.4935 104.118 31.5839 104.274 31.6497C104.43 31.7072 104.623 31.736 104.854 31.736C105.158 31.736 105.462 31.6538 105.766 31.4894C106.07 31.3168 106.341 31.1031 106.58 30.8483C106.826 30.5853 107.023 30.2976 107.171 29.9852C107.319 29.6729 107.393 29.3688 107.393 29.0729C107.393 28.9414 107.381 28.7975 107.356 28.6414C107.332 28.4852 107.291 28.3414 107.233 28.2098C107.176 28.0783 107.093 27.9674 106.986 27.877C106.88 27.7865 106.744 27.7413 106.58 27.7413C106.432 27.7413 106.255 27.7906 106.049 27.8893C105.852 27.9879 105.643 28.1153 105.421 28.2715C105.207 28.4277 104.993 28.6044 104.78 28.8016C104.574 28.9989 104.385 29.1962 104.212 29.3934C104.04 29.5907 103.9 29.7798 103.793 29.9606C103.695 30.1414 103.645 30.2894 103.645 30.4044Z" fill="#FDFDFD"/>
<path d="M108.934 28.629C108.934 28.4153 108.988 28.2633 109.095 28.1729C109.202 28.0742 109.374 28.0249 109.613 28.0249H109.736C109.761 28.1564 109.789 28.3085 109.822 28.4811C109.855 28.6537 109.904 28.8304 109.97 29.0112C110.036 29.1921 110.114 29.3606 110.204 29.5167C110.295 29.6647 110.406 29.7839 110.537 29.8743C110.545 29.5866 110.615 29.3113 110.747 29.0482C110.887 28.777 111.055 28.5386 111.252 28.3331C111.458 28.1194 111.68 27.9427 111.918 27.803C112.165 27.655 112.407 27.5564 112.646 27.5071H112.917C113.311 27.5071 113.648 27.5975 113.928 27.7783C114.207 27.9509 114.437 28.1811 114.618 28.4688C114.807 28.7482 114.951 29.0688 115.05 29.4304C115.148 29.7921 115.222 30.162 115.272 30.5401C115.329 30.9099 115.362 31.2716 115.37 31.625C115.387 31.9703 115.395 32.2662 115.395 32.5127H114.495C114.446 32.0196 114.384 31.5469 114.31 31.0949C114.285 30.914 114.252 30.725 114.211 30.5277C114.17 30.3222 114.125 30.1332 114.076 29.9606C114.026 29.7798 113.973 29.6154 113.915 29.4674C113.858 29.3113 113.792 29.1797 113.718 29.0729C113.685 29.04 113.64 28.9948 113.583 28.9373C113.533 28.8797 113.48 28.8222 113.422 28.7647C113.365 28.7071 113.311 28.6578 113.262 28.6167C113.213 28.5756 113.184 28.5551 113.176 28.5551C112.929 28.4893 112.715 28.5386 112.535 28.703C112.354 28.8592 112.193 29.0729 112.054 29.3441C111.914 29.6154 111.799 29.9236 111.709 30.2688C111.626 30.614 111.556 30.9469 111.499 31.2675C111.441 31.5798 111.4 31.8552 111.376 32.0935C111.351 32.3237 111.335 32.4634 111.326 32.5127C111.121 32.6607 110.928 32.7059 110.747 32.6484C110.566 32.5826 110.393 32.4511 110.229 32.2538C110.073 32.0566 109.929 31.81 109.798 31.5141C109.674 31.2182 109.559 30.9058 109.452 30.5771C109.345 30.2401 109.247 29.9031 109.156 29.5661C109.074 29.2291 109 28.9167 108.934 28.629Z" fill="#FDFDFD"/>
<path d="M115.802 31.3291C115.802 30.8524 115.921 30.4291 116.159 30.0592C116.398 29.6893 116.694 29.3688 117.047 29.0975C117.401 28.8181 117.783 28.5838 118.194 28.3948C118.605 28.1975 118.987 28.0372 119.34 27.9139C119.694 27.7824 119.99 27.6797 120.228 27.6057C120.466 27.5235 120.586 27.4578 120.586 27.4084C120.586 27.1208 120.569 26.8413 120.536 26.5701C120.512 26.2906 120.483 26.0111 120.45 25.7317C120.417 25.4522 120.384 25.1769 120.351 24.9056C120.327 24.6261 120.314 24.3508 120.314 24.0796V23.2782C120.651 23.1549 120.89 23.1672 121.029 23.3151C121.177 23.4631 121.202 23.7179 121.103 24.0796C121.136 24.2604 121.181 24.544 121.239 24.9303C121.297 25.3166 121.358 25.7522 121.424 26.2372C121.498 26.7221 121.572 27.2317 121.646 27.766C121.728 28.3003 121.802 28.814 121.868 29.3071C121.942 29.7921 122.003 30.2277 122.053 30.614C122.102 30.9921 122.139 31.2757 122.164 31.4648C122.172 31.5059 122.18 31.588 122.188 31.7113C122.197 31.8264 122.201 31.9538 122.201 32.0935C122.209 32.2251 122.213 32.3483 122.213 32.4634C122.221 32.5785 122.225 32.6607 122.225 32.71C121.913 32.71 121.699 32.6977 121.584 32.673C121.477 32.6484 121.408 32.599 121.375 32.5251C121.35 32.4511 121.338 32.3442 121.338 32.2045C121.338 32.0648 121.297 31.8716 121.214 31.625C120.91 31.8634 120.623 32.0607 120.351 32.2168C120.08 32.373 119.809 32.5004 119.538 32.599C119.266 32.6895 118.991 32.7511 118.712 32.784C118.44 32.8251 118.149 32.8456 117.836 32.8456C117.573 32.8456 117.318 32.8251 117.072 32.784C116.833 32.7347 116.62 32.6525 116.431 32.5374C116.242 32.4223 116.09 32.2662 115.974 32.0689C115.859 31.8716 115.802 31.625 115.802 31.3291ZM116.874 31.0702C116.874 31.2017 116.903 31.3086 116.961 31.3908C117.018 31.473 117.092 31.5428 117.183 31.6004C117.273 31.6579 117.368 31.699 117.466 31.7237C117.573 31.7401 117.676 31.7483 117.775 31.7483C118.062 31.7483 118.37 31.6949 118.699 31.588C119.036 31.473 119.344 31.3168 119.624 31.1195C119.912 30.914 120.146 30.6716 120.327 30.3921C120.516 30.1126 120.61 29.8085 120.61 29.4798C120.61 29.2249 120.565 29.0482 120.475 28.9496C120.384 28.851 120.212 28.8016 119.957 28.8016C119.694 28.8016 119.386 28.8633 119.032 28.9866C118.687 29.1099 118.35 29.2743 118.021 29.4798C117.701 29.6852 117.429 29.9277 117.207 30.2072C116.985 30.4784 116.874 30.7661 116.874 31.0702Z" fill="#FDFDFD"/>
<path d="M122.953 29.3565C122.953 28.9126 123.006 28.4688 123.113 28.0249C123.22 27.5811 123.388 27.1824 123.619 26.829C123.857 26.4755 124.161 26.1878 124.531 25.9659C124.909 25.744 125.365 25.633 125.899 25.633C126.204 25.633 126.471 25.6906 126.701 25.8056C126.931 25.9125 127.124 26.0563 127.28 26.2372C127.437 26.418 127.552 26.6317 127.626 26.8783C127.708 27.1167 127.749 27.3673 127.749 27.6304C127.749 28.0496 127.65 28.4564 127.453 28.851C127.264 29.2455 127.005 29.5948 126.676 29.8989C126.356 30.1948 125.986 30.4209 125.567 30.5771C125.147 30.725 124.72 30.7579 124.284 30.6757C124.293 30.914 124.371 31.1072 124.519 31.2552C124.675 31.3949 124.86 31.5017 125.073 31.5757C125.287 31.6497 125.509 31.699 125.739 31.7237C125.969 31.7401 126.175 31.7483 126.356 31.7483C126.545 31.7483 126.721 31.7319 126.886 31.699C127.05 31.6661 127.215 31.6291 127.379 31.588C127.543 31.5469 127.708 31.51 127.872 31.4771C128.045 31.4442 128.226 31.4278 128.415 31.4278C128.489 31.4278 128.563 31.4319 128.637 31.4401C128.711 31.4483 128.78 31.4689 128.846 31.5017C128.912 31.5264 128.965 31.5716 129.006 31.6374C129.048 31.6949 129.068 31.7689 129.068 31.8593C129.068 32.0155 129.011 32.147 128.895 32.2538C128.78 32.3525 128.632 32.4388 128.452 32.5127C128.279 32.5867 128.086 32.6442 127.872 32.6853C127.658 32.7182 127.449 32.747 127.243 32.7717C127.046 32.7881 126.861 32.7963 126.689 32.7963C126.524 32.8045 126.401 32.8086 126.319 32.8086C125.793 32.8086 125.32 32.7264 124.901 32.5621C124.482 32.3894 124.128 32.1552 123.84 31.8593C123.553 31.5552 123.331 31.1935 123.175 30.7743C123.027 30.3469 122.953 29.8743 122.953 29.3565ZM124.26 28.5551C124.26 28.8427 124.297 29.0523 124.371 29.1838C124.453 29.3154 124.646 29.3811 124.95 29.3811C125.164 29.3811 125.373 29.3441 125.579 29.2702C125.784 29.188 125.969 29.077 126.134 28.9373C126.306 28.7975 126.442 28.6331 126.541 28.4441C126.639 28.255 126.689 28.0496 126.689 27.8276C126.689 27.7043 126.676 27.5769 126.652 27.4454C126.635 27.3139 126.594 27.1947 126.528 27.0879C126.463 26.9728 126.376 26.8824 126.269 26.8166C126.171 26.7427 126.039 26.7057 125.875 26.7057C125.628 26.7057 125.402 26.7632 125.197 26.8783C124.999 26.9851 124.831 27.129 124.691 27.3098C124.551 27.4824 124.445 27.6797 124.371 27.9016C124.297 28.1153 124.26 28.3331 124.26 28.5551Z" fill="#FDFDFD"/>
</svg>
