<svg width="611" height="157" viewBox="0 0 611 157" fill="none" xmlns="http://www.w3.org/2000/svg">
<path d="M82.3147 14.5991C83.3792 16.1958 84.3658 17.6497 85.3134 19.1166C89.6751 25.8409 94.0628 32.5653 98.3856 39.3285C101.917 44.8456 105.863 50.1419 108.083 56.4249C108.238 56.8792 109.212 57.5023 109.537 57.3725C113.82 55.7369 118.26 55.8407 122.622 56.4768C131.397 57.775 140.108 59.4755 148.87 60.8775C153.543 61.6174 158.255 62.0848 162.955 62.6819C163.357 62.7338 163.772 62.7598 164.279 62.8117C164.201 63.1362 164.201 63.3699 164.097 63.5257C159.268 70.5875 154.478 77.6883 149.558 84.6982C146.91 88.4887 144.041 92.1365 141.289 95.8621C136.122 102.885 129.774 108.376 121.311 111.05C117.585 112.232 113.755 112.764 109.848 112.011C109.55 111.959 109.238 111.972 108.485 111.933C109.082 112.569 109.433 112.92 109.77 113.296C114.508 118.592 117.131 124.642 115.3 131.781C114.145 136.286 111.094 139.765 107.304 142.452C101.709 146.411 96.3475 150.643 91.4795 155.472C91.3367 155.615 91.155 155.706 90.7396 155.576C92.3363 153.876 93.8551 152.097 95.5557 150.513C98.0351 148.203 100.735 146.126 103.189 143.789C105.37 141.712 107.563 139.596 109.342 137.195C112.379 133.105 112.782 128.354 111.743 123.473C110.095 115.724 105.655 110.427 97.9442 108.104C97.5029 107.974 97.1004 107.727 96.7499 107.325C98.3207 107.857 99.9044 108.324 101.449 108.908C108.096 111.427 114.651 110.778 121.155 108.389C128.32 105.767 133.889 101.068 138.342 94.9794C145.56 85.1136 152.738 75.2218 159.917 65.3301C160.151 65.0056 160.268 64.5772 160.566 63.9151C158.827 63.7074 157.308 63.5646 155.789 63.318C146.507 61.7862 137.239 60.1765 127.957 58.6707C122.258 57.749 116.533 57.1908 110.744 57.775C109.614 57.8918 108.537 58.0605 109.017 59.7092C111.834 69.3413 109.77 78.2075 104.785 86.6194C100.8 93.3438 95.4908 98.718 88.6886 102.599C87.663 103.184 86.5726 103.664 85.625 104.352C82.6652 106.507 79.9521 105.17 77.3689 103.69C72.0076 100.613 67.1526 96.8876 63.3101 91.9807C57.2738 84.2828 53.5611 75.78 54.366 65.7455C54.8723 59.4106 57.0401 53.582 60.3763 48.2597C65.3871 40.2762 70.6186 32.4484 75.7462 24.5298C77.5895 21.6869 79.355 18.7921 81.1854 15.9232C81.432 15.5338 81.7825 15.1963 82.2498 14.6251L82.3147 14.5991ZM82.2498 23.725C81.7176 24.4 81.2892 24.8544 80.9517 25.3866C79.7574 27.2429 78.6021 29.1252 77.4338 30.9945C71.9427 39.7439 66.166 48.3246 61.0254 57.2687C56.4041 65.2911 56.2093 74.0795 59.7013 82.5173C63.388 91.4095 69.7358 98.2247 78.3944 102.716C80.77 103.949 82.7821 104.235 85.4822 102.95C93.3748 99.1983 99.1385 93.2788 103.215 85.8535C109.459 74.4949 107.602 63.1752 101.228 52.5565C95.6985 43.3268 89.5583 34.4735 83.6648 25.4645C83.3013 24.9063 82.808 24.426 82.2498 23.725Z" fill="#FF0000"/>
<path d="M0 62.7733C11.5274 61.9295 22.4966 59.463 33.5437 57.412C39.4372 56.3216 45.3827 55.6855 51.38 56.5422C52.5483 56.711 53.6777 57.0745 54.8331 57.3471C54.7941 57.5158 54.7681 57.6976 54.7292 57.8663C54.184 57.8144 53.6388 57.7755 53.0806 57.7235C47.3948 57.1783 41.7868 57.8014 36.2049 58.775C25.8717 60.5794 15.6684 63.1108 5.14061 63.656C4.62135 63.682 4.1021 63.8377 3.34918 63.9676C3.62179 64.5128 3.77756 64.9412 4.03719 65.3046C8.4768 71.5357 12.8255 77.8316 17.395 83.9588C21.3543 89.2681 25.2876 94.6294 29.7272 99.5104C37.1915 107.728 46.5769 111.661 57.8187 110.22C59.714 109.973 61.5444 109.207 63.3877 108.649C64.0368 108.455 64.6729 108.195 65.3869 108.156C64.1407 108.818 62.8685 109.454 61.6352 110.142C56.0143 113.232 53.5479 118.385 52.3666 124.383C50.8218 132.184 54.3008 137.896 59.8308 142.855C64.2705 146.84 68.6062 150.955 72.9939 155.005C73.1886 155.187 73.3444 155.395 73.3314 155.797C72.4487 155.005 71.5919 154.175 70.6832 153.422C65.5686 149.216 60.415 145.049 55.3393 140.804C51.7175 137.792 49.0694 134.119 48.4722 129.302C48.0568 125.94 48.9785 122.786 50.2247 119.722C51.3151 117.061 52.6003 114.517 55.1316 112.868C55.2355 112.803 55.2485 112.596 55.3783 112.219C54.8331 112.219 54.4047 112.18 53.9763 112.219C49.5756 112.725 45.3048 112.349 41.1637 110.596C33.6086 107.39 27.6502 102.275 22.8341 95.6939C18.758 90.1249 14.5391 84.6727 10.5668 79.0389C7.12674 74.1579 3.9593 69.0822 0.675034 64.0844C0.454351 63.7469 0.29857 63.3444 0 62.7473V62.7733Z" fill="#FF0000"/>
<path d="M83.547 12.6125C83.0147 9.60081 82.5214 6.5502 81.9113 3.52556C81.5738 1.87693 82.3008 0.371102 83.7936 0.0465693C85.1696 -0.252001 86.5716 0.916315 86.6106 2.65581C86.7144 6.40741 85.5331 9.78255 83.547 12.6125Z" fill="#FF0000"/>
<path d="M64.4657 63.9792C64.297 66.5365 64.0633 69.1068 63.9595 71.6641C63.7907 75.6883 64.7643 79.5308 66.7504 82.9708C70.0607 88.7345 74.3056 93.7064 80.3678 96.8349C81.627 97.4839 82.7564 97.6137 84.0286 96.9257C92.5703 92.2525 98.347 85.3464 100.112 75.6883C100.787 71.9627 100.229 68.0164 100.229 63.9402C100.502 65.9653 100.736 67.8216 100.982 69.678C102.332 79.9202 98.7883 88.5398 91.9861 95.9262C89.974 98.107 87.3907 99.7816 84.9762 101.586C83.3665 102.793 81.666 102.858 79.8875 101.69C68.8145 94.4723 62.8171 84.4767 63.2844 71.054C63.3623 68.6654 63.9595 66.3028 64.3229 63.9272L64.4917 63.9662L64.4657 63.9792Z" fill="#FF0000"/>
<path d="M82.2766 29.3584C87.8716 39.5357 93.1939 49.2328 98.5033 58.9168C98.4254 58.9558 98.3345 59.0077 98.2566 59.0466C93.0122 50.4141 87.7548 41.7685 82.2117 32.6556C76.8634 41.4699 71.7358 49.9338 66.6082 58.3976C66.5303 58.3586 66.4395 58.3067 66.3616 58.2678C71.5801 48.7784 76.7985 39.2891 82.2637 29.3584H82.2766Z" fill="#FF0000"/>
<path d="M218.908 88.4472V31.9444L222.588 34.7298L208.86 41.9916L205.976 32.6407L224.578 22.6931H229.751V88.4472H218.908ZM207.866 93.3215V82.976H241.091V93.3215H207.866Z" fill="#FF2222"/>
<path d="M281.904 93.3215V41.0963H292.249V52.2377L290.359 53.4314C290.89 51.7071 291.719 50.0492 292.846 48.4575C294.04 46.8659 295.465 45.4732 297.123 44.2795C298.848 43.0195 300.671 42.0247 302.595 41.2952C304.584 40.5657 306.607 40.201 308.663 40.201C311.647 40.201 314.267 40.6984 316.521 41.6931C318.776 42.6879 320.633 44.18 322.092 46.1696C323.551 48.1591 324.612 50.646 325.275 53.6303L323.684 53.2324L324.38 51.5413C325.11 50.016 326.104 48.5902 327.364 47.2638C328.691 45.8711 330.183 44.6443 331.841 43.5832C333.499 42.5221 335.256 41.6931 337.113 41.0963C338.97 40.4994 340.794 40.201 342.584 40.201C346.497 40.201 349.713 40.9968 352.234 42.5884C354.82 44.18 356.743 46.6006 358.003 49.8502C359.33 53.0998 359.993 57.1452 359.993 61.9864V93.3215H349.647V62.5832C349.647 59.5989 349.249 57.1783 348.453 55.3214C347.724 53.3982 346.597 51.9724 345.071 51.0439C343.546 50.1155 341.59 49.6513 339.202 49.6513C337.345 49.6513 335.588 49.9829 333.93 50.646C332.338 51.2429 330.946 52.105 329.752 53.2324C328.558 54.3598 327.63 55.6862 326.966 57.2115C326.303 58.6705 325.972 60.2953 325.972 62.0858V93.3215H315.626V62.3843C315.626 59.6652 315.228 57.3773 314.432 55.5204C313.637 53.5972 312.476 52.1382 310.951 51.1434C309.425 50.1486 307.568 49.6513 305.38 49.6513C303.523 49.6513 301.799 49.9829 300.207 50.646C298.616 51.2429 297.223 52.105 296.029 53.2324C294.835 54.2935 293.907 55.5867 293.244 57.112C292.581 58.571 292.249 60.1626 292.249 61.8869V93.3215H281.904Z" fill="#FF2222"/>
<path d="M375.401 93.3215V41.0963H385.648V93.3215H375.401ZM380.375 29.557C378.187 29.557 376.496 28.9933 375.302 27.8659C374.108 26.7385 373.511 25.1468 373.511 23.091C373.511 21.1678 374.108 19.6093 375.302 18.4156C376.562 17.2219 378.253 16.625 380.375 16.625C382.564 16.625 384.255 17.1887 385.449 18.3161C386.642 19.4435 387.239 21.0351 387.239 23.091C387.239 25.0142 386.609 26.5727 385.349 27.7664C384.155 28.9601 382.497 29.557 380.375 29.557Z" fill="#FF2222"/>
<path d="M401.397 93.3215V41.0963H411.643V51.8397L409.852 53.0335C410.515 50.7123 411.809 48.5902 413.732 46.667C415.655 44.6774 417.943 43.0858 420.596 41.8921C423.248 40.632 425.968 40.002 428.753 40.002C432.732 40.002 436.048 40.7978 438.701 42.3895C441.353 43.9148 443.343 46.2691 444.669 49.4523C445.995 52.6356 446.659 56.6478 446.659 61.489V93.3215H436.413V62.1853C436.413 59.201 436.015 56.7473 435.219 54.8241C434.423 52.8345 433.196 51.4087 431.538 50.5466C429.88 49.6181 427.824 49.2202 425.371 49.3528C423.381 49.3528 421.557 49.6844 419.899 50.3476C418.241 50.9445 416.783 51.8066 415.522 52.934C414.329 54.0614 413.367 55.3878 412.638 56.9131C411.974 58.3721 411.643 59.9637 411.643 61.6879V93.3215H406.57C405.707 93.3215 404.845 93.3215 403.983 93.3215C403.121 93.3215 402.259 93.3215 401.397 93.3215Z" fill="#FF2222"/>
<path d="M478.862 94.3163C475.148 94.3163 471.899 93.4542 469.113 91.7299C466.394 90.0056 464.272 87.585 462.747 84.4681C461.288 81.3512 460.558 77.6374 460.558 73.3267V41.0963H470.804V70.5414C470.804 73.592 471.269 76.2447 472.197 78.4995C473.192 80.688 474.584 82.3791 476.375 83.5728C478.232 84.7665 480.454 85.3634 483.04 85.3634C484.963 85.3634 486.721 85.065 488.312 84.4681C489.904 83.8049 491.263 82.9096 492.391 81.7822C493.584 80.6548 494.513 79.2953 495.176 77.7037C495.839 76.1121 496.171 74.3878 496.171 72.5309V41.0963H506.417V93.3215H496.171V82.3791L497.961 81.1854C497.166 83.6391 495.806 85.8608 493.883 87.8503C492.026 89.8399 489.804 91.4315 487.218 92.6252C484.632 93.7526 481.846 94.3163 478.862 94.3163Z" fill="#FF2222"/>
<path d="M527.254 93.3215V27.7664H537.5V93.3215H527.254ZM516.411 51.0439V41.0963H549.636V51.0439H516.411Z" fill="#FF2222"/>
<path d="M582.852 94.3163C577.481 94.3163 572.706 93.1889 568.528 90.9341C564.416 88.613 561.166 85.4629 558.779 81.4838C556.458 77.5047 555.297 72.9288 555.297 67.756C555.297 63.6443 555.961 59.8974 557.287 56.5152C558.613 53.1329 560.437 50.215 562.758 47.7612C565.146 45.2411 567.964 43.3179 571.214 41.9916C574.529 40.5989 578.111 39.9025 581.957 39.9025C585.339 39.9025 588.489 40.5657 591.407 41.8921C594.325 43.1521 596.845 44.9095 598.968 47.1643C601.156 49.4192 602.814 52.105 603.941 55.222C605.135 58.2726 605.699 61.6216 605.633 65.2691L605.533 69.6461H562.858L560.57 61.489H596.68L595.187 63.1801V60.7927C594.989 58.6042 594.259 56.6478 592.999 54.9235C591.739 53.1993 590.147 51.8397 588.224 50.845C586.301 49.8502 584.212 49.3528 581.957 49.3528C578.376 49.3528 575.358 50.0492 572.905 51.4418C570.451 52.7682 568.594 54.7577 567.334 57.4104C566.074 59.9968 565.444 63.2133 565.444 67.0597C565.444 70.7072 566.207 73.8904 567.732 76.6095C569.257 79.2622 571.413 81.318 574.198 82.777C576.983 84.236 580.2 84.9655 583.847 84.9655C586.434 84.9655 588.821 84.5344 591.009 83.6723C593.264 82.8102 595.685 81.2517 598.271 78.9969L603.444 86.2587C601.852 87.8503 599.896 89.243 597.575 90.4367C595.32 91.6304 592.9 92.592 590.313 93.3215C587.793 93.9847 585.306 94.3163 582.852 94.3163Z" fill="#FF2222"/>
<path d="M201.468 148.11C201.468 145.857 202.031 143.855 203.158 142.107C204.285 140.358 205.684 138.843 207.355 137.56C209.026 136.239 210.833 135.132 212.776 134.238C214.719 133.305 216.526 132.548 218.196 131.965C219.867 131.343 221.266 130.857 222.393 130.508C223.52 130.119 224.083 129.808 224.083 129.575C224.083 128.215 224.006 126.894 223.85 125.611C223.734 124.29 223.598 122.969 223.442 121.648C223.287 120.327 223.131 119.025 222.976 117.743C222.859 116.422 222.801 115.12 222.801 113.837V110.049C224.394 109.466 225.521 109.524 226.182 110.224C226.881 110.923 226.998 112.128 226.531 113.837C226.687 114.692 226.901 116.033 227.173 117.859C227.445 119.686 227.736 121.745 228.047 124.038C228.397 126.33 228.746 128.74 229.096 131.265C229.485 133.791 229.834 136.22 230.145 138.551C230.495 140.844 230.786 142.903 231.02 144.73C231.253 146.517 231.428 147.858 231.544 148.751C231.583 148.946 231.622 149.334 231.661 149.917C231.7 150.461 231.719 151.063 231.719 151.724C231.758 152.346 231.777 152.929 231.777 153.473C231.816 154.017 231.836 154.405 231.836 154.638C230.359 154.638 229.349 154.58 228.805 154.464C228.3 154.347 227.969 154.114 227.814 153.764C227.697 153.414 227.639 152.909 227.639 152.249C227.639 151.588 227.445 150.675 227.056 149.509C225.618 150.636 224.258 151.569 222.976 152.307C221.694 153.045 220.411 153.648 219.129 154.114C217.847 154.541 216.545 154.833 215.224 154.988C213.941 155.182 212.562 155.28 211.085 155.28C209.842 155.28 208.637 155.182 207.472 154.988C206.345 154.755 205.334 154.366 204.441 153.822C203.547 153.278 202.828 152.54 202.284 151.607C201.74 150.675 201.468 149.509 201.468 148.11ZM206.539 146.886C206.539 147.508 206.675 148.013 206.947 148.402C207.219 148.79 207.569 149.121 207.996 149.393C208.424 149.665 208.87 149.859 209.337 149.975C209.842 150.053 210.328 150.092 210.794 150.092C212.154 150.092 213.611 149.839 215.165 149.334C216.759 148.79 218.216 148.052 219.537 147.119C220.897 146.148 222.005 145.002 222.859 143.68C223.753 142.359 224.2 140.922 224.2 139.367C224.2 138.163 223.986 137.327 223.559 136.861C223.131 136.395 222.315 136.161 221.111 136.161C219.867 136.161 218.41 136.453 216.739 137.036C215.107 137.619 213.514 138.396 211.96 139.367C210.444 140.339 209.162 141.485 208.113 142.806C207.064 144.088 206.539 145.448 206.539 146.886Z" fill="#272424"/>
<path d="M260.338 147.469C258.861 148.479 257.579 149.393 256.491 150.209C255.442 150.986 254.412 151.646 253.402 152.19C252.392 152.734 251.304 153.142 250.138 153.414C249.011 153.686 247.612 153.822 245.941 153.822C242.327 153.822 239.646 152.87 237.897 150.966C236.149 149.023 235.275 146.148 235.275 142.34C235.275 140.863 235.469 139.328 235.857 137.735C236.246 136.142 236.809 134.568 237.548 133.014C238.325 131.421 239.238 129.925 240.287 128.526C241.336 127.088 242.522 125.825 243.843 124.737C245.164 123.649 246.563 122.794 248.039 122.173C249.555 121.512 251.148 121.182 252.819 121.182C255.617 121.454 257.812 122.153 259.405 123.28C260.999 124.368 262.203 125.786 263.019 127.535C263.835 129.245 264.399 131.168 264.71 133.305C265.02 135.404 265.254 137.58 265.409 139.833C265.603 142.087 265.836 144.341 266.108 146.595C266.38 148.849 266.944 150.927 267.799 152.832C267.294 154.114 266.808 155.008 266.342 155.513C265.914 156.057 265.428 156.154 264.884 155.804C264.34 155.454 263.699 154.6 262.961 153.24C262.261 151.88 261.387 149.956 260.338 147.469ZM240.229 142.456C240.229 144.671 240.637 146.303 241.453 147.353C242.308 148.363 243.804 148.868 245.941 148.868C247.534 148.868 249.05 148.596 250.487 148.052C251.964 147.469 253.246 146.692 254.334 145.721C255.422 144.71 256.297 143.506 256.957 142.107C257.618 140.708 257.948 139.153 257.948 137.444C257.948 136.744 257.968 135.773 258.007 134.529C258.045 133.247 257.968 131.984 257.773 130.741C257.579 129.497 257.21 128.429 256.666 127.535C256.122 126.602 255.306 126.136 254.218 126.136C252.197 126.136 250.332 126.661 248.622 127.71C246.913 128.72 245.436 130.022 244.192 131.615C242.949 133.208 241.978 134.976 241.278 136.919C240.579 138.823 240.229 140.669 240.229 142.456Z" fill="#272424"/>
<path d="M271.471 135.345C271.471 134.335 271.723 133.616 272.229 133.189C272.734 132.722 273.55 132.489 274.677 132.489H275.26C275.376 133.111 275.512 133.83 275.668 134.646C275.823 135.462 276.056 136.297 276.367 137.152C276.678 138.007 277.047 138.804 277.474 139.542C277.902 140.242 278.426 140.805 279.048 141.232C279.087 139.872 279.417 138.571 280.039 137.327C280.7 136.045 281.496 134.918 282.429 133.947C283.4 132.936 284.449 132.101 285.576 131.44C286.742 130.741 287.888 130.274 289.015 130.041H290.298C292.163 130.041 293.756 130.469 295.077 131.324C296.398 132.14 297.486 133.228 298.341 134.588C299.235 135.909 299.915 137.424 300.381 139.134C300.848 140.844 301.197 142.592 301.43 144.38C301.702 146.129 301.858 147.838 301.897 149.509C301.974 151.141 302.013 152.54 302.013 153.706H297.758C297.525 151.374 297.234 149.14 296.884 147.003C296.767 146.148 296.612 145.254 296.418 144.322C296.223 143.35 296.01 142.456 295.777 141.64C295.543 140.786 295.291 140.008 295.019 139.309C294.747 138.571 294.436 137.949 294.086 137.444C293.931 137.288 293.717 137.075 293.445 136.803C293.212 136.531 292.959 136.259 292.687 135.987C292.415 135.715 292.163 135.481 291.93 135.287C291.696 135.093 291.56 134.996 291.522 134.996C290.356 134.685 289.346 134.918 288.491 135.695C287.636 136.433 286.878 137.444 286.217 138.726C285.557 140.008 285.013 141.466 284.585 143.098C284.197 144.73 283.867 146.303 283.595 147.819C283.323 149.295 283.128 150.597 283.012 151.724C282.895 152.812 282.817 153.473 282.779 153.706C281.807 154.405 280.894 154.619 280.039 154.347C279.184 154.036 278.368 153.414 277.591 152.482C276.853 151.549 276.173 150.383 275.551 148.985C274.968 147.586 274.424 146.109 273.919 144.555C273.414 142.962 272.947 141.368 272.52 139.775C272.131 138.182 271.782 136.705 271.471 135.345Z" fill="#272424"/>
<path d="M316.41 152.365C317.032 151.938 317.77 151.394 318.625 150.733C319.519 150.034 320.413 149.295 321.306 148.518C322.2 147.741 323.036 146.925 323.813 146.07C324.59 145.215 325.192 144.399 325.62 143.622C326.086 142.806 326.319 142.048 326.319 141.349C326.319 140.65 325.969 140.067 325.27 139.6C324.026 139.6 322.666 139.659 321.19 139.775C319.713 139.853 318.237 139.892 316.76 139.892C315.283 139.853 313.846 139.717 312.447 139.484C311.087 139.251 309.863 138.823 308.775 138.201C307.687 137.58 306.812 136.705 306.152 135.579C305.53 134.413 305.219 132.936 305.219 131.149C305.219 129.05 305.608 127.166 306.385 125.495C307.201 123.785 308.269 122.289 309.591 121.007C310.912 119.686 312.388 118.539 314.02 117.568C315.691 116.558 317.362 115.703 319.033 115.003C320.043 115.275 320.976 115.761 321.831 116.46C322.686 117.16 323.424 117.937 324.046 118.792C323.774 119.647 323.23 120.307 322.414 120.774C321.637 121.24 320.723 121.648 319.674 121.998C318.664 122.347 317.595 122.717 316.469 123.105C315.342 123.494 314.312 124.018 313.379 124.679C312.486 125.301 311.728 126.136 311.106 127.185C310.484 128.196 310.173 129.536 310.173 131.207C310.173 132.45 310.484 133.364 311.106 133.947C311.728 134.529 312.544 134.937 313.554 135.171C314.564 135.365 315.711 135.443 316.993 135.404C318.275 135.326 319.577 135.229 320.898 135.112C322.258 134.996 323.58 134.937 324.862 134.937C326.144 134.899 327.29 135.054 328.301 135.404C329.311 135.715 330.108 136.239 330.691 136.977C331.312 137.716 331.623 138.804 331.623 140.242C331.623 140.863 331.409 141.66 330.982 142.631C330.593 143.603 330.049 144.652 329.35 145.779C328.689 146.867 327.893 147.955 326.96 149.043C326.066 150.131 325.114 151.122 324.104 152.016C323.133 152.87 322.142 153.589 321.131 154.172C320.16 154.716 319.247 154.988 318.392 154.988C317.576 154.988 317.032 154.697 316.76 154.114C316.527 153.531 316.41 152.948 316.41 152.365Z" fill="#272424"/>
<path d="M362.224 121.998C362.224 120.871 362.146 119.783 361.991 118.734C361.835 117.646 361.796 116.694 361.874 115.877C361.952 115.023 362.243 114.343 362.748 113.837C363.292 113.332 364.264 113.08 365.663 113.08C366.09 113.973 366.498 115.333 366.887 117.16C367.314 118.986 367.722 121.084 368.111 123.455C368.499 125.825 368.869 128.409 369.218 131.207C369.568 133.966 369.879 136.744 370.151 139.542C370.462 142.34 370.714 145.099 370.909 147.819C371.142 150.5 371.317 152.948 371.433 155.163C370.151 156.018 369.121 156.076 368.344 155.338C367.567 154.6 366.926 153.356 366.421 151.607C365.915 149.82 365.527 147.663 365.255 145.138C364.983 142.573 364.711 139.931 364.439 137.211C364.206 134.452 363.914 131.751 363.564 129.109C363.215 126.427 362.768 124.057 362.224 121.998Z" fill="#272424"/>
<path d="M374.464 138.784C374.464 136.686 374.717 134.588 375.222 132.489C375.727 130.391 376.524 128.506 377.612 126.835C378.739 125.165 380.176 123.805 381.925 122.755C383.712 121.706 385.869 121.182 388.395 121.182C389.833 121.182 391.095 121.454 392.183 121.998C393.271 122.503 394.185 123.183 394.923 124.038C395.661 124.893 396.205 125.903 396.555 127.069C396.944 128.196 397.138 129.381 397.138 130.624C397.138 132.606 396.672 134.529 395.739 136.395C394.845 138.26 393.621 139.911 392.067 141.349C390.551 142.748 388.803 143.816 386.821 144.555C384.839 145.254 382.819 145.41 380.759 145.021C380.798 146.148 381.167 147.061 381.867 147.761C382.605 148.421 383.479 148.926 384.49 149.276C385.5 149.626 386.549 149.859 387.637 149.975C388.725 150.053 389.697 150.092 390.551 150.092C391.445 150.092 392.281 150.014 393.058 149.859C393.835 149.703 394.612 149.529 395.389 149.334C396.166 149.14 396.944 148.965 397.721 148.81C398.537 148.654 399.392 148.577 400.285 148.577C400.635 148.577 400.985 148.596 401.335 148.635C401.684 148.674 402.015 148.771 402.325 148.926C402.636 149.043 402.889 149.257 403.083 149.567C403.277 149.839 403.375 150.189 403.375 150.617C403.375 151.355 403.103 151.977 402.559 152.482C402.015 152.948 401.315 153.356 400.46 153.706C399.644 154.056 398.731 154.328 397.721 154.522C396.71 154.677 395.72 154.813 394.748 154.93C393.816 155.008 392.941 155.046 392.125 155.046C391.348 155.085 390.765 155.105 390.377 155.105C387.89 155.105 385.655 154.716 383.674 153.939C381.692 153.123 380.021 152.016 378.661 150.617C377.301 149.179 376.252 147.469 375.513 145.487C374.814 143.467 374.464 141.232 374.464 138.784ZM380.643 134.996C380.643 136.356 380.817 137.347 381.167 137.968C381.556 138.59 382.469 138.901 383.907 138.901C384.917 138.901 385.908 138.726 386.879 138.376C387.851 137.988 388.725 137.463 389.502 136.803C390.318 136.142 390.959 135.365 391.426 134.471C391.892 133.577 392.125 132.606 392.125 131.557C392.125 130.974 392.067 130.372 391.95 129.75C391.873 129.128 391.678 128.565 391.367 128.059C391.057 127.515 390.649 127.088 390.143 126.777C389.677 126.427 389.055 126.253 388.278 126.253C387.112 126.253 386.044 126.525 385.072 127.069C384.14 127.574 383.343 128.254 382.683 129.109C382.022 129.925 381.517 130.857 381.167 131.906C380.817 132.917 380.643 133.947 380.643 134.996Z" fill="#272424"/>
<path d="M432.576 130.508C432.576 129.536 432.732 128.778 433.043 128.234C433.392 127.69 434.111 127.418 435.199 127.418C435.316 127.418 435.53 127.438 435.841 127.477C436.19 127.477 436.404 127.477 436.482 127.477C436.754 128.681 437.026 130.002 437.298 131.44C437.609 132.839 437.958 134.257 438.347 135.695C438.735 137.133 439.163 138.551 439.629 139.95C440.134 141.349 440.737 142.612 441.436 143.739C442.136 143 442.641 142.126 442.952 141.116C443.262 140.106 443.496 139.095 443.651 138.085C443.806 137.036 443.942 136.045 444.059 135.112C444.214 134.141 444.506 133.325 444.933 132.664C445.361 131.965 445.982 131.46 446.799 131.149C447.653 130.838 448.819 130.838 450.296 131.149C451.928 131.149 453.23 131.46 454.201 132.081C455.172 132.664 456.008 133.422 456.707 134.355C457.446 135.248 458.145 136.22 458.806 137.269C459.505 138.279 460.379 139.192 461.429 140.008C461.662 139.503 461.953 138.881 462.303 138.143C462.653 137.366 463.08 136.569 463.585 135.753C464.129 134.899 464.693 134.063 465.276 133.247C465.897 132.392 466.538 131.634 467.199 130.974C467.86 130.274 468.54 129.711 469.239 129.284C469.938 128.817 470.618 128.584 471.279 128.584C472.872 128.584 474.252 129.089 475.417 130.1C476.583 131.071 477.574 132.314 478.39 133.83C479.245 135.307 479.944 136.977 480.488 138.843C481.032 140.669 481.46 142.437 481.771 144.147C482.082 145.857 482.295 147.43 482.412 148.868C482.567 150.267 482.645 151.277 482.645 151.899C482.645 152.404 482.529 152.793 482.295 153.065C482.062 153.337 481.771 153.55 481.421 153.706C481.071 153.822 480.683 153.9 480.255 153.939C479.867 153.978 479.498 153.997 479.148 153.997C479.07 153.997 478.954 153.997 478.798 153.997C478.643 153.958 478.468 153.92 478.274 153.881C478.118 153.842 477.904 153.784 477.632 153.706L473.844 136.278C473.844 136.161 473.688 135.948 473.377 135.637C473.067 135.287 472.833 135.073 472.678 134.996C472.561 134.996 472.464 134.976 472.387 134.937C472.309 134.937 472.251 134.937 472.212 134.937C472.173 134.899 472.134 134.879 472.095 134.879C471.279 134.879 470.502 135.209 469.764 135.87C469.064 136.531 468.404 137.366 467.782 138.376C467.16 139.387 466.577 140.514 466.033 141.757C465.489 143 465.004 144.244 464.576 145.487C464.149 146.692 463.76 147.819 463.41 148.868C463.099 149.878 462.847 150.655 462.653 151.199C462.497 151.277 462.186 151.355 461.72 151.433C461.254 151.471 460.943 151.491 460.787 151.491C459.699 151.491 458.864 151.122 458.281 150.383C457.698 149.606 457.212 148.654 456.824 147.527C456.474 146.401 456.163 145.176 455.891 143.855C455.658 142.495 455.347 141.252 454.959 140.125C454.609 138.998 454.104 138.065 453.443 137.327C452.822 136.55 451.928 136.161 450.762 136.161C450.335 136.161 449.927 136.589 449.538 137.444C449.149 138.299 448.8 139.387 448.489 140.708C448.178 141.99 447.887 143.389 447.615 144.904C447.343 146.381 447.109 147.78 446.915 149.101C446.76 150.383 446.643 151.471 446.565 152.365C446.488 153.259 446.449 153.706 446.449 153.706C446.371 153.822 446.216 153.958 445.982 154.114C445.749 154.23 445.497 154.366 445.225 154.522C444.992 154.677 444.739 154.794 444.467 154.872C444.234 154.949 444.059 154.988 443.942 154.988C442.854 154.988 441.805 154.502 440.795 153.531C439.785 152.521 438.852 151.238 437.997 149.684C437.181 148.091 436.423 146.342 435.724 144.438C435.063 142.534 434.5 140.669 434.034 138.843C433.567 137.016 433.198 135.365 432.926 133.888C432.693 132.412 432.576 131.285 432.576 130.508Z" fill="#272424"/>
<path d="M485.035 143.156C485.035 140.747 485.598 138.512 486.725 136.453C487.852 134.355 489.329 132.567 491.155 131.09C493.02 129.575 495.099 128.39 497.392 127.535C499.723 126.68 502.074 126.253 504.444 126.253C505.766 126.253 506.931 126.68 507.942 127.535C508.991 128.39 509.865 129.439 510.565 130.682C511.264 131.887 511.789 133.169 512.138 134.529C512.527 135.889 512.721 137.075 512.721 138.085C512.721 140.261 512.197 142.379 511.147 144.438C510.098 146.459 508.738 148.266 507.067 149.859C505.396 151.413 503.512 152.676 501.414 153.648C499.315 154.619 497.217 155.105 495.119 155.105C493.253 155.105 491.68 154.794 490.397 154.172C489.115 153.512 488.085 152.657 487.308 151.607C486.531 150.519 485.948 149.257 485.559 147.819C485.21 146.342 485.035 144.788 485.035 143.156ZM489.989 143.739C489.989 144.749 490.067 145.643 490.222 146.42C490.417 147.158 490.728 147.799 491.155 148.343C491.621 148.887 492.224 149.315 492.962 149.626C493.7 149.898 494.613 150.034 495.701 150.034C497.139 150.034 498.577 149.645 500.015 148.868C501.452 148.052 502.735 147.042 503.862 145.837C505.027 144.594 505.96 143.234 506.659 141.757C507.359 140.28 507.709 138.843 507.709 137.444C507.709 136.822 507.65 136.142 507.534 135.404C507.417 134.665 507.223 133.985 506.951 133.364C506.679 132.742 506.29 132.217 505.785 131.79C505.28 131.362 504.639 131.149 503.862 131.149C503.162 131.149 502.327 131.382 501.355 131.848C500.423 132.314 499.432 132.917 498.383 133.655C497.372 134.393 496.362 135.229 495.352 136.161C494.38 137.094 493.486 138.027 492.67 138.959C491.854 139.892 491.194 140.786 490.689 141.64C490.222 142.495 489.989 143.195 489.989 143.739Z" fill="#272424"/>
<path d="M514.994 135.345C514.994 134.335 515.247 133.616 515.752 133.189C516.257 132.722 517.073 132.489 518.2 132.489H518.783C518.9 133.111 519.036 133.83 519.191 134.646C519.347 135.462 519.58 136.297 519.891 137.152C520.201 138.007 520.571 138.804 520.998 139.542C521.425 140.242 521.95 140.805 522.572 141.232C522.611 139.872 522.941 138.571 523.563 137.327C524.223 136.045 525.02 134.918 525.952 133.947C526.924 132.936 527.973 132.101 529.1 131.44C530.266 130.741 531.412 130.274 532.539 130.041H533.821C535.686 130.041 537.28 130.469 538.601 131.324C539.922 132.14 541.01 133.228 541.865 134.588C542.759 135.909 543.439 137.424 543.905 139.134C544.371 140.844 544.721 142.592 544.954 144.38C545.226 146.129 545.381 147.838 545.42 149.509C545.498 151.141 545.537 152.54 545.537 153.706H541.282C541.049 151.374 540.757 149.14 540.408 147.003C540.291 146.148 540.136 145.254 539.941 144.322C539.747 143.35 539.533 142.456 539.3 141.64C539.067 140.786 538.814 140.008 538.542 139.309C538.27 138.571 537.96 137.949 537.61 137.444C537.454 137.288 537.241 137.075 536.969 136.803C536.736 136.531 536.483 136.259 536.211 135.987C535.939 135.715 535.686 135.481 535.453 135.287C535.22 135.093 535.084 134.996 535.045 134.996C533.879 134.685 532.869 134.918 532.014 135.695C531.159 136.433 530.402 137.444 529.741 138.726C529.08 140.008 528.536 141.466 528.109 143.098C527.72 144.73 527.39 146.303 527.118 147.819C526.846 149.295 526.652 150.597 526.535 151.724C526.419 152.812 526.341 153.473 526.302 153.706C525.331 154.405 524.418 154.619 523.563 154.347C522.708 154.036 521.892 153.414 521.115 152.482C520.376 151.549 519.696 150.383 519.075 148.985C518.492 147.586 517.948 146.109 517.443 144.555C516.937 142.962 516.471 141.368 516.044 139.775C515.655 138.182 515.305 136.705 514.994 135.345Z" fill="#272424"/>
<path d="M547.46 148.11C547.46 145.857 548.024 143.855 549.151 142.107C550.278 140.358 551.676 138.843 553.347 137.56C555.018 136.239 556.825 135.132 558.768 134.238C560.711 133.305 562.518 132.548 564.189 131.965C565.86 131.343 567.259 130.857 568.385 130.508C569.512 130.119 570.076 129.808 570.076 129.575C570.076 128.215 569.998 126.894 569.843 125.611C569.726 124.29 569.59 122.969 569.435 121.648C569.279 120.327 569.124 119.025 568.968 117.743C568.852 116.422 568.793 115.12 568.793 113.837V110.049C570.387 109.466 571.514 109.524 572.174 110.224C572.874 110.923 572.99 112.128 572.524 113.837C572.679 114.692 572.893 116.033 573.165 117.859C573.437 119.686 573.728 121.745 574.039 124.038C574.389 126.33 574.739 128.74 575.088 131.265C575.477 133.791 575.827 136.22 576.138 138.551C576.487 140.844 576.779 142.903 577.012 144.73C577.245 146.517 577.42 147.858 577.536 148.751C577.575 148.946 577.614 149.334 577.653 149.917C577.692 150.461 577.711 151.063 577.711 151.724C577.75 152.346 577.77 152.929 577.77 153.473C577.809 154.017 577.828 154.405 577.828 154.638C576.351 154.638 575.341 154.58 574.797 154.464C574.292 154.347 573.962 154.114 573.806 153.764C573.69 153.414 573.631 152.909 573.631 152.249C573.631 151.588 573.437 150.675 573.048 149.509C571.611 150.636 570.251 151.569 568.968 152.307C567.686 153.045 566.404 153.648 565.121 154.114C563.839 154.541 562.537 154.833 561.216 154.988C559.934 155.182 558.554 155.28 557.078 155.28C555.834 155.28 554.63 155.182 553.464 154.988C552.337 154.755 551.327 154.366 550.433 153.822C549.539 153.278 548.82 152.54 548.276 151.607C547.732 150.675 547.46 149.509 547.46 148.11ZM552.531 146.886C552.531 147.508 552.667 148.013 552.939 148.402C553.211 148.79 553.561 149.121 553.989 149.393C554.416 149.665 554.863 149.859 555.329 149.975C555.834 150.053 556.32 150.092 556.786 150.092C558.146 150.092 559.604 149.839 561.158 149.334C562.751 148.79 564.208 148.052 565.529 147.119C566.889 146.148 567.997 145.002 568.852 143.68C569.745 142.359 570.192 140.922 570.192 139.367C570.192 138.163 569.979 137.327 569.551 136.861C569.124 136.395 568.308 136.161 567.103 136.161C565.86 136.161 564.402 136.453 562.732 137.036C561.1 137.619 559.506 138.396 557.952 139.367C556.437 140.339 555.154 141.485 554.105 142.806C553.056 144.088 552.531 145.448 552.531 146.886Z" fill="#272424"/>
<path d="M581.267 138.784C581.267 136.686 581.519 134.588 582.025 132.489C582.53 130.391 583.326 128.506 584.414 126.835C585.541 125.165 586.979 123.805 588.728 122.755C590.515 121.706 592.672 121.182 595.198 121.182C596.635 121.182 597.898 121.454 598.986 121.998C600.074 122.503 600.987 123.183 601.726 124.038C602.464 124.893 603.008 125.903 603.358 127.069C603.746 128.196 603.941 129.381 603.941 130.624C603.941 132.606 603.474 134.529 602.542 136.395C601.648 138.26 600.424 139.911 598.87 141.349C597.354 142.748 595.606 143.816 593.624 144.555C591.642 145.254 589.621 145.41 587.562 145.021C587.601 146.148 587.97 147.061 588.669 147.761C589.408 148.421 590.282 148.926 591.292 149.276C592.303 149.626 593.352 149.859 594.44 149.975C595.528 150.053 596.499 150.092 597.354 150.092C598.248 150.092 599.083 150.014 599.86 149.859C600.638 149.703 601.415 149.529 602.192 149.334C602.969 149.14 603.746 148.965 604.523 148.81C605.339 148.654 606.194 148.577 607.088 148.577C607.438 148.577 607.788 148.596 608.137 148.635C608.487 148.674 608.817 148.771 609.128 148.926C609.439 149.043 609.692 149.257 609.886 149.567C610.08 149.839 610.177 150.189 610.177 150.617C610.177 151.355 609.905 151.977 609.361 152.482C608.817 152.948 608.118 153.356 607.263 153.706C606.447 154.056 605.534 154.328 604.523 154.522C603.513 154.677 602.522 154.813 601.551 154.93C600.618 155.008 599.744 155.046 598.928 155.046C598.151 155.085 597.568 155.105 597.179 155.105C594.692 155.105 592.458 154.716 590.476 153.939C588.495 153.123 586.824 152.016 585.464 150.617C584.104 149.179 583.054 147.469 582.316 145.487C581.617 143.467 581.267 141.232 581.267 138.784ZM587.445 134.996C587.445 136.356 587.62 137.347 587.97 137.968C588.358 138.59 589.272 138.901 590.709 138.901C591.72 138.901 592.711 138.726 593.682 138.376C594.654 137.988 595.528 137.463 596.305 136.803C597.121 136.142 597.762 135.365 598.228 134.471C598.695 133.577 598.928 132.606 598.928 131.557C598.928 130.974 598.87 130.372 598.753 129.75C598.675 129.128 598.481 128.565 598.17 128.059C597.859 127.515 597.451 127.088 596.946 126.777C596.48 126.427 595.858 126.253 595.081 126.253C593.915 126.253 592.847 126.525 591.875 127.069C590.943 127.574 590.146 128.254 589.485 129.109C588.825 129.925 588.32 130.857 587.97 131.906C587.62 132.917 587.445 133.947 587.445 134.996Z" fill="#272424"/>
</svg>
