<?xml version="1.0" standalone="no"?>
<!DOCTYPE svg PUBLIC "-//W3C//DTD SVG 20010904//EN"
 "http://www.w3.org/TR/2001/REC-SVG-20010904/DTD/svg10.dtd">
<svg version="1.0" xmlns="http://www.w3.org/2000/svg"
 width="1677.000000pt" height="1743.000000pt" viewBox="0 0 1677.000000 1743.000000"
 preserveAspectRatio="xMidYMid meet">

<g transform="translate(0.000000,1743.000000) scale(0.100000,-0.100000)"
fill="#000000" stroke="none">
<path d="M8114 12403 c3 -8 6 -16 6 -19 0 -2 6 -1 14 2 8 3 17 0 22 -7 10 -17
-34 -51 -57 -44 -12 4 -21 1 -25 -10 -5 -12 -10 -13 -20 -4 -9 7 -18 7 -31 0
-10 -6 -13 -11 -8 -11 29 -4 47 -10 60 -20 19 -16 19 -30 -1 -30 -8 0 -12 5
-9 10 4 6 -7 10 -24 10 -17 0 -31 5 -31 11 0 5 -5 7 -12 3 -6 -4 -9 -3 -6 2 8
13 -28 48 -37 35 -3 -6 -2 -11 4 -11 6 0 8 -12 4 -31 -4 -21 -1 -34 8 -40 10
-6 11 -9 1 -9 -7 0 -15 7 -18 15 -4 8 -12 15 -20 15 -8 0 -14 5 -14 10 0 6 6
10 14 10 8 0 18 5 22 12 5 7 2 9 -7 6 -51 -21 -52 -21 -44 -8 5 8 4 11 -3 6
-6 -3 -13 -2 -17 4 -7 11 -55 10 -55 -2 0 -8 31 -27 42 -25 3 1 10 -1 14 -5 4
-5 2 -8 -5 -8 -7 0 -9 -5 -5 -12 4 -7 -4 -3 -17 8 -31 27 -65 35 -79 19 -7 -9
-6 -16 4 -25 13 -10 15 -8 11 9 -2 12 0 19 6 16 5 -4 7 -10 4 -15 -3 -5 0 -12
6 -16 8 -4 7 -9 -2 -15 -10 -6 -11 -9 -1 -9 6 0 12 -5 12 -10 0 -7 -6 -7 -19
-1 -10 6 -22 7 -26 3 -5 -4 -5 -2 -2 4 3 6 -3 18 -14 27 -21 19 -33 22 -24 7
10 -17 -5 -11 -27 10 -12 11 -29 20 -37 20 -11 0 -10 -4 5 -14 18 -14 18 -15
2 -21 -10 -4 -25 -4 -34 -1 -8 3 -12 2 -9 -4 8 -13 -11 -13 -38 2 -20 10 -21
10 -8 -5 7 -10 19 -17 26 -17 8 0 16 -6 18 -12 3 -8 6 -6 6 5 1 10 8 17 19 16
10 0 12 -3 5 -6 -7 -2 -13 -9 -13 -14 0 -6 6 -7 17 -1 11 7 21 5 31 -4 7 -8
18 -12 23 -9 5 4 9 1 9 -5 0 -6 5 -8 11 -4 6 4 30 8 52 9 43 3 73 -15 64 -39
-3 -7 0 -13 6 -13 65 2 87 -4 87 -22 0 -21 -2 -21 -74 -5 -19 4 -26 3 -22 -5
5 -7 1 -9 -8 -5 -9 3 -24 3 -33 -2 -30 -13 -53 -12 -53 2 0 16 -29 18 -50 3
-12 -8 -12 -9 5 -7 13 2 21 -4 23 -17 3 -16 1 -18 -9 -7 -16 15 -56 16 -61 0
-3 -8 -12 -6 -29 6 -14 9 -29 13 -32 10 -4 -4 -13 -2 -20 5 -17 14 -47 4 -47
-14 0 -17 17 -29 22 -15 2 5 9 6 17 1 7 -5 11 -14 7 -19 -9 -14 -73 17 -79 38
-3 11 -5 10 -6 -4 -1 -13 -6 -16 -18 -12 -13 4 -12 1 5 -13 12 -11 22 -24 22
-30 0 -6 5 -11 10 -11 6 0 10 -5 10 -11 0 -6 -9 -9 -20 -6 -29 8 -24 -2 8 -14
25 -10 25 -11 9 -21 -11 -5 -29 -8 -41 -6 -17 3 -22 -1 -24 -16 0 -11 2 -16 6
-11 12 17 42 18 36 0 -3 -8 -15 -15 -25 -15 -13 0 -17 -5 -12 -17 5 -13 2 -15
-15 -11 -12 4 -22 2 -22 -3 0 -6 -8 -5 -20 1 -21 11 -22 11 -22 -36 -1 -28 -4
-32 -24 -29 -13 1 -24 -2 -24 -7 0 -5 -4 -7 -9 -3 -5 3 -16 -4 -24 -16 -8 -11
-23 -22 -33 -24 -11 -1 -18 -8 -17 -13 2 -7 -4 -9 -14 -5 -12 5 -15 2 -11 -8
4 -11 -2 -16 -22 -17 -28 -2 -28 -1 -25 48 2 27 0 50 -5 50 -5 0 -8 12 -7 26
2 20 -3 27 -20 30 -12 2 -25 -1 -28 -6 -4 -6 -11 -7 -17 -4 -6 4 -8 3 -5 -3 3
-5 -10 -19 -31 -29 -20 -11 -37 -27 -37 -35 -1 -7 -7 -25 -15 -39 -8 -14 -16
-36 -18 -50 -2 -13 -8 -30 -14 -37 -6 -7 -7 -13 -3 -13 3 0 -4 -17 -16 -37
-16 -25 -19 -38 -11 -41 8 -2 6 -12 -8 -29 -20 -26 -26 -45 -12 -40 8 2 12 -6
12 -24 0 -7 -10 -9 -26 -5 -18 5 -24 3 -18 -5 4 -7 3 -9 -2 -6 -13 8 -35 -6
-37 -24 -2 -8 -7 -21 -12 -28 -7 -12 -11 -7 -21 20 -7 18 -13 28 -13 22 -1 -7
-6 -13 -12 -13 -5 0 -7 5 -4 10 3 6 4 10 1 10 -3 0 -10 -9 -15 -19 -9 -16 -8
-18 8 -14 24 6 38 -15 20 -31 -8 -6 -11 -7 -6 -2 10 14 9 26 -3 26 -5 0 -20
-16 -33 -35 -13 -19 -26 -33 -29 -30 -3 3 -8 -8 -11 -25 -4 -17 -13 -30 -21
-30 -8 0 -16 -5 -18 -11 -2 -7 -9 -10 -16 -8 -9 3 -8 11 2 31 10 19 12 38 6
63 -4 19 -5 45 -2 57 3 15 2 19 -7 14 -6 -4 -8 -13 -5 -19 5 -9 3 -8 -6 0 -11
10 -10 16 6 34 10 13 14 19 7 16 -6 -4 -14 -3 -17 1 -3 5 -17 7 -31 5 -13 -3
-22 -9 -19 -14 2 -5 -6 -11 -20 -15 -30 -7 -44 -23 -49 -51 -2 -12 -9 -29 -17
-38 -7 -9 -15 -33 -17 -53 -2 -20 -8 -38 -13 -40 -6 -2 -10 -10 -10 -18 0 -8
-5 -14 -11 -14 -5 0 -7 -5 -4 -11 10 -16 -23 -77 -45 -84 -20 -6 -20 -7 0 -35
13 -18 16 -31 10 -35 -18 -11 -11 -27 10 -22 18 5 21 2 20 -18 -1 -11 29 -35
44 -35 21 0 29 -17 17 -39 -8 -14 -8 -21 2 -24 9 -3 9 -10 -2 -30 -8 -14 -19
-23 -24 -20 -6 4 -8 0 -4 -11 4 -10 3 -15 -3 -11 -16 10 -51 -15 -48 -33 2
-11 -3 -16 -14 -14 -13 2 -18 -4 -18 -23 0 -15 4 -24 10 -20 6 3 10 1 10 -6 0
-7 -10 -9 -25 -7 -17 4 -25 1 -25 -8 0 -8 -4 -14 -9 -14 -8 0 -19 -28 -27 -69
-2 -10 0 -11 9 -2 19 19 28 12 10 -9 -10 -11 -23 -20 -29 -20 -9 0 -10 -7 -1
-30 9 -25 9 -33 -6 -47 -16 -16 -17 -16 -17 0 0 9 4 17 10 17 5 0 7 7 3 16 -6
15 -7 15 -19 -1 -7 -9 -10 -23 -7 -31 5 -13 -8 -19 -31 -15 -5 1 -4 -4 2 -12
7 -8 8 -18 4 -22 -4 -5 1 -5 12 -1 13 4 17 2 13 -8 -3 -8 -1 -17 6 -20 8 -3 8
-5 1 -5 -7 -1 -9 -12 -6 -27 4 -21 2 -25 -8 -19 -10 6 -12 4 -7 -9 5 -13 3
-15 -12 -7 -10 6 -22 18 -26 28 -6 16 -8 16 -15 -3 -6 -15 -16 -20 -37 -19
-15 1 -36 -2 -45 -7 -31 -15 -45 33 -21 77 5 11 9 25 8 30 -2 6 -6 23 -10 39
-6 29 -6 29 -21 8 -12 -17 -23 -21 -57 -19 -52 4 -57 21 -18 66 23 27 29 42
27 73 -2 22 -10 46 -19 55 -14 14 -17 14 -32 0 -11 -12 -25 -15 -48 -10 -18 3
-33 7 -35 8 -6 5 22 55 30 55 12 0 5 73 -9 88 -16 16 -24 15 -17 -3 4 -8 2
-15 -4 -15 -17 0 -7 59 14 75 10 8 23 15 28 15 5 0 3 7 -4 15 -7 8 -8 15 -2
15 13 0 11 62 -3 75 -15 15 -45 18 -45 5 0 -6 -12 -10 -27 -8 -25 3 -28 8 -31
43 -4 40 -16 65 -34 65 -6 0 -8 -6 -5 -14 4 -11 -4 -14 -38 -14 -24 0 -49 -3
-55 -7 -5 -3 -10 1 -10 11 0 17 -10 16 -69 -2 -17 -5 -22 -4 -17 5 5 8 -1 11
-21 9 -33 -2 -56 9 -48 23 12 18 -7 9 -27 -13 -18 -21 -19 -21 -13 -3 3 11 3
16 -1 12 -4 -4 -13 -2 -21 4 -8 7 -13 8 -13 1 0 -5 -10 -12 -21 -15 -15 -4
-20 -11 -16 -21 4 -9 2 -16 -3 -16 -6 0 -10 6 -10 13 0 6 -5 4 -11 -5 -5 -10
-15 -18 -20 -18 -6 0 -8 4 -5 9 10 16 -28 23 -40 7 -6 -9 -14 -13 -17 -9 -4 3
-7 -2 -8 -13 0 -10 -2 -29 -5 -41 -3 -17 4 -26 26 -38 17 -9 30 -17 30 -19 0
-7 -85 -1 -97 7 -6 4 -14 3 -17 -2 -4 -5 -3 -11 1 -14 5 -2 2 -2 -4 -1 -18 5
-16 -25 2 -32 22 -9 18 -27 -5 -21 -13 3 -20 0 -21 -9 -3 -27 -4 -32 -10 -38
-3 -3 -6 7 -6 22 0 15 -4 35 -8 45 -5 12 -3 17 8 17 20 0 29 37 11 44 -8 3
-17 -1 -20 -9 -4 -8 -10 -13 -14 -10 -4 3 -10 -10 -14 -28 -5 -22 -2 -35 8
-43 13 -9 12 -12 -2 -20 -9 -6 -29 -10 -44 -10 -14 1 -25 -1 -22 -5 2 -4 -5
-9 -17 -12 -16 -4 -19 -1 -17 15 5 37 -17 30 -52 -17 -19 -25 -40 -43 -47 -41
-7 3 -15 0 -19 -6 -5 -7 -2 -8 6 -3 10 6 12 4 7 -9 -4 -10 -7 -20 -7 -22 0 -2
-5 -4 -11 -4 -5 0 -7 6 -4 13 4 6 -3 1 -14 -11 l-21 -24 23 -20 22 -19 -25 13
c-14 7 -28 11 -32 10 -12 -3 -10 6 6 31 12 19 12 24 1 34 -11 10 -17 9 -28 -7
-8 -11 -17 -17 -22 -12 -5 4 -5 1 -1 -5 4 -7 0 -25 -8 -40 -8 -16 -15 -22 -16
-14 0 20 -15 3 -15 -17 0 -12 -9 -17 -33 -19 -24 -1 -32 3 -30 14 2 9 -3 18
-9 20 -7 3 -13 0 -13 -6 0 -6 -7 -11 -16 -11 -8 0 -13 -4 -10 -9 11 -18 -21
-44 -59 -46 -32 -2 -36 0 -22 10 10 7 17 15 17 18 0 11 -34 -5 -47 -21 -12
-14 -14 -14 -27 3 -12 17 -15 17 -36 2 -28 -20 -41 -97 -17 -97 8 0 17 -7 21
-15 3 -9 0 -15 -10 -15 -9 0 -12 -5 -8 -12 5 -9 2 -8 -9 1 -18 15 -16 16 -80
-41 -11 -9 -16 -21 -13 -26 3 -6 1 -12 -5 -14 -14 -5 0 -38 16 -38 12 0 45
-31 45 -42 0 -4 -16 -1 -35 5 -29 9 -38 7 -55 -8 l-20 -18 23 -26 c36 -39 40
-59 14 -63 -26 -4 -35 -35 -13 -44 10 -4 24 3 36 17 17 21 19 22 20 6 0 -12 4
-16 13 -11 9 6 9 4 -1 -8 -10 -13 -10 -19 3 -31 9 -10 11 -18 5 -22 -14 -8
-30 3 -30 21 0 8 -5 14 -11 14 -5 0 -7 -5 -3 -12 5 -8 2 -9 -9 -5 -13 5 -17 1
-17 -15 0 -21 0 -21 -25 2 -14 13 -25 29 -25 37 0 8 -12 13 -29 13 -24 0 -28
-3 -24 -20 3 -11 13 -20 22 -21 14 0 14 -1 -1 -7 -13 -5 -15 -11 -8 -22 14
-23 12 -27 -15 -34 -26 -7 -31 -21 -15 -46 8 -13 12 -12 25 8 17 23 45 30 45
11 0 -5 -4 -7 -10 -4 -5 3 -10 1 -10 -4 0 -6 4 -11 10 -11 5 0 9 -5 7 -11 -1
-6 7 -16 18 -22 11 -7 23 -16 26 -20 3 -4 19 -11 35 -16 l29 -7 -41 -11 c-39
-10 -40 -9 -36 12 3 19 -1 23 -27 27 -17 2 -36 0 -42 -6 -8 -8 -9 -5 -4 14 7
22 6 23 -9 8 -16 -16 -61 -14 -50 3 3 5 -2 6 -10 3 -9 -3 -16 -2 -16 4 0 6 6
12 13 15 6 2 0 8 -15 12 -35 9 -53 -1 -37 -21 6 -8 8 -14 4 -14 -4 0 -2 -7 5
-15 7 -8 9 -15 4 -15 -5 0 -2 -4 5 -9 12 -8 9 -11 -12 -16 -35 -9 -52 -38 -33
-54 11 -9 17 -8 28 8 8 11 24 19 36 18 21 -1 32 -17 12 -17 -5 0 -10 -6 -10
-14 0 -17 63 -56 91 -56 12 0 17 -4 14 -11 -4 -6 -14 -8 -22 -5 -8 3 -11 1 -8
-4 3 -6 -1 -10 -9 -10 -10 0 -13 -6 -9 -17 6 -15 5 -16 -9 -3 -11 10 -13 20
-7 32 13 25 11 32 -7 18 -8 -8 -14 -9 -12 -4 2 5 -2 10 -7 12 -6 2 -21 10 -34
19 -22 14 -25 14 -33 -1 -7 -12 -13 -14 -28 -6 -11 6 -19 16 -17 22 1 6 -11
18 -27 26 -23 11 -30 12 -36 2 -11 -18 11 -50 33 -50 10 0 15 -5 12 -10 -4 -6
-11 -8 -16 -5 -5 4 -9 -1 -9 -9 0 -9 -11 -23 -25 -32 -16 -11 -22 -20 -17 -28
5 -6 12 -24 14 -39 4 -21 2 -27 -10 -25 -8 2 -20 12 -26 23 -15 27 -27 35 -53
35 -16 0 -20 -5 -16 -20 3 -11 14 -25 25 -31 14 -8 16 -14 9 -23 -7 -9 -7 -16
1 -24 8 -8 7 -13 -8 -18 -10 -4 -22 -12 -25 -17 -12 -17 3 -46 21 -44 10 1 17
4 16 7 -2 3 0 14 4 25 7 19 8 18 18 -7 6 -14 16 -29 21 -33 6 -3 11 -13 11
-21 0 -13 -3 -13 -22 0 -24 17 -42 21 -34 8 2 -4 -8 -9 -24 -10 -17 -1 -30 4
-34 14 -3 8 -10 13 -15 9 -5 -3 -13 0 -17 6 -5 8 -3 9 6 4 8 -5 11 -3 8 5 -2
8 -14 14 -26 15 -17 1 -22 -4 -22 -21 0 -13 5 -26 10 -29 6 -3 10 -15 10 -27
0 -11 8 -22 19 -25 11 -3 22 -16 25 -29 4 -14 11 -22 16 -19 6 3 10 -1 10 -9
0 -12 -5 -14 -24 -6 -13 5 -34 6 -46 3 -15 -4 -21 -2 -16 5 3 6 2 13 -3 16 -5
4 -12 2 -16 -4 -3 -5 -15 -10 -26 -10 -11 0 -17 -4 -14 -10 3 -5 -2 -21 -11
-35 -9 -14 -21 -47 -25 -73 -6 -29 -18 -53 -31 -63 l-21 -17 33 -17 c31 -16
33 -16 26 1 -6 16 -5 16 15 -2 13 -12 36 -19 63 -20 22 0 51 -4 64 -8 14 -5
28 -3 36 3 9 8 22 8 40 1 14 -5 26 -6 26 -1 0 4 7 8 15 8 8 0 12 -4 9 -9 -6
-10 42 -6 52 5 4 3 20 -1 36 -9 17 -9 32 -13 36 -10 3 3 11 1 19 -5 10 -9 17
-8 28 1 13 11 20 9 44 -14 16 -16 33 -27 37 -26 5 1 10 -4 13 -11 2 -7 -2 -10
-12 -6 -11 4 -13 0 -10 -14 6 -22 -15 -26 -23 -4 -4 8 -13 15 -21 15 -9 0 -13
6 -9 15 3 8 2 15 -2 16 -4 0 -17 2 -29 5 -14 2 -23 -1 -23 -9 0 -7 -12 -14
-26 -15 -37 -3 -58 -32 -35 -49 13 -10 18 -9 29 6 19 27 50 16 44 -15 -3 -18
2 -27 27 -41 17 -10 34 -26 37 -36 6 -18 -16 -77 -28 -77 -12 0 -9 13 7 34 19
25 19 36 0 36 -9 0 -12 6 -9 15 6 14 2 16 -35 19 -8 1 -17 9 -20 19 -8 21 -21
21 -36 1 -13 -17 -58 -7 -51 12 4 10 -39 34 -60 34 -9 0 -3 -39 6 -45 6 -4 7
-11 4 -17 -4 -6 2 -8 17 -4 13 3 18 3 12 0 -20 -9 -15 -32 7 -39 11 -3 20 -12
20 -19 0 -8 7 -19 15 -26 8 -6 13 -17 12 -23 -1 -6 11 -17 27 -25 16 -8 31
-22 33 -32 3 -12 11 -16 21 -13 10 4 13 2 8 -5 -4 -7 -3 -12 2 -12 4 0 7 -22
5 -50 -2 -45 3 -56 23 -47 3 1 10 -6 15 -16 6 -9 14 -15 20 -12 5 4 9 0 9 -8
0 -17 -37 -30 -45 -16 -7 10 -33 8 -52 -4 -15 -10 -6 -37 13 -37 8 0 14 -4 14
-10 0 -5 6 -7 14 -4 8 3 17 1 21 -5 4 -7 12 -8 24 -1 12 6 31 6 54 -1 47 -13
103 1 99 24 -2 10 2 17 9 17 7 0 9 -9 5 -24 -7 -28 12 -46 25 -25 5 8 9 9 9 4
0 -6 -5 -16 -12 -23 -9 -9 -9 -12 0 -12 17 0 15 -22 -5 -50 -16 -23 -27 -123
-12 -114 3 2 4 -14 2 -36 -2 -21 0 -41 5 -44 5 -3 8 -21 5 -41 -4 -37 10 -46
37 -22 12 10 12 9 4 -3 -6 -8 -11 -30 -13 -47 -2 -27 1 -33 18 -33 15 0 19 -6
17 -27 -3 -28 -4 -28 -92 -34 -127 -9 -226 -49 -282 -114 -42 -47 -47 -71 -35
-174 8 -74 7 -90 -9 -121 -58 -117 -155 -382 -197 -540 -57 -211 -63 -301 -27
-358 66 -105 90 -174 63 -185 -7 -2 -18 -33 -25 -68 -7 -35 -23 -91 -35 -123
-22 -58 -26 -63 -122 -127 -55 -38 -129 -83 -165 -100 -76 -38 -252 -102 -365
-133 -45 -12 -86 -26 -93 -30 -16 -10 -15 -35 2 -42 18 -7 147 23 206 49 25
10 74 28 109 39 76 23 201 80 240 108 59 41 44 17 -33 -54 -57 -53 -78 -77
-73 -89 12 -32 44 -16 128 66 127 124 184 197 212 274 30 81 47 152 47 193 0
20 5 30 15 30 41 0 21 76 -50 200 -25 42 -26 51 -21 131 3 48 10 99 16 114 6
16 24 78 39 139 16 61 48 158 71 216 82 203 118 299 113 304 -3 3 -2 13 2 23
4 10 7 59 6 109 l-3 91 36 31 c72 63 114 75 296 81 91 3 173 11 183 17 10 6
68 58 129 115 61 57 118 107 127 111 9 4 55 7 103 7 83 1 89 0 157 -40 58 -33
74 -39 86 -29 20 17 19 27 -5 47 -19 17 -19 17 9 29 15 6 78 20 139 30 l110
17 47 -29 c75 -46 105 -61 187 -93 84 -33 121 -37 393 -50 189 -9 206 -14 280
-82 33 -30 49 -58 75 -126 37 -103 71 -184 82 -199 9 -12 128 -207 174 -285
37 -62 56 -76 75 -53 13 16 2 41 -76 164 -50 79 -60 101 -39 93 18 -7 18 -7
-6 63 -11 32 -20 65 -18 74 2 15 -16 85 -33 128 -6 14 -6 21 0 17 5 -3 12 -1
16 5 3 5 2 10 -3 10 -6 0 -8 8 -5 19 3 10 0 22 -7 26 -8 5 -7 12 4 24 13 15
13 20 1 44 -11 22 -11 27 0 27 17 0 25 23 14 41 -15 24 -11 49 7 42 13 -5 15
-2 9 18 -4 13 -14 35 -22 47 -19 31 -11 38 12 12 41 -45 53 -15 21 49 -19 36
-14 38 24 11 l29 -21 -3 48 c-2 27 -1 40 1 30 3 -9 9 -14 15 -11 5 3 9 -2 8
-12 -4 -33 0 -37 17 -23 13 11 17 11 20 2 3 -7 9 -13 14 -13 6 0 7 5 4 10 -3
6 -2 10 4 10 5 0 13 -4 16 -10 3 -5 1 -10 -4 -10 -6 0 -11 -9 -11 -20 0 -11
-4 -20 -9 -20 -5 0 -8 -11 -8 -25 0 -14 3 -25 8 -25 5 0 9 -9 9 -19 0 -11 5
-23 10 -26 6 -4 8 -16 4 -27 -5 -18 -3 -20 16 -15 12 3 33 1 47 -4 20 -7 23
-12 14 -23 -6 -7 -9 -21 -5 -30 3 -9 2 -16 -3 -16 -5 0 -10 -7 -10 -15 0 -13
3 -13 16 -2 9 8 25 17 36 22 16 6 17 8 5 14 -8 3 -16 13 -16 22 -2 22 52 23
67 1 9 -15 10 -15 5 1 -5 15 -2 17 17 11 27 -8 25 -5 28 -29 3 -23 -9 -65 -19
-65 -4 0 -9 -11 -10 -25 -1 -19 3 -25 18 -25 11 0 20 -5 20 -11 0 -6 -9 -9
-20 -6 -11 3 -20 1 -20 -4 0 -5 5 -9 11 -9 6 0 8 -7 5 -16 -8 -21 1 -34 19
-28 8 3 11 12 7 22 -6 16 -4 16 18 0 14 -9 24 -21 23 -26 -2 -6 16 -9 42 -8
29 2 49 -1 56 -10 8 -10 8 -14 0 -14 -6 0 -11 -7 -11 -16 0 -14 2 -15 17 -3 9
8 19 13 22 11 3 -2 7 2 10 9 2 6 -1 9 -6 6 -5 -3 -10 0 -10 7 0 8 6 12 14 9 7
-3 13 -9 13 -13 0 -11 48 1 60 15 15 18 63 -1 77 -31 9 -19 7 -26 -11 -41 -21
-18 -21 -18 -3 3 17 21 17 22 0 28 -10 4 -19 3 -21 -3 -2 -6 -14 -27 -28 -46
-13 -20 -24 -42 -23 -48 2 -23 -14 -57 -27 -57 -16 0 -17 -9 -5 -29 10 -15 61
-25 228 -46 40 -5 73 -22 73 -38 0 -7 3 -23 7 -36 5 -21 3 -23 -18 -17 -21 6
-22 6 -5 -5 13 -8 15 -13 6 -19 -17 -11 16 -60 42 -60 12 0 18 -6 16 -17 -2
-12 3 -18 15 -17 9 1 17 -3 17 -8 0 -6 6 -5 15 2 8 7 15 8 15 4 0 -15 90 -15
90 -1 1 7 7 -3 15 -20 8 -18 20 -33 27 -34 7 0 28 -2 46 -3 17 -1 32 2 32 6 0
11 34 -22 36 -34 4 -21 7 -21 14 2 l8 25 7 -22 c4 -13 12 -23 19 -23 6 0 4 -4
-4 -10 -12 -8 -12 -10 3 -16 17 -6 17 -7 0 -20 -10 -7 -13 -14 -6 -14 6 0 14
-14 18 -31 5 -22 16 -35 37 -44 19 -7 26 -15 19 -19 -17 -11 -3 -25 19 -19 16
4 18 8 9 19 -16 19 -4 18 15 -2 15 -14 16 -13 16 6 0 12 5 20 11 18 6 -2 10
-8 9 -13 -1 -9 25 -23 47 -24 6 -1 14 7 17 17 4 13 16 18 41 18 35 0 46 -10
23 -19 -7 -3 2 -6 20 -6 29 -1 37 7 33 31 0 4 7 4 16 1 12 -5 15 -2 10 10 -5
13 -1 17 18 17 26 0 41 15 25 25 -8 5 -8 11 -1 19 6 7 8 16 4 20 -12 12 -9 40
7 58 10 13 16 15 22 5 6 -9 8 -9 8 1 0 7 5 10 10 7 6 -3 10 -2 10 2 0 5 10 10
22 10 13 1 24 7 26 13 2 5 10 10 17 10 8 0 17 6 21 13 4 6 4 9 -1 5 -4 -4 -14
0 -22 8 -9 8 -12 18 -8 22 4 4 10 1 12 -5 3 -9 10 -10 23 -3 13 7 21 7 25 0 4
-6 11 -8 16 -5 5 3 6 0 3 -8 -7 -19 22 -29 36 -12 8 10 8 15 -1 21 -8 4 -9 3
-5 -4 4 -7 2 -12 -3 -12 -19 0 -12 22 9 27 11 3 17 9 14 14 -3 5 6 9 19 9 14
0 32 10 41 23 9 12 14 17 11 10 -3 -7 2 -9 15 -6 11 3 20 10 20 17 0 6 4 4 9
-4 6 -8 8 -17 5 -21 -6 -10 18 -5 41 9 11 6 14 12 8 12 -20 0 -15 17 7 23 17
4 19 1 16 -19 -3 -13 0 -24 5 -24 5 0 9 7 9 15 0 8 12 18 27 21 29 8 56 28 47
36 -2 3 7 13 20 22 14 8 27 12 30 7 8 -12 -4 -21 -26 -21 -11 0 -16 -5 -12
-11 3 -6 17 -8 31 -4 14 3 31 1 39 -6 9 -7 14 -8 14 -1 0 6 11 9 25 7 14 -1
25 2 25 6 0 9 -16 13 -34 10 -5 -1 -2 8 6 21 9 13 21 23 28 23 6 0 18 9 26 20
13 18 12 20 -8 28 -38 15 -130 19 -122 6 5 -8 3 -9 -6 -4 -24 15 -110 12 -110
-3 0 -9 -6 -12 -16 -8 -9 3 -20 6 -25 6 -5 0 -9 5 -9 10 0 6 11 10 25 10 14 0
25 5 25 10 0 7 6 7 20 0 14 -8 20 -8 20 0 0 6 4 9 9 5 5 -3 15 1 23 8 7 8 19
12 26 9 6 -2 12 1 12 7 0 6 5 11 10 11 15 0 45 33 44 48 -3 23 -4 24 -16 14
-9 -7 -17 -6 -26 4 -8 9 -9 14 -2 14 6 0 8 5 4 12 -5 8 -2 9 9 5 10 -4 17 -1
17 6 0 8 4 7 10 -3 9 -13 15 -10 40 18 17 18 30 40 30 50 0 15 7 18 35 16 19
-2 37 1 40 6 3 4 14 6 25 3 11 -3 26 -1 33 5 6 5 27 9 44 7 18 -1 30 1 27 6
-3 5 -1 9 5 9 5 0 12 -6 14 -12 3 -8 6 -6 6 4 1 11 6 15 16 12 9 -4 15 0 15 9
0 8 7 18 16 21 10 4 14 13 10 24 -6 16 -5 16 8 -1 12 -15 14 -16 20 -2 3 8 1
15 -5 15 -6 0 -8 4 -4 9 3 5 -4 11 -16 13 l-20 3 20 22 c15 16 20 31 16 51 -4
22 -1 28 15 29 11 1 20 -3 20 -9 0 -7 5 -6 15 2 12 10 16 8 25 -14 12 -31 20
-35 12 -4 -4 18 -2 20 16 15 15 -3 27 1 36 15 8 11 19 17 25 14 11 -7 74 49
83 74 5 12 8 13 19 2 9 -8 10 -15 4 -20 -13 -9 -13 -95 0 -104 6 -5 4 -8 -4
-8 -12 0 -12 -3 -3 -12 17 -17 16 -21 -27 -73 -22 -27 -65 -105 -96 -174 -31
-69 -67 -151 -81 -181 -13 -30 -35 -91 -48 -135 -54 -182 -133 -304 -295 -454
-61 -57 -132 -133 -158 -169 -48 -67 -48 -67 -51 -160 -2 -51 -1 -103 2 -116
9 -37 75 -116 97 -116 34 0 32 27 -5 75 -38 50 -52 107 -44 179 7 62 71 148
202 270 66 61 131 133 156 171 23 36 46 65 51 65 14 0 34 46 83 192 25 76 76
206 112 290 113 261 124 270 314 276 135 4 133 4 440 120 91 35 100 36 225 37
l130 0 65 -43 c89 -59 141 -72 278 -72 l115 0 51 -38 c28 -21 69 -51 90 -68
174 -130 190 -137 341 -144 128 -6 131 -7 192 -43 39 -24 69 -50 79 -70 9 -18
23 -36 30 -40 19 -11 164 -328 164 -357 0 -6 20 -63 45 -127 56 -144 58 -187
13 -287 -17 -39 -51 -100 -75 -137 -58 -87 -57 -115 2 -163 34 -29 48 -48 56
-82 18 -69 52 -96 171 -133 180 -55 467 -150 638 -210 91 -32 187 -62 215 -66
27 -4 72 -15 100 -24 181 -64 185 -65 203 -47 14 14 14 18 2 30 -18 16 -262
96 -295 96 -12 0 -101 27 -196 61 -96 33 -214 73 -264 89 -49 15 -130 42 -180
58 -49 17 -135 45 -190 61 -105 32 -145 57 -145 92 0 32 -27 74 -71 112 l-41
36 35 48 c20 27 54 88 76 135 37 79 41 94 41 165 0 62 -6 94 -26 144 -14 35
-37 98 -51 139 -13 41 -30 89 -38 105 -7 17 -36 84 -65 150 -29 66 -61 129
-70 140 -18 19 -17 22 19 100 39 81 57 146 45 158 -4 4 -8 38 -9 77 -1 61 2
72 20 84 19 12 23 12 33 -2 7 -12 14 -13 19 -6 4 6 17 14 28 18 11 4 17 4 13
1 -3 -3 5 -18 19 -31 25 -25 54 -20 38 6 -6 9 -9 9 -15 0 -5 -8 -10 -9 -14 -1
-4 6 4 13 19 17 14 3 25 10 25 16 0 5 -4 7 -9 4 -5 -3 -12 1 -15 10 -8 22 -8
26 4 19 16 -10 50 14 50 35 0 11 4 20 8 20 10 0 8 67 -1 77 -3 3 -14 2 -24 -2
-29 -12 -73 -14 -79 -3 -3 5 2 8 11 6 10 -2 20 3 22 10 3 6 0 12 -6 12 -6 0
-11 4 -11 10 0 10 35 9 45 -2 3 -3 23 -2 43 3 22 5 41 4 46 -1 12 -12 39 -13
32 -2 -2 4 4 8 15 8 10 0 19 -3 19 -7 0 -4 10 -5 21 -2 18 5 20 3 14 -16 -8
-26 -1 -27 23 -3 11 11 18 30 17 43 -1 13 1 26 5 29 3 3 18 21 32 40 27 35 27
40 19 138 -1 7 -5 10 -11 7 -5 -3 -10 -1 -10 4 0 6 -5 11 -11 11 -5 0 -7 -4
-4 -10 6 -9 -8 -14 -27 -11 -5 0 -8 -6 -8 -14 0 -8 -4 -15 -8 -15 -15 0 -5 55
17 91 24 41 23 106 -2 124 -19 14 -19 27 2 50 27 30 33 54 12 48 -10 -2 -23 3
-30 11 -11 14 -11 16 6 16 12 0 28 15 42 40 12 22 18 40 12 40 -5 0 -13 -5
-16 -10 -4 -6 -12 -5 -21 4 -18 19 -18 32 1 40 8 3 15 15 15 27 0 18 -2 19
-15 9 -14 -11 -19 -7 -16 13 0 4 -4 7 -9 7 -6 0 -10 5 -10 11 0 6 9 9 20 6 12
-3 20 0 20 7 0 6 10 20 23 31 l22 19 -25 6 c-19 4 -26 13 -28 39 -3 27 -7 32
-23 28 -10 -3 -19 -1 -19 5 0 5 -4 7 -9 4 -5 -4 -7 3 -4 14 3 11 8 20 12 21
31 4 46 11 67 34 28 31 30 44 7 43 -10 0 -28 3 -40 5 -13 3 -23 1 -23 -4 0 -6
-5 -7 -11 -3 -8 4 -3 12 12 20 19 11 20 13 6 14 -22 0 -43 50 -26 60 8 6 7 9
-2 13 -8 4 0 5 16 4 21 -1 37 5 52 23 26 28 33 71 9 51 -10 -9 -16 -9 -21 -1
-5 8 -11 8 -21 -1 -16 -13 -19 2 -4 17 8 8 6 15 -5 24 -18 15 -20 53 -3 48 13
-5 78 72 78 92 0 7 -8 9 -20 5 -15 -5 -27 2 -48 26 -26 32 -47 89 -32 89 4 0
10 16 12 36 5 41 -9 52 -41 34 -12 -6 -21 -7 -21 -2 0 17 -39 54 -49 47 -6 -3
-11 -2 -11 4 0 18 17 21 30 6 11 -13 16 -12 36 12 12 15 21 30 18 35 -3 4 0 8
6 8 15 0 8 79 -7 85 -7 2 -13 -2 -13 -10 0 -10 -11 -14 -32 -13 -60 1 -78 7
-72 23 4 8 1 15 -5 15 -6 0 -11 5 -11 10 0 7 6 8 17 2 20 -12 48 11 37 30 -4
7 -4 10 1 6 14 -13 33 25 28 56 -6 46 -12 58 -23 51 -6 -4 -7 -11 -4 -17 4 -6
2 -8 -4 -4 -6 3 -14 2 -17 -4 -5 -8 -11 -8 -20 0 -7 6 -20 8 -29 4 -26 -10
-20 40 8 61 18 14 23 27 23 63 0 26 -6 52 -13 59 -16 17 -24 16 -24 -1 0 -16
-95 -21 -105 -6 -4 6 -11 8 -16 5 -5 -4 -9 -1 -9 4 0 18 -18 12 -23 -6 -4 -14
-5 -12 -6 5 0 12 3 22 9 22 11 0 8 69 -4 89 -7 11 -10 11 -17 0 -6 -10 -9 -8
-9 8 0 32 -10 53 -26 53 -8 0 -17 -6 -19 -12 -6 -15 -92 -21 -100 -7 -8 12
-55 12 -55 -1 0 -5 -4 -10 -10 -10 -5 0 -10 7 -10 15 0 9 -9 15 -25 15 -16 0
-25 6 -25 15 0 19 -11 19 -36 1 -13 -10 -23 -11 -31 -4 -16 13 -75 -12 -69
-29 10 -24 -23 -31 -174 -35 l-155 -5 -22 26 c-17 19 -22 22 -23 10 0 -13 -11
-16 -55 -17 -30 0 -55 4 -55 10 0 5 -10 9 -22 8 -13 -1 -26 -1 -30 0 -19 6
-35 6 -55 -2 -13 -4 -23 -4 -23 2 0 5 -7 7 -15 4 -8 -4 -15 -1 -15 4 0 6 8 13
18 15 13 4 12 5 -5 6 -12 0 -24 -3 -28 -9 -4 -6 -15 -6 -31 0 -18 7 -26 6 -30
-3 -3 -8 -10 -14 -17 -15 -7 -1 -37 -4 -68 -8 -52 -6 -58 -4 -64 15 l-6 21
-22 -21 c-12 -11 -23 -24 -23 -30 -1 -5 -3 -12 -4 -16 -3 -11 -7 -26 -8 -39
-1 -6 -15 -11 -31 -11 -20 0 -28 4 -24 14 4 9 0 11 -11 7 -9 -3 -16 -13 -16
-21 0 -8 -4 -12 -10 -8 -5 3 -7 12 -3 20 3 8 0 15 -6 15 -20 0 -61 -32 -61
-46 0 -8 -7 -17 -15 -20 -8 -4 -15 -12 -15 -20 0 -8 -7 -14 -16 -14 -9 0 -12
5 -8 13 5 8 2 8 -9 -2 -20 -16 -23 -26 -4 -15 8 5 7 2 -2 -10 -11 -13 -16 -14
-22 -4 -4 6 -6 15 -3 19 2 4 -3 12 -11 19 -9 8 -15 8 -15 2 0 -6 -7 -18 -16
-26 -21 -22 -24 -81 -4 -81 8 0 19 -4 23 -10 4 -5 5 6 1 26 -3 22 -2 39 5 43
6 4 11 3 11 -3 0 -6 15 -13 34 -16 l34 -7 -22 -21 c-11 -12 -22 -19 -24 -14
-8 16 -23 6 -17 -12 7 -23 -29 -39 -49 -21 -11 8 -20 5 -38 -12 -13 -13 -22
-22 -20 -21 2 1 11 -5 20 -13 9 -10 24 -13 39 -9 22 5 23 3 17 -22 -4 -15 -13
-34 -21 -41 -18 -19 -16 -49 4 -56 24 -9 37 8 24 32 -13 25 -4 34 22 20 12 -6
32 -14 46 -17 24 -7 24 -7 -12 -29 -27 -15 -35 -26 -30 -38 4 -12 3 -15 -5
-10 -6 4 -21 2 -32 -4 -15 -8 -20 -8 -18 1 4 17 -30 19 -46 3 -16 -16 -40 -19
-31 -5 3 5 1 12 -4 15 -14 9 -51 -29 -57 -61 -5 -26 -3 -31 19 -37 14 -3 34
-3 44 0 14 4 15 4 4 -4 -7 -5 -10 -15 -7 -21 11 -17 -41 -13 -70 6 -22 14 -27
14 -34 2 -5 -7 -12 -10 -16 -6 -4 3 -2 13 4 20 7 8 9 17 5 20 -3 4 -1 7 7 7 9
0 10 3 1 14 -6 8 -10 18 -9 22 2 5 -5 20 -15 34 -9 13 -17 22 -18 20 0 -3 -2
-13 -4 -22 -2 -10 3 -18 10 -18 11 0 11 -6 2 -30 -11 -30 -11 -30 -23 -8 -7
13 -10 26 -8 30 13 20 12 52 -1 65 -11 10 -15 11 -15 2 0 -7 -9 -23 -21 -35
-11 -12 -21 -31 -22 -43 -1 -14 -7 -20 -17 -18 -19 4 -14 33 11 66 18 23 19
25 2 44 -10 11 -13 18 -7 14 14 -8 47 31 40 49 -3 7 -1 16 4 19 6 4 10 14 10
23 0 13 -3 12 -16 -6 -8 -12 -12 -27 -9 -32 3 -6 1 -10 -4 -10 -6 0 -11 4 -11
10 0 5 -11 12 -25 16 -14 3 -25 13 -25 21 0 8 -6 13 -12 10 -7 -2 -12 -13 -10
-23 2 -15 1 -16 -7 -5 -5 8 -7 21 -3 29 3 10 1 13 -6 8 -7 -4 -12 -3 -12 3 0
11 39 36 41 26 1 -3 2 -8 3 -12 1 -5 7 -17 13 -28 11 -18 12 -18 13 -2 0 9 -6
17 -12 17 -9 1 -7 5 3 13 9 7 18 21 20 31 2 11 10 21 16 23 9 3 8 -3 -2 -24
-20 -38 -19 -46 5 -26 11 10 20 28 20 41 0 12 7 34 16 48 13 18 14 28 6 35 -7
5 -10 7 -8 3 2 -3 -4 -14 -15 -25 -11 -11 -17 -24 -14 -28 6 -10 -23 -23 -35
-16 -5 3 -12 0 -16 -6 -4 -8 -3 -9 4 -5 7 4 12 3 12 -3 0 -22 -18 -19 -29 5
-8 18 -8 30 -1 42 9 14 10 12 4 -8 -6 -21 -5 -23 8 -13 8 7 18 10 21 7 4 -4 5
3 2 14 -2 12 1 24 6 28 5 3 9 2 8 -3 -3 -19 2 -23 15 -11 7 7 11 19 9 25 -3 7
0 13 5 13 12 0 6 43 -9 72 -6 11 -17 17 -25 14 -10 -4 -14 3 -14 25 0 17 -4
28 -10 24 -5 -3 -7 -12 -4 -19 3 -8 0 -17 -5 -21 -6 -3 -8 -11 -5 -17 4 -7 2
-8 -5 -4 -6 4 -14 1 -17 -7 -7 -19 -26 -16 -49 6 -14 14 -15 20 -4 33 7 8 18
13 26 10 7 -3 13 -1 13 5 0 6 4 8 8 5 4 -2 8 6 7 20 0 14 -7 29 -15 34 -8 5
-11 10 -6 10 5 0 0 8 -11 18 -11 9 -18 24 -15 32 5 13 3 13 -12 1 -14 -12 -16
-12 -13 0 2 8 2 11 0 7 -3 -5 -14 -8 -24 -8 -11 0 -17 -4 -14 -10 6 -9 1 -11
-37 -14 -7 -1 -13 8 -13 19 -1 11 -7 19 -14 17 -7 -1 -11 1 -9 5 41 86 54 139
37 159 -8 9 -13 19 -11 21 8 12 -1 54 -15 69 -14 14 -18 36 -19 108 0 97 -6
132 -29 177 -8 15 -18 45 -21 66 -3 21 -10 46 -15 55 -5 9 -9 26 -9 37 0 28
-13 26 -36 -4 -26 -34 -36 -31 -59 17 -24 50 -36 53 -47 11 -5 -18 -13 -33
-18 -33 -6 0 -9 3 -8 8 3 17 -23 62 -37 62 -9 0 -14 4 -10 9 3 6 -7 9 -22 8
-23 -2 -28 2 -26 18 2 11 4 32 5 47 3 28 21 37 33 18 3 -5 1 -10 -4 -10 -6 0
-11 -4 -11 -10 0 -5 7 -7 15 -4 22 9 12 44 -21 71 -32 25 -44 29 -44 12 0 -5
3 -8 8 -6 4 3 16 -5 27 -16 11 -11 15 -17 8 -13 -6 3 -23 2 -37 -4 -21 -8 -27
-6 -36 10 -8 15 -8 25 0 38 11 16 11 16 6 0 -3 -10 -1 -18 4 -18 6 0 10 6 10
14 0 8 6 16 12 18 9 3 8 9 -4 21 -9 9 -21 17 -27 17 -5 0 -13 4 -16 10 -7 11
23 3 41 -11 6 -5 11 -3 11 6 0 8 -4 12 -9 9 -4 -3 -8 0 -8 6 0 6 -4 9 -9 6 -5
-4 -11 0 -14 6 -2 7 -7 10 -11 6 -9 -8 -15 -58 -7 -55 3 1 7 -1 9 -5 5 -17
-14 -9 -23 9 -6 12 -19 19 -32 18 -12 -1 -19 3 -16 8 3 5 -1 13 -8 18 -10 6
-11 9 -1 9 6 0 12 8 12 19 0 14 -11 21 -42 29 -23 6 -44 9 -47 7 -8 -9 21 -34
34 -29 7 3 16 0 21 -7 5 -8 3 -10 -6 -4 -9 5 -10 2 -5 -14 4 -12 2 -21 -4 -21
-6 0 -11 7 -11 15 0 8 -5 15 -11 15 -5 0 -7 -6 -3 -12 5 -9 3 -9 -9 1 -9 7
-15 17 -12 21 3 4 -2 10 -10 14 -8 3 -15 13 -15 22 0 17 -14 11 -16 -7 -1 -5
-2 -11 -3 -14 0 -2 -11 6 -24 18 -13 12 -21 26 -19 31 3 5 -1 5 -9 1 -25 -16
-79 -17 -79 -1 0 18 27 29 33 13 2 -7 2 -2 0 11 -2 12 0 22 4 21 19 -3 33 2
33 11 0 5 -3 9 -7 9 -28 -5 -35 3 -14 15 19 11 21 14 7 19 -9 4 -16 2 -16 -4
0 -6 -4 -7 -10 -4 -5 3 -19 1 -31 -5 -14 -8 -24 -9 -31 -2 -11 11 26 37 40 28
4 -2 12 7 19 20 6 14 7 24 2 24 -6 0 -9 6 -8 13 3 25 -1 38 -11 32 -5 -3 -15
3 -22 15 -7 11 -18 20 -25 20 -7 0 -13 5 -13 10 0 6 -12 9 -27 7 -16 -2 -37 0
-49 5 -12 6 -34 6 -55 0 -27 -7 -42 -5 -74 12 -40 21 -56 35 -51 46 1 3 -9 16
-22 30 -14 14 -21 18 -17 10 4 -8 -6 -2 -23 14 -18 17 -37 26 -46 23 -8 -3
-18 -2 -21 3 -3 5 -12 7 -20 4 -8 -3 -25 6 -38 20 -13 14 -29 26 -34 26 -6 0
-25 14 -42 31 -21 20 -40 29 -52 26 -10 -3 -19 -2 -19 2 0 3 -44 6 -97 5 -54
0 -102 2 -108 5 -16 9 -35 10 -35 1 0 -4 -16 -4 -36 0 -29 7 -34 6 -30 -7z
m-254 -153 c0 -6 -9 -5 -20 2 -11 7 -20 16 -20 21 0 4 9 3 20 -3 11 -6 20 -15
20 -20z m673 -111 c-34 -34 -84 -33 -62 1 6 10 9 11 9 3 0 -7 10 -13 21 -13
17 0 20 5 17 25 -5 21 -3 23 15 14 19 -11 19 -11 0 -30z m59 -24 c3 3 11 -1
18 -9 10 -13 7 -15 -19 -11 -38 4 -51 12 -51 31 0 12 3 12 23 -1 13 -8 26 -13
29 -10z m229 8 c13 -16 12 -17 -3 -5 -10 8 -26 11 -39 7 -14 -5 -19 -4 -15 4
11 17 42 13 57 -6z m-171 -7 c0 -3 -4 -8 -10 -11 -5 -3 -10 -1 -10 4 0 6 5 11
10 11 6 0 10 -2 10 -4z m195 -26 c3 -6 -1 -7 -9 -4 -18 7 -21 14 -7 14 6 0 13
-4 16 -10z m180 -10 c-3 -5 -13 -10 -21 -10 -8 0 -12 5 -9 10 3 6 13 10 21 10
8 0 12 -4 9 -10z m58 -126 c3 -3 3 -12 0 -20 -4 -10 -9 -11 -23 -1 -14 8 -16
13 -7 19 15 9 22 10 30 2z m-50 -79 c-5 -16 -25 -20 -36 -8 -8 7 25 33 35 27
4 -3 5 -11 1 -19z m-1930 -35 c3 -11 1 -18 -4 -14 -5 3 -9 12 -9 20 0 20 7 17
13 -6z m2292 -170 c-3 -5 -11 -10 -16 -10 -6 0 -7 5 -4 10 3 6 11 10 16 10 6
0 7 -4 4 -10z m75 -31 c0 -5 -4 -9 -10 -9 -5 0 -10 7 -10 16 0 8 5 12 10 9 6
-3 10 -10 10 -16z m-143 -13 c0 -11 -5 -13 -19 -5 -10 5 -18 12 -18 14 0 3 8
5 18 5 10 0 19 -7 19 -14z m-2137 -16 c0 -5 -2 -10 -4 -10 -3 0 -8 5 -11 10
-3 6 -1 10 4 10 6 0 11 -4 11 -10z m-15 -76 c-11 -8 -19 -22 -17 -31 2 -9 -1
-12 -8 -8 -6 4 -19 1 -28 -7 -15 -11 -15 -11 -5 3 7 9 9 20 5 24 -4 5 -1 5 6
1 17 -10 28 24 11 36 -11 8 -10 9 3 4 10 -3 20 0 24 5 4 7 10 7 18 -1 8 -8 6
-15 -9 -26z m-175 -16 c0 -12 -28 3 -34 18 -4 11 -2 12 14 1 11 -6 20 -15 20
-19z m1237 -4 c-3 -3 -12 -4 -19 -1 -8 3 -5 6 6 6 11 1 17 -2 13 -5z m-32 -16
c18 3 25 0 25 -11 0 -11 -10 -15 -35 -14 -19 1 -35 2 -35 3 0 12 15 35 17 27
2 -5 15 -8 28 -5z m-1542 -5 c-7 -2 -19 -2 -25 0 -7 3 -2 5 12 5 14 0 19 -2
13 -5z m328 -35 c1 -18 0 -37 -1 -43 -2 -5 -2 -20 -2 -33 2 -23 -41 -53 -55
-38 -4 3 -8 35 -10 71 -3 54 0 64 14 68 45 12 53 8 54 -25z m-358 15 c2 -5 -2
-19 -9 -33 -11 -20 -14 -21 -14 -7 0 11 -5 17 -12 14 -7 -2 -12 -9 -11 -14 1
-5 -7 -9 -17 -9 -25 0 -14 23 16 30 13 4 24 11 24 16 0 12 17 13 23 3z m272
-23 c2 -19 1 -19 -17 -3 -14 12 -15 18 -6 24 15 10 21 4 23 -21z m1755 0 c0
-11 -49 -19 -55 -9 -3 4 2 15 11 24 12 12 19 13 30 4 8 -6 14 -15 14 -19z
m-1600 10 c0 -5 -10 -10 -22 -10 -19 0 -20 2 -8 10 19 13 30 13 30 0z m2457
-15 c0 -8 -4 -12 -9 -9 -4 3 -8 9 -8 15 0 5 4 9 8 9 5 0 9 -7 9 -15z m-2443
-40 c-4 -8 -10 -15 -15 -15 -4 0 -6 7 -3 15 4 8 10 15 15 15 4 0 6 -7 3 -15z
m840 -10 c14 -14 25 -29 25 -33 -4 -27 4 -31 48 -28 26 2 55 -1 65 -8 14 -8
23 -8 38 2 24 14 86 16 95 2 4 -6 32 -8 69 -5 34 3 73 2 87 -4 19 -7 35 -4 64
9 22 10 42 15 45 10 10 -17 62 -31 74 -21 8 7 21 5 40 -4 22 -12 30 -12 40 -2
7 7 11 18 8 25 -2 6 1 12 8 12 6 0 8 5 4 13 -5 8 -2 7 9 -2 10 -8 20 -11 24
-8 3 4 12 -1 19 -11 9 -11 13 -13 14 -4 0 7 5 10 11 6 8 -5 8 -8 0 -14 -7 -3
-9 -14 -5 -23 3 -9 10 -14 15 -11 5 3 7 10 4 15 -4 5 -4 9 -2 9 7 0 48 -38 48
-44 -5 -43 32 -96 67 -96 10 0 23 -5 30 -12 9 -9 12 -9 12 1 0 7 5 9 13 5 10
-6 10 -4 0 7 -17 18 -16 29 3 29 8 0 12 -5 9 -10 -4 -6 3 -8 17 -6 13 2 22 9
21 15 -2 6 2 11 8 11 8 0 8 4 0 14 -6 8 -11 18 -10 22 1 5 -1 17 -5 27 -11 23
-1 47 19 47 9 0 13 -4 10 -10 -8 -13 31 -54 43 -46 6 3 13 -2 17 -11 3 -10 1
-19 -4 -21 -20 -7 -1 -20 19 -15 16 4 18 9 9 19 -8 10 -6 14 13 19 12 3 34 4
48 1 14 -2 30 -5 35 -6 6 0 2 -6 -7 -13 -19 -15 -18 -37 2 -63 9 -11 10 -15 3
-10 -8 4 -13 2 -13 -7 0 -8 9 -17 21 -20 18 -5 20 -2 16 19 -2 13 0 24 4 24 5
0 9 -9 9 -20 0 -11 5 -20 11 -20 6 0 3 -7 -6 -16 -9 -9 -14 -23 -11 -31 3 -8
1 -11 -4 -8 -6 3 -10 -1 -10 -9 0 -16 38 -42 56 -38 6 1 16 -9 22 -22 9 -20 8
-23 -6 -22 -12 1 -18 -8 -20 -29 -2 -23 0 -27 7 -15 9 12 11 10 12 -10 1 -14
1 -29 0 -34 -1 -5 5 -6 14 -2 10 3 13 2 10 -5 -4 -5 -1 -16 5 -24 7 -8 9 -15
4 -15 -4 0 2 -9 14 -20 12 -12 22 -30 22 -40 0 -12 7 -20 17 -20 13 0 14 -3 6
-11 -14 -14 11 -44 27 -34 5 3 10 -1 10 -9 0 -8 -5 -18 -10 -21 -17 -11 25
-75 50 -75 6 0 9 -4 6 -8 -3 -5 1 -9 9 -9 10 0 9 8 -6 36 -10 19 -16 37 -12
40 3 3 8 0 10 -6 3 -7 11 -13 19 -13 10 0 13 -7 8 -24 -3 -15 1 -29 11 -40 20
-19 16 -38 -8 -42 -9 -1 -15 2 -11 7 11 18 -26 9 -47 -12 -14 -14 -19 -29 -16
-46 4 -20 1 -24 -14 -20 -10 3 -20 -2 -23 -10 -4 -9 -2 -11 6 -7 8 5 9 2 5
-10 -8 -21 10 -59 24 -50 7 4 10 -3 9 -17 -4 -42 -1 -51 16 -45 8 3 12 2 9 -4
-3 -6 -1 -10 4 -10 6 0 11 8 12 18 0 14 2 14 8 -3 5 -13 3 -25 -7 -34 -11 -12
-12 -16 -2 -19 7 -3 16 2 21 9 8 14 9 13 9 -18 0 -5 -5 -8 -12 -8 -6 0 -12 -8
-14 -17 -1 -10 4 -18 12 -18 7 0 11 -6 8 -14 -3 -8 3 -23 13 -33 11 -11 17
-25 15 -31 -3 -9 3 -10 24 -2 15 6 29 8 31 6 7 -7 -7 -27 -15 -22 -4 2 -7 -17
-7 -43 1 -33 -3 -48 -12 -48 -8 0 -11 7 -7 19 3 10 1 18 -5 18 -10 0 -15 -14
-12 -32 0 -5 -6 -8 -14 -8 -8 0 -15 -5 -15 -11 0 -5 5 -7 10 -4 6 3 10 1 10
-5 0 -6 4 -9 9 -6 14 9 23 -25 10 -40 -8 -10 -8 -14 0 -14 6 0 11 5 11 12 0 9
3 9 12 0 10 -10 10 -15 -1 -21 -18 -11 4 -25 27 -17 10 4 7 -2 -7 -13 -16 -12
-22 -24 -18 -35 4 -10 3 -15 -3 -11 -13 8 -52 -4 -45 -15 3 -4 -3 -7 -12 -6
-9 0 -18 -4 -20 -11 -2 -7 3 -10 14 -8 10 2 23 4 30 4 7 1 10 9 7 19 -5 16 -5
16 9 0 8 -10 17 -15 20 -11 4 3 7 -1 7 -10 0 -9 -6 -17 -14 -17 -8 0 -18 -5
-22 -12 -4 -7 -3 -8 4 -4 8 5 10 2 6 -8 -3 -9 -10 -14 -14 -11 -5 3 -13 -2
-18 -11 -5 -9 -12 -15 -15 -15 -20 3 -28 0 -22 -9 3 -6 -1 -7 -9 -4 -11 4 -16
0 -16 -13 0 -10 -6 -25 -12 -32 -11 -11 -10 -12 2 -6 8 5 6 -2 -6 -16 -12 -13
-21 -37 -22 -54 -1 -53 -11 -73 -34 -67 -14 3 -19 1 -14 -6 4 -7 1 -12 -8 -12
-9 0 -16 -5 -16 -10 0 -6 -3 -9 -7 -9 -21 3 -32 -2 -27 -15 3 -8 0 -17 -5 -21
-6 -3 -9 -11 -6 -16 4 -5 2 -9 -4 -9 -11 0 -48 -78 -55 -114 -2 -12 -8 -30
-12 -40 -6 -16 -4 -18 12 -13 17 6 17 6 3 -5 -9 -7 -14 -19 -11 -27 3 -10 0
-12 -12 -8 -10 4 -19 1 -23 -9 -8 -22 1 -26 33 -14 l29 10 -23 -19 c-17 -15
-21 -27 -17 -50 4 -21 1 -31 -7 -31 -9 0 -9 -3 1 -9 12 -8 12 -14 1 -40 -7
-17 -15 -31 -19 -31 -3 0 -7 -11 -7 -25 -1 -15 2 -22 9 -18 6 3 7 1 3 -5 -4
-7 -16 -12 -28 -12 -16 0 -18 -3 -9 -14 9 -10 4 -19 -20 -39 -17 -14 -28 -30
-25 -36 4 -5 2 -12 -3 -15 -5 -3 -11 1 -15 9 -8 22 -25 18 -23 -4 0 -11 4 -18
8 -15 11 7 31 -24 23 -37 -4 -7 -3 -9 4 -5 6 3 13 2 16 -3 3 -5 -3 -11 -13
-14 -11 -3 -22 1 -25 9 -3 8 -19 13 -38 12 -18 0 -44 2 -56 6 -21 7 -23 6 -13
-12 6 -11 7 -22 4 -26 -3 -3 -1 -6 5 -6 7 0 12 7 12 15 0 8 5 15 11 15 6 0 8
-7 5 -16 -3 -8 -2 -12 4 -9 6 3 10 1 10 -5 0 -6 5 -8 10 -5 6 4 8 10 5 15 -3
5 -1 11 5 15 5 3 10 2 10 -3 0 -6 11 -13 25 -16 14 -4 23 -11 20 -16 -4 -7
-13 -7 -24 0 -10 5 -21 7 -24 3 -4 -3 -17 -7 -29 -8 -38 -4 -39 -5 -33 -15 4
-6 -6 -7 -25 -4 -23 5 -30 3 -30 -9 0 -9 -5 -19 -12 -23 -7 -4 -8 -3 -4 4 4 7
0 12 -10 12 -16 0 -16 -1 -1 -18 10 -10 14 -21 11 -24 -3 -3 0 -9 7 -14 8 -4
10 -3 5 4 -5 8 -2 10 9 6 12 -5 13 -9 4 -20 -9 -12 -15 -12 -28 -2 -10 8 -8 4
3 -10 21 -24 31 -56 15 -46 -17 10 -49 -7 -49 -27 0 -13 -7 -19 -23 -19 -14 0
-24 -6 -24 -15 0 -8 5 -12 10 -8 5 3 7 -3 5 -13 -3 -16 -13 -19 -55 -19 -28 0
-49 -4 -46 -9 3 -4 -9 -5 -27 -1 -30 7 -31 6 -21 -14 10 -18 9 -20 -6 -14 -10
4 -22 11 -26 17 -6 7 -7 4 -3 -6 3 -12 0 -18 -10 -18 -10 0 -14 6 -11 14 4 9
-2 13 -16 12 -12 -1 -26 1 -32 5 -15 10 -55 -8 -55 -25 0 -8 -10 -18 -22 -22
l-23 -7 23 -8 c29 -11 21 -26 -13 -26 -13 0 -22 3 -19 8 3 5 0 9 -6 9 -6 0 -9
4 -6 9 10 16 -18 19 -30 3 -9 -13 -14 -12 -33 7 -24 24 -42 21 -22 -3 17 -20
5 -24 -61 -21 -32 2 -56 -1 -53 -5 3 -5 1 -11 -5 -15 -5 -3 -10 -15 -10 -26 0
-18 -1 -18 -22 3 l-21 21 25 21 c22 18 24 23 13 34 -8 6 -21 12 -30 12 -10 0
-13 -4 -8 -12 11 -19 12 -38 2 -38 -5 0 -9 -6 -9 -14 0 -8 -4 -17 -9 -20 -5
-4 -6 9 -1 28 12 55 5 59 -109 55 -23 -1 -29 -4 -20 -10 11 -7 11 -9 1 -9 -7
0 -10 -5 -7 -10 5 -8 12 -7 23 2 14 11 14 9 0 -8 -22 -25 -23 -34 -3 -34 8 0
15 -7 15 -16 0 -8 4 -13 9 -9 5 3 12 -4 16 -15 4 -12 11 -17 18 -13 7 4 5 -2
-3 -12 -14 -17 -13 -18 3 -12 10 4 17 2 17 -6 0 -8 3 -7 9 2 8 12 12 12 25 2
8 -7 21 -9 27 -5 8 5 9 3 4 -6 -5 -9 -2 -10 14 -5 24 7 29 -12 9 -34 -11 -11
-9 -12 11 -6 16 5 21 4 17 -4 -4 -6 -16 -11 -28 -11 -17 0 -18 -2 -8 -15 8 -9
8 -15 2 -15 -6 0 -13 9 -17 19 -6 20 -36 38 -32 19 1 -6 -10 -12 -24 -14 -31
-5 -95 35 -93 59 1 9 -3 14 -8 11 -5 -3 -7 -12 -5 -18 3 -7 2 -19 -3 -26 -6
-10 -13 -9 -31 4 -21 14 -16 22 14 17 4 0 7 3 7 9 0 5 -3 10 -7 11 -5 0 -18 2
-30 3 -13 2 -23 -1 -23 -5 0 -5 -7 -6 -15 -3 -8 4 -15 1 -15 -5 0 -7 -12 -10
-32 -7 -18 3 -27 3 -20 0 10 -5 10 -9 0 -22 -10 -12 -10 -14 0 -8 6 4 12 2 12
-3 0 -15 -6 -14 -35 5 -14 9 -25 22 -25 29 0 7 -6 15 -12 17 -7 3 5 5 26 6 21
1 53 10 72 21 29 17 33 18 36 4 3 -15 5 -15 21 1 15 15 17 16 17 1 0 -12 4
-14 19 -6 10 6 20 9 22 7 2 -2 10 2 17 10 11 12 9 16 -12 24 -17 6 -24 14 -20
25 5 11 2 14 -12 8 -13 -5 -15 -3 -9 7 6 10 3 12 -13 8 -19 -5 -22 -2 -22 20
0 15 4 22 8 16 4 -7 15 -8 27 -3 24 9 18 10 -55 13 -30 1 -61 5 -68 10 -7 4
-43 9 -80 11 -37 2 -69 4 -72 5 -3 1 -9 2 -14 1 -5 -1 -6 6 -2 16 5 15 4 15
-11 -2 -10 -11 -17 -19 -16 -17 0 2 -5 15 -13 30 -9 19 -10 30 -2 39 7 9 7 13
-1 13 -6 0 -11 6 -11 13 0 8 -7 14 -15 14 -10 0 -20 -16 -27 -43 -9 -33 -18
-46 -39 -53 -24 -8 -27 -7 -22 6 4 11 2 14 -5 9 -6 -3 -16 2 -21 13 -6 10 -24
24 -41 29 -16 6 -30 15 -30 21 0 5 -9 13 -20 16 -11 4 -17 11 -14 17 4 6 9 6
13 1 5 -8 20 -9 39 -3 4 1 10 2 14 2 3 -1 1 12 -5 28 -8 20 -14 25 -19 17 -5
-8 -8 -7 -8 4 0 9 -7 19 -15 23 -8 3 -14 11 -13 18 2 8 -6 13 -18 12 -16 0
-20 4 -16 18 2 10 12 19 21 19 14 1 13 2 -1 6 -10 2 -18 8 -18 13 0 16 21 22
34 11 11 -9 18 -8 30 4 9 9 16 18 16 21 0 8 -9 4 -24 -12 -14 -14 -15 -12 -10
16 6 25 4 29 -10 24 -13 -5 -16 1 -16 36 0 33 -4 43 -20 47 -11 3 -20 9 -20
14 0 4 -9 6 -19 4 -16 -3 -19 1 -15 20 2 13 -1 27 -6 30 -8 5 -8 11 0 20 8 9
6 17 -5 29 -19 18 -12 51 11 60 8 3 12 10 9 16 -3 5 0 10 7 10 9 0 9 3 -2 10
-11 7 -12 10 -2 10 10 0 12 10 9 36 -6 42 -20 54 -54 48 -12 -2 -23 0 -23 6 0
5 -8 10 -17 10 -20 0 -57 -56 -47 -71 3 -5 -2 -21 -10 -36 -8 -16 -17 -40 -21
-55 -6 -31 -22 -38 -22 -10 0 46 -4 63 -13 57 -10 -6 -13 5 -10 42 1 24 -26
26 -40 4 -4 -8 -23 -15 -41 -17 -18 -2 -35 -7 -38 -12 -3 -4 -12 -7 -20 -7 -8
0 -15 -8 -17 -18 -1 -11 -5 -22 -9 -25 -9 -9 -25 20 -18 33 3 5 0 5 -7 -2 -11
-10 -11 -15 0 -28 16 -19 6 -32 -13 -17 -8 7 -17 9 -21 5 -4 -4 -3 4 2 17 5
14 8 33 6 43 -1 10 4 37 13 60 8 23 16 47 17 52 5 29 30 74 37 69 5 -3 6 -10
3 -16 -4 -6 2 -5 15 2 12 6 19 15 16 21 -4 5 0 9 7 10 10 0 10 2 1 6 -7 2 -13
12 -13 21 0 15 -2 15 -10 2 -7 -11 -12 -12 -20 -4 -8 8 -7 16 5 28 9 9 13 16
9 16 -3 0 -1 6 5 13 6 8 8 17 4 20 -10 11 12 8 25 -3 6 -6 10 -7 7 -4 -2 4 0
15 6 25 6 12 6 19 0 19 -5 0 -12 -6 -14 -12 -3 -8 -6 -6 -6 5 -1 9 -5 17 -9
17 -4 0 -9 12 -10 26 -3 36 -9 43 -32 37 -11 -3 -18 -9 -15 -13 3 -5 1 -11 -4
-14 -9 -6 -26 -74 -22 -90 1 -4 -6 -14 -16 -21 -20 -15 -43 -3 -43 21 0 7 -5
16 -12 20 -7 5 -8 3 -3 -7 8 -12 6 -12 -8 0 -17 13 -14 36 4 26 5 -4 4 5 -2
19 -12 26 -29 26 -29 0 0 -8 -5 -14 -11 -14 -6 0 -9 -7 -5 -15 4 -11 -2 -15
-23 -15 -16 0 -32 6 -35 13 -5 10 -7 10 -12 0 -13 -28 -21 -11 -12 22 6 19 15
32 21 28 5 -3 4 4 -2 15 -8 15 -7 21 3 25 8 3 13 16 12 30 -2 20 1 24 18 20
15 -3 17 -2 8 5 -10 7 -10 11 2 21 8 7 20 10 26 6 16 -10 50 5 50 23 0 17 38
62 52 62 4 0 8 -9 8 -20 0 -11 -4 -20 -10 -20 -5 0 -10 -5 -10 -11 0 -6 6 -9
13 -6 8 3 14 -1 14 -9 0 -14 -10 -18 -33 -15 -6 1 -17 -6 -24 -14 -10 -12 -9
-15 5 -15 11 0 15 -5 11 -15 -4 -11 2 -15 28 -15 25 0 35 5 39 20 5 21 27 28
27 9 0 -12 50 31 50 44 0 4 -15 5 -32 2 -20 -3 -28 -2 -20 3 7 5 10 15 7 24
-4 9 0 15 10 15 8 0 15 -5 15 -10 0 -6 3 -7 7 -3 4 4 -4 17 -18 29 -14 12 -23
21 -20 20 2 -2 11 3 19 10 10 7 13 8 9 1 -8 -14 20 -40 31 -30 10 10 10 66 0
66 -4 0 -8 -4 -8 -8 0 -5 -6 -9 -14 -9 -12 0 -12 5 -1 31 8 17 16 39 19 50 4
11 12 16 21 12 8 -3 17 -1 20 4 6 10 -8 14 -34 11 -7 -2 -10 2 -7 8 4 5 2 12
-3 15 -5 4 -8 14 -6 24 3 21 -12 42 -31 42 -8 0 -14 -10 -14 -25 0 -17 -6 -25
-17 -25 -11 0 -14 -3 -8 -8 10 -6 11 -20 5 -39 -1 -5 -2 -12 -1 -17 1 -5 -4
-4 -12 2 -8 7 -23 9 -32 5 -12 -4 -16 -3 -11 5 3 6 1 14 -5 18 -8 4 -7 9 2 15
8 4 14 12 15 16 3 34 18 61 30 56 16 -6 19 -33 3 -33 -5 0 -7 5 -3 12 5 7 3 8
-5 3 -9 -5 -10 -10 -2 -18 14 -14 26 -1 35 38 4 19 3 25 -2 17 -7 -11 -12 -11
-24 2 -9 8 -18 13 -21 10 -8 -8 -3 18 6 32 9 15 -18 38 -34 29 -8 -6 -8 -2 0
13 17 31 14 38 -19 52 -29 12 -42 33 -18 27 7 -1 13 4 14 11 1 6 2 17 3 23 0
6 10 8 22 4 15 -5 19 -4 15 4 -4 6 -2 11 4 11 6 0 8 5 4 11 -3 6 -1 15 7 20
11 6 9 12 -6 30 -17 19 -17 21 -3 16 13 -4 15 -2 11 10 -4 11 -3 14 5 9 7 -4
15 -1 18 8 3 9 12 16 20 16 8 0 14 4 14 9 0 4 11 7 25 6 19 -3 25 1 25 15 0
10 5 22 11 26 6 3 8 15 6 26 -3 12 2 27 14 39 14 14 18 27 13 47 -10 39 -15
46 -26 31 -8 -11 -9 -11 -5 1 2 8 10 14 16 12 19 -4 60 50 61 79 0 15 -7 32
-15 39 -8 7 -15 18 -15 24 0 13 46 36 73 36 10 0 16 4 13 9 -4 5 2 7 12 4 13
-3 17 1 17 19 -1 13 -5 31 -10 39 -4 7 -5 11 0 7 4 -4 14 0 21 10 17 22 18 35
2 27 -7 -4 -2 3 11 15 l24 21 -22 15 c-20 15 -21 17 -7 33 9 10 13 21 9 26 -5
4 -2 5 5 1 7 -4 10 -12 7 -17 -4 -5 -1 -9 4 -9 6 0 11 5 11 10 0 6 9 21 20 33
19 20 20 22 3 28 -17 6 -17 7 -1 14 10 4 15 11 12 17 -3 5 2 17 13 26 18 17
32 59 16 49 -5 -3 -9 5 -8 19 0 27 21 45 42 37 7 -3 13 0 13 7 0 6 4 9 9 6 4
-3 13 6 19 19 7 14 18 25 27 25 8 0 15 5 15 10 0 6 5 10 10 10 7 0 7 -6 0 -20
-11 -21 -4 -25 24 -14 13 5 14 9 5 20 -10 12 -9 13 6 8 9 -4 20 -2 25 5 9 16
42 21 56 9 8 -5 17 -3 27 6 11 11 17 12 26 3 8 -8 11 -8 11 1 0 7 7 12 16 12
8 0 13 4 9 9 -3 5 -1 13 5 16 6 4 9 1 8 -7 -2 -7 6 -13 17 -13 11 0 26 -7 32
-15 8 -10 15 -11 20 -5 12 15 57 20 48 5 -4 -7 6 -5 24 4 32 17 36 23 23 43
-5 8 -12 8 -26 -2 -10 -8 -15 -19 -11 -24 4 -8 -2 -7 -19 1 -29 12 -34 28 -11
28 8 0 15 4 15 10 0 5 6 7 14 4 7 -3 20 6 30 20 11 17 21 23 33 19 11 -4 14
-3 9 5 -14 24 43 12 68 -13z m126 -25 c0 -5 -2 -10 -4 -10 -3 0 -8 5 -11 10
-3 6 -1 10 4 10 6 0 11 -4 11 -10z m-1489 -23 c-10 -9 -11 -8 -5 6 3 10 9 15
12 12 3 -3 0 -11 -7 -18z m2544 3 c11 -19 -5 -30 -25 -18 -14 9 -16 14 -7 20
16 10 25 10 32 -2z m-2145 -30 c0 -5 -4 -10 -10 -10 -5 0 -10 5 -10 10 0 6 5
10 10 10 6 0 10 -4 10 -10z m2104 2 c3 -5 -1 -9 -9 -9 -8 0 -12 4 -9 9 3 4 7
8 9 8 2 0 6 -4 9 -8z m511 -22 c3 -5 2 -10 -4 -10 -5 0 -13 5 -16 10 -3 6 -2
10 4 10 5 0 13 -4 16 -10z m-2905 -60 c0 -5 -7 -10 -16 -10 -8 0 -12 5 -9 10
3 6 10 10 16 10 5 0 9 -4 9 -10z m-40 -39 c0 -6 -4 -13 -10 -16 -5 -3 -10 1
-10 9 0 9 5 16 10 16 6 0 10 -4 10 -9z m-117 -56 c-7 -20 -59 -19 -67 0 -6 17
9 21 19 5 7 -12 36 -14 34 -2 -3 16 1 23 11 17 5 -3 7 -12 3 -20z m-868 5 c3
-5 -1 -10 -9 -10 -9 0 -16 5 -16 10 0 6 4 10 9 10 6 0 13 -4 16 -10z m3978
-63 c4 -10 18 -22 32 -27 14 -5 25 -12 25 -15 0 -4 -4 -3 -10 0 -15 9 -12 -39
5 -71 8 -16 11 -30 5 -32 -5 -2 1 -15 13 -28 35 -40 40 -64 16 -64 -15 0 -19
-5 -15 -15 3 -8 1 -15 -3 -15 -5 0 -12 7 -15 16 -3 8 -10 13 -15 10 -5 -4 -17
-3 -26 0 -13 5 -14 9 -4 15 10 6 10 11 -1 24 -11 14 -11 16 1 13 8 -2 17 -10
21 -18 6 -13 7 -13 7 1 1 22 -35 53 -51 43 -10 -6 -11 -5 -1 7 15 19 12 43
-10 67 -9 10 -17 31 -17 46 0 18 -4 25 -12 20 -8 -5 -9 -2 -5 9 4 10 1 17 -6
17 -8 0 -9 3 -1 8 6 4 13 15 17 25 6 17 7 17 25 -1 10 -10 21 -26 25 -35z
m-4207 22 c3 -6 15 -9 25 -6 10 3 22 1 25 -4 5 -9 -12 -14 -31 -9 -5 2 -18 2
-27 2 -10 0 -18 6 -18 14 0 17 16 19 26 3z m3809 -39 c3 -5 1 -10 -4 -10 -6 0
-11 5 -11 10 0 6 2 10 4 10 3 0 8 -4 11 -10z m-4095 -175 c0 0 -9 -1 -20 -1
-12 0 -20 7 -20 18 0 17 1 17 20 1 11 -10 20 -18 20 -18z m1427 -7 c0 -7 4
-21 8 -30 5 -13 2 -18 -9 -18 -16 0 -23 40 -9 53 9 9 10 9 10 -5z m-37 -17 c0
-5 -10 -11 -22 -14 -22 -6 -22 -6 -4 8 23 17 26 18 26 6z m2950 -60 c0 -12 -4
-21 -10 -21 -5 0 -10 8 -10 18 0 10 -3 22 -7 26 -4 3 -8 16 -10 28 -3 20 -2
19 17 -5 11 -14 20 -35 20 -46z m-2943 24 c0 -8 -2 -13 -4 -11 -3 2 -16 -2
-31 -10 -20 -10 -29 -10 -40 -1 -12 9 -10 13 9 21 16 8 24 7 27 -2 3 -9 8 -8
19 3 18 19 20 19 20 0z m3253 -26 c0 -5 -7 -6 -15 -3 -8 4 -15 13 -15 21 0 13
3 13 15 3 8 -7 15 -16 15 -21z m-3190 1 c0 -5 -7 -10 -16 -10 -8 0 -12 5 -9
10 3 6 10 10 16 10 5 0 9 -4 9 -10z m3063 -15 c-3 -9 -8 -14 -10 -11 -3 3 -2
9 2 15 9 16 15 13 8 -4z m-2619 -26 c-7 -11 -34 -12 -34 -1 0 14 11 21 26 15
8 -3 11 -9 8 -14z m-623 -26 c-12 -20 -14 -14 -5 12 4 9 9 14 11 11 3 -2 0
-13 -6 -23z m3239 9 c0 -5 -7 -9 -15 -9 -8 0 -15 4 -15 9 0 4 7 8 15 8 8 0 15
-4 15 -8z m-4850 -23 c0 -5 9 -9 20 -9 11 0 20 -4 20 -9 0 -15 -18 -23 -25
-11 -3 5 -15 10 -26 10 -12 0 -19 7 -19 20 0 13 5 18 15 14 8 -4 15 -10 15
-15z m2275 -28 c1 -11 -4 -22 -12 -25 -14 -6 -15 -5 -19 43 -2 31 -1 32 14 18
8 -9 16 -25 17 -36z m2875 18 c0 -6 -4 -7 -10 -4 -5 3 -10 11 -10 16 0 6 5 7
10 4 6 -3 10 -11 10 -16z m-290 -20 c0 7 5 9 10 6 14 -9 5 -21 -20 -28 -16 -4
-20 0 -20 21 1 26 1 26 15 8 8 -11 15 -14 15 -7z m250 10 c0 -4 3 -16 7 -26 6
-17 5 -17 -15 1 -26 22 -28 33 -7 33 8 0 15 -4 15 -8z m1840 1 c0 -5 -5 -10
-11 -10 -5 0 -7 5 -4 10 3 6 8 10 11 10 2 0 4 -4 4 -10z m-1783 -32 c-3 -8 -6
-5 -6 6 -1 11 2 17 5 13 3 -3 4 -12 1 -19z m798 -19 c-15 -23 77 -17 97 6 16
19 16 19 11 -8 -5 -24 -9 -28 -30 -22 -14 3 -31 1 -38 -5 -10 -8 -19 -8 -36 0
-14 8 -19 8 -15 1 4 -6 3 -11 -3 -11 -16 0 -25 42 -10 51 16 9 32 2 24 -12z
m-1265 -28 c0 -10 -7 -22 -16 -25 -12 -5 -15 -2 -10 10 3 8 6 20 6 25 0 5 5 9
10 9 6 0 10 -9 10 -19z m404 7 c-5 -8 -1 -9 12 -4 15 6 16 4 7 -5 -14 -14 -47
-4 -38 11 3 5 11 10 16 10 6 0 7 -5 3 -12z m-434 -2 c0 -3 -4 -8 -10 -11 -5
-3 -10 -1 -10 4 0 6 5 11 10 11 6 0 10 -2 10 -4z m600 -37 c12 -9 12 -10 -4
-5 -15 5 -17 4 -7 -8 9 -11 9 -15 -1 -19 -8 -4 -7 -6 5 -6 9 -1 17 -6 17 -11
0 -14 -37 5 -43 22 -5 15 2 38 12 38 3 0 13 -5 21 -11z m1590 0 c0 -5 -14 -9
-32 -9 -17 0 -39 -8 -48 -17 -15 -17 -14 -20 19 -51 36 -34 63 -52 78 -52 4 0
1 5 -7 10 -9 6 -10 10 -3 10 6 0 19 -7 28 -16 11 -12 19 -13 29 -5 7 6 16 8
20 4 4 -4 19 -8 34 -9 15 -1 29 -3 32 -4 6 -4 27 -7 58 -9 31 -2 17 -21 -15
-21 -15 0 -35 -7 -44 -16 -18 -16 -17 -17 7 -36 25 -20 42 -26 82 -27 19 -1
21 -5 16 -26 -3 -14 -2 -25 2 -26 5 0 19 -2 31 -5 20 -3 21 -1 13 22 -13 32
-13 31 5 31 8 0 16 -6 19 -13 3 -9 15 -10 43 -3 47 11 53 11 53 2 0 -5 -11 -9
-25 -9 -29 -2 -57 -22 -50 -35 3 -4 11 -6 19 -3 7 3 13 -1 13 -9 0 -9 -7 -12
-19 -9 -16 4 -22 14 -20 34 1 3 -4 8 -11 11 -9 3 -13 -5 -12 -25 0 -37 -35
-57 -59 -32 -13 12 -16 12 -29 -6 -7 -11 -16 -19 -18 -17 -2 1 5 -6 16 -15 11
-9 23 -14 27 -12 4 3 8 1 8 -4 0 -6 6 -10 13 -9 47 1 54 -3 49 -32 -3 -24 0
-29 22 -33 14 -3 30 0 37 6 9 8 9 6 2 -9 -6 -11 -8 -26 -5 -34 3 -8 0 -11 -7
-7 -6 4 -11 1 -11 -6 0 -9 -3 -9 -10 2 -6 10 -10 11 -10 3 0 -7 -5 -13 -11
-13 -5 0 -7 5 -4 10 7 11 -6 13 -29 4 -21 -8 -20 -30 2 -40 9 -4 20 -7 23 -6
4 1 15 -8 24 -18 10 -11 13 -20 7 -20 -6 0 -12 -17 -14 -37 -2 -26 -8 -38 -18
-38 -8 0 -14 -8 -12 -17 1 -9 -2 -19 -7 -22 -16 -10 0 -45 23 -48 35 -5 26
-34 -9 -30 -16 2 -39 -3 -49 -11 -19 -14 -19 -15 3 -46 12 -17 17 -31 11 -31
-6 0 -8 -4 -5 -10 3 -5 2 -10 -4 -10 -19 0 1 -31 26 -41 35 -13 24 -35 -15
-31 -18 2 -32 -1 -32 -7 0 -6 -7 -11 -15 -11 -8 0 -15 -4 -15 -9 0 -5 7 -11
15 -15 8 -3 15 -16 15 -28 0 -19 -2 -20 -10 -8 -8 12 -10 10 -11 -10 -2 -37 2
-54 13 -61 6 -4 7 -12 4 -18 -4 -6 -11 -9 -15 -6 -11 6 -43 -24 -60 -57 -8
-15 -18 -25 -22 -22 -4 2 -7 -19 -6 -48 2 -51 1 -53 -29 -63 -41 -13 -64 -33
-64 -56 0 -11 -4 -19 -8 -19 -5 0 -7 -12 -4 -28 3 -21 -4 -36 -30 -62 -18 -19
-36 -34 -40 -33 -5 2 -8 -4 -8 -12 0 -8 -7 -15 -15 -15 -9 0 -12 -6 -8 -16 8
-20 -17 -36 -34 -22 -7 6 -10 14 -7 19 11 19 -16 8 -42 -16 -29 -27 -43 -33
-25 -11 9 11 8 15 -6 20 -10 4 -20 1 -25 -8 -5 -8 -14 -13 -21 -11 -8 4 -12
-8 -13 -35 -2 -31 2 -41 17 -45 10 -4 24 -3 30 1 8 4 9 3 5 -4 -4 -7 -1 -12 6
-12 9 0 9 -3 -2 -10 -8 -5 -28 -10 -45 -10 -23 0 -27 3 -15 10 13 8 13 10 -2
10 -9 0 -20 -9 -23 -20 -3 -11 -9 -20 -13 -20 -4 0 -13 9 -20 20 -7 11 -17 20
-23 20 -5 0 -8 -4 -4 -9 3 -5 -4 -12 -15 -16 -11 -3 -19 -9 -18 -13 4 -15 -14
-52 -23 -47 -5 4 -9 -1 -9 -9 0 -9 -7 -16 -15 -16 -8 0 -14 6 -13 13 2 6 -5
12 -16 12 -10 0 -22 10 -27 23 -10 26 -28 27 -89 6 -25 -9 -53 -16 -63 -17
-10 -1 -15 -7 -13 -14 4 -9 -1 -10 -19 -3 -16 6 -25 6 -25 0 0 -6 -9 -6 -23
-1 -13 5 -30 5 -37 1 -8 -5 -17 -7 -20 -5 -5 3 -129 13 -227 18 -7 0 -13 4
-13 8 0 4 -11 6 -25 4 -14 -1 -23 0 -20 3 3 3 -12 16 -33 30 -56 37 -92 83
-92 117 0 8 -4 15 -8 15 -13 0 -30 78 -19 89 6 6 4 15 -7 26 -18 18 -21 30 -6
20 5 -3 18 -1 27 4 11 6 13 11 5 11 -7 0 -10 5 -7 10 4 6 11 7 17 4 6 -4 8 -2
4 4 -3 6 -1 14 7 19 16 10 16 64 0 81 -15 16 -23 15 -23 -3 0 -8 -4 -15 -10
-15 -5 0 -10 2 -10 4 0 2 -3 13 -6 23 -5 15 -4 16 6 3 9 -12 10 -11 5 8 -4 15
-2 24 9 28 9 3 12 12 9 21 -4 10 -2 14 4 10 20 -13 36 74 20 107 -9 18 -10 19
-22 2 -8 -10 -30 -19 -57 -21 l-43 -4 28 15 c15 8 32 12 38 8 7 -4 7 1 -1 16
-7 12 -17 19 -26 16 -8 -3 -14 -4 -14 -2 0 3 -3 13 -7 23 -6 16 -5 16 10 4 24
-19 65 -6 73 24 3 14 11 22 16 18 12 -7 2 62 -13 87 -7 13 -8 13 -9 -1 0 -16
-34 -32 -44 -21 -21 20 11 92 41 92 8 0 9 8 3 30 -5 16 -6 38 -3 48 6 23 -22
50 -30 29 -6 -17 -99 -21 -108 -5 -4 6 -24 12 -45 13 -61 3 -61 4 -66 29 -4
22 -3 23 16 13 12 -7 23 -15 26 -19 12 -15 119 -2 140 17 11 10 20 13 20 7 0
-7 4 -12 9 -12 13 0 8 24 -9 46 -13 17 -13 18 1 7 13 -11 19 -6 40 27 13 21
33 43 44 48 16 7 22 4 31 -17 l11 -26 12 24 c8 14 9 21 2 17 -6 -4 -11 -2 -11
3 0 6 5 11 10 11 6 0 10 5 10 11 0 5 -5 7 -12 3 -7 -4 -8 -3 -4 5 4 6 2 20 -6
29 -12 16 -11 16 6 2 15 -12 20 -12 23 -2 3 6 10 9 16 5 7 -4 6 1 -2 10 -12
15 -12 17 4 11 11 -5 16 -3 12 3 -7 12 27 43 48 43 8 0 14 -3 14 -7 -3 -21 2
-34 11 -28 6 4 8 15 5 26 -4 10 -2 19 4 19 6 0 8 6 5 13 -3 8 2 20 10 27 9 7
13 17 9 23 -3 6 -1 7 6 3 7 -5 15 4 22 23 10 27 15 31 50 31 35 0 40 4 38 28
0 4 -9 10 -20 14 -12 5 -18 4 -14 -2 3 -6 1 -10 -4 -10 -16 0 -13 27 3 33 7 3
19 0 25 -6 10 -9 18 -5 37 16 13 15 24 33 24 40 0 7 15 12 35 12 35 0 44 -8
25 -20 -15 -9 -12 -25 5 -25 8 0 15 9 15 20 0 12 7 20 16 20 10 0 14 6 10 15
-3 8 -1 15 4 15 6 0 10 9 10 20 0 10 8 23 18 29 9 5 16 12 15 15 -8 18 0 26
27 26 17 0 30 -4 30 -10 0 -5 5 -10 10 -10 6 0 10 6 10 14 0 8 11 13 28 12 22
-1 28 -5 24 -18 -3 -13 2 -18 16 -18 17 0 22 8 27 44 7 45 15 53 80 77 17 6
61 13 99 15 38 2 71 5 72 7 8 7 184 3 184 -4z m-5928 -29 c11 0 18 -7 18 -20
0 -11 4 -20 9 -20 5 0 17 -3 27 -7 14 -5 16 -2 12 20 -4 18 -1 27 8 27 8 0 11
-6 8 -15 -4 -10 0 -15 11 -15 9 0 13 5 10 10 -4 6 6 10 22 10 l28 0 -25 -20
c-15 -12 -19 -20 -11 -20 8 0 11 -3 8 -6 -4 -4 -13 -1 -21 5 -19 16 -43 4 -27
-12 19 -19 12 -22 -32 -19 -30 3 -47 -1 -56 -12 -14 -16 -6 -40 10 -31 5 4 9
2 9 -4 0 -6 7 -7 17 -4 12 5 14 3 8 -8 -7 -11 -5 -11 10 1 11 9 16 10 11 3 -5
-9 1 -13 18 -13 14 0 26 4 26 9 0 5 11 4 25 -2 14 -7 25 -18 25 -24 0 -7 3
-12 8 -11 19 4 62 -16 62 -29 0 -9 -6 -13 -15 -9 -8 3 -15 2 -15 -3 0 -5 -11
-11 -24 -13 -17 -4 -23 -1 -19 9 3 7 -1 13 -10 13 -14 0 -27 -20 -27 -41 0 -5
9 -9 20 -9 11 0 20 -5 20 -11 0 -5 4 -8 9 -4 5 3 12 1 16 -5 9 -14 21 -12 39
5 13 14 16 13 26 -5 6 -11 8 -20 4 -20 -3 0 -1 -7 6 -15 7 -8 16 -12 21 -9 5
3 9 -1 10 -8 1 -7 4 -2 8 12 4 15 14 25 24 24 9 -1 24 -2 33 -3 8 0 12 -6 9
-11 -4 -6 -10 -8 -15 -5 -4 3 -19 -6 -31 -20 -13 -13 -32 -25 -41 -25 -23 0
-68 -21 -68 -32 0 -5 11 -13 24 -18 13 -5 28 -15 33 -22 4 -7 20 -19 35 -25
18 -8 26 -18 22 -27 -5 -12 -10 -13 -24 -3 -22 13 -37 3 -23 -15 6 -7 13 -25
17 -40 l6 -26 -53 20 c-28 11 -59 24 -68 28 -41 20 -150 -66 -164 -129 -9 -40
16 -90 59 -119 29 -20 46 -23 108 -22 100 2 98 2 91 -16 -4 -12 -2 -15 8 -12
8 3 22 1 32 -4 16 -8 16 -10 2 -25 -18 -17 -15 -49 3 -45 7 1 17 3 23 5 19 4
21 -19 4 -36 -14 -15 -13 -18 13 -31 16 -8 32 -13 35 -10 3 3 15 -3 27 -14 13
-12 17 -22 11 -26 -15 -10 -3 -33 21 -39 16 -5 19 -2 14 16 -3 12 -2 27 2 32
9 13 35 18 27 5 -10 -16 25 -24 55 -13 33 13 44 6 47 -27 l3 -25 -12 23 c-6
12 -14 22 -18 22 -14 0 -52 -39 -46 -48 3 -5 -1 -9 -9 -9 -9 0 -15 5 -14 11 3
24 -1 36 -12 36 -8 0 -8 -4 -2 -12 12 -15 2 -60 -12 -58 -5 1 -17 6 -27 11
-11 6 -23 3 -40 -11 l-23 -20 26 -23 c14 -13 23 -29 21 -37 -4 -12 -2 -12 8
-3 10 9 19 9 41 -2 18 -10 30 -11 34 -5 3 6 -3 10 -14 10 -12 0 -21 3 -21 8 0
7 73 8 100 1 11 -3 15 4 15 24 -1 15 3 27 7 27 4 0 8 -9 8 -21 0 -14 5 -19 14
-16 8 3 17 -2 21 -11 6 -16 7 -16 18 -1 10 14 14 14 25 3 12 -13 8 -18 -11
-15 -5 1 -6 -3 -2 -9 3 -5 18 -8 33 -5 23 4 23 3 -5 -7 -41 -17 -55 -31 -22
-23 15 4 30 2 33 -3 3 -5 -5 -13 -19 -16 -24 -6 -36 -36 -14 -36 5 0 8 4 4 9
-3 5 -1 12 5 16 5 3 10 4 10 1 0 -2 3 -11 6 -20 5 -12 0 -16 -20 -16 -16 0
-26 -6 -26 -15 0 -16 -12 -20 -23 -8 -4 3 -2 11 3 18 7 8 5 12 -5 12 -14 0
-19 -10 -16 -29 0 -5 -6 -8 -14 -8 -11 0 -14 -7 -9 -24 3 -13 1 -27 -5 -30 -7
-5 -8 -1 -4 11 6 16 5 16 -11 4 -11 -9 -13 -18 -7 -24 5 -5 7 -15 5 -22 -3 -7
-1 -16 5 -20 6 -3 11 -1 11 5 0 22 38 -9 48 -40 6 -16 16 -30 22 -30 6 0 8 6
4 13 -4 7 -3 9 2 4 5 -5 9 -14 9 -20 0 -6 15 -11 32 -12 39 -2 53 -13 33 -25
-17 -11 -9 -13 14 -4 12 5 13 10 5 25 -13 25 -4 24 23 -1 12 -11 16 -20 10
-20 -7 0 -12 -8 -12 -17 0 -9 -9 -36 -20 -59 -25 -51 -31 -74 -35 -144 -1 -30
-8 -68 -14 -83 -6 -15 -13 -42 -16 -60 -3 -18 -16 -48 -29 -67 -12 -19 -30
-52 -39 -72 -10 -20 -22 -40 -27 -43 -6 -4 -8 -11 -5 -16 4 -5 1 -9 -6 -9 -7
0 -9 -3 -6 -6 3 -4 2 -15 -4 -26 -6 -10 -11 -31 -12 -46 -2 -25 -6 -27 -56
-30 -30 -2 -122 1 -205 7 -138 9 -159 13 -239 46 -49 20 -113 52 -144 73 -63
41 -94 45 -219 24 -100 -16 -147 -34 -159 -59 l-11 -22 -50 24 c-40 20 -65 24
-135 25 -47 0 -101 -5 -120 -11 -19 -6 -63 -39 -99 -73 -174 -165 -175 -166
-224 -166 -45 0 -46 1 -34 23 7 12 16 24 20 27 9 7 59 118 65 145 2 11 6 32 8
47 4 25 2 26 -19 18 -21 -8 -23 -6 -18 13 10 39 29 70 35 55 3 -10 9 -8 21 7
11 14 14 15 10 4 -3 -10 1 -19 10 -22 9 -4 16 -2 16 3 0 6 9 10 20 10 11 0 20
-4 20 -8 0 -15 60 0 61 14 1 8 2 18 3 24 0 5 10 16 21 25 11 9 14 13 7 10 -11
-6 -11 -3 -1 13 7 12 16 19 20 16 4 -2 10 0 13 5 7 11 55 -11 67 -31 6 -9 10
-8 15 6 4 10 2 27 -5 37 -8 14 -8 19 0 19 6 0 13 -9 16 -21 5 -17 11 -20 37
-15 17 4 38 7 47 7 9 0 22 12 30 27 7 15 15 30 17 33 1 4 -8 9 -21 13 -14 3
-27 15 -30 27 -3 12 -10 18 -16 15 -9 -6 -21 18 -27 52 -1 7 4 25 12 40 10 19
14 22 14 10 0 -17 1 -17 19 0 10 9 18 19 18 22 2 33 3 35 13 20 5 -8 5 -19 1
-25 -4 -5 -11 -18 -14 -27 -4 -13 -2 -15 11 -11 9 3 23 11 31 17 11 8 15 8 18
-1 3 -7 11 -13 19 -13 8 0 14 -6 12 -14 -3 -14 0 -16 21 -16 5 0 12 11 15 25
4 14 11 25 16 25 6 0 10 4 10 10 0 5 -7 7 -15 4 -20 -8 -19 6 3 22 15 12 15
15 2 24 -8 5 -21 8 -27 5 -18 -6 -16 10 2 25 8 6 19 9 25 5 16 -10 40 14 40
40 0 13 -7 25 -15 29 -8 3 -15 1 -15 -3 0 -5 -22 -9 -50 -9 -28 -1 -50 4 -50
10 0 5 7 7 16 4 14 -5 15 -4 4 9 -9 11 -17 12 -31 4 -19 -10 -24 -3 -11 17 4
6 18 11 32 10 15 -1 24 4 23 12 -2 6 3 12 11 12 18 0 26 24 23 67 -2 34 -27
72 -27 41 0 -9 -9 -18 -20 -21 -14 -4 -18 -10 -13 -23 4 -12 3 -15 -6 -10 -7
5 -10 14 -7 22 4 10 -3 14 -24 14 -16 0 -32 5 -35 10 -9 14 4 52 16 45 5 -4 9
3 9 14 0 12 4 21 10 21 5 0 8 15 6 33 -3 17 -5 38 -5 45 -1 18 -21 15 -21 -4
0 -8 -5 -12 -10 -9 -6 4 -20 -4 -31 -17 -20 -23 -20 -23 -9 -1 10 21 9 22 -18
17 -18 -4 -32 -1 -41 9 -10 13 -8 19 11 38 13 12 17 18 10 14 -11 -6 -12 -3
-3 14 7 11 16 21 20 21 13 0 8 69 -5 74 -15 6 -56 -32 -49 -44 3 -6 -1 -7 -9
-4 -19 7 -20 16 -5 31 9 9 2 9 -24 3 -31 -7 -37 -5 -42 11 -7 22 1 39 19 39 9
0 10 15 5 58 -3 31 -4 61 -1 66 3 5 0 6 -6 2 -6 -3 -13 -2 -16 3 -4 5 -2 12 3
16 12 7 7 66 -7 91 -11 18 -11 18 -12 -3 0 -13 -6 -23 -14 -23 -21 0 -1 68 27
92 12 11 15 16 7 12 -12 -7 -13 -5 -2 8 12 15 11 58 -3 91 -4 11 -2 28 5 42 7
13 10 28 6 33 -3 6 -1 14 4 17 6 4 10 17 9 28 -3 28 10 88 23 104 6 7 8 22 5
32 -3 12 1 22 9 25 8 3 14 12 14 20 0 7 7 17 16 20 9 4 13 2 8 -5 -4 -8 1 -9
17 -3 13 4 32 7 42 6 19 -1 23 13 6 24 -8 5 -6 10 5 16 9 5 16 14 16 19 0 15
26 39 34 32 3 -4 6 5 7 18 0 13 3 19 5 12 3 -7 12 -9 20 -6 9 3 14 -2 14 -16
0 -22 14 -28 25 -10 4 5 9 24 12 42 6 41 39 69 78 66 16 -2 35 -7 42 -12 7 -5
20 -4 32 3 12 6 21 7 21 1 0 -10 70 -21 85 -13 15 9 45 10 51 1 2 -5 16 -3 29
3 22 10 28 8 48 -14 16 -18 29 -23 38 -18 7 5 10 12 6 16 -4 4 -1 14 6 22 10
13 9 14 -1 8 -11 -7 -11 -4 0 15 7 13 19 28 26 32 7 5 10 13 6 19 -4 7 1 8 16
3 20 -6 22 -5 16 11 -6 15 -5 17 5 7 7 -7 21 -13 31 -13z m4215 0 c-1 -20 -8
-25 -20 -14 -7 8 3 34 13 34 5 0 8 -9 7 -20z m640 5 c0 -8 -4 -12 -9 -9 -5 3
-6 10 -3 15 9 13 12 11 12 -6z m-4626 -13 c14 -6 15 -9 3 -20 -12 -11 -14 -10
-14 3 0 9 -4 14 -8 11 -4 -2 -14 -1 -22 5 -12 7 -11 9 5 8 11 0 27 -3 36 -7z
m133 0 c3 -5 -1 -9 -9 -9 -8 0 -15 4 -15 9 0 4 4 8 9 8 6 0 12 -4 15 -8z
m-1584 -32 c-11 -7 -8 -11 13 -21 30 -14 26 -32 -6 -24 -12 2 -16 2 -9 -1 16
-8 15 -24 -2 -24 -21 0 -27 62 -7 77 9 6 18 9 21 7 2 -3 -2 -9 -10 -14z m5440
4 c0 -8 -19 -13 -24 -6 -3 5 1 9 9 9 8 0 15 -2 15 -3z m-3597 -19 c-3 -9 -8
-14 -10 -11 -3 3 -2 9 2 15 9 16 15 13 8 -4z m3600 -25 c-3 -12 -8 -19 -11
-16 -5 6 5 36 12 36 2 0 2 -9 -1 -20z m-3876 -32 c-3 -8 -6 -5 -6 6 -1 11 2
17 5 13 3 -3 4 -12 1 -19z m-892 2 c3 -5 1 -10 -4 -10 -6 0 -11 5 -11 10 0 6
2 10 4 10 3 0 8 -4 11 -10z m1035 -30 c0 -5 -8 -10 -17 -10 -15 0 -16 2 -3 10
19 12 20 12 20 0z m3180 -6 c0 -8 -5 -12 -10 -9 -6 4 -8 11 -5 16 9 14 15 11
15 -7z m-3442 -10 c6 3 14 1 18 -5 4 -7 3 -9 -4 -5 -6 3 -13 2 -17 -4 -10 -17
-21 -11 -22 12 -2 16 0 19 6 9 5 -7 13 -11 19 -7z m3785 -32 c-4 -10 -2 -13 5
-8 16 10 15 -6 0 -25 -7 -8 -12 -13 -11 -11 1 2 -5 19 -13 37 -13 31 -12 33 6
28 12 -3 17 -10 13 -21z m-3438 8 c-3 -5 -12 -10 -18 -10 -7 0 -6 4 3 10 19
12 23 12 15 0z m-205 -20 c0 -5 -2 -10 -4 -10 -3 0 -8 5 -11 10 -3 6 -1 10 4
10 6 0 11 -4 11 -10z m3858 -29 c-7 -12 -19 -21 -27 -21 -11 0 -11 3 -1 15 7
8 9 15 4 16 -5 0 0 4 11 8 26 11 29 7 13 -18z m500 -28 c-12 -14 -28 -8 -28
11 0 6 6 18 12 24 10 10 14 9 19 -5 4 -10 2 -24 -3 -30z m-4348 17 c-6 -11
-13 -20 -16 -20 -2 0 0 9 6 20 6 11 13 20 16 20 2 0 0 -9 -6 -20z m3734 12 c3
-5 -1 -9 -9 -9 -8 0 -12 4 -9 9 3 4 7 8 9 8 2 0 6 -4 9 -8z m2418 -20 c5 -5
-1 -8 -14 -6 -13 1 -26 3 -30 3 -5 1 -8 5 -8 10 0 11 39 6 52 -7z m-5944 -21
c-5 -14 -8 -28 -6 -30 2 -2 -7 -5 -20 -6 -22 -2 -22 -2 -2 17 10 10 17 24 14
31 -3 8 2 14 10 14 11 0 12 -6 4 -26z m5809 22 c-9 -2 -14 -9 -11 -15 4 -7 2
-8 -4 -4 -20 12 -13 26 11 25 17 -1 18 -2 4 -6z m-5847 -12 c0 -13 -28 -22
-35 -11 -3 4 1 11 7 13 20 8 28 8 28 -2z m4454 -6 c-4 -8 -8 -15 -10 -15 -2 0
-4 7 -4 15 0 8 4 15 10 15 5 0 7 -7 4 -15z m-4587 -46 c2 -21 1 -21 -12 -3
-18 24 -19 35 -2 28 7 -2 13 -14 14 -25z m5991 3 c-2 -9 3 -16 10 -14 19 3 14
-16 -8 -28 -14 -7 -20 -7 -20 0 0 5 5 10 12 10 9 0 9 3 0 12 -15 15 -16 52 -2
43 6 -4 9 -14 8 -23z m-1594 -18 c3 -8 2 -12 -4 -9 -6 3 -10 10 -10 16 0 14 7
11 14 -7z m-1060 0 c26 -10 18 -23 -11 -20 -39 5 -40 5 -23 16 18 12 15 11 34
4z m2736 -16 c0 -18 -2 -20 -9 -8 -6 8 -7 18 -5 22 9 14 14 9 14 -14z m-7750
-18 c0 -5 -7 -7 -15 -4 -8 4 -12 10 -9 15 6 11 24 2 24 -11z m1722 -2 c-7 -7
-12 -8 -12 -2 0 14 12 26 19 19 2 -3 -1 -11 -7 -17z m568 12 c0 -5 -5 -10 -11
-10 -5 0 -7 5 -4 10 3 6 8 10 11 10 2 0 4 -4 4 -10z m3824 -9 c3 -5 -2 -15
-12 -22 -15 -12 -16 -12 -5 2 7 9 10 19 6 22 -3 4 -4 7 0 7 3 0 8 -4 11 -9z
m-552 -43 c-6 -6 -16 -7 -22 -3 -9 6 -9 9 1 16 17 10 34 0 21 -13z m578 12 c0
-5 -5 -10 -11 -10 -5 0 -7 5 -4 10 3 6 8 10 11 10 2 0 4 -4 4 -10z m100 -9 c0
-5 -9 -11 -19 -14 -17 -4 -18 -2 -8 13 10 18 27 18 27 1z m1467 -5 c-6 -14
-30 -16 -43 -3 -4 4 2 7 14 7 12 0 22 5 22 12 0 6 3 9 6 5 4 -3 4 -13 1 -21z
m-5328 0 c-2 -2 -15 -7 -29 -10 l-25 -7 25 15 c21 12 42 14 29 2z m5205 -1 c4
-12 10 -14 25 -5 25 13 41 13 41 -1 0 -5 -4 -8 -10 -4 -5 3 -16 -7 -25 -22 -9
-15 -14 -20 -11 -10 5 16 -7 22 -40 18 -7 -1 -14 8 -17 19 -4 15 0 20 13 20
10 0 21 -7 24 -15z m-1737 -7 c-1 -6 9 -14 23 -18 20 -5 22 -8 10 -15 -20 -12
-53 -12 -62 0 -14 19 -8 41 12 42 11 1 19 -3 17 -9z m1994 -1 c-1 -12 -15 -9
-19 4 -3 6 1 10 8 8 6 -3 11 -8 11 -12z m-5548 -22 c-7 -19 -33 -20 -33 -1 0
15 20 26 32 19 4 -2 5 -10 1 -18z m104 -10 c-7 -14 -18 -23 -24 -20 -16 5 -17
-7 -2 -22 7 -7 6 -12 -5 -16 -9 -4 -16 -3 -17 1 -6 49 -4 54 20 67 37 20 41
18 28 -10z m5323 -5 c9 -16 8 -18 -5 -14 -8 4 -15 12 -15 20 0 20 7 17 20 -6z
m-1773 -12 c-3 -8 -6 -5 -6 6 -1 11 2 17 5 13 3 -3 4 -12 1 -19z m-3653 -10
c-3 -4 -12 -8 -20 -8 -8 0 -14 4 -14 8 0 4 9 8 19 8 11 0 17 -4 15 -8z m-81
-22 c-3 -12 -1 -17 4 -11 4 6 17 11 28 13 20 3 20 2 1 -13 -11 -8 -26 -15 -33
-15 -7 0 -13 -5 -13 -11 0 -5 -5 -7 -10 -4 -7 4 -7 13 0 26 8 13 7 19 0 19 -6
0 -9 4 -6 8 11 18 33 8 29 -12z m3787 19 c0 -1 -15 -14 -32 -31 -18 -16 -25
-20 -15 -8 9 11 17 25 17 31 0 5 7 10 15 10 8 0 15 -1 15 -2z m-4235 -35 c-3
-5 -12 -10 -18 -10 -7 0 -6 4 3 10 19 12 23 12 15 0z m141 -25 c0 -14 -4 -25
-8 -25 -4 0 -8 11 -8 25 0 14 4 25 8 25 4 0 8 -11 8 -25z m459 -25 c-1 -3 -13
-27 -26 -55 l-23 -50 -6 30 c-8 38 -6 53 11 93 l14 32 16 -22 c10 -12 16 -25
14 -28z m-390 31 c3 -5 2 -12 -3 -15 -5 -3 -9 1 -9 9 0 17 3 19 12 6z m255
-21 c-6 -11 -12 -20 -14 -20 -2 0 -2 9 1 20 3 11 9 20 15 20 5 0 4 -9 -2 -20z
m-2237 -7 c-7 -2 -19 -2 -25 0 -7 3 -2 5 12 5 14 0 19 -2 13 -5z m-38 -30 c-2
-10 -4 -23 -4 -29 -1 -7 -12 -14 -25 -16 -17 -4 -23 -1 -19 9 3 7 9 11 13 8 4
-3 14 3 21 12 12 15 11 16 -8 11 -13 -4 -25 -2 -28 2 -3 5 7 11 22 13 16 2 29
5 30 6 1 0 0 -7 -2 -16z m1780 -2 c-3 -6 -16 -11 -29 -11 -12 0 -27 -5 -34
-12 -9 -9 -12 -8 -12 5 0 9 3 17 8 18 4 0 17 2 29 3 13 2 26 6 30 9 9 10 16 0
8 -12z m72 -3 c-3 -8 -6 -5 -6 6 -1 11 2 17 5 13 3 -3 4 -12 1 -19z m467 0
c-1 -13 -3 -24 -4 -25 -2 -2 -3 -7 -4 -12 0 -5 -4 -12 -7 -15 -9 -9 -5 47 4
62 12 17 14 15 11 -10z m5330 13 c4 -5 3 -17 -1 -27 -6 -16 -7 -16 -20 2 -7
10 -13 21 -13 26 0 11 27 10 34 -1z m-7722 -33 c-7 -7 -12 -8 -12 -2 0 14 12
26 19 19 2 -3 -1 -11 -7 -17z m1908 18 c0 -2 -8 -10 -17 -17 -16 -13 -17 -12
-4 4 13 16 21 21 21 13z m-106 -44 c2 -4 -5 -9 -17 -9 -17 -2 -19 0 -7 7 18
12 18 12 24 2z m110 -64 c-8 -27 -22 -13 -16 18 4 21 2 25 -9 19 -11 -7 -11
-6 0 9 14 17 15 17 23 -5 5 -12 6 -30 2 -41z m-39 11 c-10 -15 -25 -10 -19 6
4 8 10 12 15 9 5 -3 7 -10 4 -15z m-1880 1 c5 -8 12 -7 23 2 15 12 16 11 3 -5
-11 -14 -17 -15 -30 -5 -9 7 -18 14 -20 15 -2 2 1 3 7 3 6 0 14 -5 17 -10z
m2561 -2 c4 -7 4 -10 -1 -6 -4 4 -15 2 -24 -5 -14 -11 -14 -10 -2 6 16 20 18
21 27 5z m-2746 -10 c0 -5 -4 -6 -10 -3 -5 3 -10 -3 -10 -15 0 -22 52 -60 83
-60 21 0 23 -26 1 -34 -8 -3 -12 -2 -9 4 4 6 -3 6 -20 0 -23 -9 -26 -8 -20 9
6 20 -11 38 -35 36 -8 0 -14 -8 -12 -18 2 -11 -2 -15 -13 -11 -17 7 -21 34 -5
34 15 0 12 18 -4 22 -25 6 -1 46 28 46 14 0 26 -5 26 -10z m295 2 c3 -6 -1 -7
-9 -4 -18 7 -21 14 -7 14 6 0 13 -4 16 -10z m2103 -13 c2 -9 -2 -17 -8 -17 -6
0 -9 4 -6 9 4 5 -3 7 -15 4 -11 -3 -24 -15 -28 -26 -7 -18 -8 -18 -14 -4 -4
10 -2 17 3 17 6 0 10 7 10 16 0 8 5 12 10 9 6 -3 10 -1 10 5 0 18 34 7 38 -13z
m-2128 -11 c0 -10 -34 2 -38 13 -3 10 0 10 17 2 11 -7 21 -13 21 -15z m2195
-26 c-3 -11 -10 -19 -15 -17 -5 1 -16 -7 -25 -18 -16 -20 -16 -20 -6 1 5 11
17 27 26 34 9 8 13 21 10 34 -5 19 -5 19 5 3 6 -9 8 -26 5 -37z m-2358 25 c0
-8 -4 -12 -9 -9 -5 3 -16 0 -24 -7 -12 -10 -13 -9 -8 4 3 9 13 18 22 20 10 3
17 5 18 6 0 0 1 -6 1 -14z m40 1 c0 -8 -6 -12 -14 -9 -7 3 -10 9 -7 14 8 14
21 11 21 -5z m2130 8 c-3 -3 -12 -4 -19 -1 -8 3 -5 6 6 6 11 1 17 -2 13 -5z
m483 -10 c0 -17 -27 -25 -33 -9 -7 16 -2 22 18 22 8 0 15 -6 15 -13z m-316 -3
c3 -5 0 -11 -7 -14 -8 -3 -14 1 -14 9 0 16 13 19 21 5z m-184 -7 c0 -8 -19
-13 -24 -6 -3 5 1 9 9 9 8 0 15 -2 15 -3z m3140 -34 c-13 -24 -13 -80 0 -80 5
0 16 15 24 34 8 19 24 39 35 46 26 13 29 -4 4 -19 -10 -6 -14 -11 -9 -11 5 0
3 -7 -4 -15 -6 -8 -9 -19 -5 -25 3 -5 1 -10 -6 -10 -6 0 -1 -9 12 -21 13 -11
19 -18 13 -15 -13 6 -45 -29 -36 -40 4 -4 -5 -4 -20 0 -17 4 -28 2 -28 -4 0
-5 5 -10 10 -10 6 0 6 -7 -2 -19 -6 -11 -18 -17 -26 -13 -11 4 -13 1 -7 -8 5
-9 4 -11 -3 -6 -7 4 -12 1 -12 -8 0 -9 -5 -16 -10 -16 -7 0 -7 6 -1 18 5 9 9
20 10 25 1 4 4 6 7 5 11 -5 25 44 19 63 -5 14 -1 19 11 19 13 0 14 3 5 14 -11
13 -23 105 -15 118 2 3 13 4 24 1 15 -4 17 -9 10 -23z m-5272 8 c-2 -6 -11
-12 -20 -14 -11 -1 -15 3 -11 12 6 17 36 19 31 2z m2413 -12 c8 4 9 3 5 -4 -4
-7 -16 -12 -26 -12 -10 0 -22 -4 -25 -10 -3 -5 -2 -10 3 -10 6 0 8 -9 5 -20
-4 -13 1 -22 13 -27 11 -5 20 -16 20 -25 1 -10 -2 -16 -6 -13 -5 3 -15 2 -24
-1 -22 -8 -9 -26 14 -19 14 5 18 1 17 -15 -2 -26 -7 -25 -44 8 -32 29 -37 67
-14 111 7 11 9 21 6 21 -3 0 0 6 7 14 9 9 17 11 25 4 7 -5 18 -6 24 -2z m199
4 c0 -5 -2 -10 -4 -10 -3 0 -8 5 -11 10 -3 6 -1 10 4 10 6 0 11 -4 11 -10z
m-670 -10 c0 -5 -2 -10 -4 -10 -3 0 -8 5 -11 10 -3 6 -1 10 4 10 6 0 11 -4 11
-10z m3915 -10 c3 -5 1 -10 -4 -10 -6 0 -11 5 -11 10 0 6 2 10 4 10 3 0 8 -4
11 -10z m-3558 -35 c-7 -13 -14 -20 -15 -14 -2 5 2 16 8 24 18 21 20 18 7 -10z
m2873 5 c0 -5 -2 -10 -4 -10 -3 0 -8 5 -11 10 -3 6 -1 10 4 10 6 0 11 -4 11
-10z m-2727 -30 c-3 -11 -9 -17 -14 -15 -10 7 -1 35 11 35 5 0 6 -9 3 -20z
m76 -11 c-19 -12 -24 -2 -8 17 9 11 14 13 17 4 3 -7 -2 -16 -9 -21z m2861 17
c0 -2 -7 -7 -16 -10 -8 -3 -12 -2 -9 4 6 10 25 14 25 6z m-3610 -16 c0 -5 -4
-10 -10 -10 -5 0 -10 5 -10 10 0 6 5 10 10 10 6 0 10 -4 10 -10z m490 0 c0 -5
-2 -10 -4 -10 -3 0 -8 5 -11 10 -3 6 -1 10 4 10 6 0 11 -4 11 -10z m430 -14
c0 -11 -19 -15 -25 -6 -3 5 1 10 9 10 9 0 16 -2 16 -4z m-497 -76 c3 -11 1
-23 -4 -26 -5 -3 -9 6 -9 20 0 31 6 34 13 6z m177 -20 c0 -5 -7 -10 -15 -10
-8 0 -15 5 -15 10 0 6 7 10 15 10 8 0 15 -4 15 -10z m2812 -22 c-9 -9 -12 -7
-12 12 0 19 3 21 12 12 9 -9 9 -15 0 -24z m505 -3 c-2 -5 -9 -10 -14 -10 -6 0
-15 -3 -19 -7 -12 -13 -37 -9 -59 9 -11 9 -14 14 -5 11 8 -3 24 -2 35 3 27 10
66 7 62 -6z m-3333 -3 c3 -5 -1 -9 -9 -9 -8 0 -15 4 -15 9 0 4 4 8 9 8 6 0 12
-4 15 -8z m2883 -82 c-6 -16 -18 -32 -26 -35 -18 -7 -40 13 -26 23 6 4 11 18
11 32 1 14 2 28 3 33 0 4 12 0 25 -8 21 -14 23 -19 13 -45z m-262 40 c3 -5 1
-10 -4 -10 -6 0 -11 5 -11 10 0 6 2 10 4 10 3 0 8 -4 11 -10z m-5371 -15 c-4
-8 -10 -15 -15 -15 -5 0 -9 7 -9 15 0 8 7 15 15 15 9 0 12 -6 9 -15z m2456 5
c0 -5 -2 -10 -4 -10 -3 0 -8 5 -11 10 -3 6 -1 10 4 10 6 0 11 -4 11 -10z m306
-5 c-3 -23 -14 -29 -31 -15 -13 11 -13 15 -3 21 20 13 36 10 34 -6z m-286 -10
c0 -8 -7 -15 -15 -15 -13 0 -14 3 -3 15 16 18 18 18 18 0z m3973 -20 c-3 -9
-8 -14 -10 -11 -3 3 -2 9 2 15 9 16 15 13 8 -4z m-3960 -23 c-2 -10 -11 -19
-19 -19 -17 0 -18 4 -1 22 17 20 26 18 20 -3z m-2503 -10 c0 -8 5 -10 13 -6 7
4 8 3 4 -2 -11 -12 -40 -11 -49 1 -13 17 -9 24 12 22 11 -1 20 -7 20 -15z
m5588 -13 c-7 -4 -16 -3 -20 4 -11 18 2 29 18 16 12 -10 12 -14 2 -20z m858
-14 c-4 -14 -11 -23 -16 -20 -6 3 -10 -2 -10 -12 0 -15 -2 -16 -10 -3 -17 26
-12 43 10 37 11 -3 18 -1 14 4 -6 10 5 33 13 25 3 -3 2 -17 -1 -31z m-5472 10
c-4 -8 -8 -15 -10 -15 -2 0 -4 7 -4 15 0 8 4 15 10 15 5 0 7 -7 4 -15z m4656
-5 c0 -5 -2 -10 -4 -10 -3 0 -8 5 -11 10 -3 6 -1 10 4 10 6 0 11 -4 11 -10z
m-5119 -24 c-9 -11 -9 -15 0 -18 8 -3 9 -9 4 -17 -6 -11 -10 -10 -17 3 -9 16
4 46 19 46 3 0 0 -6 -6 -14z m484 -6 c-3 -5 -14 -10 -23 -9 -14 0 -13 2 3 9
27 11 27 11 20 0z m96 -3 c-1 -12 -15 -9 -19 4 -3 6 1 10 8 8 6 -3 11 -8 11
-12z m5264 2 c4 -5 1 -9 -4 -9 -6 0 -11 -7 -11 -16 0 -8 -5 -12 -10 -9 -6 4
-7 11 -4 17 5 7 1 9 -9 5 -10 -4 -14 -2 -11 6 5 15 41 20 49 6z m-6405 -24
c-7 -8 -17 -15 -23 -15 -6 0 -2 7 9 15 25 19 30 19 14 0z m775 5 c3 -5 1 -10
-4 -10 -6 0 -11 5 -11 10 0 6 2 10 4 10 3 0 8 -4 11 -10z m37 -64 c-3 -5 -9
-1 -13 10 -12 31 -10 39 5 19 8 -11 12 -24 8 -29z m5708 36 c0 -5 -7 -9 -15
-9 -8 0 -12 4 -9 9 3 4 9 8 15 8 5 0 9 -4 9 -8z m-5447 -22 c-3 -12 -6 -19 -7
-18 -1 2 -8 11 -15 21 -12 15 -11 17 7 17 15 0 19 -5 15 -20z m-926 -12 c-3
-8 -6 -5 -6 6 -1 11 2 17 5 13 3 -3 4 -12 1 -19z m863 18 c0 -11 -19 -15 -25
-6 -3 5 1 10 9 10 9 0 16 -2 16 -4z m107 -2 c-3 -3 -12 -4 -19 -1 -8 3 -5 6 6
6 11 1 17 -2 13 -5z m5373 -8 c0 -2 -7 -9 -15 -16 -13 -11 -14 -10 -9 4 5 14
24 23 24 12z m36 -24 c-8 -9 -19 -13 -22 -9 -10 9 16 38 28 31 6 -4 4 -13 -6
-22z m104 11 c0 -8 -4 -12 -9 -9 -5 4 -12 0 -14 -6 -4 -8 -6 -7 -6 4 -1 9 -9
18 -18 21 -10 2 -3 4 15 4 21 0 32 -5 32 -14z m-5513 -29 c-9 -9 -28 6 -21 18
4 6 10 6 17 -1 6 -6 8 -13 4 -17z m1611 -2 c3 -9 -2 -13 -14 -10 -9 1 -19 9
-22 16 -3 9 2 13 14 10 9 -1 19 -9 22 -16z m102 3 c-7 -8 -17 -15 -23 -15 -6
0 -2 7 9 15 25 19 30 19 14 0z m-2284 -17 c-3 -7 -7 -25 -10 -40 -4 -16 -13
-28 -21 -28 -13 0 -13 3 1 25 10 15 12 25 5 25 -6 0 -11 7 -11 15 0 8 9 15 20
15 11 0 18 -5 16 -12z m2907 -8 c3 -11 1 -18 -4 -14 -5 3 -9 12 -9 20 0 20 7
17 13 -6z m3055 1 c-7 -11 -17 -17 -23 -14 -5 4 -2 -2 7 -13 10 -12 14 -25 9
-33 -6 -9 -11 -10 -15 -2 -4 6 -5 14 -3 19 3 4 -11 7 -30 7 -24 0 -41 -7 -53
-23 -22 -26 -30 -28 -30 -6 0 10 -6 14 -15 10 -12 -4 -13 -2 -2 14 6 11 13 16
15 11 3 -10 76 12 121 36 33 17 33 17 19 -6z m82 -7 c0 -2 -9 -4 -21 -4 -11 0
-18 4 -14 10 5 8 35 3 35 -6z m-5441 3 c-2 -1 -13 -9 -24 -17 -19 -14 -19 -14
-6 3 7 9 18 17 24 17 6 0 8 -1 6 -3z m81 -8 c0 -4 -10 -6 -21 -4 -32 6 -34 13
-4 13 14 0 25 -4 25 -9z m-625 -49 c3 -6 -1 -7 -9 -4 -18 7 -21 14 -7 14 6 0
13 -4 16 -10z m567 -25 c-4 -23 -22 -36 -22 -16 0 5 -3 16 -6 25 -4 11 0 16
14 16 15 0 18 -5 14 -25z m39 6 c-16 -12 -20 -21 -12 -25 14 -9 15 -36 0 -36
-5 0 -7 5 -3 11 3 6 0 15 -7 20 -11 8 -9 13 10 29 13 11 26 20 30 20 3 0 -5
-9 -18 -19z m-100 -7 c-17 -12 -25 -13 -36 -4 -9 8 -15 8 -20 0 -4 -6 -1 -9 6
-8 7 2 14 -6 16 -17 1 -11 0 -14 -3 -7 -9 20 -26 14 -19 -7 5 -16 2 -18 -15
-14 -20 5 -28 23 -11 23 5 0 8 10 7 23 -2 20 2 22 47 24 47 2 49 1 28 -13z
m5244 5 c11 -17 0 -20 -21 -4 -17 13 -17 14 -2 15 9 0 20 -5 23 -11z m2215 -4
c0 -8 -4 -15 -10 -15 -5 0 -7 7 -4 15 4 8 8 15 10 15 2 0 4 -7 4 -15z m-8210
-41 c0 -8 -4 -12 -10 -9 -5 3 -10 10 -10 16 0 5 5 9 10 9 6 0 10 -7 10 -16z
m2184 0 c3 -8 2 -12 -4 -9 -6 3 -10 10 -10 16 0 14 7 11 14 -7z m3939 10 c-7
-3 -9 -13 -6 -22 5 -13 3 -14 -7 -5 -14 13 -5 33 13 32 9 0 9 -2 0 -5z m41
-24 c-20 -33 -13 -50 12 -30 13 12 17 11 25 -1 5 -8 9 -20 9 -26 0 -7 4 -13 8
-13 4 0 9 -12 10 -27 3 -33 38 -103 60 -120 8 -7 13 -15 10 -19 -4 -3 15 -27
40 -54 38 -38 50 -46 61 -36 12 8 13 8 7 -1 -4 -7 -4 -13 1 -14 4 0 17 -3 28
-5 11 -3 29 -7 40 -9 11 -2 20 -4 20 -5 0 -1 25 -2 55 -3 30 -1 61 -6 68 -10
7 -5 12 -3 12 5 0 10 2 10 8 1 5 -8 13 -9 22 -3 9 5 19 5 27 -1 15 -13 123
-21 123 -9 0 10 15 7 50 -8 14 -5 33 -13 43 -16 29 -9 8 -28 -23 -21 -20 4
-35 1 -49 -11 -27 -24 -13 -39 49 -55 36 -9 47 -16 40 -25 -16 -19 0 -44 29
-46 45 -2 49 -3 58 -12 4 -5 3 -6 -4 -2 -8 4 -13 1 -13 -8 0 -18 -37 -25 -67
-13 -16 7 -26 5 -37 -6 -14 -13 -13 -16 3 -31 10 -9 20 -13 24 -10 3 3 19 0
36 -7 25 -11 29 -17 24 -41 -5 -24 -1 -29 32 -42 31 -13 35 -18 25 -31 -9 -11
-17 -12 -32 -4 -13 7 -18 7 -14 1 3 -6 2 -13 -4 -17 -5 -3 -10 1 -10 10 0 14
-3 14 -24 -2 -22 -17 -23 -18 -5 -31 14 -10 24 -10 40 -1 12 6 19 7 16 2 -12
-20 9 -34 36 -24 26 10 44 1 33 -17 -7 -12 6 -26 39 -41 29 -13 29 -14 8 -23
-17 -8 -33 -3 -84 28 l-62 39 -142 5 -142 5 -74 46 c-41 25 -88 51 -106 58
-46 19 -267 11 -308 -10 -16 -9 -64 -27 -105 -42 -41 -14 -118 -41 -170 -60
-82 -30 -111 -35 -208 -39 -62 -2 -111 -2 -109 1 1 3 17 38 35 76 51 110 57
120 67 115 9 -4 13 -31 16 -90 0 -8 -2 -25 -5 -37 -2 -13 -1 -23 4 -23 20 0
40 13 40 26 0 8 4 14 8 14 5 0 26 37 47 83 37 76 40 88 41 177 1 131 5 178 11
160 3 -8 11 -18 16 -22 13 -8 37 1 37 14 0 5 -4 7 -8 4 -5 -3 -9 1 -9 8 0 8
10 12 24 10 12 -1 25 2 29 7 3 5 9 7 12 5 4 -2 7 22 6 54 l-1 58 49 -2 c42 -2
51 1 74 27 19 22 28 43 29 74 2 34 0 41 -10 33 -9 -8 -15 -8 -20 0 -4 6 -13 9
-21 6 -8 -3 -14 -1 -14 3 0 5 6 11 13 14 7 2 0 10 -15 17 -16 7 -28 19 -28 27
0 15 36 18 45 2 5 -7 14 -4 26 7 10 9 19 13 19 9 0 -11 25 13 26 26 1 5 2 14
3 19 0 6 8 10 17 10 13 0 13 -4 -2 -30z m-5234 -14 c0 -3 -4 -8 -10 -11 -5 -3
-10 -1 -10 4 0 6 5 11 10 11 6 0 10 -2 10 -4z m-60 -15 c0 -5 -6 -11 -13 -14
-8 -3 -14 1 -14 9 0 8 6 14 14 14 7 0 13 -4 13 -9z m-834 -53 c4 -7 3 -10 -1
-5 -5 4 -18 -1 -29 -10 -21 -18 -21 -18 -2 5 22 26 23 26 32 10z m827 -20 c6
-18 -3 -39 -14 -33 -4 3 -6 12 -3 20 5 12 1 13 -25 4 -17 -6 -31 -17 -31 -25
0 -17 -16 -18 -26 -2 -5 7 -2 8 7 3 11 -6 12 -5 2 6 -12 12 -19 38 -7 27 3 -3
17 -2 32 2 40 12 60 11 65 -2z m67 2 c0 -5 -4 -10 -10 -10 -5 0 -10 5 -10 10
0 6 5 10 10 10 6 0 10 -4 10 -10z m90 -6 c0 -8 -5 -12 -10 -9 -6 4 -8 11 -5
16 9 14 15 11 15 -7z m50 -5 c0 -5 -9 -9 -20 -9 -17 0 -19 2 -8 14 13 14 28
12 28 -5z m-170 1 c0 -5 -5 -10 -11 -10 -5 0 -7 5 -4 10 3 6 8 10 11 10 2 0 4
-4 4 -10z m-840 -10 c0 -5 -9 -10 -21 -10 -11 0 -17 5 -14 10 3 6 13 10 21 10
8 0 14 -4 14 -10z m7305 0 c3 -5 -1 -10 -9 -10 -9 0 -16 5 -16 10 0 6 4 10 9
10 6 0 13 -4 16 -10z m-4245 -60 c-6 -12 -15 -19 -18 -15 -10 10 -8 39 3 47
17 12 27 -9 15 -32z m-2623 8 c-3 -8 -6 -5 -6 6 -1 11 2 17 5 13 3 -3 4 -12 1
-19z m408 12 c3 -5 1 -10 -4 -10 -6 0 -11 5 -11 10 0 6 2 10 4 10 3 0 8 -4 11
-10z m6407 -3 c7 -8 19 -12 26 -9 6 2 12 0 12 -5 0 -17 -13 -23 -26 -12 -8 6
-20 9 -28 6 -15 -6 -30 16 -19 27 10 9 20 7 35 -7z m93 -7 c3 -5 2 -10 -4 -10
-5 0 -13 5 -16 10 -3 6 -2 10 4 10 5 0 13 -4 16 -10z m-6385 -26 c0 -3 -7 -12
-15 -20 -13 -14 -15 -13 -15 5 0 12 6 21 15 21 8 0 15 -3 15 -6z m1971 -37
c-8 -8 -11 -7 -11 4 0 9 3 19 7 23 4 4 9 2 11 -4 3 -7 -1 -17 -7 -23z m2922 3
c3 -11 1 -23 -4 -26 -17 -10 -79 -12 -79 -3 0 5 5 9 10 9 6 0 10 6 10 13 0 12
39 36 51 30 4 -1 9 -12 12 -23z m2303 15 c-3 -22 -13 -28 -33 -21 -15 6 -14 9
7 21 14 7 26 13 27 14 1 1 0 -6 -1 -14z m-2395 -18 c-10 -9 -11 -8 -5 6 3 10
9 15 12 12 3 -3 0 -11 -7 -18z m-3398 4 c5 -1 5 -7 0 -13 -4 -7 -8 -17 -9 -23
0 -5 -2 -15 -2 -22 -1 -7 -9 -10 -18 -6 -14 5 -14 3 -3 -15 14 -23 46 -35 55
-21 3 5 -2 9 -10 9 -22 0 -27 15 -13 34 10 13 18 15 37 7 14 -5 21 -10 16 -10
-5 -1 -3 -8 4 -16 6 -8 9 -18 6 -23 -3 -5 6 -14 20 -21 33 -15 25 -37 -12 -34
-16 1 -24 -1 -19 -5 13 -8 18 -62 7 -62 -4 0 -14 9 -21 19 -8 11 -20 17 -28
14 -16 -6 -10 -48 10 -72 28 -33 31 -44 8 -29 -12 7 -21 16 -21 19 0 10 -30
20 -41 13 -11 -6 15 -70 39 -98 10 -12 2 -9 -20 8 -43 32 -62 28 -48 -10 13
-34 13 -45 -2 -41 -18 3 -21 -31 -4 -49 23 -22 20 -32 -9 -29 -30 4 -30 4 -5
-39 13 -24 15 -33 6 -30 -22 9 -28 -13 -11 -40 26 -40 -5 -39 -65 1 -29 19
-68 40 -86 45 l-34 9 84 162 c64 124 90 187 110 265 14 57 26 105 26 107 0 3
10 3 23 1 12 -3 26 -5 30 -5z m-2261 -19 c18 1 39 6 45 11 15 11 43 2 43 -13
0 -5 -6 -9 -12 -7 -7 1 -12 -6 -10 -15 4 -23 -7 -23 -23 -1 -12 15 -16 16 -39
4 -31 -17 -34 -31 -6 -26 11 2 18 0 15 -6 -4 -5 -15 -9 -26 -9 -17 0 -24 16
-20 43 0 4 -4 7 -10 7 -6 0 -8 -7 -5 -16 4 -10 1 -14 -6 -12 -7 3 -14 17 -16
32 -3 25 -2 26 17 17 11 -6 35 -10 53 -9z m132 3 c-4 -8 -13 -15 -21 -15 -13
0 -13 3 -3 15 7 8 16 15 21 15 5 0 6 -7 3 -15z m6901 -49 c29 -4 29 -24 1 -22
-13 0 -22 6 -19 11 2 6 -3 1 -11 -9 -16 -19 -16 -19 -16 5 0 30 11 44 20 28 4
-5 15 -12 25 -13z m-6703 -41 c-2 -14 -9 -25 -14 -25 -6 0 -7 7 -4 16 3 9 6
20 6 25 0 5 4 9 9 9 4 0 6 -11 3 -25z m5458 -11 c0 -8 -5 -12 -10 -9 -6 4 -8
11 -5 16 9 14 15 11 15 -7z m-5710 -25 c0 -5 -4 -9 -10 -9 -5 0 -10 7 -10 16
0 8 5 12 10 9 6 -3 10 -10 10 -16z m5362 9 c6 -17 -14 -37 -29 -31 -17 7 -17
24 0 21 6 -2 11 3 10 10 -4 16 14 16 19 0z m-4722 -14 c0 -8 -4 -12 -10 -9 -5
3 -10 10 -10 16 0 5 5 9 10 9 6 0 10 -7 10 -16z m1706 -5 c3 -5 -3 -6 -12 -2
-14 5 -16 2 -12 -21 l6 -28 -22 22 c-15 16 -17 24 -8 27 6 3 10 8 7 13 -3 4 4
6 15 3 11 -3 23 -9 26 -14z m-2084 -21 c-20 -35 -42 -48 -42 -25 0 10 -7 14
-22 10 -19 -4 -20 -3 -8 6 8 6 23 11 33 11 10 0 25 7 33 15 24 23 25 18 6 -17z
m5246 7 c18 -20 20 -30 12 -45 -6 -11 -7 -20 -3 -20 4 0 2 -4 -5 -8 -11 -8
-23 -46 -25 -79 0 -7 -4 -13 -9 -13 -4 0 -8 -7 -8 -15 0 -8 -4 -15 -10 -15 -5
0 -10 5 -10 11 0 5 -4 8 -8 5 -4 -2 -14 -1 -21 3 -17 11 -4 59 20 71 10 6 16
17 13 25 -5 11 -11 12 -25 5 -15 -8 -17 -7 -13 5 4 10 0 15 -10 15 -10 0 -16
8 -16 23 0 18 2 19 10 7 8 -12 10 -12 10 -1 0 9 7 11 21 8 16 -4 18 -3 9 8 -6
8 -19 11 -28 8 -10 -4 -14 -2 -9 3 10 11 58 13 51 3 -2 -4 0 -10 6 -14 9 -6
14 7 11 28 -2 15 16 6 37 -18z m-2563 -15 c-3 -5 -12 -10 -18 -10 -7 0 -6 4 3
10 19 12 23 12 15 0z m-2635 -5 c0 -7 -30 -13 -34 -7 -3 4 4 9 15 9 10 1 19 0
19 -2z m-109 -38 c-10 -9 -11 -8 -5 6 3 10 9 15 12 12 3 -3 0 -11 -7 -18z
m2187 6 c-17 -4 -26 -24 -10 -22 21 4 30 -3 25 -20 -3 -12 -11 -17 -19 -14 -8
3 -12 8 -10 11 3 3 1 11 -5 18 -14 17 -3 34 19 33 15 -1 15 -2 0 -6z m-2108
-18 c7 -9 8 -15 2 -15 -5 0 -12 7 -16 15 -3 8 -4 15 -2 15 2 0 9 -7 16 -15z
m27 -40 c0 -8 -6 -15 -14 -15 -17 0 -17 17 0 23 6 3 12 6 13 6 0 1 1 -6 1 -14z
m97 -11 c8 -20 -8 -17 -28 5 -17 19 -17 19 2 14 12 -3 23 -11 26 -19z m6908 4
c-7 -7 -12 -8 -12 -2 0 14 12 26 19 19 2 -3 -1 -11 -7 -17z m-6932 -18 c0 -5
-2 -10 -4 -10 -3 0 -8 5 -11 10 -3 6 -1 10 4 10 6 0 11 -4 11 -10z m2059 -3
c12 4 13 2 3 -4 -7 -6 -10 -17 -6 -29 9 -23 3 -18 -20 21 -10 17 -13 25 -6 18
7 -6 20 -9 29 -6z m4773 -23 c-14 -9 -19 -21 -15 -32 4 -11 0 -9 -13 6 -13 15
-25 21 -37 17 -9 -4 -15 -11 -12 -15 6 -10 -24 -22 -36 -14 -32 19 15 40 115
51 17 2 17 1 -2 -13z m153 -3 c3 -5 1 -12 -5 -16 -5 -3 -10 1 -10 9 0 18 6 21
15 7z m-5074 -38 c13 -16 12 -17 -3 -4 -10 7 -18 15 -18 17 0 8 8 3 21 -13z
m1804 -12 c-2 -35 -15 -36 -15 -2 0 18 4 30 8 27 5 -3 8 -14 7 -25z m195 14
c0 -8 -4 -15 -10 -15 -5 0 -7 7 -4 15 4 8 8 15 10 15 2 0 4 -7 4 -15z m2590
-5 c0 -5 -5 -10 -11 -10 -5 0 -7 5 -4 10 3 6 8 10 11 10 2 0 4 -4 4 -10z
m-2743 -6 c-3 -3 -12 -4 -19 -1 -8 3 -5 6 6 6 11 1 17 -2 13 -5z m2783 -3 c0
-5 -7 -14 -15 -21 -13 -10 -15 -9 -15 9 0 12 6 21 15 21 8 0 15 -4 15 -9z m84
-12 c-8 -13 -21 -11 -27 5 -4 10 0 12 14 9 10 -3 16 -9 13 -14z m240 -3 c-1
-9 4 -16 12 -16 18 0 18 -8 0 -25 -16 -16 -27 -10 -19 11 3 8 1 14 -4 14 -5 0
-9 9 -9 20 0 11 5 19 11 17 5 -2 9 -12 9 -21z m173 2 c-3 -8 -6 -5 -6 6 -1 11
2 17 5 13 3 -3 4 -12 1 -19z m-3204 -8 c10 -10 7 -12 -13 -6 -14 3 -31 6 -37
6 -7 0 -13 4 -13 8 0 13 49 7 63 -8z m2877 3 c0 -9 -3 -13 -6 -10 -4 3 -16 2
-27 -4 -14 -8 -18 -8 -13 0 4 6 2 11 -3 11 -6 0 -11 5 -11 10 0 6 14 10 30 10
21 0 30 -5 30 -17z m-3445 -3 c-3 -5 2 -10 11 -10 22 0 9 -13 -14 -15 -11 -1
-19 6 -19 17 -1 10 5 18 13 18 8 0 12 -4 9 -10z m3690 -29 c3 -5 2 -12 -3 -15
-5 -3 -9 1 -9 9 0 17 3 19 12 6z m75 -21 c0 -5 9 -6 20 -3 22 6 26 -7 9 -24
-10 -10 -8 -14 38 -53 15 -13 16 -12 10 4 -25 64 -18 81 20 49 22 -20 48 -64
36 -62 -15 4 -63 -13 -63 -22 0 -5 -7 -6 -15 -3 -8 4 -15 1 -15 -5 0 -6 -4
-11 -10 -11 -5 0 -10 7 -10 15 0 21 -13 19 -27 -5 -11 -17 -10 -21 10 -32 12
-7 30 -11 40 -9 9 1 17 -3 17 -10 0 -7 8 -6 24 5 23 15 25 14 31 -4 4 -13 -1
-30 -14 -46 -11 -14 -23 -42 -27 -63 -4 -20 -9 -40 -12 -46 -10 -16 -10 -118
-1 -137 14 -27 -12 -27 -61 2 -72 42 -106 50 -220 50 l-107 0 -64 41 c-80 51
-93 64 -57 55 15 -3 38 -2 52 4 16 6 27 6 31 0 4 -6 13 -10 21 -10 8 0 12 4 9
10 -4 7 3 7 20 0 15 -6 31 -8 36 -4 5 3 9 -4 9 -15 0 -12 6 -21 14 -21 18 0
31 51 16 60 -8 5 -5 13 11 23 12 9 20 19 16 23 -10 10 15 29 60 43 23 8 40 18
37 22 -3 5 0 9 6 9 6 0 9 4 6 9 -3 5 1 12 10 15 8 3 12 10 9 16 -3 5 3 10 14
10 11 0 23 4 26 10 4 6 -1 7 -12 3 -15 -6 -16 -4 -6 8 6 8 13 27 15 41 2 15 7
30 11 34 4 4 7 15 7 25 0 12 5 16 15 13 8 -4 15 -10 15 -14z m-607 -3 c-4 -7
12 -8 45 -4 28 3 54 2 57 -3 3 -5 12 -7 19 -4 8 3 17 1 21 -5 4 -7 0 -8 -11
-4 -13 5 -15 3 -9 -7 6 -10 2 -9 -14 2 -23 16 -75 13 -64 -5 4 -6 0 -8 -10 -4
-11 4 -15 1 -12 -12 3 -16 0 -17 -21 -7 -38 17 -45 63 -10 63 8 0 12 -5 9 -10z
m-2876 -12 c0 -10 -10 -15 -29 -15 -15 0 -28 5 -28 11 0 6 8 8 19 4 11 -3 22
-1 26 5 9 14 12 13 12 -5z m1184 -2 c1 -10 1 -24 0 -31 -2 -16 21 -11 36 8 16
20 22 11 16 -23 -4 -22 -9 -26 -25 -21 -10 3 -25 1 -33 -6 -7 -6 -16 -7 -18
-3 -3 5 -24 8 -46 7 -26 0 -41 4 -41 11 0 16 25 37 33 28 4 -3 7 -1 7 5 0 7 9
12 20 12 11 0 23 7 26 15 8 20 24 19 25 -2z m-2621 0 c0 -5 -6 -15 -13 -24
-10 -13 -15 -14 -24 -4 -8 9 -9 15 0 24 12 12 37 15 37 4z m4750 -8 c0 -8 -2
-15 -4 -15 -2 0 -6 7 -10 15 -3 8 -1 15 4 15 6 0 10 -7 10 -15z m-3493 -10 c0
-8 -4 -12 -9 -9 -4 3 -8 9 -8 15 0 5 4 9 8 9 5 0 9 -7 9 -15z m3406 -11 c-5
-13 -1 -15 18 -10 20 6 21 5 7 -4 -10 -6 -18 -19 -19 -28 -1 -10 -4 -7 -8 8
-4 14 -14 24 -22 22 -10 -1 -9 2 3 11 10 8 14 18 10 22 -4 5 -2 5 5 1 7 -4 9
-14 6 -22z m-3358 6 c-4 -7 3 -9 18 -6 21 4 25 1 22 -15 -2 -10 1 -19 6 -19 6
0 7 -5 3 -12 -5 -8 -2 -9 9 -5 10 3 17 2 17 -4 0 -6 5 -7 12 -3 7 4 8 3 4 -4
-12 -19 -44 -14 -51 8 -4 11 -11 18 -16 15 -5 -4 -9 -2 -9 4 0 5 6 12 13 15 6
3 2 3 -9 1 -21 -5 -40 16 -27 29 10 10 15 7 8 -4z m165 1 c0 -6 -4 -13 -10
-16 -5 -3 -10 1 -10 9 0 9 5 16 10 16 6 0 10 -4 10 -9z m75 -1 c8 -13 -5 -13
-25 0 -13 8 -13 10 2 10 9 0 20 -4 23 -10z m2870 0 c3 -5 1 -10 -4 -10 -6 0
-11 5 -11 10 0 6 2 10 4 10 3 0 8 -4 11 -10z m-2975 -4 c0 -7 -40 -14 -44 -7
-3 4 6 8 20 9 13 1 24 0 24 -2z m320 -6 c0 -5 -4 -10 -10 -10 -5 0 -10 5 -10
10 0 6 5 10 10 10 6 0 10 -4 10 -10z m3040 0 c0 -5 -5 -10 -11 -10 -5 0 -7 5
-4 10 3 6 8 10 11 10 2 0 4 -4 4 -10z m-3990 -20 c-18 -12 -30 -13 -30 -2 0 4
10 9 22 9 18 2 20 0 8 -7z m1050 0 c0 -5 -9 -10 -20 -10 -11 0 -20 5 -20 10 0
6 9 10 20 10 11 0 20 -4 20 -10z m2600 -4 c0 -3 -4 -8 -10 -11 -5 -3 -10 -1
-10 4 0 6 5 11 10 11 6 0 10 -2 10 -4z m-3713 -21 c0 -12 -3 -12 -16 -2 -10 8
-13 9 -8 0 4 -6 3 -14 -3 -18 -11 -7 -14 18 -3 28 12 12 30 7 30 -8z m560 0
c0 -8 -4 -12 -9 -9 -5 3 -6 10 -3 15 9 13 12 11 12 -6z m-327 -24 c0 -4 -6 -8
-13 -8 -8 0 -14 6 -14 13 0 7 6 10 14 7 7 -3 13 -8 13 -12z m520 9 c12 -8 10
-10 -9 -10 -13 0 -30 -8 -37 -17 -7 -10 -14 -13 -14 -6 0 12 27 43 38 43 4 0
14 -5 22 -10z m-60 -4 c0 -3 -4 -8 -10 -11 -5 -3 -10 -1 -10 4 0 6 5 11 10 11
6 0 10 -2 10 -4z m3810 -6 c0 -5 -5 -10 -11 -10 -5 0 -7 5 -4 10 3 6 8 10 11
10 2 0 4 -4 4 -10z m-4230 -10 c0 -5 -5 -10 -11 -10 -5 0 -7 5 -4 10 3 6 8 10
11 10 2 0 4 -4 4 -10z m101 -23 c-5 -5 -18 -7 -28 -3 -14 6 -15 9 -4 16 19 11
46 1 32 -13z m3649 8 c11 -13 10 -14 -4 -9 -9 3 -16 10 -16 15 0 13 6 11 20
-6z m405 5 c-3 -5 -11 -10 -16 -10 -6 0 -7 5 -4 10 3 6 11 10 16 10 6 0 7 -4
4 -10z m-3835 -25 c11 -13 10 -14 -4 -9 -9 3 -16 10 -16 15 0 13 6 11 20 -6z
m3795 5 c3 -5 1 -10 -4 -10 -6 0 -11 5 -11 10 0 6 2 10 4 10 3 0 8 -4 11 -10z
m-707 -11 c19 2 34 -17 15 -20 -34 -6 -52 -5 -47 2 3 5 0 9 -5 9 -6 0 -11 5
-11 11 0 6 5 7 13 2 6 -4 22 -6 35 -4z m116 -70 c-10 -11 -22 -19 -28 -19 -6
0 -1 8 12 18 19 14 20 20 10 32 -11 12 -11 12 5 1 16 -13 16 -15 1 -32z m33
-14 c0 -8 -4 -15 -9 -15 -10 0 -11 14 -1 23 9 10 10 9 10 -8z m-3560 -17 c6
-5 9 -16 6 -24 -6 -16 -39 -19 -49 -3 -3 6 -17 8 -30 5 -28 -7 -34 12 -6 20 9
3 24 9 32 14 15 8 24 5 47 -12z m66 -24 c-3 -7 -15 -13 -28 -12 -14 1 -21 7
-18 15 4 10 9 11 19 2 17 -14 18 -5 3 24 -12 22 -12 22 9 4 11 -11 18 -25 15
-33z m3592 36 c3 -5 1 -10 -4 -10 -6 0 -11 5 -11 10 0 6 2 10 4 10 3 0 8 -4
11 -10z m5 -50 c0 -5 -5 -10 -11 -10 -5 0 -7 5 -4 10 3 6 8 10 11 10 2 0 4 -4
4 -10z m-2446 -37 c-5 -5 -12 -12 -16 -18 -4 -6 -8 -2 -8 8 0 9 7 17 17 17 9
0 12 -3 7 -7z m-1554 -144 c0 -5 -5 -7 -11 -3 -6 3 -15 1 -19 -6 -5 -9 -8 -8
-12 2 -4 9 2 14 18 16 13 1 24 -3 24 -9z m316 -18 c21 -2 23 -27 3 -27 -11 0
-19 5 -19 11 0 5 -7 1 -15 -9 -12 -16 -17 -17 -30 -6 -14 11 -13 14 2 25 9 7
24 11 32 10 9 -2 21 -4 27 -4z m-536 -91 c0 -4 -6 -10 -14 -13 -10 -4 -12 0
-9 14 5 18 23 18 23 -1z m1430 -38 c0 -15 -2 -15 -10 -2 -13 20 -13 33 0 25 6
-3 10 -14 10 -23z m-1055 -104 c5 4 5 2 2 -5 -4 -6 -16 -9 -27 -6 -11 3 -17 9
-14 15 3 5 11 5 18 -1 7 -6 17 -7 21 -3z m-61 -6 c3 -5 -1 -9 -9 -9 -8 0 -12
4 -9 9 3 4 7 8 9 8 2 0 6 -4 9 -8z m46 -86 c0 -2 -9 -6 -20 -9 -11 -3 -18 -1
-14 4 5 9 34 13 34 5z m320 -100 c0 -2 -7 -7 -16 -10 -8 -3 -12 -2 -9 4 6 10
25 14 25 6z m340 -6 c0 -5 -4 -10 -9 -10 -6 0 -13 5 -16 10 -3 6 1 10 9 10 9
0 16 -4 16 -10z m-40 -10 c0 -5 -7 -10 -15 -10 -8 0 -15 5 -15 10 0 6 7 10 15
10 8 0 15 -4 15 -10z"/>
<path d="M8656 11331 c-4 -5 -2 -12 3 -15 5 -4 12 -2 15 3 4 5 2 12 -3 15 -5
4 -12 2 -15 -3z"/>
<path d="M9195 11020 c-3 -6 1 -7 9 -4 18 7 21 14 7 14 -6 0 -13 -4 -16 -10z"/>
<path d="M7205 10950 c3 -5 11 -10 16 -10 6 0 7 5 4 10 -3 6 -11 10 -16 10 -6
0 -7 -4 -4 -10z"/>
<path d="M7537 10359 c-8 -5 -23 -7 -34 -5 -11 3 -31 -5 -44 -17 -14 -12 -31
-23 -39 -25 -8 -2 -20 -8 -27 -14 -26 -21 -85 -46 -102 -43 -10 2 -18 -3 -18
-11 0 -8 3 -14 7 -14 4 0 5 -11 3 -24 -3 -16 -10 -23 -19 -19 -8 3 -11 10 -7
17 3 6 2 7 -2 3 -5 -4 -10 -14 -11 -21 -1 -7 -5 -23 -9 -35 -4 -12 -2 -21 4
-21 6 0 8 -7 4 -16 -4 -10 -8 -12 -13 -5 -10 16 -30 -32 -23 -57 2 -11 0 -23
-6 -26 -6 -4 -11 1 -12 11 0 14 -2 15 -6 3 -3 -8 -9 -17 -12 -20 -3 -3 -14
-19 -23 -37 -14 -27 -14 -34 -2 -44 11 -9 14 -8 14 4 0 8 10 21 22 29 21 14
21 17 8 34 -8 10 -10 15 -5 12 6 -4 19 0 30 8 16 12 17 18 8 33 -13 20 -6 22
30 6 20 -8 67 -94 67 -121 0 -10 3 -14 7 -11 10 11 33 -13 33 -34 0 -11 3 -19
8 -20 26 -2 46 -9 68 -23 66 -44 324 -37 418 11 90 46 156 133 156 207 0 42
-54 164 -75 173 -8 3 -15 13 -15 22 0 10 -14 24 -32 32 -18 8 -32 20 -31 26 1
6 -4 14 -13 17 -9 4 -12 2 -8 -5 7 -12 7 -12 -131 11 -95 15 -151 18 -168 9z"/>
<path d="M8708 10297 c-47 -14 -72 -30 -112 -70 -71 -71 -98 -129 -99 -216 -1
-59 3 -75 26 -110 49 -74 153 -107 315 -99 84 4 109 10 166 36 124 58 166 107
166 194 0 62 -17 116 -53 170 -29 44 -37 49 -122 76 -116 38 -205 44 -287 19z"/>
<path d="M6871 10223 c0 -6 -4 -20 -7 -30 -5 -14 -4 -15 5 -7 7 7 11 20 8 30
-3 11 -5 14 -6 7z"/>
<path d="M7204 10192 c3 -5 0 -13 -6 -15 -9 -4 -10 -6 -1 -6 17 -1 25 16 12
25 -7 4 -9 3 -5 -4z"/>
<path d="M7165 10110 c3 -5 11 -10 16 -10 6 0 7 5 4 10 -3 6 -11 10 -16 10 -6
0 -7 -4 -4 -10z"/>
<path d="M9406 10006 c6 -15 34 -30 34 -18 0 4 -9 13 -20 19 -16 11 -18 10
-14 -1z"/>
<path d="M7040 9960 c0 -6 7 -10 15 -10 8 0 15 2 15 4 0 2 -7 6 -15 10 -8 3
-15 1 -15 -4z"/>
<path d="M9432 9950 c-7 -11 -7 -22 0 -31 8 -12 9 -12 5 1 -2 9 6 19 22 26 24
10 25 11 5 16 -13 3 -25 -1 -32 -12z"/>
<path d="M7010 9893 c0 -9 8 -13 22 -11 30 4 33 23 3 24 -16 1 -25 -3 -25 -13z"/>
<path d="M7162 9897 c-7 -8 -6 -16 3 -24 10 -9 14 -8 18 8 6 23 -7 34 -21 16z"/>
<path d="M7015 9860 c3 -5 8 -10 11 -10 2 0 4 5 4 10 0 6 -5 10 -11 10 -5 0
-7 -4 -4 -10z"/>
<path d="M7150 9860 c0 -6 7 -13 15 -16 8 -4 13 -10 10 -15 -7 -10 34 -33 43
-24 4 4 -2 13 -13 21 -11 8 -28 21 -37 29 -10 8 -18 10 -18 5z"/>
<path d="M7302 9741 c-11 -6 -10 -10 4 -15 20 -8 32 0 18 14 -5 5 -15 5 -22 1z"/>
<path d="M6840 9729 c0 -5 5 -7 10 -4 6 3 10 8 10 11 0 2 -4 4 -10 4 -5 0 -10
-5 -10 -11z"/>
<path d="M7385 9700 c3 -5 10 -10 16 -10 5 0 9 5 9 10 0 6 -7 10 -16 10 -8 0
-12 -4 -9 -10z"/>
<path d="M6930 9300 c-12 -7 -12 -12 -2 -22 6 -6 12 -10 13 -7 0 2 2 12 4 22
4 20 4 19 -15 7z"/>
<path d="M9097 9212 c-15 -17 -15 -18 3 -19 23 -2 32 8 21 25 -6 9 -12 8 -24
-6z"/>
<path d="M7334 9081 c4 -5 1 -11 -6 -13 -15 -5 -1 -28 17 -28 7 0 12 8 10 18
-2 9 -4 20 -4 25 -1 4 -6 7 -12 7 -5 0 -8 -4 -5 -9z"/>
<path d="M7310 9020 c-8 -5 -13 -10 -10 -11 33 -6 47 -4 43 8 -6 15 -13 16
-33 3z"/>
<path d="M9025 9021 c-26 -6 -27 -8 -11 -14 13 -5 25 -2 35 8 8 8 13 14 11 14
-3 -1 -18 -4 -35 -8z"/>
<path d="M7390 8947 c0 -2 11 -13 25 -25 14 -12 25 -18 25 -13 0 5 -11 16 -25
25 -14 9 -25 15 -25 13z"/>
<path d="M8965 8940 c3 -5 8 -10 11 -10 2 0 4 5 4 10 0 6 -5 10 -11 10 -5 0
-7 -4 -4 -10z"/>
<path d="M7411 8894 c0 -11 3 -14 6 -6 3 7 2 16 -1 19 -3 4 -6 -2 -5 -13z"/>
<path d="M8773 8705 c0 -8 4 -12 9 -9 5 3 6 10 3 15 -9 13 -12 11 -12 -6z"/>
<path d="M8730 8630 c0 -5 5 -10 11 -10 5 0 7 5 4 10 -3 6 -8 10 -11 10 -2 0
-4 -4 -4 -10z"/>
<path d="M8356 8543 c-3 -8 -11 -11 -17 -7 -8 4 -9 3 -5 -5 6 -9 11 -9 21 -1
8 7 19 9 24 6 5 -4 12 -2 15 3 3 5 -3 11 -13 14 -12 3 -22 -1 -25 -10z"/>
<path d="M8300 8540 c0 -5 5 -10 11 -10 5 0 7 5 4 10 -3 6 -8 10 -11 10 -2 0
-4 -4 -4 -10z"/>
<path d="M8442 8545 c4 -4 3 -14 -4 -22 -8 -11 -7 -12 6 -7 19 7 21 20 4 30
-7 4 -10 4 -6 -1z"/>
<path d="M10805 10230 c3 -5 10 -10 16 -10 5 0 9 5 9 10 0 6 -7 10 -16 10 -8
0 -12 -4 -9 -10z"/>
<path d="M10841 10025 c-62 -56 -88 -163 -60 -243 21 -62 191 -138 276 -125
57 9 78 28 96 86 24 75 22 170 -3 222 -29 60 -103 95 -199 95 -67 0 -73 -2
-110 -35z"/>
<path d="M10412 9849 c2 -7 10 -15 17 -17 8 -3 12 1 9 9 -2 7 -10 15 -17 17
-8 3 -12 -1 -9 -9z"/>
<path d="M10373 9833 c-18 -7 -16 -23 2 -23 8 0 15 7 15 15 0 8 -1 15 -2 14
-2 0 -9 -3 -15 -6z"/>
<path d="M11494 9668 c-5 -8 -33 -28 -62 -43 -99 -53 -116 -106 -61 -188 40
-61 70 -84 133 -102 57 -16 145 -18 164 -3 6 6 12 7 12 3 0 -9 48 21 80 51 23
21 25 29 22 99 -2 43 -8 73 -13 69 -5 -3 -12 2 -15 10 -3 9 -36 37 -72 63 -56
40 -75 48 -123 51 -42 3 -59 1 -65 -10z"/>
<path d="M5508 10463 c-10 -2 -18 -8 -18 -13 0 -4 9 -6 20 -3 11 3 20 9 20 14
0 5 -1 8 -2 8 -2 -1 -11 -3 -20 -6z"/>
<path d="M5021 10281 c-10 -17 -9 -21 3 -21 20 0 27 13 16 29 -6 11 -10 9 -19
-8z"/>
<path d="M5256 9933 c-44 -7 -72 -30 -94 -77 -24 -50 -23 -122 2 -157 9 -13
16 -20 16 -15 0 5 9 1 21 -10 32 -28 144 -32 195 -6 104 53 113 138 21 215
-54 46 -98 60 -161 50z"/>
<path d="M4915 8639 c-10 -15 3 -25 16 -12 7 7 7 13 1 17 -6 3 -14 1 -17 -5z"/>
<path d="M4796 8535 c4 -8 10 -15 14 -15 4 0 10 7 14 15 4 10 -1 15 -14 15
-13 0 -18 -5 -14 -15z"/>
<path d="M9575 9690 c4 -6 11 -8 16 -5 14 9 11 15 -7 15 -8 0 -12 -5 -9 -10z"/>
<path d="M6631 9691 c-8 -5 -9 -11 -3 -15 5 -3 12 1 16 9 6 17 6 18 -13 6z"/>
<path d="M9905 8720 c3 -5 8 -10 11 -10 2 0 4 5 4 10 0 6 -5 10 -11 10 -5 0
-7 -4 -4 -10z"/>
<path d="M11691 8231 c-10 -7 -10 -10 -1 -16 6 -4 16 -3 22 3 13 13 -4 23 -21
13z"/>
<path d="M7656 12315 c3 -6 13 -11 24 -12 15 -1 17 1 8 11 -15 16 -38 17 -32
1z"/>
<path d="M7726 12322 c-3 -6 -1 -14 5 -17 15 -10 25 3 12 16 -7 7 -13 7 -17 1z"/>
<path d="M7730 12159 c0 -5 5 -7 10 -4 6 3 10 8 10 11 0 2 -4 4 -10 4 -5 0
-10 -5 -10 -11z"/>
<path d="M7656 12131 c-3 -5 1 -12 10 -15 20 -8 29 -1 19 13 -8 13 -22 14 -29
2z"/>
<path d="M9350 11850 c-12 -8 -12 -10 3 -16 9 -3 17 -13 17 -22 0 -13 2 -14
13 -3 10 10 8 14 -6 22 -9 6 -15 14 -12 20 8 11 4 11 -15 -1z"/>
<path d="M9350 11811 c0 -7 -5 -9 -12 -5 -7 5 -8 3 -3 -5 5 -9 10 -10 18 -2 6
6 8 14 4 18 -4 3 -7 1 -7 -6z"/>
<path d="M6876 11515 c4 -8 8 -15 10 -15 2 0 4 7 4 15 0 8 -4 15 -10 15 -5 0
-7 -7 -4 -15z"/>
<path d="M6850 11506 c0 -9 5 -16 10 -16 6 0 10 4 10 9 0 6 -4 13 -10 16 -5 3
-10 -1 -10 -9z"/>
<path d="M5581 11214 c0 -11 3 -14 6 -6 3 7 2 16 -1 19 -3 4 -6 -2 -5 -13z"/>
<path d="M6500 11010 c10 -7 11 -10 2 -10 -8 0 -11 -10 -7 -31 4 -22 2 -28 -6
-23 -8 4 -9 3 -5 -4 9 -14 36 -4 36 13 0 8 -5 17 -11 20 -7 5 -5 13 5 24 14
15 13 17 -7 18 -17 2 -19 0 -7 -7z"/>
<path d="M6386 10824 c-5 -14 -4 -15 9 -4 17 14 19 20 6 20 -5 0 -12 -7 -15
-16z"/>
<path d="M9996 10782 c-24 -26 -25 -30 -11 -42 10 -8 15 -9 15 -1 0 6 8 11 17
11 15 0 14 2 -3 15 -16 13 -16 14 -1 9 13 -5 17 -1 17 15 0 27 -1 27 -34 -7z"/>
<path d="M10035 10721 c-3 -5 -1 -12 5 -16 5 -3 10 1 10 9 0 18 -6 21 -15 7z"/>
<path d="M9946 10641 c-3 -5 0 -14 7 -19 10 -8 13 -6 14 9 2 19 -11 26 -21 10z"/>
<path d="M10005 10640 c-4 -6 -10 -8 -14 -6 -4 3 -8 -1 -8 -9 0 -13 4 -12 19
2 18 16 22 23 14 23 -3 0 -8 -5 -11 -10z"/>
<path d="M10420 10466 c0 -2 7 -7 16 -10 8 -3 12 -2 9 4 -6 10 -25 14 -25 6z"/>
<path d="M10126 10295 c-3 -8 -1 -15 3 -15 5 0 11 7 15 15 3 8 1 15 -3 15 -5
0 -11 -7 -15 -15z"/>
<path d="M10080 10265 c-7 -9 -8 -15 -2 -15 5 0 12 7 16 15 3 8 4 15 2 15 -2
0 -9 -7 -16 -15z"/>
<path d="M4112 9298 c-16 -16 -15 -28 3 -28 8 0 15 9 15 20 0 23 -2 24 -18 8z"/>
<path d="M6827 8454 c6 -17 8 -17 21 -1 8 10 6 13 -8 14 -13 1 -17 -3 -13 -13z"/>
<path d="M5453 8264 c-9 -24 5 -383 16 -424 5 -19 15 -84 20 -145 16 -158 30
-209 60 -213 21 -3 23 -1 18 30 -2 18 -10 78 -16 133 -7 55 -19 137 -27 182
-8 48 -14 147 -14 242 0 88 -4 171 -10 185 -11 29 -37 34 -47 10z"/>
<path d="M6143 8203 c-14 -32 -31 -75 -39 -96 -7 -21 -23 -51 -34 -67 -11 -15
-35 -68 -54 -116 -19 -49 -50 -123 -69 -164 -19 -41 -45 -106 -58 -143 -20
-58 -21 -70 -9 -77 23 -14 48 17 69 86 11 34 35 93 54 130 19 38 47 103 61
144 15 41 37 90 49 110 30 47 97 208 97 232 0 11 -7 18 -21 18 -15 0 -27 -14
-46 -57z"/>
<path d="M7035 8240 c-4 -6 3 -10 14 -10 25 0 27 6 6 13 -8 4 -17 2 -20 -3z"/>
<path d="M4981 8191 c-9 -6 -12 -17 -7 -32 3 -13 11 -121 16 -239 6 -118 16
-251 23 -295 11 -68 16 -80 32 -80 26 0 31 45 16 140 -6 39 -15 162 -20 274
-8 177 -12 206 -28 222 -12 12 -23 15 -32 10z"/>
<path d="M10587 8118 c-2 -7 -3 -35 -1 -63 2 -27 9 -117 14 -200 22 -306 91
-634 137 -652 29 -11 35 13 19 68 -47 163 -57 206 -75 329 -11 74 -25 221 -31
325 -7 105 -14 193 -17 198 -7 12 -41 8 -46 -5z"/>
<path d="M9975 8099 c-4 -5 1 -19 10 -29 29 -32 124 -221 175 -345 72 -180
167 -374 185 -381 30 -12 41 13 23 49 -40 76 -122 260 -160 357 -46 117 -140
303 -171 338 -22 23 -51 29 -62 11z"/>
<path d="M4443 8044 c-8 -22 80 -199 151 -305 30 -44 72 -116 93 -159 21 -44
44 -82 51 -85 23 -9 34 6 28 39 -7 34 -90 182 -143 258 -19 25 -59 96 -89 157
-53 108 -77 132 -91 95z"/>
<path d="M7377 8049 c7 -7 15 -10 18 -7 3 3 -2 9 -12 12 -14 6 -15 5 -6 -5z"/>
<path d="M7328 7983 c7 -3 16 -2 19 1 4 3 -2 6 -13 5 -11 0 -14 -3 -6 -6z"/>
<path d="M11182 7948 c-8 -8 -12 -47 -12 -107 0 -53 -5 -125 -10 -161 -5 -36
-13 -133 -16 -217 -6 -134 -5 -155 10 -178 32 -48 41 -26 41 96 0 63 9 207 19
321 10 113 16 218 12 232 -7 28 -25 33 -44 14z"/>
<path d="M7290 7880 c0 -5 5 -10 11 -10 5 0 7 5 4 10 -3 6 -8 10 -11 10 -2 0
-4 -4 -4 -10z"/>
<path d="M6797 7822 c-12 -2 -17 -11 -15 -24 3 -17 20 -25 108 -45 103 -25
381 -107 409 -122 31 -16 56 -84 59 -161 2 -73 2 -77 -40 -142 -82 -127 -161
-243 -171 -249 -11 -8 -49 -74 -137 -239 -33 -63 -78 -146 -99 -185 -57 -103
-62 -113 -78 -190 -15 -69 -75 -203 -114 -254 -11 -14 -42 -56 -69 -92 -34
-47 -74 -84 -137 -128 -79 -55 -168 -115 -197 -132 -37 -22 -142 -67 -281
-121 -73 -28 -318 -108 -332 -108 -6 0 -47 -11 -90 -24 -43 -13 -118 -36 -168
-51 -195 -58 -302 -104 -360 -155 -22 -20 -60 -49 -84 -65 -76 -51 -263 -240
-259 -261 7 -37 35 -22 132 71 110 107 178 165 193 165 5 0 20 12 34 26 49 53
104 80 314 149 55 18 143 45 195 60 188 53 357 108 495 161 171 67 208 85 310
151 179 118 229 158 281 228 29 39 61 81 72 95 34 45 99 184 111 240 21 95 31
117 103 247 38 70 85 156 104 192 57 108 81 149 111 189 16 20 44 62 63 92 18
30 43 66 55 80 12 14 38 53 58 87 35 58 37 65 37 150 0 48 -4 104 -10 123 -14
51 -64 107 -103 116 -17 3 -79 22 -136 41 -91 30 -177 53 -311 81 -19 4 -43 6
-53 4z"/>
<path d="M11647 7768 c-20 -55 -74 -269 -82 -329 -5 -32 -3 -48 7 -57 23 -18
37 1 48 64 16 87 58 254 77 296 18 42 12 68 -15 68 -13 0 -24 -13 -35 -42z"/>
<path d="M7557 7763 c-11 -10 -8 -45 3 -38 6 4 8 11 4 16 -3 5 -2 9 3 8 4 -1
15 -1 23 0 13 1 13 2 0 11 -18 12 -24 12 -33 3z"/>
<path d="M7488 7733 c6 -2 18 -2 25 0 6 3 1 5 -13 5 -14 0 -19 -2 -12 -5z"/>
<path d="M7580 7725 c-11 -13 -10 -14 4 -9 9 3 16 10 16 15 0 13 -6 11 -20 -6z"/>
<path d="M9106 7723 c5 -5 12 -12 16 -18 4 -6 8 -2 8 8 0 9 -7 17 -17 17 -9 0
-12 -3 -7 -7z"/>
<path d="M9157 7466 c-66 -28 -134 -72 -146 -95 -11 -21 -47 -155 -56 -207 -5
-31 -2 -44 9 -54 20 -16 46 3 46 34 0 11 9 60 21 108 19 77 25 91 56 114 19
15 69 39 112 53 59 21 76 31 76 47 0 29 -49 29 -118 0z"/>
<path d="M6672 7283 c-33 -64 -46 -349 -17 -373 33 -27 42 3 43 146 1 74 6
153 12 175 8 30 8 44 -1 55 -15 19 -26 18 -37 -3z"/>
<path d="M9463 7033 c-4 -11 5 -25 28 -45 70 -60 141 -135 175 -185 43 -66 72
-71 65 -13 -5 40 -108 159 -194 224 -53 40 -65 43 -74 19z"/>
<path d="M7303 6755 c-9 -10 -10 -21 -3 -40 6 -14 10 -28 9 -31 0 -4 5 -11 13
-16 10 -8 9 -9 -4 -4 -20 6 -36 -13 -19 -23 6 -4 13 -23 14 -43 2 -19 11 -47
20 -61 9 -15 17 -33 17 -42 0 -8 4 -15 9 -15 5 0 12 -11 15 -25 4 -14 23 -51
42 -81 20 -31 46 -80 59 -108 13 -29 43 -86 68 -128 45 -76 59 -107 54 -119
-1 -4 5 -15 13 -25 17 -21 34 -53 50 -98 20 -56 100 -161 156 -206 13 -9 56
-2 50 9 -2 3 9 6 24 7 21 1 27 -3 22 -14 -3 -10 -1 -13 6 -8 7 4 12 2 12 -3 0
-6 -5 -11 -11 -11 -5 0 -7 -4 -4 -10 3 -5 13 -10 21 -10 8 0 12 4 9 10 -3 5 0
7 9 4 9 -3 24 5 38 21 l23 27 6 -24 c3 -13 2 -31 -3 -41 -5 -9 -6 -22 -3 -27
10 -16 35 -11 42 8 4 9 10 20 15 23 12 8 108 199 108 215 0 16 37 37 50 29 6
-3 10 -16 10 -27 l0 -22 20 22 c29 31 40 28 30 -8 -5 -18 -5 -28 0 -25 5 3 9
-5 8 -17 -2 -45 2 -68 12 -68 18 0 76 103 150 267 30 66 34 71 58 67 15 -3 28
-7 31 -9 2 -3 17 10 33 28 17 17 27 26 23 20 -12 -24 4 -13 62 45 70 68 86 75
71 29 -6 -17 -15 -37 -20 -44 -5 -7 -7 -17 -3 -23 3 -5 2 -10 -3 -10 -13 0
-12 -51 1 -75 6 -11 10 -23 9 -27 -1 -4 4 -5 11 -2 44 17 241 407 262 519 12
67 15 105 8 105 -11 0 -57 -50 -68 -75 -18 -42 -85 -133 -86 -117 -1 6 -3 17
-4 22 -1 6 -3 15 -4 20 -2 15 -28 12 -34 -4 -3 -8 -15 -20 -26 -26 -19 -10
-20 -9 -11 15 6 15 14 34 20 44 15 30 20 75 9 91 -8 11 -12 12 -16 3 -2 -7
-13 -13 -23 -13 -11 0 -24 -8 -29 -17 -8 -14 -10 -9 -8 22 3 63 -22 50 -73
-37 -34 -60 -46 -74 -51 -60 -4 10 -14 23 -22 31 -13 10 -19 9 -39 -11 -13
-13 -27 -23 -33 -23 -5 -1 -9 -7 -7 -14 1 -7 -2 -10 -7 -6 -6 3 -15 -4 -21
-16 -7 -11 -14 -18 -17 -15 -4 3 -21 -6 -40 -20 -18 -14 -33 -22 -33 -18 0 4
-11 -5 -24 -21 -13 -15 -28 -25 -33 -22 -5 3 -7 56 -6 117 2 73 0 109 -7 105
-5 -3 -10 -1 -10 5 0 6 -5 8 -10 5 -6 -4 -8 -11 -5 -16 4 -5 2 -9 -2 -9 -5 0
-17 -15 -28 -32 -10 -18 -22 -36 -27 -39 -16 -10 -48 -114 -53 -169 -7 -76
-29 -163 -43 -168 -7 -2 -12 5 -12 15 0 11 -4 23 -8 29 -5 5 -14 29 -21 54 -7
25 -30 70 -52 102 -28 40 -39 67 -39 92 0 40 -2 41 -32 25 -16 -9 -24 -7 -42
10 -25 24 -42 27 -50 9 -3 -7 -3 -2 0 12 5 20 4 23 -7 13 -10 -10 -10 -18 -1
-38 8 -16 9 -33 4 -42 -8 -13 -14 -9 -38 21 -31 39 -104 93 -104 76 0 -5 -9
-10 -21 -10 -13 0 -18 4 -13 13 5 9 4 9 -6 0 -11 -10 -11 -17 -1 -37 8 -14 10
-36 6 -54 -3 -18 -1 -40 5 -53 8 -14 9 -19 1 -15 -10 7 -17 -16 -11 -39 2 -5
4 -30 6 -54 l3 -45 -20 33 c-11 18 -34 63 -50 100 -51 113 -58 124 -126 211
-81 104 -148 170 -171 170 -9 -1 -23 -7 -29 -15z m595 -901 c0 -17 -4 -22 -11
-15 -5 5 -7 17 -4 25 9 23 15 19 15 -10z m23 -54 c7 -18 0 -50 -12 -50 -10 0
-11 4 -14 42 -2 28 16 34 26 8z"/>
<path d="M9101 6627 c-6 -6 -11 -18 -11 -27 0 -17 72 -145 99 -175 10 -11 35
-45 55 -75 50 -73 186 -214 239 -244 23 -14 80 -34 127 -45 290 -68 481 -118
533 -139 31 -13 99 -64 197 -147 36 -30 115 -93 177 -140 61 -47 119 -95 130
-108 10 -13 46 -45 80 -71 34 -26 73 -64 86 -84 60 -90 301 -314 331 -310 39
6 26 30 -56 105 -111 103 -193 189 -231 241 -18 24 -61 67 -97 95 -36 28 -67
54 -68 59 -4 8 -161 135 -212 171 -14 9 -56 44 -95 77 -147 127 -243 189 -290
190 -11 0 -40 7 -65 15 -61 20 -189 52 -280 71 -107 21 -189 45 -234 67 -48
23 -173 151 -234 239 -98 141 -113 164 -130 200 -19 42 -34 52 -51 35z"/>
</g>
</svg>
