<?xml version="1.0" standalone="no"?>
<!DOCTYPE svg PUBLIC "-//W3C//DTD SVG 20010904//EN"
 "http://www.w3.org/TR/2001/REC-SVG-20010904/DTD/svg10.dtd">
<svg version="1.0" xmlns="http://www.w3.org/2000/svg"
 width="1000.000000pt" height="1000.000000pt" viewBox="0 0 1000.000000 1000.000000"
 preserveAspectRatio="xMidYMid meet">

<g transform="translate(0.000000,1000.000000) scale(0.100000,-0.100000)"
fill="#000000" stroke="none">
<path d="M0 5000 l0 -5000 5000 0 5000 0 0 5000 0 5000 -5000 0 -5000 0 0
-5000z m5785 2330 c-5 -15 -3 -18 9 -14 9 3 16 1 16 -6 0 -6 5 -8 10 -5 6 3
10 -1 10 -11 0 -15 2 -15 26 1 15 9 24 13 21 8 -4 -6 4 -21 16 -34 12 -13 22
-30 22 -39 0 -8 5 -14 12 -13 7 2 10 -4 7 -12 -4 -10 0 -15 14 -15 12 0 24 -4
27 -10 3 -5 19 -10 36 -10 19 0 29 -5 29 -15 0 -37 63 -16 66 23 1 6 2 19 3
28 0 10 7 14 15 11 8 -3 17 -1 19 6 3 9 8 9 17 1 6 -7 20 -9 31 -7 15 4 17 9
8 25 -12 22 -3 40 10 20 9 -15 87 -10 104 7 7 7 14 7 24 0 9 -9 17 -8 28 1 9
7 18 10 21 7 4 -3 13 0 20 8 16 16 90 13 107 -4 6 -6 21 -11 33 -11 13 0 26
-5 29 -10 3 -6 17 -7 31 -4 20 5 23 3 18 -12 -4 -11 -4 -16 1 -12 4 4 16 3 25
-2 15 -8 17 -6 13 10 -7 26 14 26 22 0 7 -21 25 -28 25 -9 0 7 10 9 28 5 20
-5 23 -4 12 4 -13 8 -12 10 4 10 12 0 16 5 12 15 -7 18 20 21 27 3 4 -8 8 -5
12 9 8 24 38 40 43 24 2 -6 15 -11 28 -11 21 0 23 3 14 19 -13 25 8 41 24 18
9 -12 16 -13 31 -4 19 10 19 9 5 -8 -14 -17 -13 -18 5 -11 11 5 27 8 35 9 8 0
21 4 28 10 10 8 16 7 21 -2 6 -10 10 -9 14 3 4 9 16 16 28 16 15 0 19 -5 15
-15 -4 -13 -2 -14 14 -5 16 8 20 8 20 -4 0 -10 6 -13 15 -10 8 4 22 1 29 -5
11 -10 17 -8 25 6 9 15 12 16 20 3 6 -9 6 -17 0 -20 -5 -4 8 -16 29 -28 22
-12 42 -19 46 -15 3 3 6 1 6 -5 0 -6 7 -9 15 -6 18 7 21 -36 5 -67 -9 -15 -7
-19 6 -19 11 0 14 -5 10 -16 -4 -12 -1 -14 14 -9 12 4 26 -1 39 -14 22 -22 28
-51 11 -51 -5 0 -10 -4 -10 -10 0 -5 7 -7 16 -3 15 5 15 3 -1 -20 -9 -15 -21
-24 -26 -21 -5 3 -9 1 -9 -5 0 -5 12 -11 28 -13 21 -2 27 -8 28 -29 1 -14 4
-31 8 -37 3 -6 0 -13 -6 -15 -7 -3 1 -11 20 -18 34 -14 44 -30 13 -22 -16 4
-19 0 -18 -24 1 -15 5 -30 9 -33 4 -3 3 -12 -3 -20 -8 -13 -10 -13 -18 0 -5 8
-7 18 -4 24 3 5 1 6 -5 3 -5 -4 -21 5 -34 20 -81 96 -286 215 -437 255 -69 18
-95 19 -284 13 -239 -7 -307 -18 -507 -81 -167 -53 -223 -79 -265 -124 -27
-28 -30 -38 -29 -94 l1 -63 -45 3 c-24 2 -58 8 -76 13 -17 6 -49 12 -71 15
-145 18 -138 18 -131 0 6 -15 4 -15 -16 -2 -13 8 -51 16 -85 17 -55 2 -66 -1
-87 -22 -14 -14 -27 -22 -30 -19 -3 3 -6 -2 -6 -11 0 -10 -4 -17 -10 -17 -5 0
-6 7 -3 17 4 11 3 14 -5 9 -7 -4 -12 -24 -12 -44 l1 -37 18 23 c12 13 25 20
35 16 9 -3 16 -2 16 4 0 6 9 8 20 5 11 -3 20 -1 20 4 0 6 36 8 85 6 63 -2 85
0 85 9 0 8 3 9 8 3 4 -5 16 -11 27 -11 17 -1 43 -5 125 -18 8 -2 33 -8 55 -13
101 -27 97 -28 91 9 l-6 33 15 -30 c8 -16 14 -35 15 -42 0 -19 75 -77 122 -94
24 -9 70 -22 103 -30 62 -14 77 -31 100 -106 6 -21 3 -23 -32 -23 -34 -1 -161
-27 -139 -29 4 -1 -2 -10 -15 -21 -13 -10 -20 -19 -16 -20 5 0 2 -7 -6 -15
-25 -24 -31 -130 -12 -210 15 -67 58 -148 100 -191 11 -11 26 -29 33 -40 7
-10 9 -12 5 -4 -6 13 -4 13 10 1 9 -7 17 -10 17 -5 0 4 5 3 12 -4 16 -16 31
-15 22 1 -6 9 -4 9 8 -1 11 -9 18 -10 23 -2 3 5 1 10 -6 10 -7 0 -9 3 -5 7 4
5 14 -1 22 -11 15 -22 16 -21 18 39 0 11 7 23 16 27 34 15 40 9 40 -42 0 -61
24 -90 74 -90 27 0 35 5 40 23 6 25 41 67 56 67 16 0 44 -51 46 -82 2 -32 29
-68 51 -68 7 0 13 -3 13 -7 0 -5 11 -21 24 -37 l23 -30 50 37 c53 38 95 46
172 31 31 -6 31 -7 31 -67 0 -75 22 -113 90 -157 l50 -32 113 5 c61 3 121 7
131 9 21 3 52 -40 60 -83 2 -13 10 -23 17 -21 9 2 9 -1 -2 -14 -8 -10 -9 -15
-3 -11 7 4 14 1 17 -6 3 -8 -12 -25 -36 -40 -37 -25 -39 -27 -17 -28 16 -1 19
-3 9 -6 -10 -2 -20 -12 -23 -21 -14 -39 -37 -67 -51 -64 -8 2 -16 -1 -16 -5
-1 -4 -3 -17 -4 -28 -2 -11 -4 -24 -6 -30 -7 -19 35 -50 64 -47 28 3 28 3 13
-26 -8 -16 -12 -33 -8 -37 4 -5 2 -5 -4 -2 -11 6 -54 -43 -54 -62 0 -6 -9 -15
-20 -21 -11 -6 -17 -16 -14 -22 4 -6 3 -8 -3 -5 -6 4 -19 -5 -28 -19 -12 -18
-13 -24 -4 -19 8 4 3 -3 -11 -16 -14 -13 -20 -20 -13 -15 8 5 13 4 13 -3 0 -6
-11 -13 -25 -17 -14 -3 -25 -12 -25 -19 0 -6 -9 -20 -20 -30 -10 -9 -18 -22
-17 -29 1 -6 -4 -10 -10 -8 -7 1 -13 -7 -13 -17 0 -11 -5 -23 -12 -27 -7 -5
-8 -2 -3 7 5 8 -7 -2 -26 -21 -20 -19 -34 -38 -31 -42 2 -5 -4 -8 -12 -8 -9 0
-16 -6 -16 -13 0 -7 -14 -18 -31 -24 -17 -7 -28 -16 -25 -22 4 -5 2 -12 -4
-16 -6 -4 -7 -12 -3 -18 3 -7 -4 -3 -17 8 -13 11 -20 14 -16 8 4 -8 1 -13 -8
-13 -9 0 -15 -3 -15 -7 3 -21 -2 -26 -12 -13 -9 13 -10 13 -6 0 2 -8 11 -14
19 -14 8 1 15 -5 15 -12 0 -10 -5 -10 -20 -2 -14 7 -22 7 -27 -2 -4 -7 -14 -9
-21 -6 -8 4 -3 -2 10 -13 13 -12 18 -21 13 -21 -6 0 -14 5 -17 10 -11 17 -23
11 -42 -20 -9 -16 -24 -30 -33 -30 -13 0 -13 1 0 10 9 6 10 10 3 10 -6 0 -19
-9 -27 -21 -9 -13 -19 -18 -27 -13 -9 5 -10 2 -6 -10 6 -14 3 -17 -8 -12 -9 3
-18 -1 -21 -9 -4 -8 -12 -15 -19 -15 -7 0 -15 -5 -17 -11 -5 -16 -79 -40 -105
-34 -13 3 -23 2 -23 -3 0 -5 -7 -9 -15 -9 -8 0 -15 5 -15 10 0 5 -11 6 -24 3
-14 -3 -37 -1 -51 6 -22 10 -28 9 -36 -3 -5 -8 -9 -9 -9 -3 0 6 -15 9 -35 8
-21 -2 -33 1 -30 6 4 6 1 10 -4 10 -6 0 -11 -6 -11 -12 0 -9 -4 -8 -10 2 -6
10 -10 11 -10 3 0 -7 -7 -13 -16 -13 -9 0 -12 5 -8 11 5 8 -3 10 -25 7 -18 -3
-34 -1 -37 4 -7 12 -24 10 -24 -3 0 -5 5 -7 12 -3 7 5 8 3 3 -5 -5 -9 -13 -7
-31 10 -16 15 -31 20 -48 17 -15 -3 -26 -2 -26 2 0 11 -79 32 -92 24 -7 -4 -8
-3 -4 4 7 12 6 13 -33 17 -13 1 -27 8 -31 15 -13 21 -75 38 -95 27 -13 -7 -16
-6 -11 2 4 7 -1 11 -13 11 -11 0 -23 5 -27 12 -5 7 -3 8 7 3 12 -8 12 -6 0 8
-15 18 -26 23 -16 7 3 -5 -2 -10 -11 -10 -10 0 -15 3 -11 6 10 10 -17 32 -32
26 -10 -4 -12 -1 -6 7 6 10 2 11 -16 6 -16 -4 -19 -3 -11 3 10 7 9 12 -4 23
-12 9 -15 10 -10 2 14 -24 -6 -13 -37 20 -17 17 -27 25 -22 17 16 -30 -67 56
-88 90 -11 19 -25 38 -30 41 -5 3 -9 10 -10 15 -1 5 -6 8 -10 6 -5 -1 -6 2 -3
7 4 5 2 12 -4 16 -6 4 -8 11 -5 16 4 5 -1 12 -9 15 -9 3 -13 10 -11 15 3 4 -3
17 -15 29 -11 11 -20 24 -20 29 0 5 -9 13 -20 16 -11 4 -18 11 -14 16 3 6 -3
13 -15 16 -12 3 -21 10 -21 15 0 6 -7 8 -14 5 -10 -4 -13 -1 -9 8 3 8 8 13 12
10 4 -2 8 2 8 10 0 11 -5 12 -20 3 -14 -7 -17 -7 -13 1 4 6 1 11 -6 12 -7 0
-4 4 7 9 18 8 18 9 2 9 -10 1 -16 5 -12 10 6 10 -32 26 -52 23 -7 -2 -13 5
-13 15 -1 14 -4 13 -14 -7 -8 -14 -11 -31 -6 -40 4 -8 5 -20 3 -27 -2 -6 5
-18 16 -25 12 -8 18 -18 14 -22 -4 -3 2 -13 13 -21 10 -8 15 -15 10 -15 -5 0
-2 -8 5 -17 12 -14 12 -16 -1 -9 -12 6 -12 5 1 -6 18 -15 32 -48 20 -48 -16 0
-107 53 -158 92 -39 30 -54 48 -59 74 -3 19 -9 34 -13 34 -4 0 -8 6 -8 13 0 6
-8 30 -17 52 -9 22 -17 41 -16 43 2 9 -27 29 -38 25 -7 -3 -12 -2 -10 3 1 5
-6 24 -15 42 -10 18 -15 37 -12 42 3 6 2 10 -3 10 -6 0 -15 22 -22 50 -7 27
-16 47 -21 44 -5 -3 -6 2 -3 10 3 9 1 16 -5 16 -6 0 -8 7 -5 15 4 8 3 23 -1
33 -5 9 -7 24 -6 33 1 13 -11 74 -23 114 -2 6 -7 24 -11 40 -4 17 -12 32 -16
35 -14 10 -22 64 -26 188 -5 140 13 259 51 326 12 23 26 55 30 71 4 17 18 44
32 62 13 17 24 37 24 43 0 43 132 231 157 223 6 -2 14 1 18 7 10 16 -3 62 -15
55 -6 -3 -10 -2 -10 4 0 17 -29 6 -58 -22 -16 -15 -32 -24 -37 -20 -4 5 -5 3
-2 -3 4 -7 0 -17 -8 -24 -8 -7 -15 -16 -15 -21 0 -5 -20 -35 -44 -66 -49 -66
-151 -255 -161 -302 -3 -17 -11 -33 -16 -36 -5 -4 -9 -24 -9 -46 0 -21 -4 -39
-10 -39 -5 0 -10 -9 -10 -20 0 -11 -5 -20 -11 -20 -6 0 -3 -7 5 -16 19 -18 21
-28 4 -18 -8 5 -9 2 -5 -9 3 -9 2 -19 -3 -22 -5 -3 -5 -18 0 -34 4 -15 4 -34
0 -42 -5 -7 -6 -17 -3 -22 3 -4 4 -32 3 -60 -2 -68 -1 -97 2 -126 3 -24 1 -25
-80 -27 -114 -3 -117 -14 -4 -14 51 0 92 -4 92 -9 0 -5 7 -17 16 -25 12 -12
12 -16 2 -16 -8 -1 -6 -6 6 -15 14 -11 19 -27 19 -55 0 -22 4 -40 9 -40 6 0 8
-9 5 -20 -3 -11 0 -20 6 -21 8 0 8 -2 0 -6 -13 -5 -11 -8 25 -48 7 -8 10 -20
6 -26 -4 -7 -3 -9 3 -6 7 4 14 -8 18 -31 4 -20 14 -45 22 -54 9 -10 13 -18 8
-18 -4 0 -2 -7 5 -15 7 -9 11 -18 8 -21 -3 -3 -78 -5 -167 -5 -88 0 -163 -4
-166 -9 -3 -5 69 -8 167 -7 154 3 174 1 190 -15 10 -10 18 -26 18 -37 0 -10
11 -35 25 -55 14 -20 25 -39 25 -42 0 -2 19 -32 42 -66 23 -34 43 -68 44 -75
3 -21 25 -44 35 -37 5 3 6 -2 3 -10 -3 -9 -2 -16 4 -16 6 0 24 -11 40 -25 16
-13 32 -22 36 -18 3 3 6 -1 6 -9 0 -16 -14 -18 -35 -7 -5 3 -48 7 -95 8 -47 1
-107 3 -133 4 -27 1 -51 -1 -53 -5 -3 -5 25 -9 63 -10 37 -1 95 -3 128 -5 33
-2 84 -5 113 -6 31 -2 57 -9 62 -16 4 -8 13 -10 19 -7 6 4 11 3 11 -2 0 -5 11
-7 24 -5 13 3 23 11 22 20 0 9 7 17 17 18 9 2 17 -1 17 -5 0 -5 9 -12 20 -15
15 -5 19 -12 15 -26 -4 -12 -2 -19 7 -19 7 0 18 -10 23 -22 6 -13 16 -22 23
-21 6 2 9 -3 7 -10 -3 -6 9 -27 25 -46 17 -18 30 -37 30 -41 0 -4 7 -11 16
-14 8 -3 12 -2 9 3 -3 5 -1 13 5 16 6 4 10 3 9 -2 -3 -20 2 -34 11 -28 6 3 10
-1 10 -10 0 -9 4 -14 9 -10 5 3 12 1 16 -5 3 -6 17 -8 30 -6 14 3 24 2 24 -2
-3 -18 2 -35 8 -29 3 4 15 -1 26 -10 11 -10 17 -12 13 -5 -4 6 -2 12 3 12 6 0
11 -4 11 -10 0 -11 42 -40 62 -44 7 -1 22 -7 33 -13 11 -6 34 -13 50 -16 37
-6 114 -34 129 -46 20 -17 137 -52 148 -45 7 4 8 3 4 -4 -5 -8 2 -12 21 -12
16 0 35 -6 41 -12 10 -10 14 -10 21 0 6 10 15 9 41 -4 20 -10 56 -17 93 -16
39 0 55 -3 46 -9 -12 -7 -11 -9 2 -9 9 0 19 7 23 15 3 8 11 15 18 14 10 0 10
-2 1 -6 -18 -7 -16 -23 2 -23 8 0 15 6 15 13 0 9 2 9 8 0 6 -9 34 -12 93 -10
87 3 114 10 103 29 -5 7 -2 8 7 2 21 -13 40 -14 32 -2 -4 7 1 9 15 6 16 -4 19
-2 15 10 -4 10 -2 13 5 8 6 -3 13 -2 17 3 3 6 13 7 23 4 16 -6 16 -6 0 11 -21
20 -24 34 -5 18 14 -12 35 -11 57 3 8 5 20 10 25 10 6 1 9 5 9 10 -1 6 7 19
18 30 19 20 19 20 13 0 -6 -20 -6 -20 6 0 19 30 33 42 59 50 23 7 23 8 4 23
-14 11 -15 13 -2 9 9 -3 19 0 22 9 3 8 15 14 26 14 12 0 18 5 15 10 -3 6 -2
10 4 10 16 0 78 65 73 78 -1 5 6 13 18 17 11 3 18 11 15 16 -4 5 -2 9 4 9 6 0
8 6 5 13 -2 7 9 25 26 40 16 15 30 31 30 37 0 5 7 7 15 3 9 -3 15 -2 14 3 -1
5 -1 16 0 24 1 12 3 13 10 1 7 -11 10 -9 16 8 3 11 11 21 16 21 5 0 9 8 9 18
0 9 10 22 23 27 12 6 22 19 22 30 1 11 7 19 14 17 8 -2 11 3 8 11 -3 7 6 23
19 36 13 13 21 27 18 32 -3 5 2 12 10 15 9 3 16 11 16 18 0 6 9 19 20 29 11 9
20 24 20 32 0 8 6 14 13 13 6 -2 11 3 9 10 -2 10 2 10 17 2 11 -5 21 -22 23
-37 2 -21 9 -29 27 -31 16 -3 20 -6 12 -11 -10 -6 -9 -11 2 -23 10 -9 12 -20
7 -29 -5 -7 -5 -18 1 -25 5 -7 8 -25 6 -41 -3 -26 -7 -28 -63 -34 -32 -3 -47
-7 -31 -9 15 -1 32 -4 37 -5 6 -1 24 -3 40 -4 19 -1 30 -6 30 -16 0 -8 7 -15
15 -15 17 0 21 -45 5 -55 -5 -3 -10 0 -10 7 0 10 -3 9 -10 -2 -5 -8 -5 -19 -1
-25 14 -17 19 -75 7 -75 -6 0 -4 -5 4 -10 13 -8 11 -11 -8 -16 -13 -4 -21 -13
-20 -23 2 -9 -3 -15 -10 -13 -9 1 -10 -3 -5 -15 5 -10 8 -27 7 -38 0 -11 -2
-30 -3 -42 -1 -16 -7 -23 -21 -23 -11 0 -19 -3 -18 -7 2 -5 -1 -8 -6 -8 -5 0
-13 -10 -17 -23 -6 -15 -13 -21 -21 -16 -9 6 -9 3 1 -9 12 -15 11 -17 -7 -17
-12 0 -24 -5 -28 -12 -4 -6 -3 -8 2 -5 6 3 16 1 24 -4 13 -7 13 -10 1 -18 -9
-6 -10 -11 -2 -15 13 -8 5 -26 -10 -26 -6 0 -7 4 -4 10 3 6 -1 7 -9 4 -9 -3
-16 -12 -16 -20 0 -8 -7 -14 -15 -14 -7 0 -18 -7 -22 -15 -11 -18 -59 -24
-212 -25 -67 -1 -120 -4 -116 -8 4 -4 79 -7 168 -7 152 0 162 -1 159 -18 -3
-15 1 -17 20 -12 18 6 21 5 11 -5 -10 -10 -8 -19 7 -40 11 -15 17 -29 15 -32
-3 -3 6 -11 20 -18 14 -7 25 -21 25 -30 0 -9 10 -27 22 -40 14 -15 21 -34 20
-51 -2 -17 2 -29 13 -33 11 -4 15 -12 11 -22 -4 -12 -2 -15 9 -10 12 4 13 2 5
-13 -5 -11 -6 -21 -1 -23 4 -2 12 -14 16 -27 5 -16 4 -21 -4 -17 -6 4 -11 0
-11 -9 0 -9 4 -14 8 -11 5 3 9 -2 9 -10 0 -25 -32 -30 -177 -33 -225 -5 -280
-8 -287 -15 -4 -4 100 -4 230 -1 210 5 237 4 237 -9 0 -9 -4 -16 -8 -16 -5 0
-9 -7 -9 -15 0 -8 6 -15 13 -15 17 0 11 -49 -7 -61 -11 -7 -9 -13 11 -30 22
-18 23 -20 5 -16 -15 3 -21 -1 -21 -13 0 -9 7 -17 15 -16 7 1 16 -5 18 -11 3
-8 -3 -13 -14 -13 -11 0 -20 -7 -20 -15 0 -8 7 -15 14 -15 8 0 11 5 8 10 -3 6
1 10 9 10 13 0 14 -3 4 -19 -7 -11 -18 -17 -27 -13 -11 4 -13 1 -8 -12 4 -10
1 -24 -9 -33 -14 -15 -14 -17 0 -25 9 -5 21 -6 26 -3 6 3 7 -1 4 -9 -3 -9 -1
-16 5 -16 6 0 11 -16 11 -35 l0 -35 -46 5 c-31 4 -44 2 -39 -5 3 -5 17 -10 30
-10 55 0 55 -1 55 -156 l0 -144 -77 -1 c-43 -1 -109 0 -146 0 -42 1 -66 -2
-62 -8 3 -6 58 -9 133 -7 70 1 133 0 140 -2 7 -3 12 -23 12 -56 0 -29 -6 -58
-12 -65 -9 -10 -9 -12 -1 -7 16 9 10 -41 -7 -57 -10 -9 -11 -9 -6 1 4 6 4 12
-1 12 -14 -1 -43 -69 -36 -87 4 -11 3 -14 -5 -9 -8 4 -10 2 -6 -7 3 -8 0 -18
-7 -22 -6 -5 -127 -9 -267 -11 -140 -2 -257 -5 -260 -8 -2 -3 100 -5 228 -5
144 0 237 -4 244 -11 7 -5 16 -7 19 -3 4 3 7 -3 7 -15 0 -12 5 -22 12 -22 6 0
8 -3 5 -7 -4 -3 -15 2 -26 11 -18 17 -20 17 -30 -1 -7 -13 -10 -14 -11 -4 0
11 -4 10 -16 -5 -8 -10 -12 -12 -8 -4 5 10 0 8 -15 -4 -16 -15 -18 -22 -9 -28
10 -6 10 -10 -2 -17 -9 -6 -19 -6 -27 1 -9 7 -14 6 -19 -6 -3 -9 -12 -16 -20
-16 -8 0 -14 -4 -14 -8 0 -17 -41 -51 -55 -46 -8 4 -15 1 -15 -5 0 -6 5 -11
12 -11 6 0 4 -6 -7 -13 -10 -8 -15 -19 -11 -25 5 -9 0 -9 -19 -2 -18 7 -33 7
-46 0 -11 -6 -23 -9 -27 -6 -4 3 -14 1 -22 -5 -12 -7 -12 -9 3 -9 10 0 16 -4
13 -9 -3 -5 -23 -3 -43 4 -22 8 -42 10 -48 5 -23 -19 -133 -28 -157 -14 -4 3
-6 9 -3 14 8 14 -16 23 -28 11 -14 -14 -18 -41 -6 -41 6 0 7 -4 4 -10 -3 -5
-1 -10 4 -10 6 0 11 -4 11 -10 0 -13 -21 -13 -40 0 -13 9 -13 11 0 19 12 9 12
11 -2 16 -9 4 -14 13 -11 21 3 8 9 12 13 9 5 -3 11 -2 14 3 2 4 -4 13 -14 20
-11 7 -21 8 -25 2 -3 -5 -13 -6 -22 -3 -9 3 -21 0 -27 -8 -6 -9 -20 -19 -31
-23 -11 -4 -16 -4 -12 0 10 11 -33 54 -54 54 -12 0 -16 6 -12 19 4 16 1 19
-16 14 -12 -3 -24 -9 -27 -14 -7 -13 -34 -11 -34 2 0 5 5 7 10 4 6 -3 10 -3
10 2 0 18 -16 31 -40 34 -17 3 -25 10 -24 22 1 10 -5 17 -17 17 -10 0 -19 -7
-19 -15 0 -9 -9 -15 -24 -15 -14 0 -32 -7 -40 -15 -9 -9 -24 -15 -33 -13 -13
2 -17 -2 -15 -15 3 -15 0 -17 -15 -9 -14 8 -25 5 -50 -14 -20 -15 -47 -25 -72
-26 -23 -1 -49 -9 -58 -18 -11 -9 -28 -14 -45 -12 -19 3 -28 0 -28 -9 0 -11
-2 -11 -9 -1 -6 11 -10 11 -19 0 -5 -7 -10 -17 -10 -23 0 -5 -5 -11 -11 -13
-6 -2 -11 3 -11 11 0 8 -7 18 -16 21 -12 4 -15 2 -11 -9 4 -8 2 -17 -3 -20 -6
-4 -10 4 -10 16 0 18 -2 19 -15 9 -12 -10 -15 -10 -15 0 0 8 -8 10 -22 7 -11
-3 -36 0 -55 8 -25 10 -33 11 -33 2 -1 -7 -7 -1 -14 12 -9 16 -16 20 -20 12
-4 -6 -12 -9 -17 -6 -13 9 -11 -9 4 -24 10 -10 7 -12 -13 -9 -20 2 -26 9 -28
36 -2 17 -7 32 -11 32 -4 0 -13 11 -19 25 -13 28 -32 34 -32 10 0 -8 -2 -15
-4 -15 -2 0 -11 -3 -20 -6 -12 -4 -16 0 -16 15 0 24 -28 29 -36 6 -4 -8 -10
-12 -15 -9 -12 7 -41 -15 -34 -27 3 -4 -9 -13 -27 -18 -18 -5 -25 -10 -14 -10
31 -2 -2 -31 -35 -31 -15 0 -34 -6 -41 -14 -8 -7 -28 -12 -46 -10 -18 2 -32
-1 -32 -6 0 -7 -7 -7 -21 0 -15 8 -24 8 -34 0 -8 -7 -20 -10 -27 -8 -7 3 -18
-2 -24 -10 -8 -10 -27 -15 -58 -15 -25 1 -43 -3 -40 -8 8 -14 -21 -40 -33 -28
-6 6 -16 2 -28 -11 -18 -20 -52 -29 -40 -10 3 6 -1 10 -9 10 -9 0 -16 -5 -16
-11 0 -5 -5 -7 -11 -4 -6 4 -17 -1 -24 -11 -13 -17 -14 -17 -15 -2 0 9 -5 20
-12 24 -8 5 -9 2 -4 -11 7 -18 6 -18 -14 0 -15 13 -20 15 -18 5 2 -9 -8 -15
-29 -17 -18 -1 -33 2 -33 7 0 6 -5 10 -11 10 -5 0 -8 -4 -4 -9 3 -5 -21 -10
-55 -10 -33 0 -62 5 -66 11 -4 7 -9 5 -15 -3 -7 -11 -9 -10 -9 4 0 9 -3 17 -7
18 -5 0 -16 2 -25 4 -10 2 -18 -2 -18 -8 0 -7 -5 -4 -11 6 -6 9 -14 15 -19 12
-5 -3 -12 5 -16 17 -8 25 -42 57 -62 58 -7 0 -11 4 -8 9 3 5 -3 11 -14 14 -11
3 -20 13 -20 22 0 9 -4 14 -9 10 -5 -3 -12 -1 -16 5 -4 6 -10 8 -15 5 -4 -3
-6 4 -3 15 3 11 0 20 -6 20 -6 0 -11 -4 -11 -10 0 -5 -6 -9 -12 -7 -7 1 -12
-4 -11 -10 2 -7 -4 -13 -12 -13 -8 0 -15 7 -15 15 0 8 5 15 11 15 8 0 8 5 -1
15 -7 8 -10 15 -7 15 3 0 0 12 -8 27 -15 28 -11 48 7 37 7 -4 8 -2 4 5 -4 6
-15 9 -25 6 -14 -4 -17 2 -16 39 0 24 3 47 6 50 3 4 52 8 108 10 136 5 140 14
7 12 -59 0 -106 3 -106 7 0 5 -5 5 -10 2 -6 -4 -8 -11 -5 -16 4 -5 2 -9 -3 -9
-14 0 -9 49 6 55 18 7 15 55 -3 55 -18 0 -19 17 -2 53 6 15 18 25 25 22 7 -2
12 4 12 16 0 11 4 18 8 15 5 -3 9 1 9 9 0 8 -4 15 -9 15 -4 0 1 9 12 20 11 11
20 26 20 34 0 27 30 39 98 38 75 -1 289 -11 340 -16 17 -2 32 0 32 4 0 9 -113
22 -175 20 -71 -2 -257 9 -263 15 -4 3 0 10 8 16 13 8 13 10 0 18 -8 5 -17 8
-20 6 -3 -2 -6 5 -6 15 0 10 4 16 8 14 4 -3 8 0 8 5 0 6 -9 11 -20 11 -11 0
-20 5 -20 10 0 9 14 14 32 12 3 -1 9 6 12 15 5 11 2 14 -12 11 -28 -8 -47 19
-33 48 6 13 8 37 5 54 l-6 30 108 1 c274 1 434 5 440 11 3 4 -122 7 -280 6
-228 0 -288 2 -298 13 -17 19 -23 69 -7 69 9 0 9 3 -1 15 -6 8 -9 19 -5 26 4
6 2 15 -5 19 -10 6 -9 14 3 39 11 22 12 31 4 31 -7 0 -4 7 5 14 10 7 15 16 12
19 -11 11 -13 57 -2 57 6 0 7 7 4 16 -4 11 -2 15 8 11 21 -8 28 21 8 33 -15 9
-15 10 3 8 11 -2 23 -7 27 -13 5 -6 8 -4 8 6 0 33 26 69 58 80 18 6 66 11 107
11 41 1 75 5 75 10 0 5 -10 9 -22 8 -13 -1 -57 -2 -98 -1 -59 1 -71 4 -56 12
15 9 16 13 5 20 -8 4 -16 3 -20 -3 -4 -7 -9 -7 -13 1 -4 6 -2 11 3 11 6 0 11
6 11 14 0 9 -7 12 -19 9 -10 -3 -22 0 -25 6 -4 6 -2 11 3 11 6 0 11 4 11 9 0
5 -10 7 -22 3 -18 -4 -20 -2 -15 17 5 19 2 22 -14 18 -22 -6 -39 23 -33 55 1
10 -6 20 -18 24 -14 4 -17 9 -9 17 13 13 15 30 2 23 -5 -3 -11 1 -15 9 -3 8 0
15 7 16 9 0 9 2 -1 6 -7 2 -17 14 -23 25 -6 12 -7 18 -1 14 6 -3 9 12 8 38 -1
24 2 42 6 40 5 -3 8 4 8 15 0 11 -9 22 -20 26 -38 12 -20 22 43 25 103 5 350
1 385 -5 17 -3 32 -2 32 3 0 17 -73 22 -264 19 -154 -2 -186 0 -186 11 0 12
-3 12 -15 2 -13 -10 -15 -9 -15 8 0 16 4 20 16 15 13 -5 15 -2 10 15 -6 17 -3
20 16 15 20 -4 21 -3 6 7 -17 10 -17 12 0 38 9 14 11 23 5 19 -8 -5 -13 -3
-13 7 0 9 6 16 14 16 8 0 12 9 11 24 -2 15 9 37 31 61 18 21 31 42 27 48 -3 6
-1 7 5 3 18 -11 21 7 6 39 -8 17 -12 22 -9 12 4 -14 1 -16 -13 -8 -10 5 -18
19 -19 30 -2 23 12 29 20 9 4 -10 6 -10 6 -1 1 7 -8 17 -19 23 -11 6 -20 15
-20 21 0 6 -7 17 -15 25 -11 12 -19 12 -35 4 -15 -8 -20 -8 -20 3 0 13 11 17
53 18 15 0 16 3 7 15 -11 12 -4 14 46 14 33 0 66 5 74 11 11 8 0 9 -40 6 -67
-5 -79 -1 -90 29 -10 25 -30 33 -30 12 0 -9 -4 -8 -10 2 -13 21 -13 80 1 80 6
0 8 7 5 16 -4 9 1 27 9 41 10 15 11 22 4 21 -7 -2 -12 11 -13 34 -1 20 -5 40
-9 44 -4 4 -7 12 -7 17 0 6 3 8 6 4 3 -3 12 0 19 6 10 9 10 16 0 32 -6 11 -11
26 -10 33 2 6 3 17 4 23 1 8 6 8 16 -1 14 -12 20 -7 16 14 -1 5 5 6 13 3 9 -4
18 -2 21 4 4 5 12 7 18 3 7 -3 5 1 -4 8 -12 9 -14 20 -8 36 6 15 5 22 -4 22
-7 0 -3 6 8 12 24 14 35 29 29 40 -8 12 6 49 16 43 10 -6 -8 54 -21 71 -5 6
-7 13 -4 16 3 3 -1 11 -10 18 -8 7 -15 21 -15 31 0 11 -4 19 -10 19 -5 0 -10
7 -10 15 0 9 -11 21 -25 27 -21 9 -23 14 -12 26 9 12 9 16 0 19 -20 7 -15 23
7 23 11 0 20 5 20 10 0 6 -11 10 -24 10 -23 0 -39 27 -41 68 0 7 -6 16 -12 20
-12 7 -21 45 -27 109 -2 17 -6 35 -9 40 -3 5 -2 15 3 23 5 9 4 20 -3 29 -10
12 -8 14 9 9 19 -5 21 -1 21 27 -1 22 7 40 26 59 14 14 25 32 23 39 -1 6 -1 9
1 5 9 -15 22 -8 16 8 -6 15 8 16 153 11 104 -5 154 -3 144 3 -8 5 -35 10 -60
9 -25 0 -88 1 -140 3 l-96 2 4 29 c4 27 3 28 -17 18 -17 -9 -21 -9 -19 1 3 12
36 32 50 30 8 -2 5 19 -5 36 -5 6 -5 17 -2 23 4 6 -1 5 -13 -2 -27 -17 -59 -5
-42 16 10 12 9 15 -4 15 -14 0 -16 20 -16 168 0 92 -6 206 -12 252 -7 47 -13
132 -13 189 0 75 4 106 13 109 6 2 12 8 12 13 0 6 -4 7 -10 4 -5 -3 -10 3 -10
13 0 23 25 47 39 38 5 -4 7 3 4 15 -5 18 -3 20 17 14 19 -6 22 -4 17 9 -4 10
-3 15 3 11 6 -3 10 -1 10 5 0 15 42 104 53 111 5 3 9 10 9 15 0 15 17 41 18
26 0 -8 5 -9 18 -3 9 5 32 16 50 23 17 7 32 17 32 21 0 5 4 6 8 3 5 -3 20 1
35 9 18 9 29 10 33 3 4 -7 10 -5 15 5 11 18 50 17 73 -3 13 -10 16 -10 16 4 0
10 9 16 25 16 13 0 29 8 34 18 9 15 10 15 11 -5 0 -17 4 -21 17 -16 10 4 14 2
10 -4 -4 -5 5 -15 18 -21 19 -9 25 -9 25 0 0 6 8 3 19 -6 18 -16 21 -16 44 -2
22 15 26 15 37 1 10 -12 10 -15 0 -15 -9 0 -8 -5 3 -18 10 -10 17 -24 17 -31
0 -8 8 -11 20 -8 10 3 21 0 22 -5 2 -6 16 -12 31 -13 15 -2 25 1 21 6 -8 13 8
11 46 -5 33 -13 74 -11 65 4 -3 5 -1 11 5 15 5 3 10 -1 10 -9 0 -10 6 -13 15
-9 9 3 13 8 10 11 -3 4 9 11 27 18 22 7 34 18 36 32 2 12 8 22 14 22 6 0 7 -8
3 -17 -5 -15 -4 -16 6 -5 7 6 21 12 32 12 10 0 16 4 13 9 -4 5 3 7 14 4 11 -3
20 -1 20 3 0 5 15 8 32 8 35 -2 90 24 82 38 -3 4 2 8 10 8 23 0 31 -4 29 -12
-2 -5 2 -8 7 -8 6 0 10 6 10 14 0 8 14 15 35 18 20 2 35 0 35 -7 0 -5 4 -4 9
4 6 10 13 11 29 2 31 -17 109 -14 116 4 3 8 15 15 26 15 17 0 20 -4 15 -20z
m-455 -24 c0 -3 -4 -8 -10 -11 -5 -3 -10 -1 -10 4 0 6 5 11 10 11 6 0 10 -2
10 -4z m842 -28 c-9 -9 -15 -9 -24 0 -9 9 -7 12 12 12 19 0 21 -3 12 -12z m8
-34 c0 -8 -5 -12 -10 -9 -6 4 -8 11 -5 16 9 14 15 11 15 -7z m-135 -34 c3 -5
1 -10 -4 -10 -6 0 -11 5 -11 10 0 6 2 10 4 10 3 0 8 -4 11 -10z m35 0 c0 -5
-5 -10 -11 -10 -5 0 -7 5 -4 10 3 6 8 10 11 10 2 0 4 -4 4 -10z m-1060 -20 c0
-5 -2 -10 -4 -10 -3 0 -8 5 -11 10 -3 6 -1 10 4 10 6 0 11 -4 11 -10z m2377
-72 c-3 -8 -6 -5 -6 6 -1 11 2 17 5 13 3 -3 4 -12 1 -19z m83 -202 c0 -3 -4
-8 -10 -11 -5 -3 -10 -1 -10 4 0 6 5 11 10 11 6 0 10 -2 10 -4z m-3291 -377
c1 -199 0 -207 -19 -212 -15 -4 -20 0 -20 14 0 10 5 18 11 17 18 -5 20 36 2
49 -15 11 -15 13 0 19 24 9 21 22 -5 26 -13 2 -22 9 -20 16 1 6 -3 12 -9 12
-6 0 -9 -9 -6 -20 3 -13 -1 -24 -14 -30 -15 -8 -19 -7 -19 5 0 8 5 15 11 15 6
0 9 7 5 15 -3 8 -1 15 5 15 10 0 33 48 31 66 -1 6 4 29 12 52 10 27 11 42 4
44 -6 2 -4 10 6 20 9 9 12 19 7 22 -5 4 -8 21 -6 39 3 17 1 28 -3 22 -4 -5
-12 -11 -18 -12 -13 -3 -7 34 7 42 4 3 5 13 2 21 -3 9 0 20 8 25 21 13 27 -48
28 -282z m-109 -139 c0 -5 -5 -10 -11 -10 -5 0 -7 5 -4 10 3 6 8 10 11 10 2 0
4 -4 4 -10z m2178 -41 c2 -15 15 -37 30 -51 23 -21 116 -62 191 -83 l23 -7
-29 -31 c-16 -18 -41 -48 -55 -68 l-27 -36 -98 5 c-95 4 -99 3 -122 -22 -31
-33 -19 -46 20 -23 17 9 43 17 58 17 23 0 26 -4 25 -27 -1 -16 -3 -39 -3 -52
-1 -16 -5 -21 -16 -17 -9 3 -15 0 -15 -9 0 -23 -29 -44 -53 -39 -12 3 -27 6
-34 6 -7 1 -10 4 -8 8 2 4 -12 22 -31 41 -20 19 -49 61 -66 93 -27 53 -30 67
-25 122 3 35 11 72 17 84 6 11 8 25 5 30 -3 6 1 10 10 10 9 0 13 4 10 10 -3 6
1 7 9 4 9 -3 16 -1 16 5 0 25 87 61 140 58 19 -2 26 -8 28 -28z m562 -15 c20
-4 36 -16 43 -31 9 -19 7 -27 -13 -48 -17 -18 -21 -31 -16 -52 21 -93 34 -119
86 -176 30 -33 60 -69 67 -81 27 -47 6 -173 -30 -178 -6 -1 -60 -2 -118 -2
-99 -1 -108 -3 -142 -28 -19 -16 -39 -28 -44 -28 -4 0 -16 14 -26 31 -13 24
-20 29 -31 20 -19 -16 -32 4 -39 57 -6 48 -39 92 -68 92 -20 0 -69 -48 -69
-67 0 -18 -45 -16 -60 2 -8 10 -11 36 -8 73 4 54 10 68 69 149 78 109 110 134
168 126 54 -7 71 8 71 62 0 72 56 99 160 79z m640 -244 c0 -5 -2 -10 -4 -10
-3 0 -8 5 -11 10 -3 6 -1 10 4 10 6 0 11 -4 11 -10z m-3170 -20 c0 -5 -2 -10
-4 -10 -3 0 -8 5 -11 10 -3 6 -1 10 4 10 6 0 11 -4 11 -10z m2043 -29 l25 -10
-20 -40 c-22 -45 -29 -52 -21 -21 3 11 0 33 -5 50 -12 34 -13 34 21 21z m1217
-265 c0 -3 -4 -8 -10 -11 -5 -3 -10 -1 -10 4 0 6 5 11 10 11 6 0 10 -2 10 -4z
m-3 -78 c-3 -8 -6 -5 -6 6 -1 11 2 17 5 13 3 -3 4 -12 1 -19z m-19 -100 c-10
-6 -10 -10 2 -18 13 -8 12 -11 -5 -25 -11 -9 -14 -13 -6 -9 11 5 13 3 8 -9 -3
-9 -2 -19 3 -22 17 -10 11 -25 -7 -18 -11 4 -14 3 -9 -5 4 -7 2 -12 -3 -12 -6
0 -13 0 -16 0 -3 0 -20 -9 -38 -19 -38 -21 -38 -21 -78 56 l-16 32 29 12 c39
16 128 103 129 126 1 10 5 -4 11 -31 7 -38 6 -51 -4 -58z m-138 -272 c0 -3 -4
-8 -10 -11 -5 -3 -10 -1 -10 4 0 6 5 11 10 11 6 0 10 -2 10 -4z m-3000 -16 c0
-5 -4 -10 -10 -10 -5 0 -10 5 -10 10 0 6 5 10 10 10 6 0 10 -4 10 -10z m-60
-126 c0 -8 -5 -12 -10 -9 -6 4 -8 11 -5 16 9 14 15 11 15 -7z m-23 -456 c-3
-7 -5 -2 -5 12 0 14 2 19 5 13 2 -7 2 -19 0 -25z m-15 -330 c-7 -7 -12 -8 -12
-2 0 6 3 14 7 17 3 4 9 5 12 2 2 -3 -1 -11 -7 -17z m3184 -35 c-10 -10 -19 5
-10 18 6 11 8 11 12 0 2 -7 1 -15 -2 -18z m-61 -363 c3 -5 1 -10 -4 -10 -6 0
-11 5 -11 10 0 6 2 10 4 10 3 0 8 -4 11 -10z m45 -64 c0 -2 -7 -9 -15 -16 -13
-11 -14 -10 -9 4 5 14 24 23 24 12z m-3160 -26 c0 -5 -2 -10 -4 -10 -3 0 -8 5
-11 10 -3 6 -1 10 4 10 6 0 11 -4 11 -10z m3190 -10 c0 -5 -4 -10 -10 -10 -5
0 -10 5 -10 10 0 6 5 10 10 10 6 0 10 -4 10 -10z m-1245 -1480 c3 -5 1 -10 -4
-10 -6 0 -11 5 -11 10 0 6 2 10 4 10 3 0 8 -4 11 -10z m442 -46 c-3 -3 -12 -4
-19 -1 -8 3 -5 6 6 6 11 1 17 -2 13 -5z m-1167 -44 c0 -5 -4 -10 -10 -10 -5 0
-10 5 -10 10 0 6 5 10 10 10 6 0 10 -4 10 -10z m-400 -88 c0 -4 -9 -13 -20
-20 -19 -12 -20 -11 -8 8 13 20 28 27 28 12z"/>
<path d="M4897 7263 c-4 -3 -7 -18 -6 -32 1 -26 1 -25 10 3 9 31 7 41 -4 29z"/>
<path d="M7280 7213 c0 -5 5 -15 11 -23 9 -13 10 -13 6 2 -3 9 -1 19 6 22 7 2
4 5 -5 5 -10 1 -18 -2 -18 -6z"/>
<path d="M5596 7063 c-1 -1 -32 -4 -68 -6 -36 -2 -69 -7 -74 -10 -16 -10 -129
-18 -249 -19 -63 0 -115 -5 -115 -10 0 -12 313 -2 358 11 42 13 185 23 334 25
64 0 120 4 124 9 4 4 -63 6 -150 5 -86 -1 -158 -3 -160 -5z"/>
<path d="M5926 7061 c9 -9 235 -10 229 -1 -3 5 -57 8 -120 8 -64 -1 -113 -4
-109 -7z"/>
<path d="M4300 7020 c0 -5 45 -8 100 -8 55 0 100 4 100 9 0 4 -45 8 -100 7
-55 0 -100 -4 -100 -8z"/>
<path d="M4510 7019 c0 -4 128 -7 285 -7 157 0 285 3 285 8 0 5 -128 8 -285 7
-157 0 -285 -4 -285 -8z"/>
<path d="M7330 7000 c0 -5 7 -10 15 -10 8 0 15 5 15 10 0 6 -7 10 -15 10 -8 0
-15 -4 -15 -10z"/>
<path d="M5267 6710 c-3 -12 -14 -20 -27 -20 -16 0 -20 -4 -16 -15 3 -9 0 -15
-9 -15 -7 0 -17 -9 -20 -20 -3 -11 -10 -20 -14 -20 -46 0 -56 -377 -10 -406 6
-3 7 5 3 23 -13 49 -7 205 9 270 9 35 15 68 13 75 -1 7 -1 10 1 6 8 -15 43 13
43 33 0 14 5 19 13 16 8 -3 20 -1 28 4 11 7 9 9 -7 9 -12 0 -24 6 -27 14 -3 8
1 13 10 12 10 -1 17 9 20 27 4 31 -2 36 -10 7z"/>
<path d="M4315 6569 c-4 -5 32 -9 89 -9 53 0 96 3 96 8 0 11 -179 12 -185 1z"/>
<path d="M4690 6570 c0 -6 7 -10 15 -10 8 0 15 2 15 4 0 2 -7 6 -15 10 -8 3
-15 1 -15 -4z"/>
<path d="M4785 6569 c-56 -5 -55 -6 29 -7 49 -1 87 1 84 4 -9 9 -46 10 -113 3z"/>
<path d="M4514 6563 c6 -7 158 -5 164 2 3 3 -34 5 -82 4 -48 0 -85 -3 -82 -6z"/>
<path d="M5952 6322 c-13 -4 -23 -11 -23 -17 0 -5 -8 -9 -17 -7 -13 2 -14 1
-4 -6 10 -7 9 -12 -4 -23 -15 -11 -16 -12 -10 0 6 9 5 12 -5 9 -8 -3 -13 -12
-13 -21 1 -9 -2 -14 -7 -11 -5 3 -9 -2 -9 -10 0 -8 -4 -18 -10 -21 -6 -4 -7 1
-3 12 6 15 5 16 -9 3 -10 -10 -13 -23 -9 -39 8 -26 41 -38 41 -15 0 9 5 12 10
9 6 -3 10 -1 10 6 0 7 12 27 28 43 19 22 20 25 4 11 -20 -16 -22 -17 -16 -2 3
10 15 22 25 27 23 13 32 13 23 -1 -4 -8 0 -7 15 1 12 6 19 15 16 21 -4 5 -10
7 -15 4 -5 -3 -11 -1 -15 5 -3 5 1 10 9 10 9 0 16 5 16 10 0 6 -1 10 -2 9 -2
-1 -13 -4 -26 -7z"/>
<path d="M5788 6172 c-44 -48 -73 -127 -63 -172 7 -30 25 -42 25 -16 0 7 11
33 23 57 13 24 23 54 22 66 -1 17 2 20 10 13 9 -7 16 -6 24 4 8 10 9 16 1 21
-6 3 -8 11 -5 16 4 5 -2 9 -12 9 -15 0 -16 2 -3 10 8 5 12 11 9 14 -3 3 -17
-7 -31 -22z"/>
<path d="M4972 6132 c-6 -26 -15 -56 -18 -67 -35 -118 -30 -307 11 -435 24
-76 88 -210 101 -210 10 0 -11 60 -46 130 -20 41 -43 92 -50 113 -16 49 -16
239 0 297 7 25 14 52 15 60 2 8 8 29 14 47 8 27 1 96 -11 108 -2 2 -9 -17 -16
-43z"/>
<path d="M5821 5766 c-6 -131 97 -415 166 -455 10 -6 14 -11 8 -11 -5 0 1 -7
13 -16 13 -9 26 -13 29 -10 3 3 11 -2 18 -10 6 -9 24 -16 38 -16 15 0 24 -4
21 -9 -6 -10 40 -23 58 -16 7 3 1 6 -14 6 -16 1 -28 5 -28 10 0 7 27 8 75 2 6
-1 4 -5 -4 -10 -9 -6 -4 -8 15 -8 16 0 23 2 16 4 -6 3 -10 9 -6 14 3 5 0 9 -6
9 -6 0 -8 5 -4 11 5 8 -1 10 -20 7 -15 -3 -26 -1 -26 5 0 8 -3 8 -11 0 -12
-12 -52 -5 -44 7 3 4 -2 10 -10 14 -8 3 -15 1 -15 -5 0 -11 -93 61 -118 91
-30 36 -84 136 -102 191 -11 32 -20 85 -20 117 0 106 -24 171 -29 78z"/>
<path d="M6538 5609 c-10 -7 -9 -12 6 -26 10 -10 15 -12 11 -4 -5 9 -3 12 6 9
8 -3 13 -11 12 -17 -3 -12 13 -15 20 -3 2 4 3 2 1 -4 -3 -17 8 -30 44 -48 18
-9 30 -21 27 -26 -3 -5 -1 -12 5 -15 13 -8 11 -145 -2 -145 -13 0 -57 -53 -58
-68 0 -8 -5 -10 -12 -6 -7 5 -9 2 -5 -9 4 -11 2 -14 -9 -10 -7 3 -14 0 -14 -7
0 -6 -5 -8 -12 -4 -8 5 -9 2 -5 -10 6 -14 3 -17 -8 -12 -11 4 -15 0 -13 -11 2
-12 -4 -18 -19 -18 -12 0 -25 -4 -30 -9 -5 -5 -2 -6 6 -1 10 5 12 4 7 -4 -4
-6 -13 -11 -19 -10 -27 3 -35 -2 -30 -21 4 -16 2 -19 -12 -14 -14 6 -16 3 -11
-13 4 -13 0 -25 -11 -34 -16 -12 -17 -12 -6 1 7 9 8 21 4 29 -7 11 -10 11 -17
0 -13 -21 -15 -49 -4 -49 6 0 10 -6 10 -12 -1 -7 -10 -2 -20 11 -11 13 -20 19
-20 14 0 -5 -7 -18 -16 -29 -8 -10 -13 -13 -9 -6 9 17 -3 15 -22 -3 -8 -8 -18
-13 -22 -11 -4 3 -8 -5 -8 -16 -2 -19 -1 -19 11 -3 10 13 15 15 20 6 5 -7 5
-15 2 -18 -3 -4 -6 0 -7 8 -1 16 -17 -19 -18 -39 -1 -10 4 -9 15 3 9 9 23 14
30 11 9 -3 14 2 14 14 0 10 5 22 12 26 8 5 9 2 4 -11 -5 -15 -4 -16 9 -5 8 7
12 17 8 23 -3 5 -2 7 4 4 8 -5 35 17 40 33 15 50 24 62 38 50 12 -10 15 -9 15
6 0 16 2 17 10 4 8 -13 10 -13 10 1 0 9 7 16 16 15 23 -2 29 21 7 27 -10 3 1
4 25 3 40 -2 70 13 55 27 -3 4 1 7 10 7 25 0 31 20 11 35 -18 13 -17 14 5 8
19 -5 23 -3 19 9 -4 8 0 15 8 15 7 0 10 -5 7 -11 -4 -6 1 -5 11 3 12 10 13 16
6 21 -7 5 -4 9 9 13 19 4 21 13 21 70 0 108 -18 166 -67 213 -43 42 -81 58
-105 43z m52 -409 c-8 -14 -8 -20 0 -20 6 0 9 -4 5 -10 -3 -5 -12 -7 -20 -4
-12 5 -12 9 2 30 19 29 28 32 13 4z"/>
<path d="M4350 5600 c-9 -6 -10 -10 -3 -10 6 0 15 5 18 10 8 12 4 12 -15 0z"/>
<path d="M4386 5601 c8 -8 54 -7 54 1 0 5 -13 7 -30 6 -16 -1 -27 -4 -24 -7z"/>
<path d="M6034 5569 c7 -45 40 -81 69 -75 12 3 17 -1 15 -12 -2 -10 3 -16 10
-14 6 1 12 -3 12 -9 0 -8 4 -8 14 0 12 10 13 8 9 -8 -3 -13 -1 -21 6 -21 7 0
9 5 5 13 -4 6 1 5 12 -4 21 -18 55 -33 66 -31 5 1 7 -4 5 -11 -1 -7 9 -12 25
-11 15 0 25 -4 22 -8 -3 -4 4 -8 15 -8 10 0 22 -6 24 -12 4 -10 6 -9 6 1 1 11
4 11 16 1 11 -9 15 -9 15 -1 0 7 4 10 9 6 13 -7 10 38 -3 47 -5 4 -18 2 -27
-3 -12 -6 -22 -5 -32 6 -8 8 -17 12 -20 9 -3 -3 -18 3 -34 13 -22 14 -25 14
-16 2 10 -13 10 -16 -2 -16 -8 0 -15 5 -15 11 0 18 -16 37 -33 40 -9 1 -25 10
-36 20 -17 15 -34 22 -63 25 -5 1 -7 5 -5 9 1 5 -15 25 -37 45 l-39 37 7 -41z"/>
<path d="M6345 5567 c19 -16 18 -16 -13 -7 -20 5 -30 5 -27 -1 4 -5 1 -9 -4
-9 -6 0 -11 -4 -11 -9 0 -5 20 -7 45 -5 33 2 44 0 39 -9 -5 -9 -3 -8 7 1 7 6
19 12 27 12 12 0 12 -3 1 -17 -7 -10 -9 -15 -5 -11 14 12 35 -24 36 -60 0 -20
-6 -35 -15 -38 -8 -4 -12 -10 -9 -15 3 -5 0 -9 -7 -9 -8 0 -8 -4 1 -15 7 -9
23 -15 34 -13 19 3 21 9 20 68 0 36 -8 82 -17 102 -15 35 -18 37 -42 28 -17
-7 -24 -7 -20 0 3 6 0 10 -9 10 -8 0 -23 3 -33 6 -16 6 -16 5 2 -9z"/>
<path d="M6900 5565 c0 -11 11 -61 25 -110 25 -89 35 -243 16 -231 -5 3 -13
-6 -19 -22 -5 -15 -32 -50 -60 -78 -28 -29 -48 -55 -45 -58 4 -3 1 -6 -6 -6
-6 0 -23 -11 -37 -25 -14 -14 -31 -25 -39 -25 -8 0 -15 -4 -15 -8 0 -5 -16
-16 -35 -25 -20 -9 -38 -24 -41 -32 -4 -8 -10 -15 -16 -15 -5 0 -6 4 -3 10 3
6 -1 7 -10 4 -9 -4 -14 -13 -11 -21 3 -7 0 -13 -7 -12 -27 3 -48 -2 -42 -11 3
-5 -13 -14 -36 -20 -23 -6 -49 -15 -58 -20 -32 -17 -81 -29 -81 -19 0 5 -8 9
-17 9 -13 0 -14 -3 -6 -8 9 -6 7 -12 -7 -25 -21 -18 -25 -48 -10 -82 7 -17 9
-17 9 -2 1 19 16 23 26 7 10 -16 24 -12 48 14 12 12 40 29 62 35 22 7 47 15
55 18 8 3 24 8 35 10 30 5 100 58 97 73 -3 11 0 11 13 0 14 -11 16 -11 13 0
-2 8 2 15 7 15 22 3 64 28 59 36 -3 5 1 9 10 9 19 0 122 88 118 102 -1 5 1 7
6 4 11 -6 45 31 66 73 26 49 20 158 -15 300 -32 130 -48 174 -49 136z m-544
-790 c-1 -8 -5 -17 -8 -21 -5 -4 -4 16 1 34 3 9 9 -1 7 -13z"/>
<path d="M5455 5423 c24 -131 127 -310 161 -282 9 7 14 5 19 -10 3 -11 15 -23
26 -26 10 -4 19 -12 19 -18 0 -7 4 -6 10 3 8 13 10 12 10 -2 0 -10 5 -18 11
-18 5 0 7 5 4 10 -4 6 8 5 26 -3 18 -7 35 -19 37 -26 3 -8 -5 -7 -24 6 -16 10
-25 12 -21 6 10 -16 -10 -53 -28 -53 -8 0 -15 5 -15 11 0 5 6 7 13 3 6 -4 8
-3 4 1 -4 5 -20 11 -35 12 -22 3 -24 1 -12 -8 13 -9 12 -10 -3 -5 -10 3 -21 6
-23 6 -3 0 -2 5 1 10 3 6 2 10 -4 10 -15 0 -21 -14 -14 -38 5 -19 8 -20 21
-10 10 8 13 8 9 2 -8 -13 19 -27 34 -18 5 3 9 -1 9 -8 0 -8 5 -6 11 5 15 25
32 21 23 -5 -6 -22 -6 -22 13 -5 24 21 119 25 107 5 -5 -8 0 -7 11 2 10 8 16
10 12 4 -6 -11 21 -30 29 -21 6 5 -17 81 -29 95 -5 7 -16 11 -24 8 -8 -3 -16
1 -19 9 -4 8 -10 12 -15 9 -5 -3 -9 0 -9 6 0 6 -4 9 -9 5 -5 -3 -12 -1 -16 5
-4 6 -10 8 -15 5 -5 -3 -11 -1 -15 5 -3 5 -16 10 -27 10 -12 0 -18 3 -15 7 7
6 -16 22 -60 42 -61 28 -154 165 -168 249 -4 23 -11 42 -17 42 -6 0 -8 -14 -3
-37z"/>
<path d="M4390 5158 c0 -4 14 -8 30 -8 17 0 30 5 30 10 0 6 -13 9 -30 8 -16
-1 -30 -6 -30 -10z"/>
<path d="M4285 4840 c-3 -5 -1 -10 4 -10 6 0 11 5 11 10 0 6 -2 10 -4 10 -3 0
-8 -4 -11 -10z"/>
<path d="M7315 4800 c-3 -5 1 -10 9 -10 9 0 16 5 16 10 0 6 -4 10 -9 10 -6 0
-13 -4 -16 -10z"/>
<path d="M4686 4751 c-12 -5 -15 -10 -9 -14 6 -4 16 0 23 8 14 17 13 17 -14 6z"/>
<path d="M4495 4739 c-17 -4 12 -7 69 -8 55 0 96 2 93 6 -9 8 -124 10 -162 2z"/>
<path d="M4738 4743 c6 -2 18 -2 25 0 6 3 1 5 -13 5 -14 0 -19 -2 -12 -5z"/>
<path d="M4770 4210 c0 -13 11 -13 30 0 12 8 11 10 -7 10 -13 0 -23 -4 -23
-10z"/>
<path d="M4820 4211 c0 -3 29 -7 65 -8 36 -1 65 2 65 6 0 5 -29 9 -65 9 -36 0
-65 -3 -65 -7z"/>
<path d="M4960 4210 c0 -4 60 -9 133 -10 72 -1 161 -5 197 -7 133 -10 430 -14
430 -6 0 4 -73 9 -163 9 -89 1 -200 5 -247 8 -136 10 -350 13 -350 6z"/>
<path d="M6654 4191 c6 -9 136 -13 136 -3 0 4 -32 8 -70 9 -39 1 -68 -2 -66
-6z"/>
<path d="M6806 4191 c-3 -5 26 -9 64 -9 39 0 68 3 65 8 -7 11 -123 12 -129 1z"/>
<path d="M5750 4180 c30 -8 265 -12 258 -4 -3 3 -68 6 -144 8 -77 2 -128 0
-114 -4z"/>
<path d="M4301 4074 c0 -11 3 -14 6 -6 3 7 2 16 -1 19 -3 4 -6 -2 -5 -13z"/>
<path d="M4650 3738 c0 -4 47 -8 105 -7 58 0 105 4 105 9 0 4 -47 8 -105 7
-58 0 -105 -4 -105 -9z"/>
<path d="M4875 3740 c6 -10 195 -11 195 -1 0 4 -45 8 -100 8 -55 1 -98 -3 -95
-7z"/>
<path d="M5081 3736 c15 -15 179 -32 179 -18 0 5 -18 10 -40 10 -23 1 -64 4
-93 7 -29 4 -49 4 -46 1z"/>
<path d="M5275 3720 c-3 -5 1 -10 9 -10 9 0 16 5 16 10 0 6 -4 10 -9 10 -6 0
-13 -4 -16 -10z"/>
<path d="M5310 3718 c0 -5 73 -8 162 -8 89 0 159 3 155 6 -9 9 -317 10 -317 2z"/>
<path d="M6335 3720 c-4 -6 3 -10 14 -10 25 0 27 6 6 13 -8 4 -17 2 -20 -3z"/>
<path d="M6380 3718 c0 -4 14 -8 30 -8 17 0 30 2 30 4 0 2 -13 6 -30 8 -16 3
-30 1 -30 -4z"/>
<path d="M6450 3718 c0 -7 53 -13 75 -8 6 1 41 2 80 1 38 -1 66 1 62 5 -10 10
-217 12 -217 2z"/>
<path d="M5655 3708 c8 -5 61 -9 117 -9 266 0 351 1 346 7 -3 3 -112 6 -242 7
-132 2 -230 -1 -221 -5z"/>
<path d="M6155 3711 c-47 -10 -16 -17 45 -10 30 3 45 6 33 7 -12 1 -27 4 -35
6 -7 2 -26 1 -43 -3z"/>
<path d="M6265 3710 c-7 -12 12 -12 40 0 18 8 17 9 -7 9 -15 1 -30 -3 -33 -9z"/>
<path d="M6685 3710 c4 -6 11 -8 16 -5 14 9 11 15 -7 15 -8 0 -12 -5 -9 -10z"/>
<path d="M6725 3710 c6 -10 275 -8 275 2 0 4 -63 7 -140 6 -77 0 -137 -4 -135
-8z"/>
<path d="M6610 3311 c-14 -3 -166 -6 -338 -5 -172 0 -315 -3 -318 -7 -5 -9
510 -11 654 -3 56 4 102 10 102 15 0 9 -62 9 -100 0z"/>
<path d="M6724 3313 c10 -10 46 -14 46 -5 0 4 -12 9 -27 10 -14 1 -23 -1 -19
-5z"/>
<path d="M6780 3308 c0 -10 158 -9 164 1 2 3 -34 6 -80 7 -46 0 -84 -3 -84 -8z"/>
<path d="M6964 3309 c-3 -5 45 -10 113 -11 202 -2 257 -5 273 -11 18 -7 52 -6
45 2 -13 13 -41 15 -302 25 -69 2 -125 0 -129 -5z"/>
<path d="M5716 3302 c-2 -2 -83 -4 -180 -4 -97 -1 -176 -5 -176 -9 0 -5 87 -6
193 -4 105 3 236 5 290 5 53 0 97 4 97 9 0 9 -216 12 -224 3z"/>
<path d="M5167 3288 c-7 -4 5 -7 26 -6 20 1 37 5 37 10 0 9 -46 7 -63 -4z"/>
<path d="M5240 3290 c0 -5 5 -10 11 -10 5 0 7 5 4 10 -3 6 -8 10 -11 10 -2 0
-4 -4 -4 -10z"/>
<path d="M5270 3290 c0 -5 18 -10 40 -10 22 0 40 5 40 10 0 6 -18 10 -40 10
-22 0 -40 -4 -40 -10z"/>
<path d="M5013 3283 c-46 -2 -83 -8 -83 -13 0 -11 171 -3 202 10 21 8 20 9 -7
7 -16 0 -67 -3 -112 -4z"/>
<path d="M5210 2970 c-13 -8 -12 -10 3 -10 9 0 17 5 17 10 0 12 -1 12 -20 0z"/>
<path d="M5250 2970 c-10 -6 0 -9 33 -8 26 0 47 4 47 8 0 10 -63 11 -80 0z"/>
<path d="M5340 2971 c0 -5 31 -8 70 -7 38 1 70 4 70 8 0 4 -31 7 -70 7 -38 -1
-70 -4 -70 -8z"/>
<path d="M5490 2969 c0 -4 12 -5 27 -3 39 7 41 13 4 12 -17 -1 -31 -5 -31 -9z"/>
<path d="M5560 2968 c0 -11 47 -10 55 1 3 5 -8 9 -25 9 -16 -1 -30 -5 -30 -10z"/>
<path d="M5630 2972 c0 -4 142 -8 315 -8 173 0 315 3 315 7 0 4 -142 7 -315 8
-173 0 -315 -3 -315 -7z"/>
<path d="M6274 2972 c11 -10 285 -12 291 -1 4 5 -55 9 -146 8 -83 0 -148 -3
-145 -7z"/>
<path d="M6584 2973 c10 -10 416 -12 410 -2 -2 4 -97 8 -211 8 -113 0 -203 -3
-199 -6z"/>
<path d="M7013 2973 c10 -9 177 -10 183 -1 3 4 -39 8 -92 8 -54 0 -94 -3 -91
-7z"/>
<path d="M4875 2960 c-16 -7 -12 -9 18 -8 20 1 37 6 37 10 0 10 -29 9 -55 -2z"/>
<path d="M5780 2660 c-74 -4 -87 -7 -60 -12 55 -12 160 -5 160 10 0 6 -1 11
-2 10 -2 -1 -46 -4 -98 -8z"/>
<path d="M4542 2654 c10 -9 58 -12 58 -3 0 5 -14 9 -32 9 -17 0 -29 -3 -26 -6z"/>
<path d="M4630 2652 c0 -4 25 -8 55 -8 30 0 55 2 55 5 0 4 -25 7 -55 9 -30 1
-55 -1 -55 -6z"/>
<path d="M4755 2651 c6 -12 95 -10 95 2 0 4 -23 7 -51 7 -29 0 -48 -4 -44 -9z"/>
<path d="M4860 2650 c0 -12 17 -12 45 0 17 7 15 9 -12 9 -18 1 -33 -3 -33 -9z"/>
<path d="M4935 2650 c-3 -5 -1 -10 4 -10 6 0 11 5 11 10 0 6 -2 10 -4 10 -3 0
-8 -4 -11 -10z"/>
<path d="M4960 2653 c0 -5 32 -8 70 -8 39 -1 70 3 70 7 0 4 -31 8 -70 8 -38 0
-70 -3 -70 -7z"/>
<path d="M5110 2650 c0 -5 9 -10 19 -10 11 0 23 5 26 10 4 6 -5 10 -19 10 -14
0 -26 -4 -26 -10z"/>
<path d="M5190 2653 c0 -5 110 -8 245 -8 135 0 245 3 245 6 0 4 -110 7 -245 8
-135 1 -245 -2 -245 -6z"/>
<path d="M5910 2649 c0 -5 18 -8 40 -6 52 3 52 16 0 15 -22 0 -40 -4 -40 -9z"/>
<path d="M6005 2650 c3 -5 8 -10 11 -10 2 0 4 5 4 10 0 6 -5 10 -11 10 -5 0
-7 -4 -4 -10z"/>
<path d="M6040 2650 c20 -13 40 -13 40 0 0 6 -12 10 -27 10 -22 0 -25 -2 -13
-10z"/>
<path d="M6432 2649 c-29 -11 65 -14 218 -9 80 3 136 7 125 9 -42 6 -327 6
-343 0z"/>
<path d="M6829 2649 c-10 -6 -4 -9 19 -9 17 0 32 2 32 4 0 9 -39 13 -51 5z"/>
<path d="M6515 2480 c3 -5 8 -10 11 -10 2 0 4 5 4 10 0 6 -5 10 -11 10 -5 0
-7 -4 -4 -10z"/>
<path d="M5011 2264 c0 -11 3 -14 6 -6 3 7 2 16 -1 19 -3 4 -6 -2 -5 -13z"/>
<path d="M6767 5913 c-4 -3 -7 -17 -7 -29 0 -13 -4 -26 -10 -29 -15 -9 -12
-47 3 -43 18 6 44 85 31 98 -6 6 -13 7 -17 3z"/>
<path d="M6804 5859 c-26 -42 -26 -69 1 -69 9 0 15 9 15 23 0 12 7 31 15 41 8
11 15 26 15 33 0 25 -20 13 -46 -28z"/>
</g>
</svg>
