<?xml version="1.0" encoding="UTF-8"?><svg id="Calque_2" xmlns="http://www.w3.org/2000/svg" viewBox="0 0 467.5 313.55"><defs><style>.cls-1{fill:#fff;}</style></defs><g id="Calque_1-2"><path class="cls-1" d="m416.14,313.55c.54-.25,1.05-.65,1.62-.74,6.02-.96,12.11-1.56,18.04-2.86,9.08-1.98,17.64-5.41,24.91-11.39,2.08-1.71,3.82-3.83,5.64-5.84.34-.38.51-1.18.37-1.69-5.11-18.81-10.54-37.52-17.95-55.58-1.57-3.83-3.52-7.51-5.36-11.24-1.82-3.69-4.78-6.07-8.5-7.8-10.58-4.91-21.53-8.85-32.56-12.6-10.17-3.46-20.38-6.78-30.88-9.13-.75-.17-1.52-.42-2.27-.38-2.19.11-3.45-1.14-4.06-2.95-1.14-3.41-2.44-6.84-3-10.37-1.57-9.9-3.06-19.82-4.11-29.78-1.25-11.96-2.02-23.96-2.97-35.95-.17-2.16-.24-4.33-.34-6.5-.02-.41.04-.83.07-1.24.12,0,.24,0,.36,0,.1,1.03.24,2.07.31,3.1.66,9.65,1.19,19.32,2.01,28.95,1.17,13.68,2.42,27.37,5.16,40.85.71,3.52,1.88,6.95,2.95,10.39.59,1.9,1.99,2.6,4,3.03,5.86,1.26,11.73,2.61,17.43,4.44,11.2,3.61,22.29,7.57,33.42,11.38.21.07.43.14.82.26.57-2.71,1.24-5.36,1.67-8.05,1.21-7.44,2.57-14.87,3.42-22.36.81-7.13,1.3-14.32,1.48-21.5.19-7.59.13-15.21-.33-22.78-1.08-17.74-4.3-35.11-9.72-52.05-5.56-17.38-13.17-33.82-23.18-49.08-1.97-3.01-4.79-5.54-7.51-7.96-12.72-11.29-27.22-19.31-43.86-23.2-9.36-2.19-18.83-2.84-28.41-1.86-13.88,1.42-26.91,5.38-38.59,13.14-13.6,9.04-23.39,21.17-28.85,36.63-.67,1.88-.76,3.97-.86,6.06.29-.52.58-1.03.86-1.56,4.5-8.58,10.71-15.48,19.75-19.37,10.4-4.47,20.89-3.94,31.28.1,9.36,3.65,16.83,9.77,22.75,17.84.26.36.53.72,1.02,1.37-.34-1.6-.61-2.84-.88-4.09.14-.04.29-.08.43-.12.13.39.32.77.4,1.18,2.55,12.65,5.29,25.26,7.57,37.95,1.67,9.28,2.92,18.65,4.01,28.02.95,8.17,1.53,16.38,2.06,24.59.71,10.93.71,21.87-.03,32.82-.75,11.17-2.27,22.2-5.77,32.86-1.1,3.33-2.59,6.54-3.91,9.8-.18.44-.41.87-.61,1.3.1.06.19.11.29.17,1.97-3.05,4.04-6.05,5.91-9.17,8.66-14.51,14.06-30.22,17.17-46.78,2.72-14.47,3.59-29.07,3.19-43.75-.36-13.34-1.7-26.61-3.98-39.77-.92-5.33-1.98-10.65-2.96-15.97-.06-.33-.04-.68-.06-1.02.16-.03.32-.06.48-.09.89,4.48,1.77,8.96,2.67,13.5,1.46-.41,2.9-.9,4.37-1.19,3.46-.7,6.16.5,7.95,3.52,2.13,3.58,2.46,7.55,2.06,11.55-.72,7.15-3.73,13.05-9.9,17.11-.38.25-.57,1.05-.56,1.59.17,6.83.61,13.65.55,20.47-.17,20.56-3.08,40.68-10.32,60.04-4.98,13.32-11.87,25.55-20.99,36.49-1.53,1.84-3.12,3.64-4.7,5.44-.31.35-.7.62-1.05.93l-.29-.24c.16-.26.28-.57.49-.78,10.26-10.14,14.38-23.13,17.02-36.79,1.8-9.3,2.5-18.71,2.79-28.17.35-11.59-.2-23.14-1.11-34.69-1.01-12.89-2.56-25.72-4.76-38.46-2.04-11.82-4.49-23.57-6.78-35.35-.1-.52-.33-1.05-.62-1.49-7.23-10.96-16.94-18.64-29.78-21.86-17.73-4.46-33.64,2.31-43.02,18.04-.72,1.2-1.32,2.47-2.04,3.67-2.05,3.41-1.8,7.25-1.87,10.95-.13,6.87-.26,13.77.28,20.61,1.79,22.51,7.7,43.8,19.96,63.01,4.55,7.12,10.08,13.38,17.47,17.73,6.66,3.92,13.8,6.27,21.62,6.07,10.53-.28,19.26-4.68,26.69-11.91,1.24-1.21,2.39-2.52,3.71-3.92-.28,2.58-8.86,9.74-15.1,12.77-6.15,2.99-12.66,4.1-19.35,3.58,1.7,1.91,3.6,3.73,5.11,5.83,4.42,6.15,5.71,13.11,4.59,20.49-.58,3.82-1.77,7.56-2.37,11.38-.94,5.97-1.26,11.97.38,17.9,1.58,5.71,5.13,8.37,10.83,7.76,2.16-.23,4.33-.95,6.35-1.78,6.79-2.82,12.68-7.13,18.29-11.79,4.59-3.82,8.97-7.88,13.45-11.83.22-.19.45-.37.93-.38-.11.22-.18.5-.35.66-8.31,7.82-16.78,15.46-26.69,21.26-3.8,2.22-7.75,4.08-12.22,4.55-4.66.5-8.35-1.55-10.29-5.83-1.74-3.84-2.14-7.95-1.96-12.07.17-3.87.6-7.75,1.18-11.58.46-3.07,1.35-6.07,2-9.11.16-.73.11-1.51.17-2.43-11.67,2.56-23.16,5.08-35.03,7.68.43-.69.67-1.07.92-1.46,4.78-7.53,7.09-15.68,6.06-24.62-.62-5.37-2.48-10.34-5.39-14.9-.17-.26-.37-.52-.6-.73-4.67-4.22-8.52-9.11-11.87-14.41-.14-.22-.31-.41-.7-.92-.16,2.66-.36,4.99-.42,7.32-.19,7.47-.08,14.93.81,22.36,1.29,10.73,3.55,21.25,8.45,30.94,2.51,4.97,5.98,9.47,9.02,14.17.29.46.7.85.92,1.34.14.29.03.7-.14,1.09-5.58-5.85-8.7-13.18-12.76-20.06-1.41.52-2.78,1.07-4.17,1.54-4.49,1.52-8.99,2.98-13.47,4.53-.64.22-1.32.63-1.72,1.16-9.53,12.54-19.15,25.01-28.44,37.71-3.16,4.31-5.49,9.23-8.3,14.04,14.56,7.32,29.06,14.61,43.68,21.96-.94.33-40.77-19.31-44.46-21.79,1.22-2.13,2.53-4.23,3.66-6.42,4.52-8.75,10.95-16.15,16.77-23.98,5.5-7.41,11.11-14.74,16.72-22.08.4-.52,1.09-.92,1.73-1.14,5.54-1.93,11.09-3.81,16.64-5.71.3-.1.58-.24.95-.39-1.53-2.9-3.07-5.73-4.54-8.6-8.12-15.87-14.16-32.49-18.16-49.86-2.2-9.56-3.74-19.24-4.57-29.01-.88-10.33-1.24-20.68-.36-31.03.65-7.65,1.31-15.32,2.62-22.87.74-4.23,1.44-8.53,2.51-12.68.99-3.88,2.79-7.65,4.75-11.18,11.51-20.69,29.25-32.99,52.15-38.18,8.03-1.82,16.17-2.55,24.39-2.12,14.27.74,27.61,4.79,40.1,11.67,9.54,5.26,18.31,11.59,25.52,19.77,2.89,3.28,4.98,7.31,7.18,11.14,12.05,20.94,20.09,43.36,24.41,67.11,1.92,10.55,3,21.2,3.42,31.92.4,10.14.13,20.27-.71,30.37-1.06,12.75-3.06,25.37-5.87,37.85,0,.04,0,.09.02.23,2.49,1.03,5.03,2.06,7.56,3.14,1.54.65,3.01,1.47,4.58,2.03,5.41,1.96,8.76,5.92,11.26,10.93,4.71,9.44,8.32,19.31,11.51,29.33,3.57,11.22,6.78,22.54,10.16,33.82.13.45.35.87.53,1.31v1.63c-2.37,3.3-5.23,6.1-8.56,8.41-10.33,7.17-22.09,10.25-34.33,11.95-2.18.3-4.38.56-6.56.83-.63,0-1.27,0-1.9,0ZM245.04,62.53c-8.58,49.94-.46,97.07,23.93,141.45.13-.15.16-.29.12-.4-3.29-9-5.15-18.31-6.02-27.84-.71-7.81-.83-15.62-.26-23.43.2-2.71.27-5.29-1.57-7.53-.25-.31-.4-.71-.59-1.07-10.63-20.52-15.52-42.46-15.93-65.46-.09-5.24.2-10.48.31-15.72Zm33.2,103.69c7.07,13.51,6.02,26.3-1.52,38.81.18.02.27.06.35.04,10.7-2.34,21.4-4.69,32.11-7,.91-.2,1.09-.65,1.07-1.5-.11-5.93-1.87-11.29-5.53-15.95-2.36-3.01-4.99-5.45-9.13-6.19-6.3-1.13-11.89-4.15-17.36-8.22Zm73.68-59.62c5.27-3.42,8.01-8.18,9.07-13.98.74-4.06.7-8.1-1.05-11.94-1.46-3.2-3.69-4.48-7.02-4.01-1.06.15-2.07.61-3.12.86-1.34.32-1.39,1.13-1.22,2.32.93,6.52,1.79,13.05,2.63,19.58.3,2.31.47,4.64.72,7.17Z"/><path class="cls-1" d="m48.71,120.65c.4-6.77.52-13.56,1.25-20.29,1.35-12.61,4.82-24.67,10.28-36.15,4.25-8.93,9.59-17.02,17.5-23.15,5.78-4.48,12.18-7.64,19.59-8.2,12.16-.92,22.27,3.61,30.83,11.99,8.75,8.57,14.38,19.05,18.42,30.47,2.9,8.2,4.32,16.73,5.91,25.25.97,5.2.7,10.32.72,15.43.06,17.48-2.97,34.42-10.47,50.37-4.38,9.3-10.07,17.67-18.14,24.22-6,4.87-12.74,8.07-20.5,8.77-7.73.69-14.86-1.27-21.48-5.26-5.51-3.33-10.91-6.77-15.32-11.56-7.61-8.24-12.23-18.02-14.99-28.78-2.79-10.86-3.52-21.92-3.23-33.08-.12,0-.24-.01-.36-.02Zm103.01-18.75c0-.64.05-1.1,0-1.54-1.02-7.9-2.61-15.67-5.17-23.22-4.09-12.04-9.81-23.13-19.09-32.07-7.71-7.42-16.68-11.97-27.7-11.67-1.2.03-1.92.41-2.5,1.39-1.86,3.15-3.9,6.2-5.61,9.43-8.86,16.76-13.76,34.65-15.24,53.53-.74,9.51-.49,18.98.64,28.43,1.28,10.74,3.71,21.24,7.12,31.5,4.67,14.07,11,27.37,18.59,40.09.43.72.87,1.07,1.71.89,2.16-.46,4.38-.72,6.47-1.36,8.83-2.72,15.64-8.34,21.37-15.38,8.01-9.85,12.93-21.22,16.21-33.38,2.26-8.41,3.5-16.98,3.95-25.66.13-2.6.02-5.21.02-7.96h-16.65v-13.03h15.9Zm-15.42,12.43h16.4c-.23-3.95-.44-7.79-.67-11.69h-15.73v11.69Zm-45.35,82.65c-.05.1-.1.2-.14.3,1.72.4,3.44.8,5.16,1.2.02-.09.04-.19.07-.28-1.69-.4-3.39-.81-5.08-1.21Z"/><path class="cls-1" d="m0,216.88c10.82-1.53,21.64-3.12,32.47-4.59,10.65-1.45,21.32-2.81,31.99-4.15,10.94-1.37,21.88-2.76,32.84-3.98,10.2-1.14,20.4-2.21,30.63-3.05,11.35-.92,22.73-1.58,34.1-2.27,6.06-.37,12.12-.3,18.13.64,1.27.2,2.56.6,3.72,1.16,1.42.69,1.68,1.98.58,3.12-1.02,1.06-2.22,2-3.49,2.75-6.26,3.68-13.13,5.97-19.87,8.56-9.34,3.58-18.99,5.85-28.91,6.84-7.01.7-14.06,1.28-21.1,1.48-9.9.27-19.83.39-29.73.12-11.34-.32-22.67-1.05-34-1.77-7.99-.51-15.96-1.21-23.93-1.97-7.47-.71-14.92-1.62-22.37-2.45-.35-.04-.7-.16-1.04-.24,0-.06-.01-.13-.02-.19Zm4.49-.04c-.01.09-.02.19-.04.28,3.63.39,7.27.82,10.9,1.18,7.11.71,14.21,1.46,21.33,2.06,6.89.58,13.8,1.08,20.7,1.43,10.16.52,20.32,1.05,30.49,1.27,12.21.27,24.44.16,36.61-1.05,6.55-.65,13.1-1.54,19.6-2.61,7.29-1.19,14.2-3.82,21.03-6.53,5.32-2.1,10.5-4.57,15.69-6.99,1.15-.54,2.17-1.48,3.08-2.4.92-.92.72-1.87-.48-2.36-1.24-.51-2.57-1-3.88-1.09-4.95-.3-9.93-.69-14.88-.58-8.13.19-16.27.64-24.39,1.18-6.72.45-13.42,1.15-20.13,1.79-6.52.63-13.05,1.28-19.56,2-6.69.74-13.38,1.55-20.06,2.35-7.63.92-15.25,1.83-22.87,2.81-8.51,1.1-17.02,2.26-25.52,3.43-9.21,1.26-18.42,2.55-27.64,3.83Z"/><path class="cls-1" d="m315.76,79.04c.07.76.13,1.38.19,2.01-4.1.9-8.17,1.79-12.05,2.65,0,2.72.08,5.1-.04,7.46-.04.81-.46,1.66-.88,2.39-1.77,3.14-5,3.89-7.76,1.58-1.67-1.39-2.96-3.23-4.56-5.01-1.34,1.04-2.94,2.28-4.68,3.62-.48-.43-1.02-.92-1.64-1.48,4.95-4.68,10.74-7.64,16.85-10.08-6.1,1.42-11.39,4.4-16.02,8.63-.09-.09-.18-.18-.27-.27.16-.24.29-.54.5-.73,5.33-4.83,11.56-8.02,18.66-8.93,3.24-.42,6.36-1.43,9.61-1.64.66-.04,1.32-.12,2.07-.2Z"/><path class="cls-1" d="m249.59,83.66c-1.11-.11-2.13-.21-3.26-.32-.09-.63-.19-1.28-.29-1.92,6.91-1.82,17.71,5.25,19.85,13.05-.63.25-1.27.51-1.81.73-1.3-2.08-2.54-4.04-3.77-6-.13.02-.25.04-.38.06.26,2.71-1,4.5-3.22,5.74-2.14,1.19-4,.84-4.94-1.42-.92-2.21-1.34-4.64-1.9-7-.21-.87-.19-1.79-.29-2.91Z"/><path class="cls-1" d="m280.55,74.65c-.94-.5-1.89-1.01-2.93-1.56,1.18-2.13,2.81-3.73,4.61-5.16,4.83-3.83,10.46-5.56,16.5-6.2,4.11-.43,8.19-.14,12.43.39-.15,1.14-.28,2.19-.44,3.38-1.57-.13-3.09-.3-4.6-.38-7.76-.45-15.16.58-21.58,5.42-1.48,1.11-2.86,2.36-4.28,3.55.1.19.19.38.29.56Z"/><path class="cls-1" d="m281.4,152.68c.33-.05.75-.24.98-.11,7.57,4.3,14.57,2.39,21.48-1.75,3.76-2.25,5.8-5.71,7.41-9.56.1-.25.19-.51.24-.78.19-1.09-.19-1.53-1.27-1.06-2.05.91-4.08,1.92-5.98,3.12-4.21,2.65-8.64,4.7-13.54,5.67-5.05.99-10.05.88-14.95-.79-.05-.14-.1-.27-.16-.41.31-.11.67-.38.92-.31,9.91,2.83,18.82.34,27.22-5.01,1.45-.92,2.93-1.79,4.46-2.56,1.19-.6,2.62-1.47,3.78-.4,1.27,1.17.25,2.63-.25,3.89-1.95,4.95-5.49,8.37-10.27,10.65-5.28,2.53-10.66,3.69-16.37,1.62-1.29-.47-2.51-1.15-3.76-1.73.01-.16.03-.32.04-.48Z"/><path class="cls-1" d="m277.18,136.79c-3.26,1.89-6.17,1.17-8.09-2.05-1.71-2.86-2.26-6.08-2.64-9.31-1.03-8.8-.63-17.61.2-26.4.63-6.65,1.48-13.29,2.25-19.93.06-.48.21-.95.32-1.43.16-.02.31-.04.47-.06.08.39.27.79.23,1.16-.47,3.77-1,7.52-1.46,11.29-1.24,10.3-1.96,20.63-1.44,31,.17,3.4.97,6.78,1.61,10.14.2,1.04.74,2.04,1.27,2.97,1.44,2.54,3.31,3.18,6.05,2.24.38-.13.82-.08,1.23-.12,0,.17,0,.33,0,.5Z"/><path class="cls-1" d="m266.43,74.27c-1.02.66-1.92,1.24-2.84,1.83-1.05-1.3-2-2.62-3.1-3.81-1.49-1.61-3.2-2.99-5.45-3.33-.99-.15-2.09-.14-3.05.13-.92.26-1.41.15-1.84-.68-.3-.6-.72-1.14-1.16-1.81,2.44-1.41,4.95-1.68,7.57-.88,4.47,1.37,7.28,4.68,9.85,8.55Z"/><path class="cls-1" d="m283.69,26.38c4.24-6.69,37.42-21.73,44.15-20.05-16.17,3.48-31.12,9.65-44.15,20.05Z"/><path class="cls-1" d="m266.6,91.03c-3.6-4.1-7.62-7.13-12.59-9.51,2.84-.2,12.14,6.85,12.59,9.51Z"/><path class="cls-1" d="m353.11,83.32c.2,3.08.41,6.2.64,9.6,1.01-2.02,1.91-3.82,2.84-5.69.37.17.67.32.97.46,0,.14.03.25,0,.31-1.42,2.81-2.83,5.64-4.31,8.42-.23.42-.83.64-1.26.96-.08-.52-.33-1.08-.21-1.55.96-3.81.56-7.62.1-11.43-.12-.98,0-1.39,1.23-1.08Z"/><path class="cls-1" d="m125.8,115.63h-24.86v-14.23h24.86v14.23Zm-24.3-.71h23.7v-12.92h-23.7v12.92Z"/><path class="cls-1" d="m130.55,213.77c-1.65.29-3.29.69-4.95.85-10.37.99-20.78,1.05-31.18.9-7.05-.11-14.09-.55-21.13-.91-1.29-.07-2.58-.41-3.86-.69-.3-.07-.54-.4-.8-.61.27-.26.5-.7.81-.76,1.73-.33,3.46-.7,5.21-.81,4.56-.3,9.12-.56,13.68-.67,6.06-.14,12.13-.29,18.18-.1,7.27.23,14.52.8,21.78,1.28.78.05,1.54.46,2.3.7-.01.27-.03.55-.04.82Z"/></g></svg>