<?xml version="1.0" standalone="no"?>
<!DOCTYPE svg PUBLIC "-//W3C//DTD SVG 20010904//EN"
 "http://www.w3.org/TR/2001/REC-SVG-20010904/DTD/svg10.dtd">
<svg version="1.0" xmlns="http://www.w3.org/2000/svg"
 width="1133.000000pt" height="1903.000000pt" viewBox="0 0 1133.000000 1903.000000"
 preserveAspectRatio="xMidYMid meet">

<g transform="translate(0.000000,1903.000000) scale(0.100000,-0.100000)"
fill="#000000" stroke="none">
<path d="M1 17578 c1 -809 5 -1400 10 -1333 32 493 178 972 394 1294 360 536
1035 1003 1833 1267 333 110 745 189 1107 213 67 5 -652 9 -1612 10 l-1733 1
1 -1452z"/>
<path d="M3940 19019 c783 -55 1552 -323 2213 -770 1032 -698 1652 -1770 1793
-3099 23 -218 26 -693 4 -865 -21 -169 -19 -548 4 -725 47 -362 160 -697 315
-932 44 -66 71 -92 198 -190 564 -437 1084 -921 1316 -1223 57 -75 71 -86 196
-160 267 -159 457 -305 583 -450 219 -251 405 -645 562 -1190 94 -326 155
-653 199 -1065 2 -19 5 2376 5 5323 l2 5357 -3752 -1 c-2064 -1 -3701 -6
-3638 -10z"/>
<path d="M3310 18999 c-757 -60 -1490 -308 -2085 -704 -191 -127 -318 -229
-474 -380 -421 -408 -631 -865 -711 -1545 -16 -130 -22 -578 -10 -729 26 -337
79 -675 150 -961 57 -226 408 -1470 616 -2180 382 -1306 765 -2507 1012 -3177
92 -248 407 -1031 420 -1043 6 -6 9 -16 -68 260 -97 351 -294 1145 -416 1675
-112 488 -270 1191 -354 1574 l-101 464 -78 91 c-495 579 -711 1205 -602 1743
170 834 1042 1521 2166 1707 213 36 367 47 633 46 134 0 253 -2 265 -4 12 -3
60 -8 107 -11 47 -3 114 -10 150 -15 109 -16 104 -19 118 56 71 377 345 654
623 631 120 -10 229 -61 346 -161 181 -155 347 -419 410 -653 38 -142 38 -368
0 -643 -49 -346 -47 -555 9 -829 47 -232 125 -442 314 -841 124 -262 188 -409
245 -560 182 -489 265 -1084 235 -1704 -6 -137 -13 -256 -15 -265 -1 -9 -6
-47 -9 -86 -19 -194 -52 -408 -96 -639 -11 -55 -18 -101 -16 -103 2 -2 27 75
55 172 241 814 342 1639 300 2460 -56 1116 -357 2218 -896 3283 -62 123 -108
222 -101 220 7 -3 54 -85 105 -184 650 -1265 969 -2648 913 -3954 -25 -606
-109 -1146 -265 -1706 -51 -186 -166 -534 -176 -534 -14 0 -11 16 26 185 103
457 156 909 159 1335 2 478 -31 774 -131 1165 -71 281 -142 461 -361 925 -153
326 -230 521 -276 702 -84 328 -94 605 -34 993 16 103 22 188 22 320 1 159 -2
191 -23 270 -82 313 -321 638 -556 756 -198 99 -382 69 -543 -89 -119 -117
-192 -253 -241 -450 l-26 -107 -80 11 c-595 84 -1211 31 -1741 -150 -850 -291
-1454 -877 -1595 -1549 -25 -117 -34 -354 -18 -477 14 -113 66 -311 114 -435
138 -358 351 -672 706 -1039 384 -398 782 -672 1281 -885 833 -354 1436 -443
1925 -285 163 52 422 204 448 261 5 12 18 24 30 27 24 6 104 95 181 203 210
292 332 752 322 1221 -3 155 2 198 16 131 9 -47 7 -259 -4 -389 -34 -391 -127
-687 -297 -945 -55 -83 -165 -215 -185 -223 -19 -8 -5 -23 45 -48 178 -90 280
-206 263 -297 -7 -38 -61 -107 -83 -107 -10 0 -4 12 20 39 42 46 51 71 43 116
-12 64 -137 175 -273 244 l-43 21 -57 -47 c-127 -102 -307 -195 -463 -238
-119 -32 -135 -40 -297 -148 -190 -125 -316 -229 -488 -402 -196 -196 -370
-422 -485 -630 -42 -77 -27 -62 40 40 91 136 246 338 360 469 227 258 461 443
724 572 151 74 272 115 421 144 118 22 135 24 135 12 0 -5 -46 -17 -102 -26
-573 -100 -1069 -498 -1572 -1261 -55 -82 -133 -202 -175 -265 -43 -64 -106
-144 -143 -180 -46 -44 -68 -73 -68 -89 0 -23 18 -59 67 -133 19 -29 22 -40
14 -56 -6 -11 -8 -22 -4 -26 3 -3 27 29 53 72 104 174 143 231 152 226 5 -3 1
-18 -8 -32 -78 -119 -204 -336 -217 -376 -22 -65 -196 -393 -304 -573 -100
-168 -250 -483 -287 -605 -14 -48 -33 -91 -41 -96 -9 -4 -58 -113 -111 -242
-285 -701 -556 -1512 -779 -2335 -116 -427 -292 -1172 -300 -1270 -3 -27 -14
-84 -25 -125 -25 -89 -21 -151 15 -229 101 -217 526 -367 1180 -416 44 -3 100
-8 125 -10 142 -13 659 -16 920 -6 431 18 937 60 1145 95 l70 12 -91 7 c-222
16 -345 104 -433 309 -35 83 -5 60 39 -30 73 -147 173 -227 315 -251 97 -17
303 -20 371 -6 95 20 327 111 469 183 284 146 523 334 695 548 35 43 85 102
111 129 26 28 51 62 54 78 7 26 6 27 -20 17 -31 -12 -45 -13 -45 -2 0 12 87
39 185 58 74 14 125 16 291 11 163 -5 212 -4 252 8 48 14 87 48 118 101 18 30
27 9 11 -23 -19 -35 -52 -65 -97 -89 -31 -16 -66 -18 -300 -19 -319 -1 -355
-8 -375 -69 -8 -21 -36 -62 -63 -90 -27 -28 -74 -83 -104 -121 -166 -211 -428
-416 -723 -565 l-134 -67 111 -199 c441 -792 916 -1482 1368 -1990 140 -156
415 -423 545 -527 294 -237 554 -374 778 -413 195 -34 343 12 531 164 153 123
586 565 815 832 155 181 235 317 360 610 429 1012 888 2815 1201 4715 33 198
64 385 69 415 5 30 8 56 6 58 -1 2 -49 -17 -107 -41 -212 -91 -514 -186 -708
-222 -247 -46 -532 -57 -747 -30 -399 51 -714 200 -1040 492 l-69 61 -149
-681 c-82 -375 -168 -770 -191 -877 -68 -315 -322 -1471 -359 -1641 -19 -86
-35 -162 -35 -170 0 -8 21 -35 46 -59 126 -123 359 -404 348 -421 -3 -5 -45
41 -95 103 -217 272 -471 509 -752 697 -42 28 -82 49 -87 46 -6 -3 -10 1 -10
9 0 8 -9 18 -20 21 -11 3 -20 11 -20 16 0 12 27 12 35 -1 23 -36 62 33 49 86
-11 43 -122 286 -141 306 -32 35 -104 69 -177 83 -213 41 -492 38 -713 -6 -91
-19 -127 -20 -112 -4 3 2 59 14 124 27 106 20 150 23 370 22 240 0 343 -10
419 -40 16 -6 17 -4 11 17 -27 91 -90 190 -146 230 l-29 21 12 -27 c9 -21 9
-28 -1 -34 -10 -7 -10 -10 -1 -16 15 -9 50 -84 49 -105 0 -8 -8 5 -17 28 -9
24 -44 75 -77 113 l-60 69 -220 -4 c-121 -3 -238 -8 -260 -11 -141 -21 -241
-40 -320 -60 -49 -12 -92 -21 -94 -19 -12 11 23 24 124 47 205 48 332 61 582
62 202 0 230 2 223 15 -23 43 -134 161 -195 208 l-69 53 -65 -6 c-293 -29
-557 -109 -786 -238 -44 -25 -82 -44 -84 -41 -11 10 32 38 152 98 202 101 446
174 637 191 36 3 84 8 108 11 27 3 49 1 58 -7 8 -6 14 -7 14 -2 0 13 -37 46
-80 72 -19 11 -30 21 -24 21 22 0 103 -60 109 -82 7 -23 42 -58 79 -79 15 -9
14 -5 -7 31 -46 77 -115 148 -155 160 -45 12 -252 13 -307 0 -111 -25 -212
-51 -330 -84 -140 -39 -403 -91 -412 -82 -11 11 0 14 100 31 54 9 178 38 275
64 98 27 210 57 251 67 40 11 76 25 79 32 11 31 -32 52 -139 67 -123 18 -252
56 -327 96 -42 22 -68 29 -111 29 -71 0 -120 -23 -202 -92 -160 -135 -254
-187 -423 -234 -182 -51 -232 -108 -262 -304 -9 -58 -24 -131 -34 -162 -10
-32 -16 -58 -14 -58 2 0 22 28 45 63 95 139 233 319 276 356 52 46 129 78 194
81 81 3 129 0 129 -9 0 -4 -37 -8 -83 -7 -75 0 -90 -3 -150 -32 -111 -55 -206
-178 -567 -734 -35 -54 -68 -98 -73 -98 -5 0 -7 7 -3 15 8 23 -18 18 -42 -7
-23 -26 -40 -65 -52 -123 -6 -31 -8 -34 -9 -13 -1 15 6 48 15 74 8 25 14 48
12 50 -12 11 -333 180 -503 264 -411 202 -752 332 -1009 384 -97 20 -136 20
-256 1 -185 -30 -402 -117 -579 -232 -81 -53 -125 -65 -66 -18 46 37 231 139
325 178 166 70 388 115 510 102 145 -15 432 -106 710 -224 160 -67 551 -259
755 -369 115 -63 131 -69 146 -56 8 7 25 14 36 14 15 0 38 27 86 103 36 56 74
121 86 144 l20 41 -71 119 c-161 269 -337 632 -412 850 -38 112 -53 142 -96
194 -174 210 -284 447 -315 684 -8 66 -22 164 -31 217 -9 57 -14 143 -13 205
3 104 2 153 -2 313 -4 120 58 318 145 466 29 51 50 122 130 442 l96 381 71
118 71 118 -16 67 c-40 173 -159 321 -316 396 -100 48 -187 72 -287 79 -80 6
-100 23 -28 23 67 0 189 -27 273 -61 146 -58 261 -161 328 -294 l36 -70 -9 80
c-4 44 -8 121 -8 170 0 141 22 188 188 411 76 103 149 196 161 206 39 35 120
68 164 68 119 0 204 -110 204 -265 0 -98 -41 -202 -111 -278 -21 -23 -47 -58
-57 -77 -25 -48 -24 -150 3 -210 19 -43 23 -46 75 -57 69 -14 132 -53 153 -94
34 -66 16 -156 -49 -234 -39 -48 -41 -22 -2 32 38 53 57 115 48 158 -8 42 -65
92 -127 111 -30 10 -57 15 -60 12 -3 -3 6 -47 20 -99 25 -93 87 -406 100 -507
7 -52 7 -53 66 -82 113 -58 157 -128 126 -203 -17 -38 -93 -101 -110 -90 -6 4
-1 13 14 22 42 27 78 68 85 96 10 39 -17 88 -68 122 -50 34 -98 56 -98 45 0
-4 13 -101 29 -217 17 -115 33 -239 37 -274 l7 -64 84 -39 c100 -45 240 -88
292 -88 86 1 159 65 179 158 8 33 6 55 -9 104 -11 34 -28 116 -39 181 -11 66
-21 121 -22 121 -2 1 -25 8 -53 15 -89 22 -179 93 -238 188 -13 21 -41 80 -61
131 -50 121 -46 149 22 212 27 25 65 53 85 64 l36 19 323 -120 323 -120 166
-494 c91 -272 176 -532 188 -579 23 -84 23 -86 6 -165 -27 -127 -107 -318
-266 -630 -80 -159 -162 -318 -180 -352 l-34 -62 23 -68 c54 -157 156 -343
263 -480 27 -34 45 -65 40 -68 -5 -3 -30 21 -54 52 -112 146 -207 318 -259
466 -20 59 -38 86 -38 57 0 -5 -4 -10 -10 -10 -5 0 -10 4 -10 8 0 5 38 78 85
163 118 211 294 570 349 710 58 146 89 263 82 309 -8 52 -99 337 -241 756
l-126 370 -315 118 -315 117 -43 -25 c-65 -38 -116 -99 -116 -139 0 -18 4 -37
8 -43 5 -5 19 -37 32 -72 29 -81 85 -166 139 -215 48 -43 133 -87 169 -87 22
0 23 3 17 40 -4 24 -3 40 3 40 6 0 13 -24 17 -52 26 -210 65 -382 100 -445 23
-42 17 -72 -7 -34 -12 19 -14 16 -39 -38 -39 -86 -88 -116 -183 -115 -84 1
-152 19 -292 81 -103 45 -104 46 -104 79 0 49 -65 517 -100 724 -43 248 -76
389 -122 515 -31 86 -40 125 -41 180 -1 82 10 107 82 190 122 139 139 345 38
453 -65 70 -160 69 -255 -1 -50 -38 -309 -392 -333 -456 -27 -74 -34 -158 -21
-277 6 -54 14 -133 17 -174 3 -41 12 -140 20 -220 25 -265 34 -431 40 -780 4
-210 7 -253 24 -302 10 -31 27 -67 36 -81 11 -17 13 -27 5 -32 -6 -4 -23 21
-42 62 l-33 68 -6 255 c-9 312 -17 525 -25 607 -6 61 -7 63 -40 69 -18 3 -48
1 -66 -5 -26 -9 -30 -9 -20 1 8 8 36 13 68 12 l56 0 -6 40 c-3 23 -8 69 -12
104 -4 34 -9 62 -13 62 -3 0 -33 -46 -65 -103 l-59 -102 -114 -453 c-95 -383
-113 -465 -113 -530 0 -127 36 -233 115 -336 20 -27 33 -51 30 -54 -11 -11
-69 63 -103 130 -50 100 -65 176 -59 298 l5 105 -24 -48 c-39 -75 -94 -249
-106 -334 -13 -86 -11 -92 58 -300 19 -57 34 -108 34 -113 0 -28 -20 6 -45 77
-36 102 -45 109 -47 42 -4 -111 0 -177 15 -269 9 -52 19 -126 22 -165 24 -255
138 -515 319 -729 51 -60 62 -81 106 -209 49 -145 113 -294 202 -472 55 -108
206 -379 244 -434 l23 -35 17 40 c15 35 33 116 64 284 14 73 61 154 109 186
21 14 92 41 157 60 155 46 245 94 374 199 125 102 156 118 237 123 55 4 70 0
150 -36 100 -46 165 -64 308 -87 106 -17 148 -37 153 -74 4 -22 14 -24 67 -12
l30 6 -49 53 c-27 29 -46 56 -41 60 4 4 33 -21 64 -56 l57 -62 66 0 c134 0
157 -7 219 -71 33 -33 71 -87 92 -128 19 -38 56 -96 81 -126 25 -31 53 -69 62
-83 9 -15 42 -46 73 -68 68 -49 134 -142 157 -222 12 -42 28 -67 63 -101 30
-30 55 -67 71 -106 13 -33 38 -90 57 -127 25 -52 33 -80 33 -123 0 -31 -4 -65
-10 -75 -8 -15 -2 -22 33 -45 78 -51 301 -223 371 -285 37 -33 70 -59 73 -56
2 2 27 107 54 233 28 125 90 410 139 633 104 477 336 1538 385 1760 19 85 64
289 100 454 l65 299 -43 46 c-100 108 -235 307 -303 446 l-43 90 29 155 c132
713 354 1495 575 2020 353 838 750 1261 1184 1260 47 0 113 -7 146 -14 33 -8
62 -13 64 -10 6 6 -251 126 -379 177 -63 25 -270 98 -460 162 -416 141 -613
214 -953 351 -245 99 -385 162 -414 186 -18 15 -16 4 7 -42 39 -76 52 -164 47
-305 -6 -142 -21 -210 -83 -365 -70 -176 -235 -433 -392 -615 -206 -237 -801
-697 -1255 -969 -236 -141 -558 -293 -735 -346 -107 -32 -220 -26 -288 15 -93
58 -158 189 -183 370 -16 112 -14 355 4 525 25 243 88 590 106 590 12 0 13 12
-20 -157 -60 -299 -82 -504 -82 -742 0 -448 137 -652 401 -597 140 29 468 175
720 320 358 207 887 594 1187 872 262 242 507 636 583 939 57 227 3 494 -115
568 -230 146 -528 468 -702 759 -75 126 -187 348 -179 356 8 8 5 13 87 -147
222 -436 527 -780 890 -1004 163 -101 687 -307 1392 -549 399 -136 487 -169
646 -244 63 -30 116 -53 117 -51 2 1 -36 49 -83 106 -251 301 -704 717 -1234
1133 -155 121 -180 145 -225 215 -168 254 -269 556 -320 948 -22 172 -24 546
-4 710 19 153 20 658 2 835 -129 1233 -643 2220 -1524 2925 -532 425 -1218
747 -1883 884 -167 34 -262 48 -510 76 -93 11 -589 14 -705 4z m-1628 -761
c-5 -7 -47 -60 -94 -118 -299 -374 -504 -794 -587 -1203 -16 -78 -30 -132 -30
-119 -2 38 39 219 76 342 85 283 231 571 423 840 82 114 207 270 217 270 3 0
1 -6 -5 -12z m-715 -1530 c-2 -13 -4 -3 -4 22 0 25 2 35 4 23 2 -13 2 -33 0
-45z m-10 -125 c-2 -21 -4 -6 -4 32 0 39 2 55 4 38 2 -18 2 -50 0 -70z m0
-285 c-2 -18 -4 -4 -4 32 0 36 2 50 4 33 2 -18 2 -48 0 -65z m10 -100 c-2 -13
-4 -3 -4 22 0 25 2 35 4 23 2 -13 2 -33 0 -45z m10 -65 c-3 -10 -5 -4 -5 12 0
17 2 24 5 18 2 -7 2 -21 0 -30z m70 -268 c14 -44 34 -99 44 -123 10 -24 15
-41 10 -37 -24 14 -122 333 -120 389 0 12 9 -17 20 -64 10 -47 31 -121 46
-165z m4002 33 c18 -51 24 -177 12 -243 -17 -92 -81 -213 -150 -283 -33 -33
-68 -65 -80 -71 -19 -11 -19 -8 5 43 39 86 50 154 35 220 -18 80 -62 162 -127
234 -34 38 -54 68 -50 77 9 25 22 17 81 -47 82 -91 135 -203 142 -301 l6 -78
28 43 c66 98 92 246 64 364 -10 45 -11 61 -2 66 20 13 25 9 36 -24z m-1950
-1425 c1 -16 -152 -149 -238 -207 -220 -147 -452 -217 -726 -218 -122 0 -297
20 -326 38 -4 2 1 30 11 61 11 39 22 57 31 54 71 -18 183 -30 275 -31 306 -1
587 110 819 323 l70 65 42 -37 c22 -20 42 -41 42 -48z m598 -337 c13 -12 -33
-166 -70 -238 -73 -143 -225 -279 -400 -357 -137 -62 -324 -113 -468 -128
l-59 -6 0 39 0 40 103 16 c179 29 362 92 495 170 31 18 95 71 142 118 95 95
138 170 167 290 l17 72 34 -6 c19 -3 37 -7 39 -10z m-1875 -100 c102 -48 182
-69 229 -62 23 4 39 2 39 -3 0 -17 -71 -24 -122 -12 -57 13 -228 90 -228 102
0 13 3 12 82 -25z m-352 -122 c11 -36 20 -91 20 -121 0 -53 -21 -113 -40 -113
-14 0 -13 7 6 35 22 34 20 119 -6 194 -23 69 -23 71 -10 71 5 0 18 -30 30 -66z
m1941 -32 c-35 -50 -129 -130 -196 -167 -77 -43 -204 -90 -265 -99 -33 -4 -23
1 35 18 199 59 338 142 410 246 15 22 30 38 33 36 2 -3 -5 -18 -17 -34z
m-2024 -99 c-14 -195 -161 -445 -351 -595 l-49 -39 -23 28 c-54 67 -55 65 31
145 95 89 166 180 210 273 36 74 65 178 65 233 l0 32 61 0 62 0 -6 -77z m1506
-180 c-7 -2 -21 -2 -30 0 -10 3 -4 5 12 5 17 0 24 -2 18 -5z m-65 -10 c-10 -2
-28 -2 -40 0 -13 2 -5 4 17 4 22 1 32 -1 23 -4z m-965 -139 c243 -576 508
-1087 745 -1434 390 -572 682 -672 871 -296 24 47 47 86 52 86 19 0 -47 -133
-101 -206 -21 -28 -62 -66 -91 -85 -50 -31 -60 -34 -134 -34 -73 0 -86 3 -150
38 -201 107 -409 362 -677 826 -151 262 -444 867 -549 1134 -31 77 0 51 34
-29z m176 -688 l22 -24 -49 -58 c-108 -130 -242 -236 -357 -283 -80 -33 -202
-40 -274 -16 -28 9 -51 19 -51 22 0 3 9 20 20 39 l21 33 37 -16 c64 -27 158
-13 260 37 77 38 101 57 207 166 66 67 125 123 131 123 6 1 21 -10 33 -23z
m-238 -64 c-50 -71 -179 -162 -228 -162 -10 0 7 11 38 23 64 27 123 72 169
128 36 45 51 53 21 11z m-334 -158 c-3 -3 -12 -4 -19 -1 -8 3 -5 6 6 6 11 1
17 -2 13 -5z m71 -11 c-10 -2 -28 -2 -40 0 -13 2 -5 4 17 4 22 1 32 -1 23 -4z
m2860 -864 c-2 -6 -51 -28 -108 -48 -279 -99 -517 -266 -594 -419 -14 -28 -31
-52 -36 -52 -16 0 -12 13 26 76 98 164 307 309 605 418 105 39 112 41 107 25z
m60 -2045 c-48 -71 -152 -115 -267 -113 l-66 2 85 7 c106 9 179 39 225 93 19
22 35 48 36 56 0 11 2 12 6 3 3 -7 -6 -29 -19 -48z m-317 -324 c64 -12 168
-52 150 -58 -6 -2 -17 0 -24 6 -23 18 -116 43 -167 45 -27 1 -50 5 -50 10 0
10 27 9 91 -3z m-108 -7 c-7 -2 -19 -2 -25 0 -7 3 -2 5 12 5 14 0 19 -2 13 -5z
m100 -43 c10 -10 8 -11 -8 -5 -41 17 -93 17 -124 1 -17 -9 -31 -12 -31 -7 0
29 138 38 163 11z m461 -435 c-9 -14 -18 -25 -20 -25 -2 0 2 11 8 25 6 14 15
25 20 25 5 0 1 -11 -8 -25z m586 -274 c0 -4 -28 -21 -62 -37 -51 -23 -77 -29
-135 -29 -48 0 -76 5 -85 14 -11 11 -9 12 12 5 14 -5 52 -9 86 -9 54 1 106 19
182 64 1 0 2 -3 2 -8z m290 -89 c-36 -16 -96 -47 -134 -70 -38 -24 -71 -41
-73 -38 -11 11 226 136 257 136 8 0 -14 -13 -50 -28z m-671 -985 c25 -23 57
-50 71 -60 24 -17 24 -17 -10 0 -51 27 -115 94 -144 152 -36 71 -32 78 6 8 17
-31 52 -76 77 -100z m2 97 c48 -30 159 -73 192 -75 17 -1 18 -2 4 -6 -32 -8
-171 46 -226 88 -34 27 -17 23 30 -7z m-690 -96 c30 -50 68 -106 85 -125 17
-18 28 -33 25 -33 -21 0 -101 112 -150 208 -36 70 -18 48 40 -50z m1062 15
c-7 -2 -19 -2 -25 0 -7 3 -2 5 12 5 14 0 19 -2 13 -5z m-65 -10 c-15 -2 -42
-2 -60 0 -18 2 -6 4 27 4 33 0 48 -2 33 -4z m-1377 -293 c19 -20 48 -46 64
-58 17 -12 25 -22 18 -22 -6 0 -36 22 -65 49 -51 46 -98 123 -113 181 -3 14 9
-6 28 -45 18 -38 49 -86 68 -105z m-171 -253 c17 -43 33 -93 36 -110 3 -18 -6
0 -20 39 -14 39 -36 97 -50 130 -14 32 -19 50 -11 40 8 -11 29 -55 45 -99z
m-76 -180 c9 -59 15 -118 15 -130 -1 -22 -37 190 -38 227 -2 46 8 3 23 -97z
m123 11 c-3 -8 -6 -5 -6 6 -1 11 2 17 5 13 3 -3 4 -12 1 -19z m-100 -215 c-3
-10 -5 -4 -5 12 0 17 2 24 5 18 2 -7 2 -21 0 -30z m299 -625 c77 -103 124
-185 124 -215 -1 -10 -7 -1 -14 19 -18 49 -68 127 -142 218 -33 42 -64 82 -69
90 -26 43 34 -24 101 -112z m1492 -47 c31 -42 60 -52 132 -48 39 3 57 1 45 -4
-34 -13 -105 -10 -141 7 -41 19 -75 84 -73 140 1 36 2 34 9 -15 5 -30 17 -66
28 -80z m428 -520 c40 -7 43 -9 16 -10 -40 -1 -92 19 -112 44 -11 14 -8 13 16
-4 17 -12 53 -26 80 -30z m154 -6 c0 -7 -30 -13 -34 -7 -3 4 4 9 15 9 10 1 19
0 19 -2z m511 -289 c16 -21 29 -46 29 -55 0 -9 -8 -2 -16 16 -9 17 -41 60 -72
95 -47 53 -49 56 -13 23 24 -22 56 -58 72 -79z m-3845 -36 c36 -18 63 -34 61
-37 -3 -2 -16 2 -29 11 -42 28 -112 48 -193 56 l-80 9 88 -4 c75 -2 98 -8 153
-35z m-301 11 c-33 -10 -79 -27 -102 -39 -24 -12 -43 -18 -43 -13 0 10 8 14
100 47 36 13 74 23 85 23 11 0 -7 -8 -40 -18z m2768 -149 c-84 -28 -119 -51
-134 -87 -8 -20 -8 -20 -8 1 -1 33 55 72 144 100 80 25 78 13 -2 -14z m36
-202 c-45 -24 -56 -37 -62 -75 l-4 -30 -2 31 c-1 25 7 39 34 63 20 17 43 31
53 31 10 -1 2 -9 -19 -20z m1777 -212 c8 -15 14 -35 13 -45 0 -10 -5 -4 -10
12 -5 17 -25 51 -46 75 -36 44 -36 44 -4 15 18 -16 39 -42 47 -57z m-1550 19
c-110 -68 -143 -96 -163 -137 -17 -33 -23 -39 -23 -22 0 32 70 104 137 140 57
31 86 42 49 19z m1594 -242 c0 -22 -45 -65 -67 -64 -14 0 -13 2 5 9 12 5 30
23 40 40 19 34 22 36 22 15z m-400 -54 c42 -5 11 -7 -90 -5 -128 3 -167 0
-225 -16 -38 -11 -81 -22 -95 -25 l-25 -6 25 12 c98 43 246 58 410 40z m258
-18 c-32 -2 -86 -2 -120 0 -35 2 -9 3 57 3 66 0 94 -1 63 -3z m-807 -213 c-69
-115 -153 -220 -263 -325 -160 -155 -338 -263 -554 -338 -102 -36 -256 -71
-276 -65 -6 2 22 10 63 17 313 55 647 246 857 491 67 77 202 274 202 293 0 6
3 7 6 4 4 -3 -12 -38 -35 -77z m-1128 -737 c-13 -2 -35 -2 -50 0 -16 2 -5 4
22 4 28 0 40 -2 28 -4z m-105 -10 c-16 -2 -40 -2 -55 0 -16 2 -3 4 27 4 30 0
43 -2 28 -4z"/>
<path d="M2 7888 l-2 -7888 4018 1 c2209 1 3988 5 3952 9 -522 62 -1250 697
-1972 1720 -260 369 -505 761 -764 1224 -62 111 -116 200 -121 199 -4 -1 -66
-23 -138 -48 -141 -51 -322 -82 -705 -124 -200 -22 -242 -25 -485 -42 -369
-24 -1082 -33 -1270 -15 -27 3 -93 8 -145 11 -105 6 -133 9 -300 31 -532 68
-855 218 -927 429 -25 76 -19 159 32 400 219 1041 537 2140 894 3093 67 180
236 603 256 641 11 21 8 27 -30 65 -246 247 -876 2294 -1865 6066 -89 338
-183 694 -210 790 -118 425 -195 876 -213 1260 -2 36 -4 -3484 -5 -7822z"/>
<path d="M641 12934 c0 -11 3 -14 6 -6 3 7 2 16 -1 19 -3 4 -6 -2 -5 -13z"/>
<path d="M661 12864 c0 -11 3 -14 6 -6 3 7 2 16 -1 19 -3 4 -6 -2 -5 -13z"/>
<path d="M671 12837 c-2 -23 415 -1547 634 -2317 433 -1521 756 -2494 931
-2807 36 -64 89 -133 104 -133 7 0 47 92 120 280 23 58 72 161 109 230 38 69
116 217 173 330 58 113 139 266 181 341 42 74 78 150 80 169 6 46 -11 111 -33
135 -28 30 -51 91 -52 140 -1 78 67 165 197 251 53 35 61 46 116 157 244 487
615 901 1072 1200 59 39 105 72 103 74 -2 2 -37 -1 -77 -6 -90 -12 -375 -7
-484 9 -405 56 -887 213 -1350 440 -392 192 -687 403 -1007 720 -93 91 -168
162 -168 158 0 -15 236 -1081 359 -1618 327 -1435 607 -2496 723 -2738 20 -41
22 -52 11 -50 -25 5 -512 1200 -678 1663 -245 681 -593 1781 -935 2950 -114
390 -128 436 -129 422z"/>
<path d="M9485 11094 c-204 -49 -423 -225 -619 -497 -373 -521 -724 -1511
-955 -2691 l-41 -208 52 -100 c225 -439 599 -781 1030 -942 241 -90 437 -120
733 -113 299 7 521 48 846 158 298 100 742 309 761 358 16 41 3 898 -16 1116
-98 1075 -331 1836 -722 2355 -210 279 -501 497 -748 560 -94 24 -231 26 -321
4z"/>
<path d="M10543 10580 c202 -266 345 -544 467 -907 155 -464 248 -982 294
-1648 13 -184 20 -907 9 -971 -5 -30 -15 -37 -184 -120 -164 -82 -179 -91
-183 -119 -3 -16 -15 -88 -26 -160 -353 -2230 -905 -4359 -1366 -5265 -79
-155 -120 -218 -225 -344 -150 -179 -288 -327 -538 -576 -253 -252 -365 -346
-480 -404 -57 -29 -88 -38 -196 -60 -11 -2 708 -4 1598 -5 l1617 -1 0 4139 c0
2660 -3 4141 -10 4143 -5 2 -16 66 -25 143 -69 632 -232 1239 -459 1710 -106
219 -190 348 -311 480 -39 41 -36 35 18 -35z"/>
<path d="M3073 9402 c-66 -53 -117 -114 -130 -157 l-11 -35 54 48 c56 50 151
169 142 178 -3 2 -28 -13 -55 -34z"/>
<path d="M2826 8543 c-6 -14 -5 -15 5 -6 7 7 10 15 7 18 -3 3 -9 -2 -12 -12z"/>
<path d="M6579 4852 c20 -20 37 -37 39 -36 2 1 -5 18 -14 38 -13 25 -24 36
-40 36 -20 0 -19 -3 15 -38z"/>
</g>
</svg>
