<?xml version="1.0" standalone="no"?>
<!DOCTYPE svg PUBLIC "-//W3C//DTD SVG 20010904//EN"
 "http://www.w3.org/TR/2001/REC-SVG-20010904/DTD/svg10.dtd">
<svg version="1.0" xmlns="http://www.w3.org/2000/svg"
 width="1070.000000pt" height="1393.000000pt" viewBox="0 0 1070.000000 1393.000000"
 preserveAspectRatio="xMidYMid meet">

<g transform="translate(0.000000,1393.000000) scale(0.100000,-0.100000)"
fill="#000000" stroke="none">
<path d="M2 11523 c0 -1325 4 -2333 9 -2242 15 347 67 835 110 1043 85 410
297 949 518 1316 147 244 250 371 511 631 264 262 334 325 495 444 154 114
241 172 396 260 657 378 1431 639 2352 795 338 57 766 108 1057 125 52 4 109
8 125 10 17 3 138 7 270 11 132 4 242 8 244 10 2 2 -1367 4 -3042 4 l-3047 0
2 -2407z"/>
<path d="M6675 13915 c678 -79 1301 -411 1870 -996 1123 -1157 1891 -3159
2100 -5479 8 -91 17 -205 20 -255 3 -49 8 -110 10 -135 2 -25 7 -117 11 -205
4 -88 8 -162 10 -164 2 -2 4 1628 4 3622 l0 3627 -2067 -1 c-1736 -1 -2050 -3
-1958 -14z"/>
<path d="M6000 13907 c-3 -2 -92 -7 -198 -11 -106 -4 -217 -9 -245 -11 -29 -3
-117 -10 -197 -15 -80 -6 -158 -13 -175 -15 -16 -2 -79 -9 -140 -15 -1422
-139 -2728 -598 -3504 -1232 -116 -94 -238 -207 -196 -182 17 10 59 36 95 58
198 121 451 202 700 224 121 10 514 -3 650 -22 509 -73 931 -229 1325 -491
212 -141 423 -326 552 -481 l50 -62 7 -113 c4 -63 9 -145 11 -184 2 -38 7
-115 10 -170 3 -55 8 -131 10 -170 2 -38 7 -124 10 -190 3 -66 8 -145 10 -175
2 -30 7 -113 10 -185 3 -71 8 -161 10 -200 3 -38 7 -119 10 -180 3 -60 7 -148
10 -195 10 -194 16 -306 25 -505 6 -115 12 -246 15 -290 3 -44 9 -183 15 -310
5 -126 12 -273 15 -325 8 -157 14 -287 20 -435 3 -77 7 -180 10 -230 7 -129
14 -290 30 -705 23 -589 25 -640 30 -740 2 -52 7 -178 10 -280 3 -102 8 -228
10 -280 3 -52 7 -178 10 -280 3 -102 7 -246 10 -320 22 -635 39 -1461 50
-2415 9 -708 -18 -1860 -50 -2160 -3 -22 -9 -85 -15 -140 -6 -55 -13 -111 -16
-125 -13 -60 10 -3 47 116 115 369 252 876 333 1239 130 578 355 1918 450
2675 3 25 13 97 21 160 31 236 75 615 109 940 43 407 42 395 61 605 8 94 17
193 20 220 31 331 80 1031 105 1520 19 376 19 387 35 790 3 72 7 240 10 375 3
135 8 319 10 410 3 91 5 441 5 778 0 457 3 612 12 612 8 0 9 -212 4 -867 -4
-478 -9 -890 -10 -918 -2 -27 -7 -160 -10 -295 -4 -135 -9 -281 -11 -325 -2
-44 -7 -141 -10 -215 -13 -300 -41 -814 -60 -1080 -58 -817 -127 -1541 -220
-2310 -14 -113 -27 -218 -29 -235 -3 -16 -10 -68 -16 -115 -161 -1224 -367
-2393 -546 -3105 -92 -362 -366 -1290 -389 -1313 -16 -17 -13 16 9 89 14 46
32 124 40 174 14 82 46 372 46 416 0 15 -11 13 -83 -21 -45 -21 -123 -51 -172
-66 -78 -24 -107 -28 -220 -28 -143 0 -208 16 -312 75 -146 83 -273 260 -334
462 -11 37 -21 67 -23 67 -2 0 -82 -40 -178 -89 -189 -97 -408 -188 -533 -221
-44 -12 -120 -24 -170 -27 -80 -4 -95 -2 -134 19 -95 50 -103 144 -33 373 130
422 131 978 3 1588 -10 48 -15 90 -10 93 20 12 79 -312 104 -576 17 -171 19
-555 5 -701 -15 -140 -52 -322 -95 -458 -43 -138 -46 -211 -12 -262 79 -118
351 -62 823 171 l221 109 -5 148 c-5 172 3 224 79 522 83 326 88 513 20 783
-32 128 -100 302 -168 428 -43 82 -208 336 -255 393 l-23 28 -58 -20 c-144
-50 -252 -66 -452 -66 -163 0 -205 3 -294 23 -228 51 -432 144 -685 312 -220
146 -342 245 -520 422 l-149 149 6 -233 c27 -1053 366 -2127 954 -3023 130
-197 298 -422 432 -578 57 -66 101 -121 98 -123 -5 -6 -109 58 -201 124 -101
72 -289 258 -390 384 -503 636 -954 1683 -1371 3187 -195 704 -419 1690 -565
2486 -17 94 -42 213 -55 265 -77 306 -154 744 -190 1083 -8 78 -17 160 -20
182 -5 46 -24 377 -28 480 -2 39 -4 -1871 -5 -4242 l-2 -4313 5350 0 5350 0
-2 2823 c-1 1552 -3 2800 -5 2772 -1 -27 -7 -144 -13 -260 -6 -115 -13 -232
-15 -260 -3 -27 -9 -111 -15 -185 -54 -676 -179 -1470 -345 -2181 -56 -241
-55 -239 -67 -239 -6 0 -8 10 -4 23 3 12 29 121 57 242 180 777 292 1514 354
2340 25 323 30 519 30 1125 0 575 -5 720 -41 1145 -159 1903 -704 3637 -1522
4840 -191 281 -365 495 -582 719 -481 494 -991 803 -1545 936 -221 53 -305 62
-655 67 -179 3 -327 3 -330 0z m80 -256 c0 -7 -44 -11 -132 -11 -732 0 -1714
-241 -2614 -641 -63 -28 -118 -49 -121 -45 -9 9 -9 9 138 74 646 286 1406 509
1999 587 288 38 730 59 730 36z m1122 -2864 c148 -74 300 -231 470 -487 283
-424 440 -956 399 -1348 -29 -276 -123 -474 -319 -668 -371 -368 -672 -411
-821 -117 -22 44 -61 152 -61 169 0 1 9 4 20 7 16 4 22 -5 41 -65 61 -191 191
-291 339 -259 133 29 297 139 471 318 118 121 180 216 228 349 127 352 70 808
-163 1289 -122 252 -240 428 -400 593 -169 175 -273 230 -417 219 -206 -16
-401 -158 -534 -389 -26 -46 -47 -59 -60 -38 -11 18 88 170 169 259 23 24 68
63 101 86 132 94 233 126 377 122 76 -3 95 -7 160 -40z m-224 -819 c68 -359
91 -538 99 -753 3 -93 6 -171 7 -172 0 -1 66 104 146 233 184 298 165 272 184
254 13 -13 2 -36 -105 -210 -206 -333 -266 -420 -290 -420 -23 0 -24 -2 6 100
35 124 6 462 -81 919 -25 136 -26 161 -1 161 10 0 21 -33 35 -112z m-256 -873
c41 -258 100 -680 133 -950 19 -159 37 -308 40 -330 3 -22 14 -130 25 -240 11
-110 22 -216 25 -235 2 -19 7 -66 10 -105 3 -38 10 -119 15 -180 15 -168 39
-497 45 -620 3 -60 8 -126 10 -145 2 -19 7 -132 10 -250 4 -118 9 -221 11
-229 9 -27 4 -981 -6 -1177 -34 -699 -114 -1220 -252 -1644 -52 -160 -83 -230
-102 -230 -23 0 -24 9 -10 100 25 158 25 547 0 755 -3 28 -10 91 -16 140 -63
545 -252 1218 -536 1904 -55 133 -65 165 -53 172 8 5 17 9 20 9 16 0 224 -537
317 -820 230 -700 348 -1394 329 -1920 l-5 -145 24 75 c114 351 193 838 236
1445 20 292 16 1567 -7 1776 -2 19 -6 90 -10 159 -9 193 -38 570 -60 790 -2
25 -7 77 -10 115 -6 62 -38 372 -50 480 -18 154 -58 479 -71 575 -46 340 -108
764 -120 818 -4 20 -1 23 18 20 21 -3 24 -12 40 -113z m402 -1687 c3 -18 10
-78 16 -133 31 -303 79 -720 109 -955 52 -397 64 -491 97 -715 218 -1506 465
-2519 694 -2855 54 -78 103 -121 204 -179 341 -194 1058 -390 1771 -486 176
-24 176 -23 157 -51 -8 -13 -41 -9 -312 32 -350 53 -767 145 -1043 229 -194
58 -360 123 -521 203 -133 66 -159 83 -222 146 -62 62 -80 89 -142 213 -226
457 -449 1455 -652 2918 -12 83 -23 161 -25 175 -6 40 -65 504 -81 640 -8 69
-19 161 -24 205 -5 44 -21 186 -35 315 -13 129 -27 256 -30 283 -5 42 -4 47
14 47 15 0 21 -8 25 -32z m653 -4203 c-3 -6 -38 -58 -78 -116 -602 -863 -1367
-1580 -2253 -2114 -156 -94 -211 -123 -218 -113 -10 16 -6 19 172 124 286 169
622 404 895 629 523 428 1051 1007 1414 1547 29 42 49 64 58 61 8 -3 12 -11
10 -18z"/>
<path d="M2137 12690 c-192 -19 -409 -81 -580 -166 -552 -278 -1003 -895
-1293 -1769 -124 -376 -170 -618 -209 -1105 -3 -41 -8 -84 -10 -95 -18 -91
-27 -879 -13 -1150 11 -200 109 -860 224 -1507 35 -199 120 -532 213 -838 305
-1004 741 -1696 1368 -2168 305 -230 603 -380 873 -438 122 -27 430 -27 550 0
429 94 820 362 1176 807 87 109 243 341 302 449 49 89 68 117 76 109 8 -8
-123 -234 -214 -369 -278 -408 -608 -713 -955 -882 -60 -29 -112 -54 -114 -55
-2 -1 17 -28 42 -61 140 -181 294 -464 362 -661 72 -213 99 -437 76 -639 -7
-57 -39 -212 -72 -345 -55 -218 -61 -255 -66 -377 -4 -115 -2 -148 16 -222 75
-315 236 -511 477 -584 92 -28 254 -23 369 11 90 26 246 97 263 118 10 13 16
94 33 497 19 439 15 2332 -6 2901 -2 63 -7 233 -10 379 -3 146 -8 315 -10 375
-2 61 -7 202 -10 315 -3 113 -7 252 -10 310 -2 58 -7 184 -10 280 -9 280 -31
882 -40 1085 -10 228 -15 344 -20 480 -3 77 -8 176 -10 220 -3 44 -7 143 -10
220 -9 220 -38 876 -50 1100 -12 224 -17 325 -35 700 -11 220 -22 438 -25 485
-2 47 -7 132 -10 190 -3 58 -7 143 -10 190 -11 199 -15 261 -20 365 -3 61 -8
139 -10 175 -3 36 -7 117 -10 180 -3 63 -10 189 -16 280 l-10 164 -47 56 c-73
86 -198 209 -298 291 -478 397 -1074 636 -1723 693 -127 11 -408 14 -494 6z
m1541 -1499 l20 -59 -61 -22 c-592 -211 -1051 -469 -1370 -769 -135 -127 -267
-306 -322 -434 -27 -64 -28 -66 -59 -60 -73 15 -81 19 -79 44 5 47 95 211 171
312 291 387 785 709 1502 983 91 35 168 63 172 63 3 1 15 -26 26 -58z m-3107
-940 c172 -114 280 -202 369 -298 69 -76 138 -190 123 -204 -5 -4 -31 -13 -59
-21 l-51 -15 -24 46 c-32 61 -144 178 -248 259 -78 61 -292 207 -314 215 -14
4 43 107 58 107 7 0 73 -40 146 -89z m3733 -337 c11 -4 16 -19 16 -43 l0 -36
-113 -2 c-129 -2 -370 -13 -375 -17 -1 -2 8 -37 22 -78 37 -116 49 -212 43
-355 -5 -135 -20 -197 -60 -246 -104 -130 -411 7 -751 334 l-115 110 -49 -25
c-161 -82 -361 -250 -474 -400 -56 -74 -137 -222 -151 -276 -5 -19 -10 -21
-39 -15 -18 4 -36 9 -40 12 -10 6 36 126 77 198 273 488 899 794 1705 834 226
11 286 12 304 5z m-1354 -187 c0 -8 -24 -18 -62 -26 -201 -41 -423 -209 -568
-428 -30 -46 -58 -83 -62 -83 -43 0 61 159 187 286 98 99 182 160 282 205 111
51 223 74 223 46z m-1840 -140 c0 -7 -7 -67 -15 -132 -45 -357 -64 -556 -60
-633 3 -56 -1 -98 -10 -126 -20 -59 -23 -88 -40 -316 -46 -641 -48 -1227 -5
-1580 51 -417 170 -641 340 -640 14 0 52 12 85 25 41 17 63 21 70 14 14 -14
-17 -36 -79 -54 -147 -44 -250 15 -332 189 -69 147 -109 347 -134 660 -13 163
-13 739 0 1001 10 203 13 248 30 455 14 165 13 191 -5 184 -19 -8 -152 24
-185 43 -78 48 -135 188 -169 418 l-16 110 -45 22 c-78 39 -172 64 -263 70
-84 6 -88 7 -93 32 -3 14 -7 32 -10 39 -5 17 131 16 217 -2 188 -40 416 -186
554 -354 28 -34 53 -61 58 -61 4 -1 7 22 7 49 0 58 -26 107 -93 172 -48 47
-161 124 -225 152 -38 17 -58 46 -32 46 20 0 135 -62 196 -106 62 -44 154
-137 154 -157 0 -6 2 -8 5 -6 2 3 16 99 30 215 34 282 34 284 51 284 8 0 14
-6 14 -13z m1075 -4156 c271 -44 523 -149 736 -307 107 -79 116 -89 99 -109
-10 -12 -22 -6 -78 39 -200 160 -426 265 -701 323 -117 25 -143 27 -366 27
-178 0 -259 -5 -312 -16 -76 -16 -83 -15 -83 12 0 47 474 68 705 31z m-401
-353 c-36 -73 -69 -134 -75 -136 -14 -5 -13 -2 41 109 27 57 47 105 45 107 -2
2 -48 -21 -101 -51 -54 -31 -102 -53 -107 -50 -4 3 -7 6 -5 8 8 8 254 145 260
145 4 0 -22 -60 -58 -132z m449 -65 c42 -73 77 -137 77 -143 0 -27 -20 -1 -80
105 l-65 114 -3 -109 c-4 -166 -22 -136 -22 37 0 81 4 143 8 138 5 -6 43 -69
85 -142z"/>
<path d="M3630 9788 c-112 -19 -230 -48 -415 -101 -49 -14 -125 -33 -167 -42
-43 -10 -78 -20 -78 -25 0 -14 235 -235 323 -304 221 -172 417 -248 501 -192
56 36 90 150 89 301 -1 114 -14 195 -49 307 -29 92 -17 88 -204 56z"/>
<path d="M614 9158 c12 -158 56 -319 108 -401 34 -54 74 -77 160 -96 91 -19
95 -16 103 92 4 51 9 100 10 109 3 15 -39 56 -354 342 l-34 31 7 -77z"/>
<path d="M102 7665 c0 -16 2 -22 5 -12 2 9 2 23 0 30 -3 6 -5 -1 -5 -18z"/>
<path d="M112 7595 c0 -16 2 -22 5 -12 2 9 2 23 0 30 -3 6 -5 -1 -5 -18z"/>
<path d="M122 7530 c0 -14 2 -19 5 -12 2 6 2 18 0 25 -3 6 -5 1 -5 -13z"/>
<path d="M132 7475 c0 -16 2 -22 5 -12 2 9 2 23 0 30 -3 6 -5 -1 -5 -18z"/>
<path d="M142 7410 c0 -14 2 -19 5 -12 2 6 2 18 0 25 -3 6 -5 1 -5 -13z"/>
<path d="M152 7350 c0 -14 2 -19 5 -12 2 6 2 18 0 25 -3 6 -5 1 -5 -13z"/>
<path d="M161 7294 c0 -11 3 -14 6 -6 3 7 2 16 -1 19 -3 4 -6 -2 -5 -13z"/>
<path d="M360 6341 c0 -20 103 -527 166 -816 596 -2718 1316 -4428 2114 -5022
47 -34 88 -63 93 -63 4 0 -27 42 -70 92 -609 732 -1044 1650 -1232 2603 -69
348 -111 752 -111 1066 l0 145 -76 95 c-345 431 -624 1016 -838 1759 -25 85
-45 149 -46 141z"/>
</g>
</svg>
