<?xml version="1.0" standalone="no"?>
<!DOCTYPE svg PUBLIC "-//W3C//DTD SVG 20010904//EN"
 "http://www.w3.org/TR/2001/REC-SVG-20010904/DTD/svg10.dtd">
<svg version="1.0" xmlns="http://www.w3.org/2000/svg"
 width="1130.000000pt" height="1122.000000pt" viewBox="0 0 1130.000000 1122.000000"
 preserveAspectRatio="xMidYMid meet">

<g transform="translate(0.000000,1122.000000) scale(0.100000,-0.100000)"
fill="#000000" stroke="none">
<path d="M1 7383 c1 -2111 5 -3797 9 -3747 66 802 436 1888 1111 3259 248 505
368 728 865 1608 273 483 577 881 956 1253 499 490 1022 823 1683 1072 563
212 1239 352 1860 385 33 2 -1413 4 -3212 5 l-3273 2 1 -3837z"/>
<path d="M7110 11209 c544 -34 1065 -159 1486 -359 295 -140 591 -345 783
-544 l73 -76 102 0 c369 0 766 -101 1047 -266 286 -168 492 -387 641 -684 l58
-115 0 1028 0 1027 -2162 -1 c-1268 -1 -2107 -5 -2028 -10z"/>
<path d="M6420 11190 c-529 -36 -1043 -134 -1540 -295 -759 -246 -1356 -602
-1899 -1130 -342 -333 -612 -671 -864 -1080 -611 -994 -969 -2180 -1069 -3545
-20 -281 -16 -1123 7 -1365 3 -27 12 -126 20 -220 15 -169 53 -475 78 -633 10
-57 10 -81 3 -79 -13 4 -15 17 -60 362 -34 262 -58 517 -73 775 -12 198 -9
967 5 1145 81 1043 273 1878 617 2686 34 82 62 149 60 149 -10 0 -325 -592
-505 -950 -835 -1665 -1254 -3027 -1170 -3805 42 -389 194 -657 459 -806 87
-50 101 -74 17 -32 -136 68 -269 194 -344 326 -77 134 -133 328 -155 537 -2
19 -5 -700 -5 -1597 l-2 -1633 5650 0 5650 0 0 4574 c0 2699 -4 4576 -9 4578
-5 2 -39 62 -75 133 -114 226 -290 432 -496 579 -287 207 -745 346 -1136 346
-62 0 -114 -2 -114 -5 0 -3 22 -39 49 -79 256 -380 513 -966 636 -1452 60
-241 82 -381 73 -481 -16 -206 -139 -458 -490 -1006 -212 -331 -289 -459 -359
-592 -68 -128 -119 -275 -119 -336 1 -60 30 -121 72 -147 54 -34 112 -41 320
-42 280 -2 388 -29 524 -130 130 -98 235 -309 274 -553 27 -165 -35 -367 -205
-672 -430 -772 -1639 -2121 -3400 -3795 -325 -309 -978 -910 -983 -905 -8 7
2530 3945 2871 4455 143 214 183 318 175 459 -10 180 -140 333 -374 442 -143
68 -123 79 -301 -176 -83 -120 -151 -221 -149 -222 2 -2 43 0 92 4 49 5 116 6
149 3 51 -4 60 -8 63 -25 3 -20 -1 -21 -94 -17 -115 5 -206 -9 -324 -50 -226
-79 -493 -274 -698 -509 -76 -88 -88 -98 -101 -85 -12 13 -10 21 24 63 76 94
272 281 379 361 122 90 282 178 395 215 l74 25 167 241 167 240 17 128 c46
342 121 625 202 760 46 76 69 100 124 128 25 13 59 38 76 57 105 110 248 404
434 892 l88 230 -20 55 c-73 196 -212 481 -324 661 -140 227 -374 498 -559
647 -597 482 -1379 618 -2282 397 -265 -64 -584 -177 -810 -285 -55 -27 -106
-49 -111 -49 -26 0 -594 -1715 -861 -2601 -457 -1515 -779 -2876 -876 -3694
-3 -27 -8 -70 -12 -94 -3 -25 -2 -41 3 -38 10 6 379 59 529 76 311 36 440 44
736 46 l315 2 85 67 c353 282 753 460 1169 521 134 20 371 13 541 -15 59 -10
66 -14 62 -31 -6 -23 -1 -23 -116 -5 -160 25 -281 28 -437 12 -408 -44 -811
-216 -1172 -500 -86 -67 -87 -60 5 -80 25 -6 37 -29 19 -40 -5 -3 -38 0 -74 6
-58 10 -69 10 -93 -6 -21 -14 -29 -15 -41 -6 -7 7 -12 16 -9 20 10 16 -65 19
-305 15 -321 -5 -728 -44 -1098 -103 -101 -17 -112 -17 -113 -3 -1 42 -17 -33
-24 -114 -30 -371 -27 -621 11 -767 13 -54 28 -135 33 -180 6 -46 13 -93 17
-105 4 -14 2 -23 -4 -23 -20 0 -61 168 -81 325 -25 198 -299 927 -648 1725
-192 439 -278 782 -328 1319 -10 104 -12 457 -3 596 31 488 143 1048 307 1529
17 50 31 91 31 92 0 1 -13 5 -29 9 -79 17 -164 146 -196 295 -23 107 -31 398
-15 557 7 70 14 169 14 218 1 68 7 101 23 135 83 181 351 393 728 576 266 130
323 134 335 23 l5 -54 109 163 c181 271 336 474 336 438 0 -2 -43 -61 -96
-132 -134 -179 -360 -523 -368 -559 -22 -96 -27 -106 -49 -103 -25 3 -54 -41
-194 -290 -426 -762 -730 -1589 -857 -2332 -94 -554 -98 -1053 -11 -1565 57
-335 140 -595 325 -1020 209 -480 417 -1009 519 -1318 24 -70 44 -127 46 -127
2 0 4 78 4 172 0 347 45 751 146 1303 205 1131 625 2668 1232 4510 187 567
541 1587 557 1603 21 21 7 -31 -58 -214 -41 -115 -74 -210 -72 -211 2 -2 59
23 127 56 380 180 832 309 1244 357 197 23 524 23 695 0 746 -100 1324 -492
1740 -1182 82 -137 198 -370 261 -526 24 -60 47 -104 51 -100 5 5 51 134 103
288 53 153 100 281 105 282 6 2 10 2 10 -1 0 -12 -198 -589 -250 -727 -177
-476 -331 -817 -440 -975 -35 -51 -105 -115 -125 -115 -35 0 -97 -75 -145
-174 -53 -110 -87 -217 -125 -396 -21 -102 -65 -380 -65 -414 0 -7 19 -19 43
-25 118 -36 286 -139 365 -226 138 -151 160 -345 61 -551 -16 -35 -114 -191
-217 -346 -103 -156 -244 -371 -313 -478 -70 -107 -195 -301 -279 -430 -84
-129 -369 -570 -633 -980 -264 -410 -498 -774 -522 -810 -23 -36 -176 -274
-340 -530 -164 -256 -368 -572 -452 -704 -85 -131 -152 -240 -151 -241 5 -5
566 513 878 809 1571 1496 2683 2706 3210 3496 251 376 370 636 386 840 5 63
1 94 -24 190 -70 273 -182 440 -347 516 -104 48 -157 56 -415 63 -235 7 -247
8 -301 33 -81 37 -104 78 -103 183 1 157 87 326 460 910 315 492 420 689 479
892 45 156 39 243 -46 583 -124 504 -386 1097 -661 1502 -73 107 -223 253
-383 374 -508 382 -1170 605 -1970 663 -142 10 -556 11 -705 1z m1701 -403
c385 -330 576 -728 555 -1162 -5 -116 -25 -237 -40 -253 -15 -15 -15 11 1 74
13 53 17 110 17 244 0 155 -3 187 -26 280 -51 203 -131 367 -262 534 -63 80
-261 279 -310 312 -25 16 -34 34 -18 34 5 0 42 -28 83 -63z m-2109 -2409 c32
-62 88 -171 126 -243 37 -71 132 -255 211 -408 137 -263 147 -281 212 -341 83
-79 156 -110 239 -103 30 2 61 6 68 8 18 5 59 -98 45 -112 -18 -18 -147 -26
-212 -13 -88 18 -156 59 -242 144 -67 67 -83 92 -153 230 -43 85 -82 160 -86
165 -4 6 -56 105 -115 220 -60 116 -144 277 -186 360 l-78 149 47 28 c26 15
52 27 57 27 6 1 36 -50 67 -111z m-360 -758 c134 -89 279 -210 353 -296 142
-167 238 -358 250 -504 5 -54 5 -53 -9 15 -60 298 -269 563 -626 794 -52 34
-134 82 -182 107 -49 25 -88 47 -88 50 0 11 205 -102 302 -166z m-288 9 c87
-35 209 -99 296 -157 101 -67 250 -211 310 -301 94 -141 162 -332 172 -488 l5
-73 -43 0 -44 0 0 50 c0 71 -26 191 -62 284 -103 268 -390 516 -723 628 -38
12 -72 24 -73 25 -2 1 -1 20 3 42 l7 39 51 -15 c29 -8 74 -24 101 -34z m1940
-505 c19 -7 2 -39 -297 -589 -629 -1156 -993 -1755 -1093 -1803 -28 -13 -40
-14 -76 -3 -56 17 -180 142 -264 266 -70 104 -174 278 -174 293 0 9 30 26 35
20 1 -2 23 -41 50 -88 124 -219 269 -401 352 -441 l47 -22 50 54 c125 135 431
644 924 1539 91 166 280 516 337 625 64 122 83 155 90 155 2 0 11 -3 19 -6z
m-748 -66 c28 -17 61 -24 138 -29 l101 -7 -100 2 c-81 2 -108 6 -142 24 -24
12 -43 25 -43 27 0 9 8 6 46 -17z m380 1 c-33 -11 -78 -22 -100 -24 -23 -3 -3
5 44 18 102 29 138 33 56 6z m734 -49 c0 -27 37 -121 58 -145 30 -36 66 -55
103 -55 63 0 277 40 476 90 l193 47 10 -36 c24 -89 32 -82 -130 -123 -358 -90
-560 -116 -644 -84 -78 30 -159 140 -180 246 -4 19 -10 43 -12 52 -5 18 14 24
89 27 31 1 37 -2 37 -19z m-162 -291 c58 -63 116 -95 207 -115 l60 -13 -55 5
c-115 10 -232 97 -297 221 -18 33 -33 65 -33 69 0 5 15 -18 33 -51 17 -32 56
-85 85 -116z m-1241 -6 c-3 -10 -5 -4 -5 12 0 17 2 24 5 18 2 -7 2 -21 0 -30z
m1556 -110 c-7 -2 -21 -2 -30 0 -10 3 -4 5 12 5 17 0 24 -2 18 -5z m-89 -155
c-3 -4 -11 -5 -19 -1 -21 7 -19 12 4 10 11 0 18 -5 15 -9z m-126 -5 c-15 -2
-42 -2 -60 0 -18 2 -6 4 27 4 33 0 48 -2 33 -4z m220 0 c-16 -2 -40 -2 -55 0
-16 2 -3 4 27 4 30 0 43 -2 28 -4z m-319 -7 c-2 -2 -35 -6 -74 -9 -45 -3 -58
-3 -35 2 37 9 116 14 109 7z m427 -7 c24 -6 44 -15 44 -20 0 -4 -19 -2 -42 6
-24 8 -52 16 -63 18 -17 4 -17 5 -2 6 10 0 38 -4 63 -10z m-577 -13 c-12 -10
-60 -16 -54 -6 3 5 18 10 32 10 15 0 24 -2 22 -4z m443 -60 c82 -15 199 -69
239 -112 l22 -24 -23 -25 c-13 -14 -27 -25 -32 -25 -4 0 -28 15 -52 34 -70 53
-163 80 -276 79 -52 0 -122 -5 -155 -12 -75 -15 -238 -68 -287 -92 -21 -11
-40 -19 -42 -19 -7 0 -36 56 -36 68 0 12 188 86 275 107 138 35 252 41 367 21z
m-2992 -1747 c246 -37 555 -207 792 -437 l57 -55 -20 -38 c-72 -142 -238 -211
-358 -150 -108 56 -293 291 -465 593 -32 58 -51 63 -215 56 -96 -5 -133 -11
-213 -38 -228 -76 -431 -256 -553 -491 -56 -109 -64 -151 -37 -212 47 -107
214 -175 518 -213 156 -19 543 -24 807 -11 151 8 157 7 157 -12 0 -17 -11 -20
-117 -27 -147 -10 -579 -11 -733 -2 -208 13 -423 59 -532 114 -109 55 -164
135 -156 229 8 99 111 276 237 408 96 101 173 158 285 212 174 84 334 105 546
74z m3408 -155 c34 -7 37 -11 23 -32 -7 -11 -25 -12 -106 -1 -355 44 -807 -88
-1299 -381 -269 -160 -602 -413 -829 -629 -89 -86 -95 -90 -110 -73 -16 17 -9
24 101 124 157 143 252 221 407 338 511 384 996 610 1420 660 71 9 333 4 393
-6z"/>
<path d="M4850 4554 c0 -11 101 -175 171 -279 87 -128 183 -241 244 -284 90
-64 211 -48 289 39 63 70 63 72 -1 130 -196 179 -412 311 -614 375 -88 27 -89
28 -89 19z"/>
<path d="M3540 8851 c-60 -19 -213 -87 -300 -133 -311 -167 -533 -344 -609
-489 -31 -56 -34 -71 -36 -158 -1 -53 -6 -134 -11 -181 -13 -126 -10 -465 5
-535 22 -105 51 -182 87 -229 34 -44 78 -76 107 -76 8 0 32 50 61 128 159 420
403 921 657 1348 79 133 98 184 99 261 0 71 -8 80 -60 64z m-337 -387 c12 -4
-11 -60 -111 -262 -153 -309 -212 -453 -212 -515 0 -58 -8 -77 -31 -77 -26 0
-34 41 -19 95 12 44 8 348 -6 453 -6 38 -4 42 14 42 16 0 22 -8 26 -32 5 -34
15 -204 16 -273 1 -40 1 -40 34 35 92 207 259 540 271 540 2 0 10 -3 18 -6z"/>
</g>
</svg>
