<?xml version="1.0" standalone="no"?>
<!DOCTYPE svg PUBLIC "-//W3C//DTD SVG 20010904//EN"
 "http://www.w3.org/TR/2001/REC-SVG-20010904/DTD/svg10.dtd">
<svg version="1.0" xmlns="http://www.w3.org/2000/svg"
 width="957.000000pt" height="1147.000000pt" viewBox="0 0 957.000000 1147.000000"
 preserveAspectRatio="xMidYMid meet">

<g transform="translate(0.000000,1147.000000) scale(0.100000,-0.100000)"
fill="#000000" stroke="none">
<path d="M1 9668 c1 -992 5 -1744 10 -1673 17 286 46 470 101 644 56 175 199
489 331 726 81 147 287 450 403 595 136 170 450 485 614 616 683 544 1490 839
2430 887 30 2 -833 4 -1917 5 l-1973 2 1 -1802z"/>
<path d="M4318 11463 c7 -3 16 -2 19 1 4 3 -2 6 -13 5 -11 0 -14 -3 -6 -6z"/>
<path d="M4351 11466 c2 -2 51 -6 109 -9 483 -29 1022 -154 1425 -333 243
-107 523 -279 750 -460 242 -193 593 -571 802 -864 571 -800 981 -1881 1158
-3052 31 -203 71 -548 80 -683 4 -55 9 -108 11 -118 9 -49 19 -488 18 -787 -2
-427 -28 -872 -74 -1230 -5 -41 -12 -97 -15 -125 -33 -273 -117 -752 -185
-1060 -29 -133 -138 -572 -159 -643 -7 -24 -7 -34 2 -37 7 -2 71 -11 142 -20
374 -46 882 -150 1101 -225 l54 -19 0 4835 0 4834 -2612 0 c-1436 0 -2609 -2
-2607 -4z"/>
<path d="M3785 11440 c-1041 -84 -1900 -458 -2584 -1125 -339 -331 -591 -671
-821 -1110 -82 -157 -102 -209 -48 -127 14 20 58 72 98 115 289 309 745 499
1305 545 646 53 1257 -163 1826 -644 162 -137 354 -337 478 -497 l43 -56 19
-161 c15 -132 41 -377 74 -715 8 -77 33 -403 45 -570 5 -82 12 -181 15 -220 4
-64 18 -330 30 -600 14 -323 18 -546 18 -1100 0 -335 -3 -682 -7 -770 -16
-406 -28 -634 -47 -935 -11 -179 -21 -341 -24 -360 -2 -19 -6 -73 -10 -120 -3
-47 -8 -105 -10 -130 -3 -25 -14 -139 -25 -255 -74 -756 -207 -1691 -334
-2337 -12 -65 -21 -118 -19 -118 1 0 50 93 107 208 708 1415 1176 3036 1326
4597 6 61 12 130 15 155 38 388 56 891 50 1350 -2 195 -7 382 -9 415 -3 33 -8
116 -11 185 -14 293 -69 848 -115 1150 -17 116 -18 142 -5 128 18 -18 91 -622
119 -988 57 -725 53 -1609 -9 -2245 -18 -180 -48 -444 -66 -582 l-22 -162 53
-82 c227 -355 391 -932 446 -1574 3 -44 8 -91 10 -105 17 -134 24 -803 11
-1095 -7 -175 -4 -177 38 -17 64 245 111 616 135 1067 8 154 5 1468 -3 1550
-3 22 -7 126 -11 230 -4 105 -8 210 -11 235 -2 25 -7 97 -10 160 -16 318 -59
905 -100 1360 -31 339 -34 375 -40 425 -2 22 -7 65 -10 95 -5 58 -32 324 -41
400 -34 314 -44 382 -54 395 -9 11 -9 15 -1 15 7 0 9 10 7 23 -12 56 -17 157
-8 157 9 0 29 -132 24 -152 -3 -12 5 -10 66 21 165 82 332 88 479 15 241 -117
409 -484 390 -849 -25 -462 -275 -824 -637 -921 -36 -10 -69 -20 -73 -24 -4
-4 21 -103 57 -221 151 -504 252 -997 305 -1489 29 -271 28 -260 42 -585 16
-382 -3 -854 -47 -1211 l-6 -50 519 2 c470 2 616 -1 943 -20 139 -8 344 -25
455 -36 131 -14 122 -16 139 40 25 85 113 436 150 600 340 1511 377 3041 106
4401 -244 1221 -714 2263 -1362 3014 -127 147 -397 410 -533 518 -144 115
-360 259 -512 342 -401 218 -916 367 -1488 431 -166 18 -671 27 -830 14z m595
-89 c0 -4 -48 -11 -107 -15 -860 -57 -1595 -365 -2113 -885 -98 -98 -216 -242
-281 -341 -9 -14 -20 -22 -24 -18 -8 8 55 104 119 183 145 179 284 311 473
452 395 295 864 488 1403 578 243 40 530 66 530 46z"/>
<path d="M1734 9720 c-410 -35 -782 -155 -1058 -343 -123 -83 -286 -247 -365
-367 -152 -231 -226 -459 -267 -825 -28 -250 -28 -832 0 -1130 3 -27 8 -81 11
-120 64 -737 255 -1565 511 -2214 109 -276 353 -759 376 -745 4 3 8 -4 8 -14
0 -28 153 -254 265 -392 330 -408 705 -670 1168 -819 308 -98 669 -108 956
-25 274 80 512 213 736 413 57 52 91 76 93 67 6 -27 -28 -256 -46 -308 -9 -28
-26 -57 -38 -65 -18 -12 -24 -11 -48 8 -31 25 -70 95 -57 104 5 3 22 -17 37
-44 14 -28 33 -52 41 -55 23 -9 51 52 67 148 32 191 31 199 -15 150 -38 -41
-156 -136 -244 -196 -128 -87 -359 -196 -494 -234 -8 -3 17 -36 68 -89 185
-192 313 -451 373 -747 19 -95 23 -146 23 -318 0 -207 -9 -320 -26 -320 -5 0
-6 26 -1 63 15 127 8 446 -12 552 -55 298 -196 578 -388 773 -61 62 -76 73
-98 68 -165 -36 -214 -41 -410 -41 -224 0 -309 13 -516 74 -54 16 -101 28
-103 25 -12 -11 35 -157 79 -250 73 -151 196 -277 347 -353 l63 -32 112 25
c62 13 149 30 193 37 87 15 511 19 558 6 50 -14 20 -23 -50 -16 -177 20 -450
6 -638 -33 -116 -23 -139 -32 -107 -42 12 -4 22 -12 22 -17 0 -12 0 -12 -47 5
-38 13 -44 12 -142 -25 -254 -95 -462 -239 -624 -429 -25 -30 -47 -48 -47 -40
0 18 93 126 165 192 139 128 388 270 555 318 24 6 23 8 -20 30 -130 67 -257
185 -329 308 -48 80 -97 212 -107 286 -6 44 -10 50 -43 63 -296 121 -526 265
-726 455 -47 44 -87 79 -89 77 -2 -2 3 -74 10 -159 49 -575 113 -1038 169
-1235 41 -141 40 -139 22 -129 -27 15 -94 112 -141 203 -140 271 -280 719
-411 1311 -35 162 -90 434 -101 508 -4 23 -10 42 -14 42 -4 0 -13 -46 -19
-102 -7 -57 -14 -119 -17 -138 -10 -66 -11 -435 -3 -585 30 -554 164 -1357
343 -2058 58 -227 46 -234 -44 -23 -286 676 -549 1864 -769 3481 -35 257 -86
671 -102 835 -7 68 -29 184 -55 285 -143 557 -248 1269 -267 1810 -2 44 -4
-1595 -5 -3642 l-2 -3723 4785 0 4785 0 -2 892 -3 892 -60 19 c-360 111 -910
213 -1385 257 -63 6 -135 12 -160 15 -25 2 -90 7 -145 10 -55 4 -116 8 -135
11 -111 12 -472 19 -952 19 -506 0 -548 1 -548 16 0 10 6 75 14 146 119 1073
-4 2253 -343 3293 -22 69 -37 128 -33 132 4 3 36 14 71 23 344 88 589 401 641
819 53 419 -139 844 -427 948 -130 46 -335 15 -461 -70 -10 -7 -6 -64 18 -285
40 -367 84 -815 115 -1177 14 -162 27 -322 30 -355 7 -75 41 -582 50 -730 4
-60 8 -128 10 -150 2 -22 7 -112 10 -200 3 -88 8 -173 10 -190 18 -148 28
-1455 13 -1775 -27 -569 -97 -1028 -199 -1290 -17 -45 -32 -80 -34 -78 -1 2 1
35 6 73 32 295 35 969 4 1336 -54 655 -180 1173 -372 1529 -54 100 -113 194
-118 188 -2 -2 -20 -100 -39 -218 -190 -1162 -547 -2321 -1053 -3420 -86 -187
-325 -661 -330 -656 -2 2 10 72 27 157 91 461 208 1198 274 1734 57 457 106
954 136 1390 6 83 12 179 15 215 54 765 68 2062 30 2790 -2 52 -7 151 -10 220
-3 69 -8 154 -10 190 -3 36 -7 112 -10 170 -9 152 -43 609 -60 795 -17 183
-64 630 -69 660 -2 11 -7 56 -11 99 -7 74 -10 82 -59 146 -77 102 -243 284
-348 381 -448 413 -927 660 -1423 734 -126 19 -380 26 -511 15z m496 -1380
c235 -22 511 -77 730 -145 176 -56 520 -206 520 -227 0 -5 -11 -31 -25 -58
l-25 -49 -88 43 c-402 201 -927 325 -1369 326 l-93 0 0 29 c0 16 -3 43 -6 60
l-6 31 123 0 c68 0 176 -5 239 -10z m-1117 -69 c4 -4 5 -32 1 -62 l-6 -55
-128 4 c-70 2 -166 -1 -214 -7 -155 -21 -347 -86 -476 -161 -38 -22 -71 -40
-74 -40 -3 0 -21 21 -41 47 l-35 46 32 22 c162 109 404 192 623 215 87 9 305
3 318 -9z m96 -498 c-9 -93 -19 -202 -22 -243 -3 -41 -11 -127 -16 -190 -6
-63 -13 -151 -16 -195 -3 -44 -7 -107 -10 -140 -10 -128 -30 -470 -41 -709
-17 -381 -4 -905 28 -1081 29 -162 58 -217 133 -255 43 -22 63 -25 145 -24
142 1 259 48 438 177 46 32 86 56 90 52 8 -8 -20 -31 -126 -101 -214 -143
-408 -187 -550 -124 -64 29 -88 54 -112 117 -53 141 -65 299 -65 833 0 383 5
564 22 809 l6 93 -31 -16 -30 -16 -45 63 c-25 34 -63 79 -85 100 l-39 38 -27
-76 c-34 -92 -92 -183 -140 -220 -50 -38 -114 -45 -155 -16 -63 45 -118 205
-147 426 -8 66 -19 124 -24 129 -5 5 -61 9 -125 9 l-115 0 0 38 c0 37 0 37 50
44 102 14 288 -15 418 -65 158 -61 333 -193 436 -331 25 -33 48 -60 52 -60 9
0 10 2 24 211 6 91 13 183 15 205 2 22 7 81 10 130 3 50 8 106 10 125 2 19 11
114 20 210 17 191 22 220 33 220 4 0 0 -75 -9 -167z m1659 -450 c-10 -2 -28
-2 -40 0 -13 2 -5 4 17 4 22 1 32 -1 23 -4z m267 2 c-33 -13 -709 -194 -712
-191 -8 8 216 96 329 130 121 36 269 64 348 64 25 0 41 -1 35 -3z m231 -5 c78
-14 204 -51 204 -60 0 -4 -5 -22 -11 -39 -9 -27 -15 -32 -33 -26 -111 32 -186
47 -267 52 l-97 6 -12 -59 c-75 -379 -224 -623 -379 -624 -112 0 -254 162
-339 387 -15 40 -30 73 -33 73 -12 0 -248 -145 -311 -191 l-68 -51 -24 29
c-14 15 -26 31 -26 34 -1 19 414 281 424 267 1 -1 15 -39 30 -83 41 -118 131
-286 188 -350 75 -84 143 -111 212 -85 40 15 113 87 151 150 65 107 151 372
171 528 l7 52 76 0 c43 0 104 -5 137 -10z m-606 -12 c-199 -42 -433 -152 -628
-297 -45 -34 -82 -58 -82 -53 1 12 130 104 240 170 162 96 408 192 490 190 14
0 5 -4 -20 -10z m-2035 -63 c113 -52 227 -143 305 -241 33 -41 60 -78 60 -82
-1 -4 -13 9 -28 28 -117 152 -279 276 -417 320 -22 7 -44 16 -49 21 -18 16 41
-5 129 -46z m5212 -215 c17 -110 26 -346 16 -412 -6 -32 -6 -55 -2 -52 4 2 54
73 110 157 56 83 103 153 104 155 4 5 35 -11 35 -18 0 -12 -203 -314 -248
-368 -39 -49 -58 -60 -74 -44 -8 8 -4 32 13 84 22 66 24 89 23 233 -1 88 -8
199 -16 248 -8 48 -12 90 -9 93 3 2 12 3 21 2 10 -2 18 -25 27 -78z m-2417
-146 c22 -9 40 -22 40 -30 0 -11 -8 -10 -37 6 -52 28 -91 25 -147 -11 -48 -30
-70 -32 -47 -5 19 22 93 56 123 56 15 0 46 -7 68 -16z m-3187 -105 c33 -15 57
-60 56 -106 l0 -38 -19 55 c-21 62 -40 80 -87 80 -18 0 -33 5 -33 10 0 13 53
13 83 -1z m3267 -29 c0 -162 -98 -240 -269 -212 -78 13 -121 27 -121 40 0 5
33 0 73 -10 178 -47 279 6 294 157 6 58 23 77 23 25z m-3407 -54 c-9 -47 16
-131 48 -162 27 -25 38 -29 97 -31 37 -1 69 -2 72 -3 3 0 -2 -5 -10 -10 -8 -5
-37 -10 -65 -10 -89 0 -147 55 -160 151 -7 48 0 89 14 89 5 0 6 -11 4 -24z
m1307 -2361 c429 -76 767 -163 858 -221 125 -79 187 -147 212 -231 29 -97 -33
-185 -184 -258 -84 -41 -285 -105 -328 -105 -35 0 -18 18 25 24 67 11 275 83
332 116 70 40 132 108 141 155 10 55 -19 118 -87 186 -80 80 -89 84 -130 53
-52 -39 -163 -93 -226 -109 -73 -19 -210 -19 -293 1 -164 38 -351 175 -461
336 -54 79 -58 90 -28 84 13 -3 89 -17 169 -31z"/>
<path d="M413 7243 c3 -5 8 -46 11 -93 17 -204 73 -404 131 -466 71 -75 169
-24 245 126 29 57 83 210 77 216 -5 5 -458 224 -463 224 -3 0 -3 -3 -1 -7z"/>
<path d="M1350 4332 c0 -4 29 -44 64 -88 180 -225 447 -337 676 -285 69 17
184 71 230 109 l34 29 -34 18 c-68 35 -383 115 -684 174 -243 47 -286 54 -286
43z"/>
<path d="M351 5245 c0 -11 4 -54 9 -95 5 -41 12 -95 15 -120 40 -359 140
-1074 201 -1450 150 -919 316 -1666 490 -2202 55 -168 154 -432 160 -425 2 1
-8 45 -21 97 -150 590 -273 1320 -315 1860 -10 140 -15 658 -6 701 3 13 7 53
10 89 3 36 12 104 20 152 l14 87 -70 123 c-156 270 -293 580 -424 963 -46 132
-83 231 -83 220z"/>
<path d="M966 3850 c166 -896 380 -1628 559 -1916 26 -41 48 -74 50 -72 2 2
-6 37 -16 78 -22 86 -65 320 -79 435 -5 44 -12 96 -15 115 -2 19 -14 123 -25
230 -11 107 -23 211 -25 230 -2 19 -9 100 -15 180 -15 201 -19 227 -35 240
-12 10 -15 9 -15 -10 0 -25 -60 -90 -83 -90 -44 0 -94 107 -135 290 -24 107
-30 121 -90 210 -83 120 -84 121 -76 80z"/>
<path d="M1130 3622 c0 -28 45 -199 66 -247 22 -53 52 -95 69 -95 7 0 27 14
44 31 35 34 41 78 14 100 -9 8 -56 63 -105 122 -57 70 -88 101 -88 89z"/>
</g>
</svg>
