<?xml version="1.0" encoding="UTF-8"?><svg id="Calque_2" xmlns="http://www.w3.org/2000/svg" viewBox="0 0 171.23 293.58"><defs><style>.cls-1{fill:#fff;}</style></defs><g id="Calque_1-2"><path class="cls-1" d="m171.23,82.5s-.06-.25-.14-.35c-1.52-2.14-.67-4.64-.92-6.95-.36-3.27-.16-6.6-.22-9.9-.01-.72-.71-1.52-.28-2.11,1.06-1.45-.1-2.79,0-4.18.23-3.09-2.05-5.79-1.47-9.02.12-.67-.27-1.69-1.02-2.44-.85-.85-1.88-1.77-2.05-3.08-.34-2.67-2.06-4.73-3.23-6.99-3.11-5.99-6.95-11.56-10.83-17.08-.19-.26-.48-.46-.65-.73-1.17-1.82-3.12-3.05-4.14-4.9-2.04-3.71-5.42-5.72-8.91-7.64-.59-.33-1.33-.59-2.07-.25-.09.71.53.89.88,1.24,2.15,2.16,4.6,4.09,6.43,6.49,4.59,6.03,9.62,11.72,13.26,18.47,1.71,3.18,3.67,6.23,5,9.59,1.59,4.03,3.46,7.97,4.45,12.23,1.28,5.52,1.53,11.16,1.87,16.77.28,4.69.9,9.4.49,14.09-.34,3.88.77,7.79-.21,11.63-.64.19-.94-.28-1.25-.56-2.47-2.26-5.09-4.09-8.64-4.18-.87-.02-1.52.57-2.44.37-1.1-.24-2.2-1.87-1.39-2.6.85-.75.52-1.31.34-2.07-.2-.83-.3-1.68-.21-2.57.32-3.14-.23-6.28.1-9.45.15-1.5-.58-3.6-.05-4.61.87-1.64-1.52-2.91.06-4.18-.62-2.83-.27-5.72-.47-8.56-.27-3.83-.81-7.65-1.3-11.47-.09-.74-.61-1.58-1.35-1.51-1.07.1-.41,1.06-.37,1.6.22,3.55.74,7.1.71,10.65-.06,6.8.15,13.61.21,20.4.05,5.66.26,11.34-.26,16.95-.39,4.26-.79,8.55-1.5,12.79-.48,2.93-.44,5.95-1.11,8.83-1.19,5.16-1.53,10.43-2.47,15.61-.66,3.63-.77,7.37-1.48,10.99-1.23,6.29-2.73,12.53-4.12,18.78-.7,3.16-.87,6.48-1.77,9.52-1.48,5.02-2.73,10.12-4.37,15.09-1.9,5.77-2.16,11.93-4.51,17.61-2.37,5.73-3.47,11.87-5.23,17.8-.83,2.79-1.21,5.71-2.08,8.48-1.33,4.2-3.02,8.24-4.02,12.59-1.9,8.28-4.34,16.43-6.55,24.63-1.35,5.03-2.47,10.13-4.11,15.09-.24.72-.29,1.67-1.18,1.49-1-.2-.63-1.28-.41-1.86,1.65-4.41.04-9.14,1.57-13.64.88-2.61.81-5.57,1.5-8.32.34-1.35.48-2.64.04-4.09-.41-1.34-1.22-3.44-.24-4.18,2.07-1.56.01-4.05,1.76-5.42-.46-3.32,1.61-6.16,1.78-9.34.11-2.06,1.43-3.77,1.7-5.73.49-3.55,2.22-6.92,1.63-10.64,1.88-1.11,1.22-3.01,1.33-4.61.24-3.44,2.27-6.33,2.27-10.01,0-4.15,2.03-8.2,2.47-12.46.26-2.52,1.13-4.99,1.29-7.51.3-4.52,1.42-8.9,1.94-13.38.2-1.7.29-3.47,1.03-5.19.93-2.15,1.74-4.81,1.41-6.84-.39-2.4.55-4.42.6-6.62.05-2.3,1.11-4.67,1.18-7.15.03-.87-.12-1.74.02-2.67.54-3.69,1.8-7.29,1.93-10.98.11-3.32.28-6.73.94-9.85.71-3.39.79-6.78,1.13-10.14.22-2.18,1.27-4.49.1-6.76-.21-.4.04-.97.4-1.27.7-.59.81-1.35.78-2.16-.08-2.31.54-4.54.37-6.92-.32-4.4.04-8.84.09-13.27.02-1.9.22-3.84-.07-5.69-.35-2.18-.4-4.33-.07-6.47.77-4.92-.1-9.63-1.54-14.29-.15-.47-.51-.66-.87-.68-.48-.02-.26.48-.35.75-.15.43-.53.93-.42,1.27.97,3.06.52,6.14.31,9.22.77,5.55,1.34,11.1.23,16.66.01.28.03.55.04.83.13,2.92-.55,5.73-.45,8.65.15,4.21-.03,8.48-.56,12.66-.67,5.27-1.16,10.55-1.86,15.81-.62,4.63-.93,9.28-1.74,13.89-1.11,6.29-1.82,12.65-2.92,18.94-.76,4.3-.2,8.93-2.93,12.79-.13.19-.18.55-.1.77,1.13,2.96-.2,5.75-.62,8.58-.73,4.89-1.65,9.76-2.61,14.61-.54,2.73-.38,5.59-1.14,8.21-1.55,5.3-2,10.79-3.19,16.14-.35,1.57-.51,3.32-1.84,4.6-.91-1.29.24-2.55-.14-3.53-1.09-2.85.28-5.58.37-8.32.14-4.17.67-8.38.78-12.59.03-1.28-.87-1.52-1.75-1.79-1.14-.36-1.08.53-1.28,1.23-.19.63-.37,1.23-.44,1.91-.37,3.6-.29,7.23-.52,10.83-.56,8.99-1.49,17.95-2.19,26.93-.18,2.28-.99,4.46-.69,6.84.14,1.11-.12,2.52-1.31,3.39-1.96,1.43-3.11,3.62-4.85,5.27-.66.62-.46.89.28,1.26,1.51.77,2.76.21,3.84-.72,1.13-.98,1.29-.35,1.35.64.03.46.04.94-.02,1.39-.74,5.33-1.39,10.67-2.28,15.97-1.22,7.21-2.21,14.46-3.17,21.7-.17,1.26.33,1.94,1.56,2.01,1.42.07.84-.97.86-1.67.05-1.79.55-2.14,1.99-1.2.92.6,1.63.48,2.58.1,2.94-1.17,3.48-3.91,4.09-6.41.48-1.98,1.14-4.04,1.92-5.75,1.31-2.87,1.64-5.8,2.17-8.75.21-1.16.23-2.32.66-3.46.35-.94.63-.92,1.37-.44,1.11.72,2.68.9,3.22-.24,1.11-2.36,4.12-3.49,4.11-6.52,0-.26.34-.54.55-.78,1.9-2.18,4.52-3.93,4.32-7.36-.02-.26.29-.7.53-.78,2.2-.74,2.61-2.93,3.76-4.52.79-1.09.66-2.66,1.59-3.53,2.34-2.21,2.32-5.69,4.51-7.98.33-.34.53-.93.98-1.34.95-.87,1.56-1.94,1.66-3.29.17-2.39,1.47-4.5,3.29-5.59,2.04-1.23,1.79-2.56,1.5-4.27-.2-1.2-.9-1.71-2.05-1.74-1.21-.03-1.69.65-2.04,1.74-.52,1.59-.88,3.52-2,4.57-1.64,1.54-2.26,3.54-3.34,5.3-1.94,3.14-3.23,6.71-5.38,9.69-2.04,2.84-3.11,6.17-5.45,8.9-1.77,2.06-3.1,4.72-4.47,7.2-1.11,2.01-2.14,4.11-3.78,5.78-.41.41-.87.98-1.51.72-.7-.29-.52-.96-.39-1.56.21-.96.1-2.12.61-2.87,2.11-3.08,2.8-6.65,3.85-10.11,1.06-3.48,3.02-6.78,1.67-10.66-.17-.48.02-1.37.8-1.67.42-.17.74-.44.62-.88-.91-3.26,2.18-5.72,1.75-8.88-.02-.17.11-.47.24-.52,2.74-1.1.16-4.95,3.08-5.95.03-.01.04-.29-.03-.37-1.51-1.8.23-3.32.37-4.97.13-1.56,1.71-1.98,2.07-3.48.42-1.74,1.08-3.31.39-5.1-.09-.23.15-.64.32-.91,1.16-1.82,1.07-4,1.55-5.98.58-2.39,1.72-4.6,2.05-7.07.11-.82.61-1.65.54-2.6-.04-.57-.12-1.25.5-1.61.89-.53.89-1.33.54-2.08-.35-.74.02-1.22.23-1.84.53-1.57,1.68-2.85,1.99-4.51.32-1.72-1.29-3.89,1.17-5.14.12-.06.18-.38.14-.55-.47-2.03.43-3.87,1.1-5.6.83-2.16,1.33-4.09.04-6.18-.34-.55-.34-1.34.38-1.49,1.71-.35.94-1.31.76-2.25-.5-2.61.23-5,1.67-7.12.45-.66.52-1.2.32-1.82-.93-2.96-.39-5.76.86-8.48.4-.88.72-1.72.39-2.67-.2-.55-.11-1.06.19-1.52,1.11-1.74.87-3.62.69-5.53-.11-1.21.27-3.21.89-3.28,1.12-.14.75-.49.7-1.04-.14-1.63-.84-3.51-.28-4.85,1.07-2.53.58-5.33,1.78-7.83.19-.4.8-1.84.26-2.77-.73-1.28-.28-2.54.21-3.63.41-.9.66-1.81.55-2.66-.4-3.12.76-6.05.94-9.09.06-1,.44-1.27,1.2-.6.99.87,2.06.73,3.18.47.98-.23,1.91-.19,2.92.12,3,.9,4.17,3.3,5.1,5.9,1.38,3.85,1.12,7.85,1.03,11.83-.13,6.23-.76,12.36-4.57,17.61-3.75,5.17-7.56,10.3-13.44,13.33-.67.34-1.56.92-.99,1.61.62.76,1.68,1.86,2.79,1.14,1.8-1.17,3.55-2.56,5.01-4.06,2.99-3.08,5.56-6.58,9.22-9.32-.07,1.13,0,2.22-.21,3.24-.83,3.94-1.5,7.91-1.76,11.91-.42,6.41-1.67,12.7-2.51,19.05-.52,3.89-1.74,7.69-2.66,11.52-1.46,6.12-2.63,12.3-4.77,18.25-1.14,3.17-1.61,6.57-2.71,9.76-.89,2.57-1.63,5.1-1.53,7.84.01.39-.18.83.3,1.04.46.21.67-.21.99-.44,1.62-1.21,1.69-3.19,2.31-4.84.64-1.72.55-3.7,1.51-5.37,1.23-2.17,1.17-4.87,2.88-6.89.44-.51.18-1.56.41-2.31.76-2.45.78-5.12,2.01-7.4.91-1.69,1.19-3.25.4-5.02-.25-.57-.47-1.55.4-1.68,1.58-.23,1.37-1.07,1.04-2.12-.18-.57-.28-1.18.13-1.72,1.74-2.38,1.35-5.36,1.91-8,.57-2.71.13-5.67,1.11-8.47.8-2.3,0-4.83.67-7.23.16-.56.88-1.36.06-1.98-.78-.59-.28-1.22-.29-1.9-.03-2.59,2.67-4.89.81-7.67-.14-.21,0-.66.09-.97.82-2.58.33-5.33,1.17-8,.39-1.25.11-3.09.46-4.67.32-1.44.62-2.89.79-4.37.13-1.06,1.04-2.27,1.26-3.64.35-2.22.03-4.64.72-6.62,1.06-3.05.31-6.03.34-8.95.04-3.28.33-6.67-.4-9.96-.25-1.1.7-2.01.79-3.02.15-1.75-.43-3.64.03-5.26.43-1.49-1.52-3.35.74-4.45Z"/><path class="cls-1" d="m18.97,125.58c-1.23,6.07-1.98,11.63-2.62,17.21-.96,8.33-1.94,16.66-2.85,25-.25,2.29-.42,4.61-.36,6.91.06,2.81-.81,5.5-.84,8.27-.08,6.75.03,13.51-.19,20.26-.25,7.63.13,15.29-.39,22.89-.51,7.46-.19,14.88.76,22.2.94,7.25,1.66,14.54,2.75,21.78.25,1.67.45,3.36.61,5.04.07.71.14,1.48.96,1.49.79.02.94-.78,1.11-1.44.71-2.83.75-5.76,1.2-8.63,1.77-11.11,1.61-22.3,1.54-33.49-.01-2.19.02-4.38-.02-6.57-.02-1.05.5-1.43,1.45-1.41.89.01,1.99-.33,2.09,1.11.22,3.14.45,6.28.58,9.42.04.87-.02,1.78.33,2.55.98,2.17.93,4.56,1.56,6.8.11.38.1.8.72,1.09,1.04-1.52,1.57-3.32,1.96-5.04,1.46-6.32,4.03-12.36,4.98-18.8.78-5.23,1.85-10.39,2.94-15.56.09-.44-.04-.92-.03-1.38.02-.63-.3-1.51.57-1.68.69-.13,1.53.17,1.88.88.82,1.68,1.88,3.06,1.17,5.4-1.25,4.13-1.71,8.49-2.5,12.76-.61,3.27-1.21,6.55-1.83,9.82-.05.25-.17.5-.3.73-2.04,3.67-2.92,7.77-4.42,11.65-.94,2.44-1.12,5.29-3.49,7.06-.46.35-.19.85-.1,1.29.33,1.61-.4,2.4-1.94,2.01-1.18-.3-1.59.05-1.74,1.11-.48,3.26-.79,6.54-1.15,9.81-.29,2.59-.29,5.29-1.53,7.71-.12.24-.32.49-.32.73.11,3.26-2.44,4.86-4.25,6.94-.71.82-1.11.67-1.72-.02-.92-1.03-.95-2.46-1.58-3.54-1.89-3.25-2.95-6.7-3.4-10.38-.23-1.89-.5-3.77-.72-5.65-.65-5.65-1.51-11.29-1.87-16.96-.29-4.57-1.33-9.05-1.25-13.69.06-3.59-.91-7.19-.84-10.83.14-6.88-1.4-13.65-1.34-20.52,0-1.13.04-2.28.24-3.34.23-1.21.39-2.18-.62-3.06-.39-.34-.39-.82-.28-1.29.72-3.28.13-6.61.3-9.9.22-4.33-.75-8.65.14-13.01.44-2.13.25-4.48-.1-6.66-.42-2.61-.14-5.13.05-7.71.27-3.78.28-7.58.33-11.38.03-2.31-.15-4.64.56-6.88.34-1.09-.86-1.94-.36-3.07,1.68-3.84.22-7.19-1.79-10.38-3.01-4.77-4.02-9.92-1.79-15.1,1.37-3.18,2.53-6.88,6.66-8.15,1.24-.38.7-2.29.74-3.35.09-3.02,1.22-5.99.5-9.07-.16-.68.4-1.56.62-2.24.75-2.34.38-4.83,1.23-7.12.51-1.39,1.3-1.87,2.71-1.48-2.2,5.92-1.62,12.16-2.59,18.19-.79,4.85-.79,9.75-1.29,14.61-.51,5.01-1.05,10.04-1.09,15.09,0,.54.2,1.03.57,1.45.31.36.65.81.37,1.26-1.74,2.78-1.07,5.89-1.19,8.86-.24,5.76-.26,11.52-.36,17.28-.08,4.61-.31,9.26-.06,13.81.25,4.55-1.29,9.08.2,13.7.69-.97.9-2.05.91-3.18.05-3.38.52-6.73.72-10.1.18-3.09.92-6.08,1.28-9.13.3-2.56.56-5.11.95-7.66.59-3.97,1.23-7.94,1.5-11.93.4-5.74,1.93-11.3,2.46-17.02.22-2.36,1.11-4.75,1.17-7.15.12-4.7,1.74-9.08,2.45-13.63.65-4.15.97-8.48,2.42-12.32,1.4-3.68,1.76-7.54,3.13-11.22,1.54-4.16,2.46-8.58,3.98-12.79.32-.9.43-1.96,1.44-2.51.09,6-1.71,11.6-3.22,17.26-1.64,6.17-3.57,12.27-4.4,18.63-.18,1.37-.28,2.78-.61,4.09-1.33,5.23-.47,10.49-.42,15.74.05,4.67.08,9.34.39,13.99.24,3.46.82,6.92,1.42,10.34.85,4.79,1.41,9.64,2.64,14.36.5,1.94,1.2,3.79,1.99,5.64.6,1.41.78,3,1.17,4.49.49,1.88,1.47,3.4,2.44,4.94.97,1.53,2.55,2.39,2.29,4.87-.24,2.2,1.04,4.55,2.86,6.3,1.42,1.36,1.41,3.72,3.3,4.86.56.34-.02.91-.36,1.33-.57.72-1.13.29-1.54-.06-1.47-1.27-2.55-2.87-3.57-4.49-.81-1.29-1.55-2.63-2.39-3.9-2.42-3.68-3.81-7.82-5.3-11.91-2.14-5.88-3.66-11.92-4.84-18.08-.89-4.66-1.52-9.35-2.21-14.02-.37-2.49-.71-5.09-.42-7.68.12-1.03.04-2.06-.89-3.44Zm-11.75-22.38c-4.43,4.85-5.31,12.52-1.85,16.16,1.51-5.26,1.29-10.61,1.85-16.16Z"/><path class="cls-1" d="m75.75,267.46c1.19.19,2.3-.38,3.47-.58.46-.08.95-.28,1.37-.18.71.17,1.87-.04,1.93.96.06.91-.84,1.57-1.7,1.67-1.71.18-3.42.53-5.16.28-.91-.13-1.84-.2-2.76-.27-3.45-.26-6.3-1.69-9.05-3.82-2.01-1.55-4.05-3.05-5.91-4.79-1.1-1.03-1.5-2.26-1.43-3.72.46-9.19,2-18.28,2.83-27.43.32-3.55,1.51-6.97,1.28-10.58-.11-1.68-.02-3.38,0-5.07,0-.32.01-.69.16-.96,1.7-3.11.92-6.22-.1-9.26-.41-1.2-1.71-1.85-2.83-2.2-3.53-1.13-6.23-3.36-8.57-6.08-.44-.51-1.33-1.36-.61-2.02.64-.59,1.71.14,2.06.65,1.04,1.51,2.47,2.52,3.86,3.6,1.1.85,2.06,2.1,3.77,1.21.41-.22.9.18,1.22.51,2.07,2.1,4.87,2.55,7.51,3.37,3.79,1.18,7.61,1.97,11.61,2.2,3.94.23,7.61-.74,11.36-1.49.98-.19,1.95-.4,2.93-.57.89-.16,1.89-.23,2.09.89.2,1.13-.83,1.49-1.67,1.58-2.54.29-5.03.94-7.55,1.23-6.23.72-12.4.38-18.43-1.64-1.17-.39-2.4-1.03-3.74-.8.27,1.21.53,2.42.81,3.63.75,3.24,2.45,6.13,3.4,9.3.49,1.66.38,3.39.9,5.06.34,1.08-.21,1.59-1.47,1.06-2.44-1.04-2.55-.96-2.85,1.75-.47,4.31-.66,8.66-1.4,12.92-1,5.79-.94,11.68-2.08,17.45-.61,3.1.38,5.51,3.15,7.67,3.5,2.73,7.04,4.63,11.58,4.49Z"/><path class="cls-1" d="m29.07,81.58c.81-5.3,2.63-10.17,5.78-14.63,2.34-3.32,4.97-6.42,7.86-9.14,3.09-2.91,6.21-5.85,9.76-8.36,2.62-1.85,5.93-2.55,8.08-5.06.15-.18.64-.35.66-.33.72,1.17,1.67,2.29,1.98,3.57.16.65-1.35,1.33-2,1.19-2.47-.54-3.81,1.37-5.62,2.24-2.5,1.21-4.15,3.77-6.98,4.47-.52.13-.38.63-.58.95-1.09,1.75-2.47,3.1-4.48,3.82-.9.32-1.84,1.09-1.91,2.09-.13,2.01-1.65,3.06-2.63,4.5-.39.57-.89.4-1.29.63-.53.3-1.34.75-.99,1.51.46,1.01-.21,1.87-.59,2.3-2.04,2.28-2.41,5.51-4.6,7.73-.58.59-.92,1.84-1.22,2.83-.16.53.11,1.4-.75,1.25-.83-.14-.46-.92-.49-1.54Z"/><path class="cls-1" d="m71.04,154.07c-1.82-.02-4.22-2.17-4.86-3.63-.93-2.14-.98-4.43-.95-6.59.03-1.91-.08-3.83-.23-5.7-.5-6.2.2-12.37.22-18.55.01-4.62.37-9.34,1.15-13.97.56-3.35,1.16-6.68,2.21-9.91.3-.94.79-1.82,1.23-2.71.2-.41.6-.57,1-.36.34.18.27.58.14.89-2.8,6.64-2.24,13.79-3.21,20.71-.58,4.18.15,8.38-.17,12.58-.27,3.59-.2,7.22-.04,10.82.18,4.24.47,8.48,1.22,12.67.33,1.85,1.41,2.46,3.27,2.03.83-.19,1.68-.32,2.51-.51.49-.11,1.11-.54,1.31.24.12.45-.41.85-.84.98-1.39.41-2.81.73-3.97,1.03Z"/><path class="cls-1" d="m120.39,4.31c-.38.61-.84.24-1.25.17-7.09-1.17-14.23-2.18-21.4-2.12-7.42.07-14.74,1.33-22,2.95-5.58,1.25-10.87,3.24-16.03,5.55-3.47,1.55-6.87,3.37-9.74,5.99-.34.31-.7.61-1.07.89-.48.36-1.06.44-1.46.02-.48-.52.37-.74.42-1.12.2-1.5,1.59-1.96,2.52-2.54,2.1-1.29,3.83-3.37,6-4.13,2.94-1.03,5.67-2.56,8.7-3.41,2.32-.64,4.39-2.2,6.8-2.63,3.66-.65,7.17-2.11,11.04-1.79,1.27.1,2.8-.16,4.07-.62,2.57-.94,5.27-.28,7.77-.85,1.16-.26,2.69.98,3.57-.67.03-.06.61.09.88.25.84.5,1.53,1.32,2.58.13.54-.62.88.75,1.67.61,1.14-.2,2.35.18,3.45.14,2.62-.12,5.02.96,7.61.97,2.11,0,4.04,1.09,5.87,2.2Z"/><path class="cls-1" d="m38.47,28.78c-1.51,2.33-3.05,4.53-4.97,6.5-3.78,3.86-6.15,8.64-8.19,13.58-1.84,4.45-3.65,8.91-5.09,13.51-.25.81-.51,1.62-.81,2.41-.36.94-.9.89-1.85.59-1.21-.38-.54-1.04-.45-1.54.41-2.19,1.54-4.23,2.02-6.28.6-2.57,1.61-4.79,2.75-7.06,1.42-2.84,1.8-6.16,3.68-8.77,2.91-4.04,5.7-8.2,9.21-11.75.8-.8,1.91-2.5,3.71-1.18Z"/><path class="cls-1" d="m88.6,98.81c2.05,1.14,4.32.69,6.14,1.31,2.38.81,4.81-.9,6.96.69.31.23.59-.17.89-.27,1.74-.57,3.43-1.4,5.34-.31.26.15,1.35.48,1.96-.19,1.6-1.77,3.84-1.64,5.91-1.74,1.41-.07,1.6,1.57,2.09,2.47.37.68-.88,1.03-1.54,1.16-5.73,1.15-11.46,2.18-17.38,1.7-1.83-.15-3.69.1-5.52-.3-2.4-.52-4.41-1.44-4.85-4.51Z"/><path class="cls-1" d="m43.59,104.8c-4.25-.19-7.7-1.03-10.84-3-.56-.35-.93-.71-.79-1.42.17-.9.81-.39,1.26-.44.26-.03.63-.18.76-.06,2.26,1.95,5.1,1.55,7.69,1.67,2.95.14,5.98.21,8.85-.86.74-.28,1.43-.56,2.22.07.63.5,1.5.9,1.39,1.75-.09.68-1.04.62-1.62.81-3.08,1.01-6.26,1.45-8.92,1.49Z"/><path class="cls-1" d="m54.61,76.05c-4.32.04-8.69-.24-12.49,2.51-1.28.93-3.07.92-4.05,2.54-.36.6-1.86.61-2.45-.13-.47-.59-.61-1.37.42-2.24,2.4-2.04,5.22-3.42,8.02-4.42,3.31-1.18,6.96-1.55,10.59-.99,1.23.19,1.45,1.16,1.5,1.97.04.74-.8.93-1.54.76Z"/><path class="cls-1" d="m101.95,72.3c2.6-.41,5.27.65,8.01,1.16.51.09,1.24.23,1.49.86.21.54.74,1.12.42,1.67-.36.62-1.08.29-1.63.15-3.23-.86-6.33-1.34-9.83-.68-2.97.56-5.83.9-8.4,2.59-.53.35-1.52-.22-1.79.88-.06.23-.54.01-.57-.24-.11-1-.12-2.34.64-2.78,3.51-2.03,7.21-3.6,11.66-3.6Z"/><path class="cls-1" d="m98.08,197.55c2.72-1.7,5.15-3.33,7.56-5,1.46-1.01,2.74-2.07,3.82-3.47.87-1.13,2.21-1.01,3.22-.26,1.2.89.12,1.72-.39,2.52-.73,1.14-1.73,1.99-2.87,2.69-1.85,1.14-3.75,2.21-5.51,3.48-1.92,1.39-3.73,1.27-5.82.03Z"/><path class="cls-1" d="m58.45,173.25c2.24-.12,4,.7,5.84,1.03,3.81.67,7.63.66,11.48.45,1.17-.07,3.1-.42,3.13,1.12.02,1.08-1.87.49-2.91.54-4.31.23-8.6,0-12.83-.85-1.64-.33-3.37-.59-4.71-2.29Z"/><path class="cls-1" d="m106,39.77c-2.3-.78-4.71-1.02-7.04-.91-1.49.07-2.91-.85-4.41-.14-.63.3-1.42.16-1.55-.69-.09-.66.6-.58,1.03-.57,3.96.09,7.87.64,11.73,1.52.19.04.37.13.55.2-.1.2-.21.4-.31.6Z"/><path class="cls-1" d="m119.63,44.68c3.9,1.97,6.97,4.87,9.38,8.49-3.13-2.83-6.09-5.84-9.38-8.49Z"/><path class="cls-1" d="m70.19,42.59c-.4-1.97.89-2.27,2.08-2.57.82-.21,1.67-.27,2.5-.41.52-.08,1.29-.65,1.46.2.15.74-.81.73-1.32.88-1.57.43-3.13.87-4.72,1.91Z"/><path class="cls-1" d="m63.64,45.41c-.49-.11-.62-.41-.52-.88.28-1.41,1.52-1.91,2.55-2.55.33-.2.86.22.84.82-.01.36-2.52,2.65-2.86,2.61Z"/><path class="cls-1" d="m82.53,38.53c-1.5,1.39-3.2,1.07-4.6,1.65-.36.15-.82.32-.92-.26-.08-.43.28-.83.64-.87,1.51-.16,2.97-.89,4.88-.52Z"/><path class="cls-1" d="m115.51,42.38c-1.48-.03-2.71-.79-4-1.38.05-.17.1-.35.15-.52,1.33.46,2.67.93,4,1.39-.05.17-.11.34-.16.51Z"/><path class="cls-1" d="m92.11,37.96c-.6.22-1.21.43-1.81.67-.62.24-1.11.08-1.2-.57-.08-.61.5-.75.95-.74.69.01,1.38.14,2.07.22l-.02.43Z"/></g></svg>